G04 EAGLE Gerber RS-274X export*
G75*
%MOMM*%
%FSLAX34Y34*%
%LPD*%
%IN*%
%IPPOS*%
%AMOC8*
5,1,8,0,0,1.08239X$1,22.5*%
G01*
%ADD10C,0.254000*%


D10*
X0Y0D02*
X482600Y0D01*
X482600Y990600D01*
X0Y990600D01*
X0Y0D01*
X149352Y939276D02*
X149283Y938231D01*
X149147Y937192D01*
X148942Y936164D01*
X148671Y935152D01*
X148334Y934160D01*
X147933Y933192D01*
X147470Y932253D01*
X146946Y931345D01*
X146364Y930474D01*
X145726Y929643D01*
X145036Y928855D01*
X144295Y928114D01*
X143507Y927424D01*
X142676Y926786D01*
X141805Y926204D01*
X140897Y925680D01*
X139958Y925217D01*
X138990Y924816D01*
X137998Y924479D01*
X136986Y924208D01*
X135958Y924003D01*
X134919Y923867D01*
X133874Y923798D01*
X132826Y923798D01*
X131781Y923867D01*
X130742Y924003D01*
X129714Y924208D01*
X128702Y924479D01*
X127710Y924816D01*
X126742Y925217D01*
X125803Y925680D01*
X124895Y926204D01*
X124024Y926786D01*
X123193Y927424D01*
X122405Y928114D01*
X121664Y928855D01*
X120974Y929643D01*
X120336Y930474D01*
X119754Y931345D01*
X119230Y932253D01*
X118767Y933192D01*
X118366Y934160D01*
X118029Y935152D01*
X117758Y936164D01*
X117553Y937192D01*
X117417Y938231D01*
X117348Y939276D01*
X117348Y940324D01*
X117417Y941369D01*
X117553Y942408D01*
X117758Y943436D01*
X118029Y944448D01*
X118366Y945440D01*
X118767Y946408D01*
X119230Y947347D01*
X119754Y948255D01*
X120336Y949126D01*
X120974Y949957D01*
X121664Y950745D01*
X122405Y951486D01*
X123193Y952176D01*
X124024Y952814D01*
X124895Y953396D01*
X125803Y953920D01*
X126742Y954383D01*
X127710Y954784D01*
X128702Y955121D01*
X129714Y955392D01*
X130742Y955597D01*
X131781Y955733D01*
X132826Y955802D01*
X133874Y955802D01*
X134919Y955733D01*
X135958Y955597D01*
X136986Y955392D01*
X137998Y955121D01*
X138990Y954784D01*
X139958Y954383D01*
X140897Y953920D01*
X141805Y953396D01*
X142676Y952814D01*
X143507Y952176D01*
X144295Y951486D01*
X145036Y950745D01*
X145726Y949957D01*
X146364Y949126D01*
X146946Y948255D01*
X147470Y947347D01*
X147933Y946408D01*
X148334Y945440D01*
X148671Y944448D01*
X148942Y943436D01*
X149147Y942408D01*
X149283Y941369D01*
X149352Y940324D01*
X149352Y939276D01*
M02*
