M48
;GenerationSoftware,Autodesk,EAGLE,9.6.2*%
;CreationDate,2022-05-04T20:48:53Z*%
FMAT,2
ICI,OFF
METRIC,TZ,000.000
T6C0.350
T5C0.700
T4C0.813
T3C0.914
T2C1.016
T1C3.200
%
G90
M71
T1
X13335Y93980
T2
X45720Y93345
X45720Y90805
X45720Y88265
X45720Y85725
X45720Y83185
X2540Y25400
X2540Y22860
X2540Y20320
X2540Y17780
X2540Y15240
X2540Y12700
T3
X19050Y4445
X19050Y6985
X21590Y4445
X21590Y6985
X24130Y4445
X24130Y6985
X26670Y4445
X26670Y6985
X29210Y4445
X29210Y6985
T4
X9525Y5715
X9525Y67945
X6985Y5715
X41275Y5715
X38735Y5715
X27940Y15875
X27940Y18415
X20320Y18415
X20320Y15875
X27940Y20955
X27940Y23495
X20320Y20955
X20320Y23495
X31750Y15875
X34290Y15875
X17145Y18415
X17145Y13335
X8890Y24130
X16510Y24130
X38735Y58420
X31115Y58420
X15240Y21590
X10160Y21590
X44450Y24130
X46355Y25400
X44450Y26670
X38100Y26670
X36195Y25400
X38100Y24130
X37465Y10795
X37465Y18415
X44450Y12065
X44450Y17145
X44450Y14605
X40005Y10795
X40005Y18415
X27940Y29210
X27940Y31750
X27940Y44450
X20320Y44450
X27940Y34290
X27940Y36830
X27940Y41910
X27940Y39370
X20320Y41910
X20320Y39370
X20320Y36830
X20320Y34290
X20320Y31750
X20320Y29210
X41275Y29210
X41275Y21590
X38735Y39370
X31115Y39370
X32385Y23495
X32385Y28575
X31115Y41910
X38735Y41910
X44450Y60325
X44450Y65405
X44450Y62865
X31115Y45720
X38735Y45720
X46355Y42545
X45085Y44450
X43815Y42545
X46355Y37465
X45085Y39370
X43815Y37465
X16510Y41910
X8890Y41910
X16510Y39370
X8890Y39370
X40640Y43815
X40640Y36195
X44450Y48895
X44450Y53975
X44450Y51435
X31115Y48260
X38735Y48260
X31115Y34290
X38735Y34290
X31115Y31750
X38735Y31750
X8890Y44450
X16510Y44450
X27940Y81915
X27940Y84455
X27940Y97155
X20320Y97155
X27940Y86995
X27940Y89535
X27940Y94615
X27940Y92075
X20320Y94615
X20320Y92075
X20320Y89535
X20320Y86995
X20320Y84455
X20320Y81915
X38735Y86995
X31115Y86995
X9525Y78105
X17145Y78105
X17145Y75565
X9525Y75565
X17145Y70485
X9525Y70485
X17145Y67945
X21590Y64770
X8890Y50800
X16510Y50800
X9525Y73025
X17145Y73025
X31115Y73025
X38735Y73025
X31115Y67945
X38735Y67945
X31115Y65405
X38735Y65405
X38735Y70485
X31115Y70485
X38735Y75565
X31115Y75565
X38735Y20955
X31115Y20955
X31115Y84455
X38735Y84455
X8890Y31750
X8890Y29210
X16510Y29210
X16510Y26670
X8890Y26670
X6985Y13970
X14605Y13970
X12065Y17145
X44450Y71755
X44450Y76835
X44450Y74295
X31115Y62865
X38735Y62865
X31115Y53340
X38735Y53340
X38735Y50800
X31115Y50800
X38735Y55880
X31115Y55880
X8890Y55880
X16510Y55880
X8890Y58420
X16510Y58420
X8890Y53340
X16510Y53340
X17145Y65405
X9525Y65405
X36195Y36830
X31115Y36830
X10160Y36830
X15240Y36830
X21590Y61595
X26670Y61595
X26670Y47625
X21590Y47625
X13970Y81915
X16510Y81915
X26670Y64770
X26670Y78740
X21590Y78740
X16510Y34290
X8890Y34290
X16510Y31750
X9525Y17145
X14605Y17145
X13970Y61595
X12700Y63500
X11430Y61595
T5
X20320Y73025
X20320Y70485
X20320Y67945
X20320Y75565
X27940Y75565
X27940Y73025
X27940Y70485
X27940Y67945
X20320Y50800
X20320Y53340
X20320Y55880
X20320Y58420
X27940Y58420
X27940Y55880
X27940Y53340
X27940Y50800
T6
X23495Y67945
X23495Y50800
X23495Y19685
X29845Y22225
X36830Y28575
X41275Y45720
X12700Y43180
X23495Y40640
X23495Y80645
X23495Y37465
X18415Y57150
X24765Y90805
X24765Y13335
X24765Y49530
X24765Y58420
X24765Y75565
X24765Y36195
X36195Y20955
X19050Y48260
X20955Y26035
X36195Y79375
X36830Y43815
X40005Y52070
X22225Y88265
X13970Y53340
X3810Y74930
M30