G04 EAGLE Gerber RS-274X export*
G75*
%MOMM*%
%FSLAX34Y34*%
%LPD*%
%INTop Copper*%
%IPPOS*%
%AMOC8*
5,1,8,0,0,1.08239X$1,22.5*%
G01*
%ADD10P,1.429621X8X202.500000*%
%ADD11P,1.429621X8X292.500000*%
%ADD12P,1.429621X8X112.500000*%
%ADD13C,1.650000*%
%ADD14R,1.676400X1.676400*%
%ADD15P,1.814519X8X292.500000*%
%ADD16R,3.116000X3.116000*%
%ADD17P,1.429621X8X22.500000*%
%ADD18C,1.524000*%
%ADD19C,1.208000*%
%ADD20C,0.406400*%
%ADD21C,0.756400*%

G36*
X470426Y10163D02*
X470426Y10163D01*
X470444Y10161D01*
X470626Y10182D01*
X470809Y10201D01*
X470826Y10206D01*
X470843Y10208D01*
X471018Y10265D01*
X471194Y10319D01*
X471209Y10327D01*
X471226Y10333D01*
X471386Y10423D01*
X471548Y10511D01*
X471561Y10522D01*
X471577Y10531D01*
X471716Y10651D01*
X471857Y10768D01*
X471868Y10782D01*
X471882Y10794D01*
X471994Y10939D01*
X472109Y11082D01*
X472117Y11098D01*
X472128Y11112D01*
X472210Y11277D01*
X472295Y11439D01*
X472300Y11456D01*
X472308Y11472D01*
X472355Y11651D01*
X472406Y11826D01*
X472408Y11844D01*
X472412Y11861D01*
X472439Y12192D01*
X472439Y116164D01*
X472430Y116257D01*
X472431Y116350D01*
X472410Y116457D01*
X472399Y116564D01*
X472372Y116654D01*
X472354Y116745D01*
X472313Y116846D01*
X472281Y116949D01*
X472237Y117031D01*
X472201Y117118D01*
X472141Y117208D01*
X472089Y117303D01*
X472030Y117375D01*
X471978Y117453D01*
X471901Y117529D01*
X471832Y117613D01*
X471759Y117671D01*
X471693Y117737D01*
X471602Y117797D01*
X471518Y117865D01*
X471435Y117908D01*
X471358Y117960D01*
X471257Y118001D01*
X471161Y118051D01*
X471071Y118076D01*
X470985Y118112D01*
X470878Y118132D01*
X470774Y118162D01*
X470681Y118170D01*
X470589Y118187D01*
X470481Y118186D01*
X470372Y118195D01*
X470280Y118184D01*
X470187Y118183D01*
X470080Y118161D01*
X469973Y118148D01*
X469884Y118119D01*
X469793Y118100D01*
X469669Y118049D01*
X469590Y118023D01*
X469547Y117999D01*
X469486Y117974D01*
X468720Y117584D01*
X467199Y117089D01*
X465620Y116839D01*
X459739Y116839D01*
X459739Y126492D01*
X459737Y126510D01*
X459739Y126527D01*
X459718Y126710D01*
X459699Y126892D01*
X459694Y126909D01*
X459692Y126927D01*
X459667Y127005D01*
X459706Y127142D01*
X459708Y127160D01*
X459712Y127177D01*
X459739Y127508D01*
X459739Y137161D01*
X465620Y137161D01*
X467199Y136911D01*
X468720Y136416D01*
X469486Y136026D01*
X469573Y135992D01*
X469655Y135949D01*
X469760Y135919D01*
X469861Y135880D01*
X469953Y135864D01*
X470042Y135838D01*
X470151Y135829D01*
X470257Y135810D01*
X470351Y135813D01*
X470444Y135805D01*
X470551Y135818D01*
X470660Y135821D01*
X470751Y135841D01*
X470843Y135852D01*
X470947Y135886D01*
X471053Y135910D01*
X471138Y135948D01*
X471226Y135977D01*
X471321Y136030D01*
X471420Y136075D01*
X471496Y136129D01*
X471577Y136175D01*
X471659Y136246D01*
X471747Y136309D01*
X471811Y136377D01*
X471882Y136438D01*
X471948Y136524D01*
X472022Y136603D01*
X472071Y136683D01*
X472128Y136756D01*
X472177Y136853D01*
X472234Y136946D01*
X472266Y137033D01*
X472308Y137117D01*
X472336Y137222D01*
X472373Y137323D01*
X472388Y137415D01*
X472412Y137505D01*
X472423Y137639D01*
X472436Y137721D01*
X472434Y137771D01*
X472439Y137836D01*
X472439Y142618D01*
X472438Y142631D01*
X472439Y142644D01*
X472418Y142831D01*
X472399Y143018D01*
X472395Y143031D01*
X472394Y143045D01*
X472336Y143223D01*
X472281Y143403D01*
X472275Y143415D01*
X472271Y143428D01*
X472179Y143592D01*
X472089Y143757D01*
X472081Y143768D01*
X472074Y143779D01*
X471952Y143922D01*
X471832Y144067D01*
X471821Y144075D01*
X471813Y144085D01*
X471664Y144201D01*
X471518Y144319D01*
X471506Y144325D01*
X471496Y144333D01*
X471327Y144418D01*
X471161Y144504D01*
X471148Y144508D01*
X471136Y144514D01*
X470954Y144564D01*
X470774Y144616D01*
X470760Y144617D01*
X470747Y144621D01*
X470559Y144633D01*
X470372Y144649D01*
X470359Y144647D01*
X470346Y144648D01*
X470158Y144624D01*
X469973Y144602D01*
X469960Y144598D01*
X469947Y144596D01*
X469631Y144494D01*
X466639Y143255D01*
X447761Y143255D01*
X444400Y144647D01*
X441827Y147220D01*
X440435Y150581D01*
X440435Y154219D01*
X441827Y157580D01*
X444400Y160153D01*
X447761Y161545D01*
X466639Y161545D01*
X469631Y160306D01*
X469644Y160302D01*
X469655Y160296D01*
X469836Y160244D01*
X470016Y160189D01*
X470029Y160188D01*
X470042Y160184D01*
X470230Y160169D01*
X470417Y160151D01*
X470430Y160152D01*
X470444Y160151D01*
X470631Y160173D01*
X470817Y160193D01*
X470830Y160197D01*
X470843Y160198D01*
X471023Y160257D01*
X471202Y160312D01*
X471213Y160319D01*
X471226Y160323D01*
X471391Y160416D01*
X471555Y160506D01*
X471565Y160514D01*
X471577Y160521D01*
X471719Y160644D01*
X471863Y160765D01*
X471871Y160775D01*
X471882Y160784D01*
X471997Y160933D01*
X472114Y161080D01*
X472120Y161092D01*
X472128Y161102D01*
X472212Y161271D01*
X472298Y161438D01*
X472302Y161451D01*
X472308Y161463D01*
X472357Y161646D01*
X472408Y161825D01*
X472409Y161838D01*
X472412Y161851D01*
X472439Y162182D01*
X472439Y168018D01*
X472438Y168031D01*
X472439Y168044D01*
X472418Y168231D01*
X472399Y168418D01*
X472395Y168431D01*
X472394Y168445D01*
X472336Y168623D01*
X472281Y168803D01*
X472275Y168815D01*
X472271Y168828D01*
X472179Y168992D01*
X472089Y169157D01*
X472081Y169168D01*
X472074Y169179D01*
X471952Y169323D01*
X471832Y169467D01*
X471821Y169475D01*
X471813Y169485D01*
X471664Y169601D01*
X471518Y169719D01*
X471506Y169725D01*
X471496Y169733D01*
X471327Y169818D01*
X471161Y169904D01*
X471148Y169908D01*
X471136Y169914D01*
X470954Y169964D01*
X470774Y170016D01*
X470760Y170017D01*
X470747Y170021D01*
X470559Y170033D01*
X470372Y170049D01*
X470359Y170047D01*
X470346Y170048D01*
X470158Y170024D01*
X469973Y170002D01*
X469960Y169998D01*
X469947Y169996D01*
X469631Y169894D01*
X466639Y168655D01*
X447761Y168655D01*
X444400Y170047D01*
X441827Y172620D01*
X440435Y175981D01*
X440435Y179619D01*
X441827Y182980D01*
X444400Y185553D01*
X447761Y186945D01*
X466639Y186945D01*
X469631Y185706D01*
X469644Y185702D01*
X469655Y185696D01*
X469836Y185644D01*
X470016Y185589D01*
X470029Y185588D01*
X470042Y185584D01*
X470230Y185569D01*
X470417Y185551D01*
X470430Y185552D01*
X470444Y185551D01*
X470631Y185573D01*
X470817Y185593D01*
X470830Y185597D01*
X470843Y185598D01*
X471023Y185657D01*
X471202Y185712D01*
X471213Y185719D01*
X471226Y185723D01*
X471391Y185816D01*
X471555Y185906D01*
X471565Y185914D01*
X471577Y185921D01*
X471719Y186044D01*
X471863Y186165D01*
X471871Y186175D01*
X471882Y186184D01*
X471997Y186333D01*
X472114Y186480D01*
X472120Y186492D01*
X472128Y186502D01*
X472212Y186671D01*
X472298Y186838D01*
X472302Y186851D01*
X472308Y186863D01*
X472357Y187046D01*
X472408Y187225D01*
X472409Y187238D01*
X472412Y187251D01*
X472439Y187582D01*
X472439Y193418D01*
X472438Y193431D01*
X472439Y193444D01*
X472418Y193631D01*
X472399Y193818D01*
X472395Y193831D01*
X472394Y193845D01*
X472336Y194023D01*
X472281Y194203D01*
X472275Y194215D01*
X472271Y194228D01*
X472179Y194392D01*
X472089Y194557D01*
X472081Y194568D01*
X472074Y194579D01*
X471952Y194723D01*
X471832Y194867D01*
X471821Y194875D01*
X471813Y194885D01*
X471664Y195001D01*
X471518Y195119D01*
X471506Y195125D01*
X471496Y195133D01*
X471327Y195218D01*
X471161Y195304D01*
X471148Y195308D01*
X471136Y195314D01*
X470954Y195364D01*
X470774Y195416D01*
X470760Y195417D01*
X470747Y195421D01*
X470559Y195433D01*
X470372Y195449D01*
X470359Y195447D01*
X470346Y195448D01*
X470158Y195424D01*
X469973Y195402D01*
X469960Y195398D01*
X469947Y195396D01*
X469631Y195294D01*
X468549Y194846D01*
X466639Y194055D01*
X447761Y194055D01*
X444400Y195447D01*
X441827Y198020D01*
X440435Y201381D01*
X440435Y205019D01*
X441827Y208380D01*
X444400Y210953D01*
X447761Y212345D01*
X466639Y212345D01*
X469631Y211106D01*
X469644Y211102D01*
X469655Y211096D01*
X469836Y211044D01*
X470016Y210989D01*
X470029Y210988D01*
X470042Y210984D01*
X470230Y210969D01*
X470417Y210951D01*
X470430Y210952D01*
X470444Y210951D01*
X470631Y210973D01*
X470817Y210993D01*
X470830Y210997D01*
X470843Y210998D01*
X471023Y211057D01*
X471202Y211112D01*
X471213Y211119D01*
X471226Y211123D01*
X471391Y211216D01*
X471555Y211306D01*
X471565Y211314D01*
X471577Y211321D01*
X471719Y211444D01*
X471863Y211565D01*
X471871Y211575D01*
X471882Y211584D01*
X471997Y211733D01*
X472114Y211880D01*
X472120Y211892D01*
X472128Y211902D01*
X472212Y212071D01*
X472298Y212238D01*
X472302Y212251D01*
X472308Y212263D01*
X472357Y212446D01*
X472408Y212625D01*
X472409Y212638D01*
X472412Y212651D01*
X472439Y212982D01*
X472439Y218818D01*
X472438Y218831D01*
X472439Y218844D01*
X472418Y219030D01*
X472399Y219218D01*
X472395Y219231D01*
X472394Y219245D01*
X472336Y219423D01*
X472281Y219603D01*
X472275Y219615D01*
X472271Y219628D01*
X472179Y219792D01*
X472089Y219957D01*
X472081Y219968D01*
X472074Y219979D01*
X471952Y220123D01*
X471832Y220267D01*
X471821Y220275D01*
X471813Y220285D01*
X471664Y220401D01*
X471518Y220519D01*
X471506Y220525D01*
X471496Y220533D01*
X471327Y220618D01*
X471161Y220704D01*
X471148Y220708D01*
X471136Y220714D01*
X470954Y220764D01*
X470774Y220816D01*
X470760Y220817D01*
X470747Y220821D01*
X470559Y220833D01*
X470372Y220849D01*
X470359Y220847D01*
X470346Y220848D01*
X470158Y220824D01*
X469973Y220802D01*
X469960Y220798D01*
X469947Y220796D01*
X469631Y220694D01*
X466639Y219455D01*
X447761Y219455D01*
X444400Y220847D01*
X441827Y223420D01*
X440435Y226781D01*
X440435Y230419D01*
X441827Y233780D01*
X444400Y236353D01*
X447761Y237745D01*
X466639Y237745D01*
X469631Y236506D01*
X469644Y236502D01*
X469655Y236496D01*
X469836Y236444D01*
X470016Y236389D01*
X470029Y236388D01*
X470042Y236384D01*
X470230Y236369D01*
X470417Y236351D01*
X470430Y236352D01*
X470444Y236351D01*
X470631Y236373D01*
X470817Y236393D01*
X470830Y236397D01*
X470843Y236398D01*
X471023Y236457D01*
X471202Y236512D01*
X471213Y236519D01*
X471226Y236523D01*
X471391Y236616D01*
X471555Y236706D01*
X471565Y236714D01*
X471577Y236721D01*
X471719Y236844D01*
X471863Y236965D01*
X471871Y236975D01*
X471882Y236984D01*
X471997Y237133D01*
X472114Y237280D01*
X472120Y237292D01*
X472128Y237302D01*
X472212Y237471D01*
X472298Y237638D01*
X472302Y237651D01*
X472308Y237663D01*
X472357Y237846D01*
X472408Y238025D01*
X472409Y238038D01*
X472412Y238051D01*
X472439Y238382D01*
X472439Y244218D01*
X472438Y244231D01*
X472439Y244244D01*
X472418Y244431D01*
X472399Y244618D01*
X472395Y244631D01*
X472394Y244645D01*
X472336Y244823D01*
X472281Y245003D01*
X472275Y245015D01*
X472271Y245028D01*
X472179Y245192D01*
X472089Y245357D01*
X472081Y245368D01*
X472074Y245379D01*
X471952Y245523D01*
X471832Y245667D01*
X471821Y245675D01*
X471813Y245685D01*
X471664Y245801D01*
X471518Y245919D01*
X471506Y245925D01*
X471496Y245933D01*
X471327Y246018D01*
X471161Y246104D01*
X471148Y246108D01*
X471136Y246114D01*
X470954Y246164D01*
X470774Y246216D01*
X470760Y246217D01*
X470747Y246221D01*
X470559Y246233D01*
X470372Y246249D01*
X470359Y246247D01*
X470346Y246248D01*
X470158Y246224D01*
X469973Y246202D01*
X469960Y246198D01*
X469947Y246196D01*
X469631Y246094D01*
X466639Y244855D01*
X447761Y244855D01*
X444344Y246271D01*
X444214Y246377D01*
X444198Y246386D01*
X444184Y246397D01*
X444020Y246480D01*
X443858Y246566D01*
X443841Y246571D01*
X443825Y246579D01*
X443648Y246629D01*
X443472Y246681D01*
X443454Y246682D01*
X443437Y246687D01*
X443254Y246701D01*
X443071Y246717D01*
X443053Y246715D01*
X443035Y246717D01*
X442853Y246694D01*
X442671Y246674D01*
X442654Y246668D01*
X442636Y246666D01*
X442462Y246608D01*
X442287Y246552D01*
X442271Y246544D01*
X442254Y246538D01*
X442095Y246446D01*
X441935Y246358D01*
X441921Y246346D01*
X441905Y246337D01*
X441652Y246122D01*
X435952Y240422D01*
X435935Y240401D01*
X435914Y240383D01*
X435807Y240246D01*
X435697Y240110D01*
X435684Y240087D01*
X435668Y240065D01*
X435590Y239908D01*
X435508Y239754D01*
X435500Y239729D01*
X435488Y239705D01*
X435443Y239535D01*
X435393Y239369D01*
X435391Y239342D01*
X435384Y239316D01*
X435357Y238985D01*
X435357Y36627D01*
X420573Y21843D01*
X397483Y21843D01*
X397460Y21841D01*
X397438Y21843D01*
X397260Y21821D01*
X397082Y21803D01*
X397061Y21797D01*
X397038Y21794D01*
X396868Y21738D01*
X396697Y21685D01*
X396677Y21675D01*
X396656Y21668D01*
X396500Y21579D01*
X396343Y21493D01*
X396326Y21479D01*
X396307Y21468D01*
X396171Y21350D01*
X396034Y21236D01*
X396020Y21218D01*
X396003Y21204D01*
X395894Y21062D01*
X395782Y20922D01*
X395771Y20902D01*
X395758Y20884D01*
X395652Y20678D01*
X392887Y17913D01*
X389294Y16425D01*
X385406Y16425D01*
X381813Y17913D01*
X379063Y20663D01*
X378208Y22727D01*
X378134Y22866D01*
X378065Y23009D01*
X378039Y23044D01*
X378018Y23082D01*
X377918Y23204D01*
X377822Y23330D01*
X377786Y23363D01*
X377762Y23392D01*
X377694Y23447D01*
X377577Y23554D01*
X377574Y23557D01*
X377547Y23637D01*
X377497Y23724D01*
X377455Y23816D01*
X377443Y23833D01*
X377443Y25049D01*
X377435Y25136D01*
X377427Y25303D01*
X377274Y26519D01*
X377312Y26595D01*
X377338Y26692D01*
X377373Y26786D01*
X377390Y26886D01*
X377416Y26984D01*
X377424Y27077D01*
X377424Y27078D01*
X377432Y27103D01*
X377444Y27127D01*
X377489Y27297D01*
X377539Y27463D01*
X377541Y27490D01*
X377548Y27516D01*
X377575Y27847D01*
X377575Y28144D01*
X379063Y31737D01*
X381813Y34487D01*
X385406Y35975D01*
X389294Y35975D01*
X392887Y34487D01*
X395637Y31737D01*
X396269Y30211D01*
X396279Y30191D01*
X396286Y30170D01*
X396374Y30014D01*
X396459Y29856D01*
X396473Y29839D01*
X396484Y29819D01*
X396601Y29684D01*
X396715Y29545D01*
X396733Y29531D01*
X396747Y29514D01*
X396889Y29405D01*
X397028Y29292D01*
X397048Y29281D01*
X397065Y29268D01*
X397226Y29188D01*
X397385Y29105D01*
X397406Y29098D01*
X397426Y29088D01*
X397600Y29042D01*
X397771Y28992D01*
X397793Y28990D01*
X397815Y28984D01*
X398145Y28957D01*
X416785Y28957D01*
X416812Y28959D01*
X416839Y28957D01*
X417013Y28979D01*
X417186Y28997D01*
X417211Y29004D01*
X417238Y29008D01*
X417404Y29063D01*
X417571Y29115D01*
X417594Y29128D01*
X417620Y29136D01*
X417771Y29223D01*
X417925Y29307D01*
X417945Y29324D01*
X417969Y29337D01*
X418222Y29552D01*
X427648Y38978D01*
X427665Y38999D01*
X427686Y39017D01*
X427793Y39154D01*
X427903Y39290D01*
X427916Y39313D01*
X427932Y39335D01*
X428010Y39492D01*
X428092Y39646D01*
X428100Y39671D01*
X428112Y39695D01*
X428157Y39865D01*
X428207Y40031D01*
X428209Y40058D01*
X428216Y40084D01*
X428243Y40415D01*
X428243Y150395D01*
X428243Y150399D01*
X428243Y150404D01*
X428223Y150594D01*
X428203Y150795D01*
X428202Y150800D01*
X428202Y150804D01*
X428144Y150989D01*
X428085Y151180D01*
X428083Y151184D01*
X428082Y151189D01*
X427986Y151363D01*
X427893Y151534D01*
X427891Y151538D01*
X427888Y151542D01*
X427760Y151695D01*
X427636Y151844D01*
X427632Y151846D01*
X427629Y151850D01*
X427475Y151973D01*
X427322Y152096D01*
X427318Y152098D01*
X427315Y152101D01*
X427141Y152190D01*
X426965Y152282D01*
X426960Y152283D01*
X426956Y152285D01*
X426769Y152338D01*
X426578Y152393D01*
X426573Y152393D01*
X426569Y152394D01*
X426480Y152401D01*
X426639Y152419D01*
X426643Y152421D01*
X426647Y152421D01*
X426833Y152482D01*
X427022Y152542D01*
X427026Y152545D01*
X427030Y152546D01*
X427203Y152643D01*
X427374Y152739D01*
X427377Y152742D01*
X427381Y152744D01*
X427530Y152872D01*
X427679Y153001D01*
X427682Y153004D01*
X427686Y153007D01*
X427806Y153162D01*
X427928Y153318D01*
X427930Y153322D01*
X427932Y153325D01*
X428021Y153503D01*
X428108Y153677D01*
X428110Y153682D01*
X428112Y153686D01*
X428163Y153878D01*
X428215Y154066D01*
X428215Y154070D01*
X428216Y154074D01*
X428243Y154405D01*
X428243Y242773D01*
X439840Y254370D01*
X439857Y254391D01*
X439878Y254409D01*
X439985Y254546D01*
X440095Y254682D01*
X440108Y254705D01*
X440124Y254727D01*
X440202Y254884D01*
X440284Y255038D01*
X440292Y255063D01*
X440304Y255087D01*
X440349Y255257D01*
X440399Y255423D01*
X440401Y255450D01*
X440408Y255476D01*
X440435Y255807D01*
X440435Y255819D01*
X441827Y259180D01*
X444400Y261753D01*
X447761Y263145D01*
X466639Y263145D01*
X469631Y261906D01*
X469644Y261902D01*
X469655Y261896D01*
X469836Y261844D01*
X470016Y261789D01*
X470029Y261788D01*
X470042Y261784D01*
X470230Y261769D01*
X470417Y261751D01*
X470430Y261752D01*
X470444Y261751D01*
X470631Y261773D01*
X470817Y261793D01*
X470830Y261797D01*
X470843Y261798D01*
X471023Y261857D01*
X471202Y261912D01*
X471213Y261919D01*
X471226Y261923D01*
X471391Y262016D01*
X471555Y262106D01*
X471565Y262114D01*
X471577Y262121D01*
X471719Y262244D01*
X471863Y262365D01*
X471871Y262375D01*
X471882Y262384D01*
X471997Y262533D01*
X472114Y262680D01*
X472120Y262692D01*
X472128Y262702D01*
X472212Y262871D01*
X472298Y263038D01*
X472302Y263051D01*
X472308Y263063D01*
X472357Y263246D01*
X472408Y263425D01*
X472409Y263438D01*
X472412Y263451D01*
X472439Y263782D01*
X472439Y670503D01*
X472438Y670512D01*
X472439Y670521D01*
X472418Y670712D01*
X472399Y670903D01*
X472397Y670912D01*
X472396Y670921D01*
X472338Y671103D01*
X472281Y671288D01*
X472277Y671296D01*
X472274Y671305D01*
X472181Y671473D01*
X472089Y671642D01*
X472084Y671649D01*
X472079Y671657D01*
X471954Y671805D01*
X471832Y671952D01*
X471825Y671957D01*
X471819Y671964D01*
X471667Y672084D01*
X471518Y672204D01*
X471510Y672208D01*
X471503Y672214D01*
X471331Y672301D01*
X471161Y672389D01*
X471152Y672392D01*
X471144Y672396D01*
X470958Y672448D01*
X470774Y672501D01*
X470765Y672502D01*
X470756Y672504D01*
X470564Y672518D01*
X470372Y672534D01*
X470364Y672533D01*
X470355Y672533D01*
X470162Y672509D01*
X469973Y672487D01*
X469964Y672484D01*
X469955Y672483D01*
X469772Y672422D01*
X469590Y672362D01*
X469582Y672358D01*
X469574Y672355D01*
X469408Y672259D01*
X469239Y672164D01*
X469232Y672158D01*
X469225Y672154D01*
X468972Y671939D01*
X467338Y670305D01*
X465581Y670305D01*
X465581Y679450D01*
X465581Y688595D01*
X467338Y688595D01*
X468972Y686961D01*
X468979Y686955D01*
X468984Y686948D01*
X469134Y686828D01*
X469283Y686706D01*
X469291Y686702D01*
X469298Y686696D01*
X469468Y686608D01*
X469639Y686517D01*
X469648Y686515D01*
X469655Y686511D01*
X469840Y686457D01*
X470025Y686402D01*
X470034Y686402D01*
X470042Y686399D01*
X470233Y686383D01*
X470426Y686366D01*
X470435Y686367D01*
X470444Y686366D01*
X470633Y686388D01*
X470826Y686409D01*
X470835Y686412D01*
X470843Y686413D01*
X471025Y686473D01*
X471210Y686531D01*
X471218Y686535D01*
X471226Y686538D01*
X471395Y686633D01*
X471562Y686726D01*
X471569Y686731D01*
X471577Y686736D01*
X471723Y686862D01*
X471869Y686986D01*
X471875Y686993D01*
X471882Y686999D01*
X471999Y687150D01*
X472119Y687302D01*
X472123Y687310D01*
X472128Y687317D01*
X472214Y687489D01*
X472301Y687661D01*
X472304Y687670D01*
X472308Y687678D01*
X472358Y687864D01*
X472409Y688049D01*
X472410Y688058D01*
X472412Y688066D01*
X472439Y688397D01*
X472439Y837155D01*
X472438Y837164D01*
X472439Y837173D01*
X472418Y837367D01*
X472399Y837556D01*
X472397Y837564D01*
X472396Y837573D01*
X472337Y837758D01*
X472281Y837941D01*
X472277Y837949D01*
X472274Y837957D01*
X472181Y838126D01*
X472089Y838295D01*
X472084Y838302D01*
X472079Y838310D01*
X471955Y838457D01*
X471832Y838604D01*
X471825Y838610D01*
X471819Y838617D01*
X471667Y838736D01*
X471518Y838857D01*
X471510Y838861D01*
X471503Y838866D01*
X471330Y838954D01*
X471161Y839042D01*
X471152Y839045D01*
X471144Y839049D01*
X470958Y839101D01*
X470774Y839153D01*
X470765Y839154D01*
X470756Y839157D01*
X470563Y839171D01*
X470372Y839186D01*
X470364Y839185D01*
X470355Y839186D01*
X470162Y839162D01*
X469973Y839139D01*
X469964Y839137D01*
X469955Y839136D01*
X469772Y839074D01*
X469590Y839015D01*
X469582Y839010D01*
X469574Y839007D01*
X469407Y838911D01*
X469239Y838817D01*
X469232Y838811D01*
X469225Y838806D01*
X468972Y838592D01*
X452323Y821943D01*
X441321Y821943D01*
X441312Y821942D01*
X441303Y821943D01*
X441112Y821922D01*
X440920Y821903D01*
X440912Y821901D01*
X440903Y821900D01*
X440719Y821842D01*
X440535Y821785D01*
X440528Y821781D01*
X440519Y821778D01*
X440350Y821685D01*
X440181Y821593D01*
X440175Y821588D01*
X440167Y821583D01*
X440019Y821458D01*
X439872Y821336D01*
X439867Y821329D01*
X439860Y821323D01*
X439740Y821171D01*
X439620Y821022D01*
X439616Y821014D01*
X439610Y821007D01*
X439523Y820835D01*
X439434Y820665D01*
X439432Y820656D01*
X439428Y820648D01*
X439376Y820464D01*
X439323Y820278D01*
X439322Y820269D01*
X439320Y820260D01*
X439306Y820069D01*
X439290Y819876D01*
X439291Y819868D01*
X439290Y819859D01*
X439315Y819666D01*
X439337Y819477D01*
X439340Y819468D01*
X439341Y819459D01*
X439402Y819276D01*
X439462Y819094D01*
X439466Y819086D01*
X439469Y819077D01*
X439565Y818911D01*
X439660Y818743D01*
X439666Y818736D01*
X439670Y818729D01*
X439885Y818476D01*
X440031Y818330D01*
X441029Y816956D01*
X441800Y815442D01*
X442253Y814049D01*
X432518Y814049D01*
X432500Y814047D01*
X432483Y814049D01*
X432300Y814028D01*
X432118Y814009D01*
X432101Y814004D01*
X432083Y814002D01*
X431908Y813945D01*
X431808Y813914D01*
X431801Y813918D01*
X431623Y813965D01*
X431448Y814016D01*
X431430Y814018D01*
X431413Y814022D01*
X431082Y814049D01*
X421347Y814049D01*
X421800Y815442D01*
X422571Y816956D01*
X423569Y818330D01*
X423715Y818476D01*
X423721Y818483D01*
X423728Y818488D01*
X423848Y818638D01*
X423970Y818787D01*
X423975Y818795D01*
X423980Y818802D01*
X424068Y818972D01*
X424159Y819143D01*
X424162Y819151D01*
X424166Y819159D01*
X424219Y819344D01*
X424274Y819529D01*
X424275Y819538D01*
X424277Y819546D01*
X424293Y819738D01*
X424310Y819930D01*
X424309Y819939D01*
X424310Y819948D01*
X424288Y820138D01*
X424267Y820330D01*
X424264Y820338D01*
X424263Y820347D01*
X424203Y820531D01*
X424145Y820714D01*
X424141Y820722D01*
X424138Y820730D01*
X424043Y820899D01*
X423951Y821066D01*
X423945Y821073D01*
X423940Y821081D01*
X423813Y821228D01*
X423690Y821373D01*
X423683Y821379D01*
X423677Y821386D01*
X423525Y821504D01*
X423374Y821623D01*
X423366Y821627D01*
X423359Y821632D01*
X423186Y821718D01*
X423015Y821805D01*
X423007Y821808D01*
X422999Y821812D01*
X422811Y821862D01*
X422627Y821913D01*
X422618Y821914D01*
X422610Y821916D01*
X422279Y821943D01*
X417627Y821943D01*
X405522Y834048D01*
X405501Y834065D01*
X405483Y834086D01*
X405346Y834193D01*
X405210Y834303D01*
X405187Y834316D01*
X405165Y834332D01*
X405008Y834410D01*
X404854Y834492D01*
X404829Y834500D01*
X404805Y834512D01*
X404635Y834557D01*
X404469Y834607D01*
X404442Y834609D01*
X404416Y834616D01*
X404085Y834643D01*
X275480Y834643D01*
X275454Y834641D01*
X275427Y834643D01*
X275253Y834621D01*
X275080Y834603D01*
X275054Y834596D01*
X275028Y834592D01*
X274862Y834536D01*
X274695Y834485D01*
X274671Y834473D01*
X274646Y834464D01*
X274494Y834377D01*
X274341Y834293D01*
X274320Y834276D01*
X274297Y834263D01*
X274044Y834048D01*
X272520Y832524D01*
X272514Y832517D01*
X272508Y832512D01*
X272386Y832361D01*
X272265Y832213D01*
X272261Y832205D01*
X272255Y832198D01*
X272167Y832028D01*
X272076Y831857D01*
X272074Y831848D01*
X272070Y831841D01*
X272017Y831656D01*
X271962Y831471D01*
X271961Y831462D01*
X271958Y831454D01*
X271943Y831263D01*
X271925Y831070D01*
X271926Y831061D01*
X271925Y831052D01*
X271948Y830863D01*
X271969Y830670D01*
X271971Y830661D01*
X271972Y830653D01*
X272032Y830471D01*
X272090Y830286D01*
X272094Y830278D01*
X272097Y830270D01*
X272191Y830103D01*
X272285Y829934D01*
X272291Y829927D01*
X272295Y829919D01*
X272420Y829774D01*
X272545Y829627D01*
X272552Y829621D01*
X272558Y829614D01*
X272709Y829498D01*
X272861Y829377D01*
X272869Y829373D01*
X272876Y829368D01*
X273047Y829283D01*
X273220Y829195D01*
X273229Y829192D01*
X273237Y829188D01*
X273422Y829139D01*
X273608Y829087D01*
X273617Y829086D01*
X273626Y829084D01*
X273956Y829057D01*
X382473Y829057D01*
X435357Y776173D01*
X435357Y690677D01*
X420573Y675893D01*
X405638Y675893D01*
X405620Y675891D01*
X405602Y675893D01*
X405420Y675872D01*
X405237Y675853D01*
X405220Y675848D01*
X405203Y675846D01*
X405028Y675789D01*
X404852Y675735D01*
X404837Y675727D01*
X404820Y675721D01*
X404660Y675631D01*
X404498Y675543D01*
X404485Y675532D01*
X404469Y675523D01*
X404330Y675403D01*
X404189Y675286D01*
X404178Y675272D01*
X404164Y675260D01*
X404052Y675115D01*
X403937Y674972D01*
X403929Y674956D01*
X403918Y674942D01*
X403836Y674777D01*
X403751Y674615D01*
X403746Y674598D01*
X403738Y674582D01*
X403691Y674403D01*
X403640Y674228D01*
X403638Y674210D01*
X403634Y674193D01*
X403607Y673862D01*
X403607Y662830D01*
X403609Y662804D01*
X403607Y662777D01*
X403629Y662603D01*
X403647Y662430D01*
X403654Y662404D01*
X403658Y662378D01*
X403714Y662212D01*
X403765Y662045D01*
X403778Y662021D01*
X403786Y661996D01*
X403873Y661844D01*
X403957Y661691D01*
X403974Y661670D01*
X403987Y661647D01*
X404202Y661394D01*
X408179Y657417D01*
X408179Y650683D01*
X403417Y645921D01*
X396683Y645921D01*
X391921Y650683D01*
X391921Y657417D01*
X395898Y661394D01*
X395915Y661415D01*
X395936Y661432D01*
X396043Y661570D01*
X396153Y661706D01*
X396166Y661729D01*
X396182Y661750D01*
X396260Y661907D01*
X396342Y662061D01*
X396350Y662087D01*
X396362Y662111D01*
X396407Y662280D01*
X396457Y662447D01*
X396459Y662474D01*
X396466Y662500D01*
X396493Y662830D01*
X396493Y672194D01*
X396492Y672202D01*
X396493Y672211D01*
X396473Y672401D01*
X396453Y672594D01*
X396451Y672603D01*
X396450Y672612D01*
X396392Y672794D01*
X396335Y672979D01*
X396331Y672987D01*
X396328Y672996D01*
X396235Y673164D01*
X396143Y673333D01*
X396138Y673340D01*
X396133Y673348D01*
X396009Y673495D01*
X395886Y673642D01*
X395879Y673648D01*
X395873Y673655D01*
X395722Y673774D01*
X395572Y673895D01*
X395564Y673899D01*
X395557Y673904D01*
X395384Y673992D01*
X395215Y674080D01*
X395206Y674083D01*
X395198Y674087D01*
X395012Y674139D01*
X394828Y674192D01*
X394819Y674192D01*
X394810Y674195D01*
X394617Y674209D01*
X394426Y674225D01*
X394418Y674224D01*
X394409Y674224D01*
X394216Y674200D01*
X394027Y674178D01*
X394018Y674175D01*
X394009Y674174D01*
X393826Y674112D01*
X393644Y674053D01*
X393636Y674048D01*
X393628Y674046D01*
X393462Y673950D01*
X393293Y673855D01*
X393286Y673849D01*
X393279Y673845D01*
X393026Y673630D01*
X390717Y671321D01*
X383983Y671321D01*
X379221Y676083D01*
X379221Y682817D01*
X383983Y687579D01*
X390717Y687579D01*
X394694Y683602D01*
X394715Y683585D01*
X394732Y683564D01*
X394870Y683457D01*
X395006Y683347D01*
X395029Y683334D01*
X395050Y683318D01*
X395207Y683240D01*
X395361Y683158D01*
X395387Y683150D01*
X395411Y683138D01*
X395580Y683093D01*
X395747Y683043D01*
X395774Y683041D01*
X395800Y683034D01*
X396130Y683007D01*
X416785Y683007D01*
X416812Y683009D01*
X416839Y683007D01*
X417013Y683029D01*
X417186Y683047D01*
X417211Y683054D01*
X417238Y683058D01*
X417404Y683113D01*
X417571Y683165D01*
X417594Y683178D01*
X417620Y683186D01*
X417771Y683273D01*
X417925Y683357D01*
X417945Y683374D01*
X417969Y683387D01*
X418222Y683602D01*
X427648Y693028D01*
X427665Y693049D01*
X427686Y693067D01*
X427793Y693204D01*
X427903Y693340D01*
X427916Y693363D01*
X427932Y693385D01*
X428010Y693542D01*
X428092Y693696D01*
X428100Y693721D01*
X428112Y693745D01*
X428157Y693915D01*
X428207Y694081D01*
X428209Y694108D01*
X428216Y694134D01*
X428243Y694465D01*
X428243Y772385D01*
X428241Y772412D01*
X428243Y772439D01*
X428221Y772612D01*
X428203Y772786D01*
X428196Y772811D01*
X428192Y772838D01*
X428137Y773004D01*
X428085Y773171D01*
X428072Y773194D01*
X428064Y773220D01*
X427977Y773371D01*
X427893Y773525D01*
X427876Y773545D01*
X427863Y773569D01*
X427648Y773822D01*
X386246Y815224D01*
X386239Y815229D01*
X386234Y815236D01*
X386084Y815357D01*
X385935Y815479D01*
X385927Y815483D01*
X385920Y815489D01*
X385749Y815577D01*
X385579Y815667D01*
X385571Y815670D01*
X385563Y815674D01*
X385377Y815727D01*
X385193Y815782D01*
X385184Y815783D01*
X385176Y815785D01*
X384984Y815801D01*
X384792Y815819D01*
X384783Y815818D01*
X384774Y815818D01*
X384585Y815796D01*
X384392Y815775D01*
X384383Y815772D01*
X384375Y815771D01*
X384193Y815712D01*
X384008Y815654D01*
X384000Y815649D01*
X383992Y815647D01*
X383823Y815552D01*
X383656Y815459D01*
X383649Y815453D01*
X383641Y815449D01*
X383495Y815323D01*
X383349Y815198D01*
X383343Y815191D01*
X383336Y815186D01*
X383219Y815034D01*
X383099Y814882D01*
X383095Y814874D01*
X383090Y814867D01*
X383004Y814695D01*
X382917Y814524D01*
X382914Y814515D01*
X382910Y814507D01*
X382860Y814320D01*
X382809Y814136D01*
X382808Y814127D01*
X382806Y814118D01*
X382779Y813787D01*
X382779Y809433D01*
X378017Y804671D01*
X371283Y804671D01*
X367306Y808648D01*
X367285Y808665D01*
X367268Y808686D01*
X367130Y808793D01*
X366994Y808903D01*
X366971Y808916D01*
X366950Y808932D01*
X366793Y809010D01*
X366639Y809092D01*
X366613Y809100D01*
X366589Y809112D01*
X366420Y809157D01*
X366253Y809207D01*
X366226Y809209D01*
X366200Y809216D01*
X365870Y809243D01*
X357915Y809243D01*
X357888Y809241D01*
X357861Y809243D01*
X357687Y809221D01*
X357514Y809203D01*
X357489Y809196D01*
X357462Y809192D01*
X357296Y809137D01*
X357129Y809085D01*
X357106Y809072D01*
X357080Y809064D01*
X356929Y808977D01*
X356775Y808893D01*
X356755Y808876D01*
X356731Y808863D01*
X356478Y808648D01*
X347052Y799222D01*
X347035Y799201D01*
X347014Y799183D01*
X346907Y799046D01*
X346797Y798910D01*
X346784Y798887D01*
X346768Y798865D01*
X346690Y798708D01*
X346608Y798554D01*
X346600Y798529D01*
X346588Y798505D01*
X346543Y798335D01*
X346493Y798169D01*
X346491Y798142D01*
X346484Y798116D01*
X346457Y797785D01*
X346457Y795073D01*
X346459Y795046D01*
X346457Y795019D01*
X346479Y794845D01*
X346497Y794672D01*
X346504Y794647D01*
X346508Y794620D01*
X346564Y794454D01*
X346615Y794287D01*
X346628Y794264D01*
X346636Y794238D01*
X346723Y794087D01*
X346807Y793933D01*
X346824Y793913D01*
X346837Y793889D01*
X347052Y793636D01*
X349313Y791375D01*
X350465Y788595D01*
X350465Y773505D01*
X349313Y770725D01*
X347052Y768464D01*
X347035Y768443D01*
X347014Y768425D01*
X346907Y768287D01*
X346797Y768152D01*
X346784Y768128D01*
X346768Y768107D01*
X346690Y767951D01*
X346608Y767796D01*
X346600Y767771D01*
X346588Y767747D01*
X346543Y767577D01*
X346493Y767410D01*
X346491Y767384D01*
X346484Y767358D01*
X346457Y767027D01*
X346457Y745265D01*
X346459Y745238D01*
X346457Y745211D01*
X346479Y745037D01*
X346497Y744864D01*
X346504Y744839D01*
X346508Y744812D01*
X346563Y744646D01*
X346615Y744479D01*
X346628Y744456D01*
X346636Y744430D01*
X346723Y744279D01*
X346807Y744125D01*
X346824Y744105D01*
X346837Y744081D01*
X347052Y743828D01*
X359157Y731723D01*
X359157Y717349D01*
X359158Y717340D01*
X359157Y717331D01*
X359178Y717139D01*
X359197Y716948D01*
X359199Y716940D01*
X359200Y716931D01*
X359258Y716748D01*
X359315Y716563D01*
X359319Y716555D01*
X359322Y716547D01*
X359415Y716378D01*
X359507Y716209D01*
X359512Y716202D01*
X359517Y716194D01*
X359642Y716047D01*
X359764Y715900D01*
X359771Y715894D01*
X359777Y715887D01*
X359929Y715768D01*
X360078Y715648D01*
X360086Y715643D01*
X360093Y715638D01*
X360265Y715551D01*
X360435Y715462D01*
X360444Y715460D01*
X360452Y715456D01*
X360638Y715404D01*
X360822Y715351D01*
X360831Y715350D01*
X360840Y715348D01*
X361032Y715333D01*
X361224Y715318D01*
X361232Y715319D01*
X361241Y715318D01*
X361434Y715343D01*
X361623Y715365D01*
X361632Y715367D01*
X361641Y715369D01*
X361824Y715430D01*
X362006Y715490D01*
X362014Y715494D01*
X362022Y715497D01*
X362188Y715592D01*
X362357Y715687D01*
X362364Y715693D01*
X362371Y715698D01*
X362624Y715912D01*
X364015Y717303D01*
X366795Y718455D01*
X369805Y718455D01*
X372585Y717303D01*
X374713Y715175D01*
X375865Y712395D01*
X375865Y697305D01*
X374713Y694525D01*
X372585Y692397D01*
X369805Y691245D01*
X366439Y691245D01*
X366430Y691244D01*
X366421Y691245D01*
X366229Y691224D01*
X366038Y691205D01*
X366029Y691203D01*
X366021Y691202D01*
X365838Y691144D01*
X365653Y691087D01*
X365645Y691083D01*
X365637Y691080D01*
X365468Y690987D01*
X365299Y690895D01*
X365292Y690890D01*
X365284Y690885D01*
X365137Y690761D01*
X364990Y690638D01*
X364984Y690631D01*
X364977Y690625D01*
X364858Y690474D01*
X364737Y690324D01*
X364733Y690316D01*
X364728Y690309D01*
X364640Y690136D01*
X364552Y689967D01*
X364549Y689958D01*
X364545Y689950D01*
X364493Y689764D01*
X364441Y689580D01*
X364440Y689571D01*
X364437Y689562D01*
X364423Y689369D01*
X364408Y689178D01*
X364409Y689170D01*
X364408Y689161D01*
X364432Y688968D01*
X364455Y688779D01*
X364457Y688770D01*
X364458Y688761D01*
X364520Y688578D01*
X364579Y688396D01*
X364584Y688388D01*
X364587Y688380D01*
X364683Y688213D01*
X364777Y688045D01*
X364783Y688038D01*
X364788Y688031D01*
X365002Y687778D01*
X369178Y683602D01*
X371857Y680923D01*
X371857Y538190D01*
X371859Y538163D01*
X371857Y538136D01*
X371879Y537962D01*
X371897Y537789D01*
X371904Y537763D01*
X371908Y537737D01*
X371963Y537571D01*
X372015Y537404D01*
X372028Y537380D01*
X372036Y537355D01*
X372123Y537203D01*
X372207Y537050D01*
X372224Y537029D01*
X372237Y537006D01*
X372452Y536753D01*
X372799Y536406D01*
X373607Y534456D01*
X373607Y532344D01*
X372799Y530394D01*
X371306Y528901D01*
X369356Y528093D01*
X367244Y528093D01*
X365294Y528901D01*
X363801Y530394D01*
X362993Y532344D01*
X362993Y534456D01*
X363801Y536406D01*
X364148Y536753D01*
X364165Y536774D01*
X364186Y536791D01*
X364293Y536929D01*
X364403Y537065D01*
X364416Y537088D01*
X364432Y537109D01*
X364510Y537266D01*
X364592Y537420D01*
X364600Y537446D01*
X364612Y537470D01*
X364657Y537639D01*
X364707Y537806D01*
X364709Y537833D01*
X364716Y537859D01*
X364743Y538190D01*
X364743Y677135D01*
X364741Y677162D01*
X364743Y677189D01*
X364721Y677362D01*
X364703Y677536D01*
X364696Y677561D01*
X364692Y677588D01*
X364637Y677754D01*
X364585Y677921D01*
X364572Y677944D01*
X364564Y677970D01*
X364477Y678121D01*
X364393Y678275D01*
X364376Y678295D01*
X364363Y678319D01*
X364148Y678572D01*
X352043Y690677D01*
X352043Y692351D01*
X352042Y692360D01*
X352043Y692369D01*
X352022Y692561D01*
X352003Y692752D01*
X352001Y692760D01*
X352000Y692769D01*
X351942Y692952D01*
X351885Y693137D01*
X351881Y693145D01*
X351878Y693153D01*
X351785Y693321D01*
X351693Y693491D01*
X351688Y693498D01*
X351683Y693506D01*
X351558Y693653D01*
X351436Y693800D01*
X351429Y693806D01*
X351423Y693813D01*
X351271Y693932D01*
X351122Y694052D01*
X351114Y694057D01*
X351107Y694062D01*
X350935Y694149D01*
X350765Y694238D01*
X350756Y694240D01*
X350748Y694244D01*
X350562Y694296D01*
X350378Y694349D01*
X350369Y694350D01*
X350360Y694352D01*
X350168Y694367D01*
X349976Y694382D01*
X349968Y694381D01*
X349959Y694382D01*
X349766Y694357D01*
X349577Y694335D01*
X349568Y694333D01*
X349559Y694331D01*
X349376Y694270D01*
X349194Y694210D01*
X349186Y694206D01*
X349178Y694203D01*
X349012Y694108D01*
X348843Y694013D01*
X348836Y694007D01*
X348829Y694002D01*
X348576Y693788D01*
X347052Y692263D01*
X347035Y692243D01*
X347014Y692225D01*
X346907Y692087D01*
X346797Y691952D01*
X346784Y691928D01*
X346768Y691907D01*
X346690Y691751D01*
X346608Y691596D01*
X346600Y691571D01*
X346588Y691547D01*
X346543Y691378D01*
X346493Y691210D01*
X346491Y691184D01*
X346484Y691158D01*
X346457Y690827D01*
X346457Y683260D01*
X346459Y683242D01*
X346457Y683224D01*
X346478Y683042D01*
X346497Y682859D01*
X346502Y682842D01*
X346504Y682825D01*
X346561Y682650D01*
X346615Y682474D01*
X346623Y682459D01*
X346629Y682442D01*
X346719Y682282D01*
X346807Y682120D01*
X346818Y682107D01*
X346827Y682091D01*
X346947Y681952D01*
X347064Y681811D01*
X347078Y681800D01*
X347090Y681786D01*
X347235Y681674D01*
X347378Y681559D01*
X347394Y681551D01*
X347408Y681540D01*
X347573Y681458D01*
X347735Y681373D01*
X347752Y681368D01*
X347768Y681360D01*
X347947Y681313D01*
X348122Y681262D01*
X348140Y681260D01*
X348157Y681256D01*
X348488Y681229D01*
X352617Y681229D01*
X357379Y676467D01*
X357379Y669733D01*
X353402Y665756D01*
X353385Y665735D01*
X353364Y665718D01*
X353257Y665580D01*
X353147Y665444D01*
X353134Y665421D01*
X353118Y665400D01*
X353040Y665243D01*
X352958Y665089D01*
X352950Y665063D01*
X352938Y665039D01*
X352893Y664870D01*
X352843Y664703D01*
X352841Y664676D01*
X352834Y664650D01*
X352807Y664320D01*
X352807Y650130D01*
X352809Y650104D01*
X352807Y650077D01*
X352829Y649903D01*
X352847Y649730D01*
X352854Y649704D01*
X352858Y649678D01*
X352913Y649512D01*
X352965Y649345D01*
X352978Y649321D01*
X352986Y649296D01*
X353073Y649144D01*
X353157Y648991D01*
X353174Y648970D01*
X353187Y648947D01*
X353402Y648694D01*
X357379Y644717D01*
X357379Y637983D01*
X352617Y633221D01*
X345883Y633221D01*
X341121Y637983D01*
X341121Y644717D01*
X345098Y648694D01*
X345115Y648715D01*
X345136Y648732D01*
X345243Y648870D01*
X345353Y649006D01*
X345366Y649029D01*
X345382Y649050D01*
X345460Y649207D01*
X345542Y649361D01*
X345550Y649387D01*
X345562Y649411D01*
X345607Y649580D01*
X345657Y649747D01*
X345659Y649774D01*
X345666Y649800D01*
X345693Y650130D01*
X345693Y664320D01*
X345691Y664346D01*
X345693Y664373D01*
X345671Y664547D01*
X345653Y664720D01*
X345646Y664746D01*
X345642Y664772D01*
X345587Y664938D01*
X345535Y665105D01*
X345522Y665129D01*
X345514Y665154D01*
X345427Y665306D01*
X345343Y665459D01*
X345326Y665480D01*
X345313Y665503D01*
X345098Y665756D01*
X341121Y669733D01*
X341121Y675357D01*
X341119Y675384D01*
X341121Y675411D01*
X341099Y675585D01*
X341081Y675758D01*
X341074Y675783D01*
X341070Y675810D01*
X341015Y675975D01*
X340963Y676143D01*
X340950Y676166D01*
X340942Y676192D01*
X340855Y676343D01*
X340771Y676497D01*
X340754Y676517D01*
X340741Y676541D01*
X340526Y676794D01*
X339343Y677977D01*
X339343Y690827D01*
X339341Y690854D01*
X339343Y690880D01*
X339321Y691054D01*
X339303Y691228D01*
X339296Y691253D01*
X339292Y691280D01*
X339236Y691446D01*
X339185Y691613D01*
X339173Y691636D01*
X339164Y691662D01*
X339077Y691813D01*
X338993Y691967D01*
X338976Y691987D01*
X338963Y692010D01*
X338748Y692263D01*
X337224Y693788D01*
X337217Y693793D01*
X337212Y693800D01*
X337061Y693921D01*
X336913Y694043D01*
X336905Y694047D01*
X336898Y694052D01*
X336728Y694141D01*
X336557Y694231D01*
X336548Y694234D01*
X336541Y694238D01*
X336356Y694291D01*
X336171Y694346D01*
X336162Y694347D01*
X336154Y694349D01*
X335963Y694365D01*
X335770Y694382D01*
X335761Y694381D01*
X335752Y694382D01*
X335563Y694360D01*
X335370Y694339D01*
X335361Y694336D01*
X335353Y694335D01*
X335171Y694276D01*
X334986Y694218D01*
X334978Y694213D01*
X334970Y694210D01*
X334803Y694116D01*
X334634Y694023D01*
X334627Y694017D01*
X334619Y694013D01*
X334474Y693887D01*
X334327Y693762D01*
X334321Y693755D01*
X334314Y693749D01*
X334198Y693599D01*
X334077Y693446D01*
X334073Y693438D01*
X334068Y693431D01*
X333983Y693261D01*
X333895Y693087D01*
X333892Y693079D01*
X333888Y693071D01*
X333839Y692885D01*
X333787Y692700D01*
X333786Y692691D01*
X333784Y692682D01*
X333757Y692351D01*
X333757Y535715D01*
X333759Y535688D01*
X333757Y535661D01*
X333779Y535487D01*
X333797Y535314D01*
X333804Y535289D01*
X333808Y535262D01*
X333863Y535096D01*
X333915Y534929D01*
X333928Y534906D01*
X333936Y534880D01*
X334023Y534729D01*
X334107Y534575D01*
X334124Y534555D01*
X334137Y534531D01*
X334352Y534278D01*
X359157Y509473D01*
X359157Y347695D01*
X359159Y347668D01*
X359157Y347642D01*
X359179Y347468D01*
X359197Y347294D01*
X359204Y347269D01*
X359208Y347242D01*
X359263Y347076D01*
X359315Y346909D01*
X359328Y346886D01*
X359336Y346860D01*
X359423Y346709D01*
X359507Y346555D01*
X359524Y346535D01*
X359537Y346512D01*
X359752Y346259D01*
X365507Y340503D01*
X365507Y332297D01*
X359703Y326493D01*
X351497Y326493D01*
X345693Y332297D01*
X345693Y340503D01*
X351448Y346259D01*
X351465Y346279D01*
X351486Y346297D01*
X351593Y346435D01*
X351703Y346570D01*
X351716Y346594D01*
X351732Y346615D01*
X351810Y346771D01*
X351892Y346926D01*
X351900Y346951D01*
X351912Y346975D01*
X351957Y347145D01*
X352007Y347312D01*
X352009Y347338D01*
X352016Y347364D01*
X352043Y347695D01*
X352043Y505685D01*
X352041Y505712D01*
X352043Y505739D01*
X352021Y505913D01*
X352003Y506086D01*
X351996Y506111D01*
X351992Y506138D01*
X351937Y506304D01*
X351885Y506471D01*
X351872Y506494D01*
X351864Y506520D01*
X351777Y506671D01*
X351693Y506825D01*
X351676Y506845D01*
X351663Y506869D01*
X351448Y507122D01*
X326643Y531927D01*
X326643Y692351D01*
X326642Y692360D01*
X326643Y692369D01*
X326622Y692561D01*
X326603Y692752D01*
X326601Y692760D01*
X326600Y692769D01*
X326542Y692952D01*
X326485Y693137D01*
X326481Y693145D01*
X326478Y693153D01*
X326385Y693321D01*
X326293Y693491D01*
X326288Y693498D01*
X326283Y693506D01*
X326158Y693653D01*
X326036Y693800D01*
X326029Y693806D01*
X326023Y693813D01*
X325871Y693932D01*
X325722Y694052D01*
X325714Y694057D01*
X325707Y694062D01*
X325535Y694149D01*
X325365Y694238D01*
X325356Y694240D01*
X325348Y694244D01*
X325162Y694296D01*
X324978Y694349D01*
X324969Y694350D01*
X324960Y694352D01*
X324768Y694367D01*
X324576Y694382D01*
X324568Y694381D01*
X324559Y694382D01*
X324366Y694357D01*
X324177Y694335D01*
X324168Y694333D01*
X324159Y694331D01*
X323976Y694270D01*
X323794Y694210D01*
X323786Y694206D01*
X323778Y694203D01*
X323612Y694108D01*
X323443Y694013D01*
X323436Y694007D01*
X323429Y694002D01*
X323176Y693788D01*
X321652Y692263D01*
X321635Y692243D01*
X321614Y692225D01*
X321507Y692087D01*
X321397Y691952D01*
X321384Y691928D01*
X321368Y691907D01*
X321290Y691751D01*
X321208Y691596D01*
X321200Y691571D01*
X321188Y691547D01*
X321143Y691378D01*
X321093Y691210D01*
X321091Y691184D01*
X321084Y691158D01*
X321057Y690827D01*
X321057Y608127D01*
X315302Y602372D01*
X312623Y599693D01*
X307230Y599693D01*
X307204Y599691D01*
X307177Y599693D01*
X307003Y599671D01*
X306830Y599653D01*
X306804Y599646D01*
X306778Y599642D01*
X306612Y599586D01*
X306445Y599535D01*
X306421Y599522D01*
X306396Y599514D01*
X306244Y599427D01*
X306091Y599343D01*
X306070Y599326D01*
X306047Y599313D01*
X305794Y599098D01*
X301817Y595121D01*
X295083Y595121D01*
X290321Y599883D01*
X290321Y606617D01*
X295083Y611379D01*
X301817Y611379D01*
X305794Y607402D01*
X305815Y607385D01*
X305832Y607364D01*
X305970Y607257D01*
X306106Y607147D01*
X306129Y607134D01*
X306150Y607118D01*
X306307Y607040D01*
X306461Y606958D01*
X306487Y606950D01*
X306511Y606938D01*
X306680Y606893D01*
X306847Y606843D01*
X306874Y606841D01*
X306900Y606834D01*
X307230Y606807D01*
X308835Y606807D01*
X308862Y606809D01*
X308889Y606807D01*
X309063Y606829D01*
X309236Y606847D01*
X309262Y606854D01*
X309288Y606858D01*
X309454Y606914D01*
X309621Y606965D01*
X309645Y606978D01*
X309670Y606986D01*
X309821Y607073D01*
X309975Y607157D01*
X309995Y607174D01*
X310019Y607187D01*
X310272Y607402D01*
X313348Y610478D01*
X313365Y610499D01*
X313386Y610517D01*
X313492Y610654D01*
X313603Y610790D01*
X313616Y610814D01*
X313632Y610835D01*
X313710Y610991D01*
X313792Y611146D01*
X313800Y611171D01*
X313812Y611195D01*
X313857Y611364D01*
X313907Y611531D01*
X313909Y611558D01*
X313916Y611584D01*
X313943Y611915D01*
X313943Y690827D01*
X313941Y690854D01*
X313943Y690881D01*
X313921Y691054D01*
X313903Y691228D01*
X313896Y691253D01*
X313892Y691280D01*
X313837Y691446D01*
X313785Y691613D01*
X313772Y691636D01*
X313764Y691662D01*
X313677Y691813D01*
X313593Y691967D01*
X313576Y691987D01*
X313563Y692011D01*
X313348Y692264D01*
X311087Y694525D01*
X309935Y697305D01*
X309935Y712395D01*
X311087Y715175D01*
X313348Y717436D01*
X313365Y717457D01*
X313386Y717475D01*
X313493Y717613D01*
X313603Y717748D01*
X313616Y717772D01*
X313632Y717793D01*
X313710Y717950D01*
X313792Y718104D01*
X313800Y718129D01*
X313812Y718153D01*
X313857Y718323D01*
X313907Y718490D01*
X313909Y718516D01*
X313916Y718542D01*
X313943Y718873D01*
X313943Y767027D01*
X313941Y767054D01*
X313943Y767081D01*
X313921Y767254D01*
X313903Y767428D01*
X313896Y767453D01*
X313892Y767480D01*
X313837Y767646D01*
X313785Y767813D01*
X313772Y767836D01*
X313764Y767862D01*
X313677Y768013D01*
X313593Y768167D01*
X313576Y768187D01*
X313563Y768211D01*
X313348Y768464D01*
X311087Y770725D01*
X309935Y773505D01*
X309935Y788595D01*
X311087Y791375D01*
X313215Y793503D01*
X315995Y794655D01*
X319005Y794655D01*
X321785Y793503D01*
X323176Y792112D01*
X323183Y792107D01*
X323188Y792100D01*
X323338Y791980D01*
X323487Y791857D01*
X323495Y791853D01*
X323502Y791848D01*
X323672Y791759D01*
X323843Y791669D01*
X323852Y791666D01*
X323859Y791662D01*
X324044Y791609D01*
X324229Y791554D01*
X324238Y791553D01*
X324246Y791551D01*
X324437Y791535D01*
X324630Y791518D01*
X324639Y791519D01*
X324648Y791518D01*
X324837Y791540D01*
X325030Y791561D01*
X325039Y791564D01*
X325047Y791565D01*
X325229Y791624D01*
X325414Y791682D01*
X325422Y791687D01*
X325430Y791690D01*
X325597Y791784D01*
X325766Y791877D01*
X325773Y791883D01*
X325781Y791887D01*
X325926Y792013D01*
X326073Y792138D01*
X326079Y792145D01*
X326086Y792151D01*
X326202Y792301D01*
X326323Y792454D01*
X326327Y792462D01*
X326332Y792469D01*
X326418Y792640D01*
X326505Y792813D01*
X326508Y792821D01*
X326512Y792829D01*
X326562Y793015D01*
X326613Y793200D01*
X326614Y793209D01*
X326616Y793218D01*
X326643Y793549D01*
X326643Y797785D01*
X326641Y797812D01*
X326643Y797839D01*
X326621Y798012D01*
X326603Y798186D01*
X326596Y798211D01*
X326592Y798238D01*
X326537Y798404D01*
X326485Y798571D01*
X326472Y798594D01*
X326464Y798620D01*
X326377Y798771D01*
X326293Y798925D01*
X326276Y798945D01*
X326263Y798969D01*
X326048Y799222D01*
X316622Y808648D01*
X316601Y808665D01*
X316583Y808686D01*
X316446Y808793D01*
X316310Y808903D01*
X316287Y808916D01*
X316265Y808932D01*
X316108Y809010D01*
X315954Y809092D01*
X315929Y809100D01*
X315905Y809112D01*
X315735Y809157D01*
X315569Y809207D01*
X315542Y809209D01*
X315516Y809216D01*
X315185Y809243D01*
X307230Y809243D01*
X307204Y809241D01*
X307177Y809243D01*
X307003Y809221D01*
X306830Y809203D01*
X306804Y809196D01*
X306778Y809192D01*
X306612Y809137D01*
X306445Y809085D01*
X306421Y809072D01*
X306396Y809064D01*
X306244Y808977D01*
X306091Y808893D01*
X306070Y808876D01*
X306047Y808863D01*
X305794Y808648D01*
X301817Y804671D01*
X295083Y804671D01*
X290321Y809433D01*
X290321Y816167D01*
X292630Y818476D01*
X292636Y818483D01*
X292642Y818488D01*
X292763Y818638D01*
X292885Y818787D01*
X292889Y818795D01*
X292895Y818802D01*
X292983Y818972D01*
X293074Y819143D01*
X293076Y819152D01*
X293080Y819159D01*
X293133Y819344D01*
X293188Y819529D01*
X293189Y819538D01*
X293192Y819546D01*
X293207Y819737D01*
X293225Y819930D01*
X293224Y819939D01*
X293225Y819948D01*
X293202Y820137D01*
X293181Y820330D01*
X293179Y820339D01*
X293178Y820347D01*
X293118Y820529D01*
X293060Y820714D01*
X293056Y820722D01*
X293053Y820730D01*
X292958Y820899D01*
X292865Y821066D01*
X292859Y821073D01*
X292855Y821081D01*
X292729Y821227D01*
X292605Y821373D01*
X292598Y821379D01*
X292592Y821386D01*
X292440Y821503D01*
X292289Y821623D01*
X292281Y821627D01*
X292274Y821632D01*
X292102Y821718D01*
X291930Y821805D01*
X291921Y821808D01*
X291913Y821812D01*
X291727Y821862D01*
X291542Y821913D01*
X291533Y821914D01*
X291524Y821916D01*
X291194Y821943D01*
X273956Y821943D01*
X273948Y821942D01*
X273939Y821943D01*
X273747Y821922D01*
X273556Y821903D01*
X273547Y821901D01*
X273538Y821900D01*
X273356Y821842D01*
X273171Y821785D01*
X273163Y821781D01*
X273154Y821778D01*
X272986Y821685D01*
X272817Y821593D01*
X272810Y821588D01*
X272802Y821583D01*
X272655Y821459D01*
X272508Y821336D01*
X272502Y821329D01*
X272495Y821323D01*
X272376Y821172D01*
X272255Y821022D01*
X272251Y821014D01*
X272246Y821007D01*
X272158Y820834D01*
X272070Y820665D01*
X272067Y820656D01*
X272063Y820648D01*
X272011Y820462D01*
X271958Y820278D01*
X271958Y820269D01*
X271955Y820260D01*
X271941Y820067D01*
X271925Y819876D01*
X271926Y819868D01*
X271926Y819859D01*
X271950Y819666D01*
X271972Y819477D01*
X271975Y819468D01*
X271976Y819459D01*
X272038Y819276D01*
X272097Y819094D01*
X272102Y819086D01*
X272104Y819078D01*
X272200Y818912D01*
X272295Y818743D01*
X272301Y818736D01*
X272305Y818729D01*
X272520Y818476D01*
X274829Y816167D01*
X274829Y809433D01*
X270067Y804671D01*
X264443Y804671D01*
X264416Y804669D01*
X264389Y804671D01*
X264215Y804649D01*
X264042Y804631D01*
X264017Y804624D01*
X263990Y804620D01*
X263824Y804565D01*
X263657Y804513D01*
X263634Y804500D01*
X263608Y804492D01*
X263457Y804405D01*
X263303Y804321D01*
X263283Y804304D01*
X263259Y804291D01*
X263006Y804076D01*
X213702Y754772D01*
X213685Y754751D01*
X213664Y754733D01*
X213557Y754596D01*
X213447Y754460D01*
X213434Y754437D01*
X213418Y754415D01*
X213340Y754258D01*
X213258Y754104D01*
X213250Y754079D01*
X213238Y754055D01*
X213193Y753885D01*
X213143Y753719D01*
X213141Y753692D01*
X213134Y753666D01*
X213107Y753335D01*
X213107Y497397D01*
X207303Y491593D01*
X199097Y491593D01*
X193293Y497397D01*
X193293Y505603D01*
X199097Y511407D01*
X203962Y511407D01*
X203980Y511409D01*
X203998Y511407D01*
X204180Y511428D01*
X204363Y511447D01*
X204380Y511452D01*
X204397Y511454D01*
X204572Y511511D01*
X204748Y511565D01*
X204763Y511573D01*
X204780Y511579D01*
X204940Y511669D01*
X205102Y511757D01*
X205115Y511768D01*
X205131Y511777D01*
X205270Y511897D01*
X205411Y512014D01*
X205422Y512028D01*
X205436Y512040D01*
X205548Y512185D01*
X205663Y512328D01*
X205671Y512344D01*
X205682Y512358D01*
X205764Y512523D01*
X205849Y512685D01*
X205854Y512702D01*
X205862Y512718D01*
X205909Y512897D01*
X205960Y513072D01*
X205962Y513090D01*
X205966Y513107D01*
X205993Y513438D01*
X205993Y757123D01*
X257976Y809106D01*
X257993Y809127D01*
X258014Y809145D01*
X258121Y809282D01*
X258231Y809418D01*
X258244Y809441D01*
X258260Y809463D01*
X258338Y809620D01*
X258420Y809774D01*
X258428Y809799D01*
X258440Y809823D01*
X258485Y809993D01*
X258535Y810159D01*
X258537Y810186D01*
X258544Y810212D01*
X258571Y810543D01*
X258571Y816167D01*
X260880Y818476D01*
X260886Y818483D01*
X260892Y818488D01*
X261013Y818638D01*
X261135Y818787D01*
X261139Y818795D01*
X261145Y818802D01*
X261233Y818972D01*
X261324Y819143D01*
X261326Y819152D01*
X261330Y819159D01*
X261383Y819344D01*
X261438Y819529D01*
X261439Y819538D01*
X261442Y819546D01*
X261457Y819737D01*
X261475Y819930D01*
X261474Y819939D01*
X261475Y819948D01*
X261452Y820137D01*
X261431Y820330D01*
X261429Y820339D01*
X261428Y820347D01*
X261368Y820529D01*
X261310Y820714D01*
X261306Y820722D01*
X261303Y820730D01*
X261208Y820899D01*
X261115Y821066D01*
X261109Y821073D01*
X261105Y821081D01*
X260979Y821227D01*
X260855Y821373D01*
X260848Y821379D01*
X260842Y821386D01*
X260690Y821503D01*
X260539Y821623D01*
X260531Y821627D01*
X260524Y821632D01*
X260352Y821718D01*
X260180Y821805D01*
X260171Y821808D01*
X260163Y821812D01*
X259977Y821862D01*
X259792Y821913D01*
X259783Y821914D01*
X259774Y821916D01*
X259444Y821943D01*
X252527Y821943D01*
X195972Y878498D01*
X195951Y878515D01*
X195933Y878536D01*
X195796Y878643D01*
X195660Y878753D01*
X195637Y878766D01*
X195615Y878782D01*
X195458Y878860D01*
X195304Y878942D01*
X195279Y878950D01*
X195255Y878962D01*
X195085Y879007D01*
X194919Y879057D01*
X194892Y879059D01*
X194866Y879066D01*
X194535Y879093D01*
X42802Y879093D01*
X42780Y879091D01*
X42758Y879093D01*
X42580Y879071D01*
X42402Y879053D01*
X42380Y879047D01*
X42358Y879044D01*
X42188Y878988D01*
X42017Y878935D01*
X41997Y878925D01*
X41976Y878918D01*
X41820Y878829D01*
X41663Y878743D01*
X41645Y878729D01*
X41626Y878718D01*
X41491Y878600D01*
X41353Y878486D01*
X41339Y878468D01*
X41323Y878454D01*
X41213Y878311D01*
X41101Y878172D01*
X41091Y878152D01*
X41077Y878134D01*
X40926Y877839D01*
X40773Y877470D01*
X38200Y874897D01*
X34839Y873505D01*
X15961Y873505D01*
X12969Y874744D01*
X12956Y874748D01*
X12945Y874755D01*
X12765Y874806D01*
X12584Y874861D01*
X12571Y874862D01*
X12558Y874866D01*
X12370Y874881D01*
X12183Y874899D01*
X12170Y874898D01*
X12156Y874899D01*
X11970Y874877D01*
X11783Y874857D01*
X11770Y874853D01*
X11757Y874852D01*
X11578Y874794D01*
X11398Y874738D01*
X11387Y874731D01*
X11374Y874727D01*
X11210Y874635D01*
X11045Y874544D01*
X11035Y874536D01*
X11023Y874529D01*
X10881Y874407D01*
X10737Y874285D01*
X10729Y874275D01*
X10718Y874266D01*
X10604Y874118D01*
X10486Y873970D01*
X10480Y873958D01*
X10472Y873948D01*
X10388Y873780D01*
X10302Y873612D01*
X10298Y873599D01*
X10292Y873587D01*
X10243Y873405D01*
X10192Y873225D01*
X10191Y873212D01*
X10188Y873199D01*
X10161Y872868D01*
X10161Y867032D01*
X10162Y867019D01*
X10161Y867005D01*
X10182Y866819D01*
X10201Y866632D01*
X10205Y866619D01*
X10206Y866605D01*
X10264Y866426D01*
X10319Y866247D01*
X10325Y866235D01*
X10329Y866222D01*
X10421Y866057D01*
X10511Y865893D01*
X10519Y865882D01*
X10526Y865871D01*
X10648Y865727D01*
X10768Y865583D01*
X10779Y865575D01*
X10787Y865565D01*
X10936Y865448D01*
X11082Y865331D01*
X11094Y865325D01*
X11104Y865317D01*
X11274Y865232D01*
X11439Y865145D01*
X11452Y865142D01*
X11464Y865136D01*
X11647Y865086D01*
X11826Y865034D01*
X11840Y865033D01*
X11853Y865029D01*
X12041Y865017D01*
X12228Y865001D01*
X12241Y865003D01*
X12254Y865002D01*
X12442Y865026D01*
X12627Y865048D01*
X12640Y865052D01*
X12653Y865054D01*
X12969Y865156D01*
X15961Y866395D01*
X34839Y866395D01*
X38200Y865003D01*
X40773Y862430D01*
X40926Y862061D01*
X40936Y862041D01*
X40943Y862020D01*
X41031Y861864D01*
X41116Y861706D01*
X41130Y861689D01*
X41141Y861669D01*
X41258Y861533D01*
X41372Y861395D01*
X41389Y861381D01*
X41404Y861364D01*
X41545Y861255D01*
X41685Y861142D01*
X41705Y861131D01*
X41722Y861118D01*
X41882Y861038D01*
X42041Y860955D01*
X42063Y860948D01*
X42083Y860938D01*
X42256Y860892D01*
X42428Y860842D01*
X42450Y860840D01*
X42471Y860834D01*
X42802Y860807D01*
X180340Y860807D01*
X180358Y860809D01*
X180376Y860807D01*
X180558Y860828D01*
X180741Y860847D01*
X180758Y860852D01*
X180775Y860854D01*
X180950Y860911D01*
X181126Y860965D01*
X181141Y860973D01*
X181158Y860979D01*
X181318Y861069D01*
X181480Y861157D01*
X181493Y861168D01*
X181509Y861177D01*
X181648Y861297D01*
X181789Y861414D01*
X181800Y861428D01*
X181814Y861440D01*
X181926Y861585D01*
X182041Y861728D01*
X182049Y861744D01*
X182060Y861758D01*
X182142Y861923D01*
X182227Y862085D01*
X182232Y862102D01*
X182240Y862118D01*
X182287Y862297D01*
X182338Y862472D01*
X182340Y862490D01*
X182344Y862507D01*
X182371Y862838D01*
X182371Y866967D01*
X187133Y871729D01*
X193867Y871729D01*
X198629Y866967D01*
X198629Y860233D01*
X194652Y856256D01*
X194635Y856235D01*
X194614Y856218D01*
X194507Y856080D01*
X194397Y855944D01*
X194384Y855921D01*
X194368Y855900D01*
X194290Y855743D01*
X194208Y855589D01*
X194200Y855563D01*
X194188Y855539D01*
X194143Y855370D01*
X194093Y855203D01*
X194091Y855176D01*
X194084Y855150D01*
X194057Y854820D01*
X194057Y846980D01*
X194059Y846954D01*
X194057Y846927D01*
X194079Y846753D01*
X194097Y846580D01*
X194104Y846554D01*
X194108Y846528D01*
X194163Y846362D01*
X194215Y846195D01*
X194228Y846171D01*
X194236Y846146D01*
X194323Y845994D01*
X194407Y845841D01*
X194424Y845820D01*
X194437Y845797D01*
X194652Y845544D01*
X198629Y841567D01*
X198629Y834833D01*
X194652Y830856D01*
X194635Y830835D01*
X194614Y830818D01*
X194507Y830680D01*
X194397Y830544D01*
X194384Y830521D01*
X194368Y830500D01*
X194290Y830343D01*
X194208Y830189D01*
X194200Y830163D01*
X194188Y830139D01*
X194143Y829970D01*
X194093Y829803D01*
X194091Y829776D01*
X194084Y829750D01*
X194057Y829420D01*
X194057Y821580D01*
X194059Y821554D01*
X194057Y821527D01*
X194079Y821353D01*
X194097Y821180D01*
X194104Y821154D01*
X194108Y821128D01*
X194163Y820962D01*
X194215Y820795D01*
X194228Y820771D01*
X194236Y820746D01*
X194324Y820594D01*
X194407Y820441D01*
X194424Y820420D01*
X194437Y820397D01*
X194652Y820144D01*
X198629Y816167D01*
X198629Y809433D01*
X193867Y804671D01*
X188243Y804671D01*
X188216Y804669D01*
X188189Y804671D01*
X188015Y804649D01*
X187842Y804631D01*
X187816Y804624D01*
X187790Y804620D01*
X187624Y804565D01*
X187457Y804513D01*
X187433Y804500D01*
X187408Y804492D01*
X187257Y804405D01*
X187103Y804321D01*
X187083Y804304D01*
X187059Y804291D01*
X186806Y804076D01*
X184324Y801594D01*
X184313Y801580D01*
X184299Y801569D01*
X184185Y801425D01*
X184069Y801283D01*
X184061Y801267D01*
X184050Y801253D01*
X183966Y801088D01*
X183880Y800927D01*
X183875Y800910D01*
X183867Y800894D01*
X183818Y800716D01*
X183766Y800541D01*
X183764Y800523D01*
X183759Y800506D01*
X183746Y800323D01*
X183729Y800140D01*
X183731Y800122D01*
X183730Y800105D01*
X183753Y799923D01*
X183773Y799740D01*
X183778Y799723D01*
X183780Y799705D01*
X183839Y799532D01*
X183894Y799356D01*
X183903Y799340D01*
X183909Y799323D01*
X184000Y799164D01*
X184089Y799004D01*
X184101Y798990D01*
X184109Y798975D01*
X184324Y798722D01*
X185929Y797117D01*
X185929Y790383D01*
X181167Y785621D01*
X174433Y785621D01*
X169671Y790383D01*
X169671Y797117D01*
X174707Y802153D01*
X174847Y802229D01*
X174868Y802246D01*
X174891Y802259D01*
X175144Y802474D01*
X176922Y804252D01*
X181776Y809106D01*
X181793Y809127D01*
X181814Y809144D01*
X181921Y809282D01*
X182031Y809418D01*
X182044Y809441D01*
X182060Y809463D01*
X182138Y809619D01*
X182220Y809773D01*
X182228Y809799D01*
X182240Y809823D01*
X182285Y809992D01*
X182335Y810159D01*
X182337Y810186D01*
X182344Y810212D01*
X182371Y810543D01*
X182371Y816167D01*
X186348Y820144D01*
X186365Y820165D01*
X186386Y820182D01*
X186493Y820320D01*
X186603Y820456D01*
X186616Y820479D01*
X186632Y820500D01*
X186710Y820657D01*
X186792Y820811D01*
X186800Y820837D01*
X186812Y820861D01*
X186857Y821030D01*
X186907Y821197D01*
X186909Y821224D01*
X186916Y821250D01*
X186943Y821580D01*
X186943Y829420D01*
X186941Y829446D01*
X186943Y829473D01*
X186921Y829647D01*
X186903Y829820D01*
X186896Y829846D01*
X186892Y829872D01*
X186837Y830038D01*
X186785Y830205D01*
X186772Y830229D01*
X186764Y830254D01*
X186677Y830406D01*
X186593Y830559D01*
X186576Y830580D01*
X186563Y830603D01*
X186348Y830856D01*
X182371Y834833D01*
X182371Y841567D01*
X186348Y845544D01*
X186365Y845565D01*
X186386Y845582D01*
X186493Y845720D01*
X186603Y845856D01*
X186616Y845879D01*
X186632Y845900D01*
X186710Y846057D01*
X186792Y846211D01*
X186800Y846237D01*
X186812Y846261D01*
X186857Y846430D01*
X186907Y846597D01*
X186909Y846624D01*
X186916Y846650D01*
X186943Y846980D01*
X186943Y851662D01*
X186941Y851680D01*
X186943Y851698D01*
X186922Y851880D01*
X186903Y852063D01*
X186898Y852080D01*
X186896Y852097D01*
X186839Y852271D01*
X186785Y852448D01*
X186777Y852463D01*
X186771Y852480D01*
X186681Y852640D01*
X186593Y852802D01*
X186582Y852815D01*
X186573Y852831D01*
X186453Y852970D01*
X186336Y853111D01*
X186322Y853122D01*
X186310Y853136D01*
X186165Y853248D01*
X186022Y853363D01*
X186006Y853371D01*
X185992Y853382D01*
X185827Y853464D01*
X185665Y853549D01*
X185648Y853554D01*
X185632Y853562D01*
X185453Y853609D01*
X185278Y853660D01*
X185260Y853662D01*
X185243Y853666D01*
X184912Y853693D01*
X42802Y853693D01*
X42780Y853691D01*
X42758Y853693D01*
X42580Y853671D01*
X42402Y853653D01*
X42380Y853647D01*
X42358Y853644D01*
X42188Y853588D01*
X42017Y853535D01*
X41997Y853525D01*
X41976Y853518D01*
X41820Y853429D01*
X41663Y853343D01*
X41645Y853329D01*
X41626Y853318D01*
X41491Y853200D01*
X41353Y853086D01*
X41339Y853068D01*
X41323Y853054D01*
X41213Y852911D01*
X41101Y852772D01*
X41091Y852752D01*
X41077Y852734D01*
X40926Y852439D01*
X40773Y852070D01*
X38200Y849497D01*
X36779Y848909D01*
X34839Y848105D01*
X15961Y848105D01*
X12969Y849344D01*
X12956Y849348D01*
X12945Y849355D01*
X12765Y849406D01*
X12584Y849461D01*
X12571Y849462D01*
X12558Y849466D01*
X12370Y849481D01*
X12183Y849499D01*
X12170Y849498D01*
X12156Y849499D01*
X11970Y849477D01*
X11783Y849457D01*
X11770Y849453D01*
X11757Y849452D01*
X11578Y849394D01*
X11398Y849338D01*
X11387Y849331D01*
X11374Y849327D01*
X11210Y849235D01*
X11045Y849144D01*
X11035Y849136D01*
X11023Y849129D01*
X10881Y849007D01*
X10737Y848885D01*
X10729Y848875D01*
X10718Y848866D01*
X10604Y848718D01*
X10486Y848570D01*
X10480Y848558D01*
X10472Y848548D01*
X10388Y848380D01*
X10302Y848212D01*
X10298Y848199D01*
X10292Y848187D01*
X10243Y848005D01*
X10192Y847825D01*
X10191Y847812D01*
X10188Y847799D01*
X10161Y847468D01*
X10161Y841632D01*
X10162Y841619D01*
X10161Y841605D01*
X10182Y841419D01*
X10201Y841232D01*
X10205Y841219D01*
X10206Y841205D01*
X10264Y841026D01*
X10319Y840847D01*
X10325Y840835D01*
X10329Y840822D01*
X10421Y840657D01*
X10511Y840493D01*
X10519Y840482D01*
X10526Y840471D01*
X10648Y840327D01*
X10768Y840183D01*
X10779Y840175D01*
X10787Y840165D01*
X10936Y840048D01*
X11082Y839931D01*
X11094Y839925D01*
X11104Y839917D01*
X11274Y839832D01*
X11439Y839745D01*
X11452Y839742D01*
X11464Y839736D01*
X11647Y839686D01*
X11826Y839634D01*
X11840Y839633D01*
X11853Y839629D01*
X12041Y839617D01*
X12228Y839601D01*
X12241Y839603D01*
X12254Y839602D01*
X12442Y839626D01*
X12627Y839648D01*
X12640Y839652D01*
X12653Y839654D01*
X12969Y839756D01*
X15961Y840995D01*
X34839Y840995D01*
X38200Y839603D01*
X40773Y837030D01*
X42165Y833669D01*
X42165Y830031D01*
X40773Y826670D01*
X38200Y824097D01*
X34839Y822705D01*
X15961Y822705D01*
X12969Y823944D01*
X12956Y823948D01*
X12945Y823955D01*
X12765Y824006D01*
X12584Y824061D01*
X12571Y824062D01*
X12558Y824066D01*
X12370Y824081D01*
X12183Y824099D01*
X12170Y824098D01*
X12156Y824099D01*
X11970Y824077D01*
X11783Y824057D01*
X11770Y824053D01*
X11757Y824052D01*
X11578Y823994D01*
X11398Y823938D01*
X11387Y823931D01*
X11374Y823927D01*
X11210Y823835D01*
X11045Y823744D01*
X11035Y823736D01*
X11023Y823729D01*
X10881Y823607D01*
X10737Y823485D01*
X10729Y823475D01*
X10718Y823466D01*
X10604Y823318D01*
X10486Y823170D01*
X10480Y823158D01*
X10472Y823148D01*
X10388Y822980D01*
X10302Y822812D01*
X10298Y822799D01*
X10292Y822787D01*
X10243Y822605D01*
X10192Y822425D01*
X10191Y822412D01*
X10188Y822399D01*
X10161Y822068D01*
X10161Y12192D01*
X10163Y12174D01*
X10161Y12156D01*
X10182Y11974D01*
X10201Y11791D01*
X10206Y11774D01*
X10208Y11757D01*
X10265Y11582D01*
X10319Y11406D01*
X10327Y11391D01*
X10333Y11374D01*
X10423Y11214D01*
X10511Y11052D01*
X10522Y11039D01*
X10531Y11023D01*
X10651Y10884D01*
X10768Y10743D01*
X10782Y10732D01*
X10794Y10718D01*
X10939Y10606D01*
X11082Y10491D01*
X11098Y10483D01*
X11112Y10472D01*
X11277Y10390D01*
X11439Y10305D01*
X11456Y10300D01*
X11472Y10292D01*
X11651Y10245D01*
X11826Y10194D01*
X11844Y10192D01*
X11861Y10188D01*
X12192Y10161D01*
X470408Y10161D01*
X470426Y10163D01*
G37*
G36*
X259452Y829058D02*
X259452Y829058D01*
X259461Y829057D01*
X259653Y829078D01*
X259844Y829097D01*
X259853Y829099D01*
X259862Y829100D01*
X260044Y829158D01*
X260229Y829215D01*
X260237Y829219D01*
X260246Y829222D01*
X260414Y829315D01*
X260583Y829407D01*
X260590Y829412D01*
X260598Y829417D01*
X260745Y829541D01*
X260892Y829664D01*
X260898Y829671D01*
X260905Y829677D01*
X261024Y829828D01*
X261145Y829978D01*
X261149Y829986D01*
X261154Y829993D01*
X261242Y830166D01*
X261330Y830335D01*
X261333Y830344D01*
X261337Y830352D01*
X261389Y830538D01*
X261442Y830722D01*
X261442Y830731D01*
X261445Y830740D01*
X261459Y830933D01*
X261475Y831124D01*
X261474Y831132D01*
X261474Y831141D01*
X261450Y831333D01*
X261428Y831523D01*
X261425Y831532D01*
X261424Y831541D01*
X261362Y831724D01*
X261303Y831906D01*
X261298Y831914D01*
X261296Y831922D01*
X261200Y832088D01*
X261105Y832257D01*
X261099Y832264D01*
X261095Y832271D01*
X260880Y832524D01*
X258571Y834833D01*
X258571Y841567D01*
X263333Y846329D01*
X270067Y846329D01*
X274044Y842352D01*
X274065Y842335D01*
X274082Y842314D01*
X274220Y842207D01*
X274356Y842097D01*
X274379Y842084D01*
X274400Y842068D01*
X274557Y841990D01*
X274711Y841908D01*
X274737Y841900D01*
X274761Y841888D01*
X274930Y841843D01*
X275097Y841793D01*
X275124Y841791D01*
X275150Y841784D01*
X275480Y841757D01*
X407873Y841757D01*
X419978Y829652D01*
X419999Y829635D01*
X420017Y829614D01*
X420155Y829507D01*
X420290Y829397D01*
X420313Y829384D01*
X420335Y829368D01*
X420492Y829290D01*
X420646Y829208D01*
X420671Y829200D01*
X420695Y829188D01*
X420865Y829143D01*
X421031Y829093D01*
X421058Y829091D01*
X421084Y829084D01*
X421415Y829057D01*
X425604Y829057D01*
X425608Y829057D01*
X425613Y829057D01*
X425808Y829077D01*
X426004Y829097D01*
X426008Y829098D01*
X426013Y829098D01*
X426202Y829157D01*
X426389Y829215D01*
X426393Y829217D01*
X426397Y829218D01*
X426569Y829312D01*
X426743Y829407D01*
X426747Y829409D01*
X426751Y829412D01*
X426902Y829539D01*
X427052Y829664D01*
X427055Y829668D01*
X427059Y829671D01*
X427182Y829825D01*
X427305Y829978D01*
X427307Y829982D01*
X427310Y829986D01*
X427400Y830161D01*
X427490Y830335D01*
X427491Y830340D01*
X427493Y830344D01*
X427546Y830530D01*
X427602Y830722D01*
X427602Y830727D01*
X427603Y830731D01*
X427618Y830926D01*
X427634Y831124D01*
X427634Y831128D01*
X427634Y831133D01*
X427610Y831328D01*
X427588Y831523D01*
X427586Y831528D01*
X427586Y831532D01*
X427524Y831718D01*
X427463Y831906D01*
X427460Y831910D01*
X427459Y831914D01*
X427362Y832084D01*
X427265Y832257D01*
X427262Y832260D01*
X427260Y832264D01*
X427129Y832414D01*
X427002Y832561D01*
X426998Y832564D01*
X426995Y832568D01*
X426837Y832690D01*
X426684Y832808D01*
X426680Y832810D01*
X426676Y832813D01*
X426381Y832965D01*
X426263Y833013D01*
X423513Y835763D01*
X422025Y839356D01*
X422025Y843244D01*
X422956Y845491D01*
X422960Y845504D01*
X422966Y845515D01*
X423018Y845696D01*
X423072Y845876D01*
X423073Y845889D01*
X423077Y845902D01*
X423093Y846090D01*
X423110Y846277D01*
X423109Y846290D01*
X423110Y846304D01*
X423088Y846491D01*
X423069Y846677D01*
X423065Y846690D01*
X423063Y846703D01*
X423005Y846882D01*
X422949Y847062D01*
X422942Y847073D01*
X422938Y847086D01*
X422846Y847250D01*
X422756Y847415D01*
X422747Y847425D01*
X422740Y847437D01*
X422617Y847579D01*
X422496Y847723D01*
X422486Y847731D01*
X422477Y847742D01*
X422329Y847857D01*
X422182Y847974D01*
X422170Y847980D01*
X422159Y847988D01*
X421990Y848072D01*
X421823Y848158D01*
X421811Y848162D01*
X421799Y848168D01*
X421616Y848217D01*
X421436Y848268D01*
X421423Y848269D01*
X421410Y848272D01*
X421079Y848299D01*
X403800Y848299D01*
X403799Y848300D01*
X403799Y904300D01*
X403800Y904301D01*
X459800Y904301D01*
X459801Y904300D01*
X459801Y848300D01*
X459800Y848299D01*
X442521Y848299D01*
X442508Y848298D01*
X442494Y848299D01*
X442308Y848278D01*
X442120Y848259D01*
X442107Y848255D01*
X442094Y848254D01*
X441916Y848197D01*
X441735Y848141D01*
X441724Y848135D01*
X441711Y848131D01*
X441547Y848039D01*
X441381Y847949D01*
X441371Y847941D01*
X441359Y847934D01*
X441216Y847812D01*
X441072Y847692D01*
X441064Y847681D01*
X441054Y847673D01*
X440937Y847524D01*
X440820Y847378D01*
X440814Y847366D01*
X440805Y847356D01*
X440721Y847187D01*
X440634Y847021D01*
X440631Y847008D01*
X440625Y846996D01*
X440575Y846814D01*
X440523Y846634D01*
X440522Y846620D01*
X440518Y846607D01*
X440505Y846419D01*
X440490Y846232D01*
X440492Y846219D01*
X440491Y846206D01*
X440515Y846018D01*
X440537Y845833D01*
X440541Y845820D01*
X440543Y845807D01*
X440644Y845491D01*
X441575Y843244D01*
X441575Y839356D01*
X440087Y835763D01*
X437337Y833013D01*
X437219Y832965D01*
X437215Y832963D01*
X437211Y832961D01*
X437035Y832866D01*
X436864Y832774D01*
X436861Y832772D01*
X436857Y832769D01*
X436706Y832644D01*
X436554Y832518D01*
X436551Y832515D01*
X436548Y832512D01*
X436425Y832360D01*
X436300Y832205D01*
X436298Y832201D01*
X436295Y832198D01*
X436206Y832025D01*
X436113Y831849D01*
X436112Y831845D01*
X436110Y831841D01*
X436054Y831648D01*
X436000Y831463D01*
X436000Y831458D01*
X435998Y831454D01*
X435982Y831254D01*
X435965Y831061D01*
X435966Y831057D01*
X435966Y831052D01*
X435989Y830856D01*
X436011Y830661D01*
X436012Y830657D01*
X436012Y830653D01*
X436074Y830464D01*
X436134Y830278D01*
X436136Y830274D01*
X436137Y830270D01*
X436235Y830096D01*
X436330Y829927D01*
X436333Y829923D01*
X436335Y829919D01*
X436464Y829770D01*
X436592Y829621D01*
X436595Y829618D01*
X436598Y829614D01*
X436753Y829495D01*
X436909Y829372D01*
X436913Y829370D01*
X436916Y829368D01*
X437093Y829280D01*
X437269Y829192D01*
X437273Y829190D01*
X437277Y829188D01*
X437471Y829136D01*
X437657Y829085D01*
X437661Y829085D01*
X437666Y829084D01*
X437996Y829057D01*
X448535Y829057D01*
X448562Y829059D01*
X448589Y829057D01*
X448763Y829079D01*
X448936Y829097D01*
X448961Y829104D01*
X448988Y829108D01*
X449154Y829163D01*
X449321Y829215D01*
X449344Y829228D01*
X449370Y829236D01*
X449521Y829323D01*
X449675Y829407D01*
X449695Y829424D01*
X449719Y829437D01*
X449972Y829652D01*
X465748Y845428D01*
X465765Y845449D01*
X465786Y845467D01*
X465893Y845604D01*
X466003Y845740D01*
X466016Y845763D01*
X466032Y845785D01*
X466110Y845942D01*
X466192Y846096D01*
X466200Y846121D01*
X466212Y846145D01*
X466257Y846315D01*
X466307Y846481D01*
X466309Y846508D01*
X466316Y846534D01*
X466343Y846865D01*
X466343Y905735D01*
X466341Y905762D01*
X466343Y905789D01*
X466321Y905963D01*
X466303Y906136D01*
X466296Y906161D01*
X466292Y906188D01*
X466237Y906354D01*
X466185Y906521D01*
X466172Y906544D01*
X466164Y906570D01*
X466077Y906721D01*
X465993Y906875D01*
X465976Y906895D01*
X465963Y906919D01*
X465748Y907172D01*
X456322Y916598D01*
X456301Y916615D01*
X456283Y916636D01*
X456146Y916743D01*
X456010Y916853D01*
X455987Y916866D01*
X455965Y916882D01*
X455808Y916960D01*
X455654Y917042D01*
X455629Y917050D01*
X455605Y917062D01*
X455435Y917107D01*
X455269Y917157D01*
X455242Y917159D01*
X455216Y917166D01*
X454885Y917193D01*
X435761Y917193D01*
X435730Y917190D01*
X435699Y917192D01*
X435529Y917170D01*
X435360Y917153D01*
X435331Y917144D01*
X435300Y917140D01*
X434984Y917039D01*
X433744Y916525D01*
X429856Y916525D01*
X426263Y918013D01*
X423513Y920763D01*
X422025Y924356D01*
X422025Y928244D01*
X423513Y931837D01*
X426263Y934587D01*
X429856Y936075D01*
X433744Y936075D01*
X437337Y934587D01*
X440087Y931837D01*
X441575Y928244D01*
X441575Y926338D01*
X441577Y926320D01*
X441575Y926302D01*
X441596Y926120D01*
X441615Y925937D01*
X441620Y925920D01*
X441622Y925903D01*
X441679Y925728D01*
X441733Y925552D01*
X441741Y925537D01*
X441747Y925520D01*
X441837Y925360D01*
X441925Y925198D01*
X441936Y925185D01*
X441945Y925169D01*
X442065Y925030D01*
X442182Y924889D01*
X442196Y924878D01*
X442208Y924864D01*
X442353Y924752D01*
X442496Y924637D01*
X442512Y924629D01*
X442526Y924618D01*
X442691Y924536D01*
X442853Y924451D01*
X442870Y924446D01*
X442886Y924438D01*
X443065Y924391D01*
X443240Y924340D01*
X443258Y924338D01*
X443275Y924334D01*
X443606Y924307D01*
X458673Y924307D01*
X461352Y921628D01*
X468972Y914008D01*
X468979Y914003D01*
X468984Y913996D01*
X469134Y913875D01*
X469283Y913753D01*
X469291Y913749D01*
X469298Y913743D01*
X469468Y913655D01*
X469639Y913565D01*
X469648Y913562D01*
X469655Y913558D01*
X469840Y913505D01*
X470025Y913450D01*
X470034Y913449D01*
X470042Y913447D01*
X470234Y913431D01*
X470426Y913413D01*
X470435Y913414D01*
X470444Y913414D01*
X470633Y913436D01*
X470826Y913457D01*
X470835Y913460D01*
X470843Y913461D01*
X471025Y913520D01*
X471210Y913578D01*
X471218Y913583D01*
X471226Y913585D01*
X471395Y913680D01*
X471562Y913773D01*
X471569Y913779D01*
X471577Y913783D01*
X471723Y913909D01*
X471869Y914034D01*
X471875Y914041D01*
X471882Y914046D01*
X471999Y914198D01*
X472119Y914350D01*
X472123Y914358D01*
X472128Y914365D01*
X472214Y914537D01*
X472301Y914708D01*
X472304Y914717D01*
X472308Y914725D01*
X472358Y914912D01*
X472409Y915096D01*
X472410Y915105D01*
X472412Y915114D01*
X472439Y915445D01*
X472439Y978406D01*
X472437Y978423D01*
X472439Y978441D01*
X472418Y978624D01*
X472399Y978806D01*
X472394Y978823D01*
X472392Y978841D01*
X472335Y979015D01*
X472281Y979191D01*
X472273Y979207D01*
X472267Y979224D01*
X472177Y979383D01*
X472089Y979545D01*
X472078Y979559D01*
X472069Y979575D01*
X471949Y979714D01*
X471832Y979854D01*
X471818Y979866D01*
X471806Y979879D01*
X471661Y979992D01*
X471518Y980107D01*
X471502Y980115D01*
X471488Y980126D01*
X471323Y980208D01*
X471161Y980292D01*
X471143Y980297D01*
X471127Y980305D01*
X470950Y980353D01*
X470774Y980404D01*
X470756Y980405D01*
X470738Y980410D01*
X470408Y980437D01*
X305436Y980403D01*
X305418Y980401D01*
X305400Y980402D01*
X305218Y980381D01*
X305035Y980363D01*
X305018Y980357D01*
X305001Y980355D01*
X304826Y980298D01*
X304650Y980244D01*
X304635Y980236D01*
X304618Y980231D01*
X304458Y980140D01*
X304296Y980053D01*
X304283Y980041D01*
X304267Y980033D01*
X304128Y979912D01*
X303987Y979795D01*
X303976Y979781D01*
X303962Y979769D01*
X303850Y979625D01*
X303735Y979481D01*
X303726Y979465D01*
X303716Y979451D01*
X303634Y979287D01*
X303549Y979124D01*
X303544Y979107D01*
X303536Y979091D01*
X303488Y978912D01*
X303438Y978737D01*
X303436Y978719D01*
X303432Y978702D01*
X303405Y978371D01*
X303405Y948988D01*
X302512Y948095D01*
X270088Y948095D01*
X269195Y948988D01*
X269195Y978363D01*
X269193Y978381D01*
X269195Y978399D01*
X269174Y978582D01*
X269155Y978764D01*
X269150Y978781D01*
X269148Y978799D01*
X269091Y978973D01*
X269037Y979149D01*
X269029Y979165D01*
X269023Y979182D01*
X268933Y979341D01*
X268845Y979503D01*
X268834Y979517D01*
X268825Y979533D01*
X268705Y979672D01*
X268588Y979812D01*
X268574Y979823D01*
X268562Y979837D01*
X268416Y979950D01*
X268274Y980065D01*
X268258Y980073D01*
X268244Y980084D01*
X268079Y980166D01*
X267917Y980250D01*
X267899Y980255D01*
X267883Y980263D01*
X267706Y980311D01*
X267530Y980361D01*
X267512Y980363D01*
X267494Y980368D01*
X267164Y980395D01*
X215436Y980384D01*
X215418Y980382D01*
X215400Y980384D01*
X215218Y980362D01*
X215035Y980344D01*
X215018Y980339D01*
X215001Y980337D01*
X214826Y980280D01*
X214650Y980226D01*
X214635Y980217D01*
X214618Y980212D01*
X214458Y980122D01*
X214296Y980034D01*
X214283Y980023D01*
X214267Y980014D01*
X214128Y979894D01*
X213987Y979776D01*
X213976Y979762D01*
X213962Y979751D01*
X213850Y979606D01*
X213735Y979462D01*
X213726Y979447D01*
X213716Y979433D01*
X213634Y979268D01*
X213549Y979105D01*
X213544Y979088D01*
X213536Y979072D01*
X213488Y978894D01*
X213438Y978718D01*
X213436Y978700D01*
X213432Y978683D01*
X213405Y978353D01*
X213405Y948988D01*
X212512Y948095D01*
X180088Y948095D01*
X179195Y948988D01*
X179195Y978345D01*
X179193Y978363D01*
X179195Y978381D01*
X179174Y978563D01*
X179155Y978745D01*
X179150Y978763D01*
X179148Y978781D01*
X179091Y978955D01*
X179037Y979130D01*
X179029Y979146D01*
X179023Y979163D01*
X178933Y979323D01*
X178845Y979484D01*
X178834Y979498D01*
X178825Y979514D01*
X178705Y979653D01*
X178588Y979794D01*
X178574Y979805D01*
X178562Y979819D01*
X178416Y979931D01*
X178274Y980046D01*
X178258Y980054D01*
X178244Y980065D01*
X178079Y980147D01*
X177917Y980231D01*
X177899Y980236D01*
X177883Y980244D01*
X177706Y980292D01*
X177530Y980343D01*
X177512Y980344D01*
X177494Y980349D01*
X177164Y980376D01*
X12192Y980342D01*
X12174Y980340D01*
X12156Y980341D01*
X11974Y980320D01*
X11791Y980302D01*
X11774Y980297D01*
X11757Y980295D01*
X11582Y980238D01*
X11406Y980184D01*
X11391Y980175D01*
X11374Y980170D01*
X11214Y980079D01*
X11052Y979992D01*
X11039Y979980D01*
X11023Y979972D01*
X10884Y979852D01*
X10743Y979734D01*
X10732Y979720D01*
X10718Y979709D01*
X10606Y979564D01*
X10491Y979420D01*
X10482Y979404D01*
X10472Y979391D01*
X10390Y979226D01*
X10305Y979063D01*
X10300Y979046D01*
X10292Y979030D01*
X10244Y978852D01*
X10194Y978676D01*
X10192Y978658D01*
X10188Y978641D01*
X10161Y978311D01*
X10161Y944286D01*
X10170Y944193D01*
X10169Y944100D01*
X10190Y943993D01*
X10201Y943885D01*
X10228Y943796D01*
X10246Y943705D01*
X10287Y943604D01*
X10319Y943501D01*
X10363Y943419D01*
X10399Y943332D01*
X10459Y943242D01*
X10511Y943147D01*
X10570Y943075D01*
X10622Y942997D01*
X10699Y942921D01*
X10768Y942837D01*
X10841Y942779D01*
X10907Y942713D01*
X10997Y942653D01*
X11082Y942585D01*
X11165Y942542D01*
X11242Y942490D01*
X11343Y942449D01*
X11439Y942399D01*
X11529Y942374D01*
X11615Y942338D01*
X11722Y942318D01*
X11826Y942288D01*
X11919Y942280D01*
X12011Y942263D01*
X12119Y942264D01*
X12228Y942255D01*
X12320Y942266D01*
X12413Y942267D01*
X12520Y942289D01*
X12627Y942302D01*
X12716Y942331D01*
X12807Y942350D01*
X12931Y942401D01*
X13010Y942427D01*
X13053Y942451D01*
X13114Y942476D01*
X13880Y942866D01*
X15401Y943361D01*
X16980Y943611D01*
X22861Y943611D01*
X22861Y933958D01*
X22862Y933940D01*
X22861Y933923D01*
X22882Y933740D01*
X22901Y933558D01*
X22906Y933541D01*
X22908Y933523D01*
X22933Y933445D01*
X22894Y933308D01*
X22892Y933290D01*
X22888Y933273D01*
X22861Y932942D01*
X22861Y923289D01*
X16980Y923289D01*
X15401Y923539D01*
X13880Y924034D01*
X13114Y924424D01*
X13027Y924458D01*
X12945Y924501D01*
X12840Y924531D01*
X12739Y924570D01*
X12647Y924586D01*
X12558Y924612D01*
X12449Y924621D01*
X12343Y924640D01*
X12249Y924637D01*
X12156Y924645D01*
X12049Y924632D01*
X11940Y924629D01*
X11849Y924609D01*
X11757Y924598D01*
X11653Y924564D01*
X11548Y924540D01*
X11462Y924502D01*
X11374Y924473D01*
X11279Y924420D01*
X11180Y924375D01*
X11104Y924321D01*
X11023Y924275D01*
X10941Y924204D01*
X10853Y924141D01*
X10789Y924073D01*
X10718Y924012D01*
X10652Y923926D01*
X10578Y923847D01*
X10529Y923768D01*
X10472Y923694D01*
X10423Y923597D01*
X10366Y923504D01*
X10334Y923417D01*
X10292Y923333D01*
X10264Y923229D01*
X10227Y923127D01*
X10212Y923035D01*
X10188Y922945D01*
X10177Y922811D01*
X10164Y922729D01*
X10166Y922680D01*
X10161Y922614D01*
X10161Y917832D01*
X10162Y917819D01*
X10161Y917805D01*
X10182Y917619D01*
X10201Y917432D01*
X10205Y917419D01*
X10206Y917405D01*
X10264Y917226D01*
X10319Y917047D01*
X10325Y917035D01*
X10329Y917022D01*
X10421Y916857D01*
X10511Y916693D01*
X10519Y916682D01*
X10526Y916671D01*
X10648Y916527D01*
X10768Y916383D01*
X10779Y916375D01*
X10787Y916365D01*
X10936Y916248D01*
X11082Y916131D01*
X11094Y916125D01*
X11104Y916117D01*
X11274Y916032D01*
X11439Y915945D01*
X11452Y915942D01*
X11464Y915936D01*
X11647Y915886D01*
X11826Y915834D01*
X11840Y915833D01*
X11853Y915829D01*
X12041Y915817D01*
X12228Y915801D01*
X12241Y915803D01*
X12254Y915802D01*
X12442Y915826D01*
X12627Y915848D01*
X12640Y915852D01*
X12653Y915854D01*
X12969Y915956D01*
X15961Y917195D01*
X34839Y917195D01*
X38200Y915803D01*
X40773Y913230D01*
X42165Y909869D01*
X42165Y906231D01*
X40773Y902870D01*
X38200Y900297D01*
X34839Y898905D01*
X15961Y898905D01*
X12969Y900144D01*
X12956Y900148D01*
X12945Y900155D01*
X12765Y900206D01*
X12584Y900261D01*
X12571Y900262D01*
X12558Y900266D01*
X12370Y900281D01*
X12183Y900299D01*
X12170Y900298D01*
X12156Y900299D01*
X11970Y900277D01*
X11783Y900257D01*
X11770Y900253D01*
X11757Y900252D01*
X11578Y900194D01*
X11398Y900138D01*
X11387Y900131D01*
X11374Y900127D01*
X11210Y900035D01*
X11045Y899944D01*
X11035Y899936D01*
X11023Y899929D01*
X10881Y899807D01*
X10737Y899685D01*
X10729Y899675D01*
X10718Y899666D01*
X10604Y899518D01*
X10486Y899370D01*
X10480Y899358D01*
X10472Y899348D01*
X10388Y899180D01*
X10302Y899012D01*
X10298Y898999D01*
X10292Y898987D01*
X10243Y898805D01*
X10192Y898625D01*
X10191Y898612D01*
X10188Y898599D01*
X10161Y898268D01*
X10161Y892432D01*
X10162Y892419D01*
X10161Y892405D01*
X10182Y892219D01*
X10201Y892032D01*
X10205Y892019D01*
X10206Y892005D01*
X10264Y891826D01*
X10319Y891647D01*
X10325Y891635D01*
X10329Y891622D01*
X10421Y891457D01*
X10511Y891293D01*
X10519Y891282D01*
X10526Y891271D01*
X10648Y891127D01*
X10768Y890983D01*
X10779Y890975D01*
X10787Y890965D01*
X10936Y890848D01*
X11082Y890731D01*
X11094Y890725D01*
X11104Y890717D01*
X11274Y890632D01*
X11439Y890545D01*
X11452Y890542D01*
X11464Y890536D01*
X11647Y890486D01*
X11826Y890434D01*
X11840Y890433D01*
X11853Y890429D01*
X12041Y890417D01*
X12228Y890401D01*
X12241Y890403D01*
X12254Y890402D01*
X12442Y890426D01*
X12627Y890448D01*
X12640Y890452D01*
X12653Y890454D01*
X12969Y890556D01*
X15961Y891795D01*
X34839Y891795D01*
X38200Y890403D01*
X40773Y887830D01*
X40926Y887461D01*
X40936Y887441D01*
X40943Y887420D01*
X41031Y887264D01*
X41116Y887106D01*
X41130Y887089D01*
X41141Y887069D01*
X41258Y886933D01*
X41372Y886795D01*
X41389Y886781D01*
X41404Y886764D01*
X41545Y886655D01*
X41685Y886542D01*
X41705Y886531D01*
X41722Y886518D01*
X41882Y886438D01*
X42041Y886355D01*
X42063Y886348D01*
X42083Y886338D01*
X42256Y886292D01*
X42428Y886242D01*
X42450Y886240D01*
X42471Y886234D01*
X42802Y886207D01*
X198323Y886207D01*
X254878Y829652D01*
X254899Y829635D01*
X254917Y829614D01*
X255055Y829507D01*
X255190Y829397D01*
X255213Y829384D01*
X255235Y829368D01*
X255392Y829290D01*
X255546Y829208D01*
X255571Y829200D01*
X255595Y829188D01*
X255765Y829143D01*
X255931Y829093D01*
X255958Y829091D01*
X255984Y829084D01*
X256315Y829057D01*
X259444Y829057D01*
X259452Y829058D01*
G37*
%LPC*%
G36*
X418044Y147093D02*
X418044Y147093D01*
X416094Y147901D01*
X414601Y149394D01*
X413793Y151344D01*
X413793Y153456D01*
X414601Y155406D01*
X414948Y155753D01*
X414965Y155774D01*
X414986Y155791D01*
X415093Y155929D01*
X415203Y156065D01*
X415216Y156088D01*
X415232Y156109D01*
X415310Y156266D01*
X415392Y156420D01*
X415400Y156446D01*
X415412Y156470D01*
X415457Y156639D01*
X415507Y156806D01*
X415509Y156833D01*
X415516Y156859D01*
X415543Y157190D01*
X415543Y185868D01*
X415541Y185886D01*
X415543Y185904D01*
X415522Y186086D01*
X415503Y186269D01*
X415498Y186286D01*
X415496Y186303D01*
X415439Y186478D01*
X415385Y186654D01*
X415377Y186669D01*
X415371Y186686D01*
X415281Y186846D01*
X415193Y187008D01*
X415182Y187021D01*
X415173Y187037D01*
X415053Y187176D01*
X414936Y187317D01*
X414922Y187328D01*
X414910Y187342D01*
X414765Y187454D01*
X414622Y187569D01*
X414606Y187577D01*
X414592Y187588D01*
X414427Y187670D01*
X414265Y187755D01*
X414248Y187760D01*
X414232Y187768D01*
X414053Y187815D01*
X413878Y187866D01*
X413860Y187868D01*
X413843Y187872D01*
X413512Y187899D01*
X359350Y187899D01*
X359349Y187900D01*
X359349Y243900D01*
X359350Y243901D01*
X376629Y243901D01*
X376642Y243902D01*
X376656Y243901D01*
X376842Y243922D01*
X377030Y243941D01*
X377043Y243945D01*
X377056Y243946D01*
X377234Y244003D01*
X377415Y244059D01*
X377426Y244065D01*
X377439Y244069D01*
X377603Y244161D01*
X377769Y244251D01*
X377779Y244259D01*
X377791Y244266D01*
X377934Y244388D01*
X378078Y244508D01*
X378086Y244519D01*
X378096Y244527D01*
X378213Y244676D01*
X378330Y244822D01*
X378336Y244834D01*
X378345Y244844D01*
X378429Y245013D01*
X378516Y245179D01*
X378519Y245192D01*
X378525Y245204D01*
X378575Y245386D01*
X378627Y245566D01*
X378628Y245580D01*
X378632Y245593D01*
X378645Y245781D01*
X378660Y245968D01*
X378658Y245981D01*
X378659Y245994D01*
X378635Y246182D01*
X378613Y246367D01*
X378609Y246380D01*
X378607Y246393D01*
X378506Y246709D01*
X377575Y248956D01*
X377575Y252844D01*
X379063Y256437D01*
X381813Y259187D01*
X385406Y260675D01*
X389294Y260675D01*
X392887Y259187D01*
X395637Y256437D01*
X397125Y252844D01*
X397125Y248956D01*
X396194Y246709D01*
X396190Y246696D01*
X396184Y246685D01*
X396132Y246504D01*
X396078Y246324D01*
X396077Y246311D01*
X396073Y246298D01*
X396057Y246110D01*
X396040Y245923D01*
X396041Y245910D01*
X396040Y245896D01*
X396062Y245709D01*
X396081Y245523D01*
X396085Y245510D01*
X396087Y245497D01*
X396145Y245317D01*
X396201Y245138D01*
X396208Y245127D01*
X396212Y245114D01*
X396305Y244949D01*
X396394Y244785D01*
X396403Y244775D01*
X396410Y244763D01*
X396533Y244621D01*
X396654Y244477D01*
X396664Y244469D01*
X396673Y244458D01*
X396821Y244343D01*
X396968Y244226D01*
X396980Y244220D01*
X396991Y244212D01*
X397160Y244128D01*
X397327Y244042D01*
X397339Y244038D01*
X397351Y244032D01*
X397534Y243983D01*
X397714Y243932D01*
X397727Y243931D01*
X397740Y243928D01*
X398071Y243901D01*
X413512Y243901D01*
X413530Y243903D01*
X413548Y243901D01*
X413730Y243922D01*
X413913Y243941D01*
X413930Y243946D01*
X413947Y243948D01*
X414122Y244005D01*
X414298Y244059D01*
X414313Y244067D01*
X414330Y244073D01*
X414490Y244163D01*
X414652Y244251D01*
X414665Y244262D01*
X414681Y244271D01*
X414820Y244391D01*
X414961Y244508D01*
X414972Y244522D01*
X414986Y244534D01*
X415098Y244679D01*
X415213Y244822D01*
X415221Y244838D01*
X415232Y244852D01*
X415314Y245017D01*
X415399Y245179D01*
X415404Y245196D01*
X415412Y245212D01*
X415459Y245391D01*
X415510Y245566D01*
X415512Y245584D01*
X415516Y245601D01*
X415543Y245932D01*
X415543Y299212D01*
X415541Y299230D01*
X415543Y299248D01*
X415522Y299430D01*
X415503Y299613D01*
X415498Y299630D01*
X415496Y299647D01*
X415439Y299821D01*
X415385Y299998D01*
X415377Y300013D01*
X415371Y300030D01*
X415281Y300190D01*
X415193Y300352D01*
X415182Y300365D01*
X415173Y300381D01*
X415053Y300520D01*
X414936Y300661D01*
X414922Y300672D01*
X414910Y300686D01*
X414765Y300798D01*
X414622Y300913D01*
X414606Y300921D01*
X414592Y300932D01*
X414427Y301014D01*
X414265Y301099D01*
X414248Y301104D01*
X414232Y301112D01*
X414053Y301159D01*
X413878Y301210D01*
X413860Y301212D01*
X413843Y301216D01*
X413512Y301243D01*
X332515Y301243D01*
X332488Y301241D01*
X332461Y301243D01*
X332287Y301221D01*
X332114Y301203D01*
X332089Y301196D01*
X332062Y301192D01*
X331896Y301137D01*
X331729Y301085D01*
X331706Y301072D01*
X331680Y301064D01*
X331529Y300977D01*
X331375Y300893D01*
X331355Y300876D01*
X331331Y300863D01*
X331078Y300648D01*
X326224Y295794D01*
X326207Y295773D01*
X326186Y295755D01*
X326079Y295618D01*
X325969Y295482D01*
X325956Y295459D01*
X325940Y295437D01*
X325862Y295280D01*
X325780Y295126D01*
X325772Y295101D01*
X325760Y295077D01*
X325715Y294907D01*
X325665Y294741D01*
X325663Y294714D01*
X325656Y294688D01*
X325629Y294357D01*
X325629Y288733D01*
X320867Y283971D01*
X314133Y283971D01*
X309371Y288733D01*
X309371Y295467D01*
X314133Y300229D01*
X319757Y300229D01*
X319784Y300231D01*
X319811Y300229D01*
X319985Y300251D01*
X320158Y300269D01*
X320183Y300276D01*
X320210Y300280D01*
X320376Y300335D01*
X320543Y300387D01*
X320566Y300400D01*
X320592Y300408D01*
X320743Y300495D01*
X320897Y300579D01*
X320917Y300596D01*
X320941Y300609D01*
X321194Y300824D01*
X328727Y308357D01*
X416785Y308357D01*
X416812Y308359D01*
X416839Y308357D01*
X417013Y308379D01*
X417186Y308397D01*
X417211Y308404D01*
X417238Y308408D01*
X417404Y308463D01*
X417571Y308515D01*
X417594Y308528D01*
X417620Y308536D01*
X417771Y308623D01*
X417925Y308707D01*
X417945Y308724D01*
X417969Y308737D01*
X418222Y308952D01*
X433998Y324728D01*
X434015Y324749D01*
X434036Y324767D01*
X434143Y324904D01*
X434253Y325040D01*
X434266Y325063D01*
X434282Y325085D01*
X434360Y325242D01*
X434442Y325396D01*
X434450Y325421D01*
X434462Y325445D01*
X434507Y325615D01*
X434557Y325781D01*
X434559Y325808D01*
X434566Y325834D01*
X434593Y326165D01*
X434593Y442185D01*
X434591Y442212D01*
X434593Y442239D01*
X434571Y442413D01*
X434553Y442586D01*
X434546Y442611D01*
X434542Y442638D01*
X434487Y442804D01*
X434435Y442971D01*
X434422Y442994D01*
X434414Y443020D01*
X434327Y443171D01*
X434243Y443325D01*
X434226Y443345D01*
X434213Y443369D01*
X433998Y443622D01*
X345693Y531927D01*
X345693Y556370D01*
X345691Y556396D01*
X345693Y556423D01*
X345671Y556597D01*
X345653Y556770D01*
X345646Y556796D01*
X345642Y556822D01*
X345586Y556988D01*
X345535Y557155D01*
X345522Y557179D01*
X345514Y557204D01*
X345427Y557356D01*
X345343Y557509D01*
X345326Y557530D01*
X345313Y557553D01*
X345098Y557806D01*
X341121Y561783D01*
X341121Y568517D01*
X345883Y573279D01*
X352617Y573279D01*
X357379Y568517D01*
X357379Y561783D01*
X353402Y557806D01*
X353385Y557785D01*
X353364Y557768D01*
X353257Y557630D01*
X353147Y557494D01*
X353134Y557471D01*
X353118Y557450D01*
X353040Y557293D01*
X352958Y557139D01*
X352950Y557113D01*
X352938Y557089D01*
X352893Y556920D01*
X352843Y556753D01*
X352841Y556726D01*
X352834Y556700D01*
X352807Y556370D01*
X352807Y535715D01*
X352809Y535688D01*
X352807Y535661D01*
X352829Y535487D01*
X352847Y535314D01*
X352854Y535289D01*
X352858Y535262D01*
X352913Y535096D01*
X352965Y534929D01*
X352978Y534906D01*
X352986Y534880D01*
X353073Y534729D01*
X353157Y534575D01*
X353174Y534555D01*
X353187Y534531D01*
X353402Y534278D01*
X441707Y445973D01*
X441707Y322377D01*
X423252Y303922D01*
X423235Y303901D01*
X423214Y303883D01*
X423107Y303746D01*
X422997Y303610D01*
X422984Y303587D01*
X422968Y303565D01*
X422890Y303408D01*
X422808Y303254D01*
X422800Y303229D01*
X422788Y303205D01*
X422743Y303035D01*
X422693Y302869D01*
X422691Y302842D01*
X422684Y302816D01*
X422657Y302485D01*
X422657Y157190D01*
X422659Y157163D01*
X422657Y157136D01*
X422679Y156962D01*
X422697Y156789D01*
X422704Y156763D01*
X422708Y156737D01*
X422764Y156571D01*
X422815Y156404D01*
X422828Y156380D01*
X422836Y156355D01*
X422923Y156203D01*
X423007Y156050D01*
X423024Y156029D01*
X423037Y156006D01*
X423252Y155753D01*
X423599Y155406D01*
X424335Y153628D01*
X424337Y153624D01*
X424339Y153620D01*
X424434Y153443D01*
X424526Y153273D01*
X424528Y153269D01*
X424531Y153266D01*
X424655Y153117D01*
X424782Y152963D01*
X424785Y152960D01*
X424788Y152956D01*
X424941Y152833D01*
X425095Y152709D01*
X425099Y152707D01*
X425102Y152704D01*
X425275Y152614D01*
X425451Y152522D01*
X425455Y152521D01*
X425459Y152518D01*
X425648Y152464D01*
X425838Y152409D01*
X425842Y152408D01*
X425846Y152407D01*
X425947Y152399D01*
X425777Y152379D01*
X425772Y152377D01*
X425768Y152377D01*
X425583Y152316D01*
X425394Y152254D01*
X425390Y152252D01*
X425386Y152250D01*
X425216Y152154D01*
X425043Y152056D01*
X425040Y152053D01*
X425036Y152051D01*
X424887Y151921D01*
X424739Y151793D01*
X424736Y151789D01*
X424732Y151787D01*
X424612Y151630D01*
X424492Y151475D01*
X424490Y151471D01*
X424487Y151467D01*
X424335Y151172D01*
X423599Y149394D01*
X422106Y147901D01*
X420156Y147093D01*
X418044Y147093D01*
G37*
%LPD*%
%LPC*%
G36*
X22033Y341121D02*
X22033Y341121D01*
X17271Y345883D01*
X17271Y352617D01*
X21248Y356594D01*
X21265Y356615D01*
X21286Y356632D01*
X21393Y356770D01*
X21503Y356906D01*
X21516Y356929D01*
X21532Y356950D01*
X21610Y357107D01*
X21692Y357261D01*
X21700Y357287D01*
X21712Y357311D01*
X21757Y357480D01*
X21807Y357647D01*
X21809Y357674D01*
X21816Y357700D01*
X21843Y358030D01*
X21843Y458673D01*
X42977Y479807D01*
X232635Y479807D01*
X232662Y479809D01*
X232689Y479807D01*
X232863Y479829D01*
X233036Y479847D01*
X233061Y479854D01*
X233088Y479858D01*
X233254Y479913D01*
X233421Y479965D01*
X233444Y479978D01*
X233470Y479986D01*
X233621Y480073D01*
X233775Y480157D01*
X233795Y480174D01*
X233819Y480187D01*
X234072Y480402D01*
X268898Y515228D01*
X268915Y515249D01*
X268936Y515267D01*
X269043Y515404D01*
X269153Y515540D01*
X269166Y515563D01*
X269182Y515585D01*
X269260Y515742D01*
X269342Y515896D01*
X269350Y515921D01*
X269362Y515945D01*
X269407Y516115D01*
X269457Y516281D01*
X269459Y516308D01*
X269466Y516334D01*
X269493Y516665D01*
X269493Y664320D01*
X269491Y664346D01*
X269493Y664373D01*
X269471Y664547D01*
X269453Y664720D01*
X269446Y664746D01*
X269442Y664772D01*
X269386Y664938D01*
X269335Y665105D01*
X269322Y665129D01*
X269314Y665154D01*
X269227Y665306D01*
X269143Y665459D01*
X269126Y665480D01*
X269113Y665503D01*
X268898Y665756D01*
X264921Y669733D01*
X264921Y676467D01*
X269683Y681229D01*
X275307Y681229D01*
X275334Y681231D01*
X275361Y681229D01*
X275535Y681251D01*
X275708Y681269D01*
X275733Y681276D01*
X275760Y681280D01*
X275926Y681335D01*
X276093Y681387D01*
X276116Y681400D01*
X276142Y681408D01*
X276293Y681495D01*
X276447Y681579D01*
X276467Y681596D01*
X276491Y681609D01*
X276744Y681824D01*
X286130Y691210D01*
X286141Y691223D01*
X286155Y691235D01*
X286269Y691379D01*
X286385Y691521D01*
X286393Y691537D01*
X286404Y691551D01*
X286488Y691715D01*
X286573Y691877D01*
X286578Y691894D01*
X286587Y691910D01*
X286636Y692087D01*
X286688Y692263D01*
X286690Y692281D01*
X286695Y692298D01*
X286708Y692481D01*
X286725Y692664D01*
X286723Y692681D01*
X286724Y692699D01*
X286701Y692881D01*
X286681Y693064D01*
X286676Y693081D01*
X286673Y693099D01*
X286615Y693272D01*
X286560Y693448D01*
X286551Y693463D01*
X286545Y693480D01*
X286453Y693640D01*
X286365Y693800D01*
X286353Y693814D01*
X286344Y693829D01*
X286130Y694082D01*
X285687Y694525D01*
X284535Y697305D01*
X284535Y712395D01*
X285687Y715175D01*
X287815Y717303D01*
X290595Y718455D01*
X293605Y718455D01*
X296385Y717303D01*
X298513Y715175D01*
X299665Y712395D01*
X299665Y697305D01*
X298513Y694525D01*
X296252Y692264D01*
X296235Y692243D01*
X296214Y692225D01*
X296107Y692087D01*
X295997Y691952D01*
X295984Y691928D01*
X295968Y691907D01*
X295890Y691751D01*
X295808Y691596D01*
X295800Y691571D01*
X295788Y691547D01*
X295743Y691378D01*
X295693Y691210D01*
X295691Y691184D01*
X295684Y691158D01*
X295657Y690827D01*
X295657Y690677D01*
X281774Y676794D01*
X281757Y676773D01*
X281736Y676755D01*
X281629Y676618D01*
X281519Y676482D01*
X281506Y676459D01*
X281490Y676437D01*
X281412Y676280D01*
X281330Y676126D01*
X281322Y676101D01*
X281310Y676077D01*
X281265Y675907D01*
X281215Y675741D01*
X281213Y675714D01*
X281206Y675688D01*
X281179Y675357D01*
X281179Y669733D01*
X277202Y665756D01*
X277185Y665735D01*
X277164Y665718D01*
X277057Y665580D01*
X276947Y665444D01*
X276934Y665421D01*
X276918Y665400D01*
X276840Y665243D01*
X276758Y665089D01*
X276750Y665063D01*
X276738Y665039D01*
X276693Y664870D01*
X276643Y664703D01*
X276641Y664676D01*
X276634Y664650D01*
X276607Y664320D01*
X276607Y512877D01*
X236423Y472693D01*
X46765Y472693D01*
X46738Y472691D01*
X46711Y472693D01*
X46537Y472671D01*
X46364Y472653D01*
X46339Y472646D01*
X46312Y472642D01*
X46146Y472587D01*
X45979Y472535D01*
X45956Y472522D01*
X45930Y472514D01*
X45779Y472427D01*
X45625Y472343D01*
X45605Y472326D01*
X45581Y472313D01*
X45328Y472098D01*
X29552Y456322D01*
X29535Y456301D01*
X29514Y456283D01*
X29407Y456146D01*
X29297Y456010D01*
X29284Y455987D01*
X29268Y455965D01*
X29190Y455808D01*
X29108Y455654D01*
X29100Y455629D01*
X29088Y455605D01*
X29043Y455435D01*
X28993Y455269D01*
X28991Y455242D01*
X28984Y455216D01*
X28957Y454885D01*
X28957Y358030D01*
X28959Y358004D01*
X28957Y357977D01*
X28979Y357803D01*
X28997Y357630D01*
X29004Y357604D01*
X29008Y357578D01*
X29064Y357412D01*
X29115Y357245D01*
X29128Y357221D01*
X29136Y357196D01*
X29223Y357044D01*
X29307Y356891D01*
X29324Y356870D01*
X29337Y356847D01*
X29552Y356594D01*
X33529Y352617D01*
X33529Y345883D01*
X28767Y341121D01*
X22033Y341121D01*
G37*
%LPD*%
%LPC*%
G36*
X429856Y526725D02*
X429856Y526725D01*
X426263Y528213D01*
X423513Y530963D01*
X422025Y534556D01*
X422025Y538444D01*
X422956Y540691D01*
X422960Y540704D01*
X422966Y540715D01*
X423018Y540896D01*
X423072Y541076D01*
X423073Y541089D01*
X423077Y541102D01*
X423093Y541290D01*
X423110Y541477D01*
X423109Y541490D01*
X423110Y541504D01*
X423088Y541691D01*
X423069Y541877D01*
X423065Y541890D01*
X423063Y541903D01*
X423005Y542083D01*
X422949Y542262D01*
X422942Y542273D01*
X422938Y542286D01*
X422845Y542451D01*
X422756Y542615D01*
X422747Y542625D01*
X422740Y542637D01*
X422617Y542779D01*
X422496Y542923D01*
X422486Y542931D01*
X422477Y542942D01*
X422329Y543057D01*
X422182Y543174D01*
X422170Y543180D01*
X422159Y543188D01*
X421990Y543272D01*
X421823Y543358D01*
X421811Y543362D01*
X421799Y543368D01*
X421616Y543417D01*
X421436Y543468D01*
X421423Y543469D01*
X421410Y543472D01*
X421079Y543499D01*
X403800Y543499D01*
X403799Y543500D01*
X403799Y599500D01*
X403800Y599501D01*
X459800Y599501D01*
X459801Y599500D01*
X459801Y543500D01*
X459800Y543499D01*
X442521Y543499D01*
X442508Y543498D01*
X442494Y543499D01*
X442308Y543478D01*
X442120Y543459D01*
X442107Y543455D01*
X442094Y543454D01*
X441916Y543397D01*
X441735Y543341D01*
X441724Y543335D01*
X441711Y543331D01*
X441547Y543239D01*
X441381Y543149D01*
X441371Y543141D01*
X441359Y543134D01*
X441216Y543012D01*
X441072Y542892D01*
X441064Y542881D01*
X441054Y542873D01*
X440937Y542724D01*
X440820Y542578D01*
X440814Y542566D01*
X440805Y542556D01*
X440721Y542387D01*
X440634Y542221D01*
X440631Y542208D01*
X440625Y542196D01*
X440575Y542014D01*
X440523Y541834D01*
X440522Y541820D01*
X440518Y541807D01*
X440505Y541619D01*
X440490Y541432D01*
X440492Y541419D01*
X440491Y541406D01*
X440515Y541218D01*
X440537Y541033D01*
X440541Y541020D01*
X440543Y541007D01*
X440644Y540691D01*
X441575Y538444D01*
X441575Y534556D01*
X440087Y530963D01*
X437337Y528213D01*
X433744Y526725D01*
X429856Y526725D01*
G37*
%LPD*%
%LPC*%
G36*
X74256Y361625D02*
X74256Y361625D01*
X70663Y363113D01*
X67913Y365863D01*
X66425Y369456D01*
X66425Y373344D01*
X67356Y375591D01*
X67360Y375604D01*
X67366Y375615D01*
X67418Y375796D01*
X67472Y375976D01*
X67473Y375989D01*
X67477Y376002D01*
X67493Y376190D01*
X67510Y376377D01*
X67509Y376390D01*
X67510Y376404D01*
X67488Y376591D01*
X67469Y376777D01*
X67465Y376790D01*
X67463Y376803D01*
X67405Y376983D01*
X67349Y377162D01*
X67342Y377173D01*
X67338Y377186D01*
X67245Y377351D01*
X67156Y377515D01*
X67147Y377525D01*
X67140Y377537D01*
X67017Y377679D01*
X66896Y377823D01*
X66886Y377831D01*
X66877Y377842D01*
X66729Y377957D01*
X66582Y378074D01*
X66570Y378080D01*
X66559Y378088D01*
X66390Y378172D01*
X66223Y378258D01*
X66211Y378262D01*
X66199Y378268D01*
X66016Y378317D01*
X65836Y378368D01*
X65823Y378369D01*
X65810Y378372D01*
X65479Y378399D01*
X48200Y378399D01*
X48199Y378400D01*
X48199Y434400D01*
X48200Y434401D01*
X104200Y434401D01*
X104201Y434400D01*
X104201Y378400D01*
X104200Y378399D01*
X86921Y378399D01*
X86908Y378398D01*
X86894Y378399D01*
X86708Y378378D01*
X86520Y378359D01*
X86507Y378355D01*
X86494Y378354D01*
X86316Y378297D01*
X86135Y378241D01*
X86124Y378235D01*
X86111Y378231D01*
X85947Y378139D01*
X85781Y378049D01*
X85771Y378041D01*
X85759Y378034D01*
X85616Y377912D01*
X85472Y377792D01*
X85464Y377781D01*
X85454Y377773D01*
X85337Y377624D01*
X85220Y377478D01*
X85214Y377466D01*
X85205Y377456D01*
X85121Y377287D01*
X85034Y377121D01*
X85031Y377108D01*
X85025Y377096D01*
X84975Y376914D01*
X84923Y376734D01*
X84922Y376720D01*
X84918Y376707D01*
X84905Y376519D01*
X84890Y376332D01*
X84892Y376319D01*
X84891Y376306D01*
X84915Y376118D01*
X84937Y375933D01*
X84941Y375920D01*
X84943Y375907D01*
X85044Y375591D01*
X85975Y373344D01*
X85975Y369456D01*
X84487Y365863D01*
X81737Y363113D01*
X78144Y361625D01*
X74256Y361625D01*
G37*
%LPD*%
%LPC*%
G36*
X359350Y48199D02*
X359350Y48199D01*
X359349Y48200D01*
X359349Y104200D01*
X359350Y104201D01*
X376629Y104201D01*
X376642Y104202D01*
X376656Y104201D01*
X376842Y104222D01*
X377030Y104241D01*
X377043Y104245D01*
X377056Y104246D01*
X377234Y104303D01*
X377415Y104359D01*
X377426Y104365D01*
X377439Y104369D01*
X377603Y104461D01*
X377769Y104551D01*
X377779Y104559D01*
X377791Y104566D01*
X377934Y104688D01*
X378078Y104808D01*
X378086Y104819D01*
X378096Y104827D01*
X378213Y104976D01*
X378330Y105122D01*
X378336Y105134D01*
X378345Y105144D01*
X378429Y105313D01*
X378516Y105479D01*
X378519Y105492D01*
X378525Y105504D01*
X378575Y105686D01*
X378627Y105866D01*
X378628Y105880D01*
X378632Y105893D01*
X378645Y106081D01*
X378660Y106268D01*
X378658Y106281D01*
X378659Y106294D01*
X378635Y106482D01*
X378613Y106667D01*
X378609Y106680D01*
X378607Y106693D01*
X378506Y107009D01*
X377575Y109256D01*
X377575Y113144D01*
X379063Y116737D01*
X381813Y119487D01*
X383067Y120006D01*
X383068Y120006D01*
X385406Y120975D01*
X389294Y120975D01*
X392887Y119487D01*
X395637Y116737D01*
X397125Y113144D01*
X397125Y109256D01*
X396194Y107009D01*
X396190Y106996D01*
X396184Y106985D01*
X396132Y106804D01*
X396078Y106624D01*
X396077Y106611D01*
X396073Y106598D01*
X396057Y106410D01*
X396040Y106223D01*
X396041Y106210D01*
X396040Y106196D01*
X396062Y106009D01*
X396081Y105823D01*
X396085Y105810D01*
X396087Y105797D01*
X396145Y105617D01*
X396201Y105438D01*
X396208Y105427D01*
X396212Y105414D01*
X396305Y105249D01*
X396394Y105085D01*
X396403Y105075D01*
X396410Y105063D01*
X396533Y104921D01*
X396654Y104777D01*
X396664Y104769D01*
X396673Y104758D01*
X396822Y104643D01*
X396968Y104526D01*
X396980Y104520D01*
X396991Y104512D01*
X397160Y104428D01*
X397327Y104342D01*
X397339Y104338D01*
X397351Y104332D01*
X397534Y104283D01*
X397714Y104232D01*
X397727Y104231D01*
X397740Y104228D01*
X398071Y104201D01*
X415350Y104201D01*
X415351Y104200D01*
X415351Y48200D01*
X415350Y48199D01*
X359350Y48199D01*
G37*
%LPD*%
%LPC*%
G36*
X67250Y48199D02*
X67250Y48199D01*
X67249Y48200D01*
X67249Y104200D01*
X67250Y104201D01*
X84529Y104201D01*
X84542Y104202D01*
X84556Y104201D01*
X84742Y104222D01*
X84930Y104241D01*
X84943Y104245D01*
X84956Y104246D01*
X85134Y104303D01*
X85315Y104359D01*
X85326Y104365D01*
X85339Y104369D01*
X85503Y104461D01*
X85669Y104551D01*
X85679Y104559D01*
X85691Y104566D01*
X85834Y104688D01*
X85978Y104808D01*
X85986Y104819D01*
X85996Y104827D01*
X86113Y104976D01*
X86230Y105122D01*
X86236Y105134D01*
X86245Y105144D01*
X86329Y105313D01*
X86416Y105479D01*
X86419Y105492D01*
X86425Y105504D01*
X86475Y105686D01*
X86527Y105866D01*
X86528Y105880D01*
X86532Y105893D01*
X86545Y106081D01*
X86560Y106268D01*
X86558Y106281D01*
X86559Y106294D01*
X86535Y106482D01*
X86513Y106667D01*
X86509Y106680D01*
X86507Y106693D01*
X86406Y107009D01*
X85475Y109256D01*
X85475Y113144D01*
X86963Y116737D01*
X89713Y119487D01*
X90967Y120006D01*
X90968Y120006D01*
X93306Y120975D01*
X97194Y120975D01*
X100787Y119487D01*
X103537Y116737D01*
X105025Y113144D01*
X105025Y109256D01*
X104094Y107009D01*
X104090Y106996D01*
X104084Y106985D01*
X104032Y106804D01*
X103978Y106624D01*
X103977Y106611D01*
X103973Y106598D01*
X103957Y106410D01*
X103940Y106223D01*
X103941Y106210D01*
X103940Y106196D01*
X103962Y106009D01*
X103981Y105823D01*
X103985Y105810D01*
X103987Y105797D01*
X104045Y105617D01*
X104101Y105438D01*
X104108Y105427D01*
X104112Y105414D01*
X104205Y105249D01*
X104294Y105085D01*
X104303Y105075D01*
X104310Y105063D01*
X104433Y104921D01*
X104554Y104777D01*
X104564Y104769D01*
X104573Y104758D01*
X104722Y104643D01*
X104868Y104526D01*
X104880Y104520D01*
X104891Y104512D01*
X105060Y104428D01*
X105227Y104342D01*
X105239Y104338D01*
X105251Y104332D01*
X105434Y104283D01*
X105614Y104232D01*
X105627Y104231D01*
X105640Y104228D01*
X105971Y104201D01*
X123250Y104201D01*
X123251Y104200D01*
X123251Y48200D01*
X123250Y48199D01*
X67250Y48199D01*
G37*
%LPD*%
%LPC*%
G36*
X74256Y526725D02*
X74256Y526725D01*
X70663Y528213D01*
X67913Y530963D01*
X66425Y534556D01*
X66425Y538444D01*
X67356Y540691D01*
X67360Y540704D01*
X67366Y540715D01*
X67418Y540895D01*
X67472Y541076D01*
X67474Y541089D01*
X67477Y541102D01*
X67493Y541290D01*
X67510Y541477D01*
X67509Y541490D01*
X67510Y541504D01*
X67488Y541690D01*
X67469Y541877D01*
X67465Y541890D01*
X67463Y541903D01*
X67405Y542083D01*
X67349Y542262D01*
X67343Y542273D01*
X67338Y542286D01*
X67246Y542450D01*
X67156Y542615D01*
X67147Y542625D01*
X67140Y542637D01*
X67018Y542779D01*
X66896Y542923D01*
X66886Y542931D01*
X66877Y542942D01*
X66729Y543056D01*
X66582Y543174D01*
X66570Y543180D01*
X66559Y543188D01*
X66391Y543272D01*
X66224Y543358D01*
X66211Y543362D01*
X66199Y543368D01*
X66016Y543417D01*
X65836Y543468D01*
X65823Y543469D01*
X65810Y543472D01*
X65479Y543499D01*
X48200Y543499D01*
X48199Y543500D01*
X48199Y599500D01*
X48200Y599501D01*
X104200Y599501D01*
X104201Y599500D01*
X104201Y543500D01*
X104200Y543499D01*
X86921Y543499D01*
X86907Y543498D01*
X86894Y543499D01*
X86708Y543478D01*
X86520Y543459D01*
X86507Y543455D01*
X86494Y543454D01*
X86316Y543397D01*
X86135Y543341D01*
X86123Y543335D01*
X86111Y543331D01*
X85947Y543239D01*
X85781Y543149D01*
X85771Y543141D01*
X85759Y543134D01*
X85616Y543011D01*
X85472Y542892D01*
X85464Y542881D01*
X85453Y542873D01*
X85337Y542724D01*
X85220Y542578D01*
X85214Y542566D01*
X85205Y542556D01*
X85120Y542386D01*
X85034Y542221D01*
X85031Y542208D01*
X85024Y542196D01*
X84975Y542014D01*
X84923Y541834D01*
X84922Y541820D01*
X84918Y541807D01*
X84905Y541620D01*
X84890Y541432D01*
X84891Y541419D01*
X84891Y541406D01*
X84915Y541218D01*
X84937Y541033D01*
X84941Y541020D01*
X84943Y541007D01*
X85044Y540691D01*
X85975Y538444D01*
X85975Y534556D01*
X84487Y530963D01*
X81737Y528213D01*
X78144Y526725D01*
X74256Y526725D01*
G37*
%LPD*%
%LPC*%
G36*
X213300Y48199D02*
X213300Y48199D01*
X213299Y48200D01*
X213299Y104200D01*
X213300Y104201D01*
X230579Y104201D01*
X230593Y104202D01*
X230606Y104201D01*
X230792Y104222D01*
X230980Y104241D01*
X230993Y104245D01*
X231006Y104246D01*
X231184Y104303D01*
X231365Y104359D01*
X231377Y104365D01*
X231389Y104369D01*
X231553Y104461D01*
X231719Y104551D01*
X231729Y104559D01*
X231741Y104566D01*
X231884Y104689D01*
X232028Y104808D01*
X232036Y104819D01*
X232047Y104827D01*
X232163Y104976D01*
X232280Y105122D01*
X232286Y105134D01*
X232295Y105144D01*
X232380Y105314D01*
X232466Y105479D01*
X232469Y105492D01*
X232476Y105504D01*
X232525Y105686D01*
X232577Y105866D01*
X232578Y105880D01*
X232582Y105893D01*
X232595Y106080D01*
X232610Y106268D01*
X232609Y106281D01*
X232609Y106294D01*
X232585Y106482D01*
X232563Y106667D01*
X232559Y106680D01*
X232557Y106693D01*
X232456Y107009D01*
X231525Y109256D01*
X231525Y113144D01*
X233013Y116737D01*
X235763Y119487D01*
X237017Y120006D01*
X237018Y120006D01*
X239356Y120975D01*
X243244Y120975D01*
X246837Y119487D01*
X249587Y116737D01*
X251075Y113144D01*
X251075Y109256D01*
X250144Y107009D01*
X250140Y106996D01*
X250134Y106985D01*
X250082Y106805D01*
X250028Y106624D01*
X250026Y106611D01*
X250023Y106598D01*
X250007Y106410D01*
X249990Y106223D01*
X249991Y106210D01*
X249990Y106196D01*
X250012Y106010D01*
X250031Y105823D01*
X250035Y105810D01*
X250037Y105797D01*
X250095Y105617D01*
X250151Y105438D01*
X250157Y105427D01*
X250162Y105414D01*
X250254Y105250D01*
X250344Y105085D01*
X250353Y105075D01*
X250360Y105063D01*
X250482Y104921D01*
X250604Y104777D01*
X250614Y104769D01*
X250623Y104758D01*
X250771Y104644D01*
X250918Y104526D01*
X250930Y104520D01*
X250941Y104512D01*
X251109Y104428D01*
X251276Y104342D01*
X251289Y104338D01*
X251301Y104332D01*
X251484Y104283D01*
X251664Y104232D01*
X251677Y104231D01*
X251690Y104228D01*
X252021Y104201D01*
X269300Y104201D01*
X269301Y104200D01*
X269301Y48200D01*
X269300Y48199D01*
X213300Y48199D01*
G37*
%LPD*%
%LPC*%
G36*
X213300Y187899D02*
X213300Y187899D01*
X213299Y187900D01*
X213299Y243900D01*
X213300Y243901D01*
X230579Y243901D01*
X230593Y243902D01*
X230606Y243901D01*
X230792Y243922D01*
X230980Y243941D01*
X230993Y243945D01*
X231006Y243946D01*
X231184Y244003D01*
X231365Y244059D01*
X231377Y244065D01*
X231389Y244069D01*
X231553Y244161D01*
X231719Y244251D01*
X231729Y244259D01*
X231741Y244266D01*
X231884Y244389D01*
X232028Y244508D01*
X232036Y244519D01*
X232047Y244527D01*
X232163Y244676D01*
X232280Y244822D01*
X232286Y244834D01*
X232295Y244844D01*
X232379Y245013D01*
X232466Y245179D01*
X232469Y245192D01*
X232476Y245204D01*
X232525Y245386D01*
X232577Y245566D01*
X232578Y245580D01*
X232582Y245593D01*
X232595Y245780D01*
X232610Y245968D01*
X232609Y245981D01*
X232609Y245994D01*
X232585Y246182D01*
X232563Y246367D01*
X232559Y246380D01*
X232557Y246393D01*
X232456Y246709D01*
X231525Y248956D01*
X231525Y252844D01*
X233013Y256437D01*
X235763Y259187D01*
X239356Y260675D01*
X243244Y260675D01*
X246837Y259187D01*
X249587Y256437D01*
X251075Y252844D01*
X251075Y248956D01*
X250144Y246709D01*
X250140Y246696D01*
X250134Y246685D01*
X250082Y246505D01*
X250028Y246324D01*
X250026Y246311D01*
X250023Y246298D01*
X250007Y246110D01*
X249990Y245923D01*
X249991Y245910D01*
X249990Y245896D01*
X250012Y245709D01*
X250031Y245523D01*
X250035Y245510D01*
X250037Y245497D01*
X250095Y245317D01*
X250151Y245138D01*
X250157Y245127D01*
X250162Y245114D01*
X250254Y244950D01*
X250344Y244785D01*
X250353Y244775D01*
X250360Y244763D01*
X250482Y244621D01*
X250604Y244477D01*
X250614Y244469D01*
X250623Y244458D01*
X250771Y244344D01*
X250918Y244226D01*
X250930Y244220D01*
X250941Y244212D01*
X251109Y244128D01*
X251276Y244042D01*
X251289Y244038D01*
X251301Y244032D01*
X251484Y243983D01*
X251664Y243932D01*
X251677Y243931D01*
X251690Y243928D01*
X252021Y243901D01*
X269300Y243901D01*
X269301Y243900D01*
X269301Y187900D01*
X269300Y187899D01*
X213300Y187899D01*
G37*
%LPD*%
%LPC*%
G36*
X67250Y187899D02*
X67250Y187899D01*
X67249Y187900D01*
X67249Y243900D01*
X67250Y243901D01*
X84529Y243901D01*
X84543Y243902D01*
X84556Y243901D01*
X84742Y243922D01*
X84930Y243941D01*
X84943Y243945D01*
X84956Y243946D01*
X85134Y244003D01*
X85315Y244059D01*
X85327Y244065D01*
X85339Y244069D01*
X85503Y244161D01*
X85669Y244251D01*
X85679Y244259D01*
X85691Y244266D01*
X85834Y244389D01*
X85978Y244508D01*
X85986Y244519D01*
X85997Y244527D01*
X86113Y244676D01*
X86230Y244822D01*
X86236Y244834D01*
X86245Y244844D01*
X86329Y245013D01*
X86416Y245179D01*
X86419Y245192D01*
X86426Y245204D01*
X86475Y245386D01*
X86527Y245566D01*
X86528Y245580D01*
X86532Y245593D01*
X86545Y245780D01*
X86560Y245968D01*
X86559Y245981D01*
X86559Y245994D01*
X86535Y246182D01*
X86513Y246367D01*
X86509Y246380D01*
X86507Y246393D01*
X86406Y246709D01*
X85475Y248956D01*
X85475Y252844D01*
X86963Y256437D01*
X89713Y259187D01*
X93306Y260675D01*
X97194Y260675D01*
X100787Y259187D01*
X103537Y256437D01*
X105025Y252844D01*
X105025Y248956D01*
X104094Y246709D01*
X104090Y246696D01*
X104084Y246685D01*
X104032Y246505D01*
X103978Y246324D01*
X103976Y246311D01*
X103973Y246298D01*
X103957Y246110D01*
X103940Y245923D01*
X103941Y245910D01*
X103940Y245896D01*
X103962Y245709D01*
X103981Y245523D01*
X103985Y245510D01*
X103987Y245497D01*
X104045Y245317D01*
X104101Y245138D01*
X104107Y245127D01*
X104112Y245114D01*
X104204Y244950D01*
X104294Y244785D01*
X104303Y244775D01*
X104310Y244763D01*
X104432Y244621D01*
X104554Y244477D01*
X104564Y244469D01*
X104573Y244458D01*
X104721Y244344D01*
X104868Y244226D01*
X104880Y244220D01*
X104891Y244212D01*
X105059Y244128D01*
X105226Y244042D01*
X105239Y244038D01*
X105251Y244032D01*
X105434Y243983D01*
X105614Y243932D01*
X105627Y243931D01*
X105640Y243928D01*
X105971Y243901D01*
X123250Y243901D01*
X123251Y243900D01*
X123251Y187900D01*
X123250Y187899D01*
X67250Y187899D01*
G37*
%LPD*%
%LPC*%
G36*
X27431Y16255D02*
X27431Y16255D01*
X27431Y25400D01*
X27430Y25417D01*
X27431Y25435D01*
X27410Y25618D01*
X27391Y25800D01*
X27386Y25817D01*
X27384Y25835D01*
X27327Y26010D01*
X27273Y26185D01*
X27265Y26201D01*
X27259Y26218D01*
X27169Y26378D01*
X27082Y26539D01*
X27070Y26553D01*
X27061Y26568D01*
X26941Y26708D01*
X26824Y26848D01*
X26824Y26849D01*
X26823Y26849D01*
X26810Y26860D01*
X26798Y26873D01*
X26798Y26874D01*
X26653Y26986D01*
X26510Y27101D01*
X26494Y27110D01*
X26480Y27120D01*
X26315Y27202D01*
X26152Y27287D01*
X26135Y27292D01*
X26119Y27300D01*
X25941Y27348D01*
X25765Y27398D01*
X25748Y27400D01*
X25730Y27404D01*
X25400Y27431D01*
X16255Y27431D01*
X16255Y29188D01*
X21612Y34545D01*
X25371Y34545D01*
X25380Y34546D01*
X25389Y34545D01*
X25581Y34566D01*
X25772Y34585D01*
X25781Y34587D01*
X25789Y34588D01*
X25971Y34646D01*
X26157Y34703D01*
X26165Y34707D01*
X26173Y34710D01*
X26342Y34803D01*
X26511Y34895D01*
X26518Y34900D01*
X26526Y34905D01*
X26673Y35029D01*
X26820Y35152D01*
X26826Y35159D01*
X26833Y35165D01*
X26952Y35316D01*
X27073Y35466D01*
X27077Y35474D01*
X27082Y35481D01*
X27170Y35654D01*
X27258Y35823D01*
X27261Y35832D01*
X27265Y35840D01*
X27317Y36026D01*
X27369Y36210D01*
X27370Y36219D01*
X27373Y36228D01*
X27387Y36421D01*
X27402Y36612D01*
X27401Y36620D01*
X27402Y36629D01*
X27378Y36822D01*
X27355Y37011D01*
X27353Y37020D01*
X27352Y37029D01*
X27290Y37212D01*
X27231Y37394D01*
X27226Y37402D01*
X27223Y37410D01*
X27127Y37577D01*
X27033Y37745D01*
X27027Y37752D01*
X27022Y37759D01*
X26808Y38012D01*
X21843Y42977D01*
X21843Y92820D01*
X21841Y92846D01*
X21843Y92873D01*
X21821Y93047D01*
X21803Y93220D01*
X21796Y93246D01*
X21792Y93272D01*
X21737Y93438D01*
X21685Y93605D01*
X21672Y93629D01*
X21664Y93654D01*
X21577Y93806D01*
X21493Y93959D01*
X21476Y93980D01*
X21463Y94003D01*
X21248Y94256D01*
X17271Y98233D01*
X17271Y104967D01*
X22033Y109729D01*
X27657Y109729D01*
X27684Y109731D01*
X27711Y109729D01*
X27885Y109751D01*
X28058Y109769D01*
X28083Y109776D01*
X28110Y109780D01*
X28276Y109835D01*
X28443Y109887D01*
X28466Y109900D01*
X28492Y109908D01*
X28643Y109995D01*
X28797Y110079D01*
X28817Y110096D01*
X28841Y110109D01*
X29094Y110324D01*
X40298Y121528D01*
X40315Y121549D01*
X40336Y121567D01*
X40443Y121704D01*
X40553Y121840D01*
X40566Y121863D01*
X40582Y121885D01*
X40660Y122042D01*
X40742Y122196D01*
X40750Y122221D01*
X40762Y122245D01*
X40807Y122415D01*
X40857Y122581D01*
X40859Y122608D01*
X40866Y122634D01*
X40893Y122965D01*
X40893Y251685D01*
X40891Y251712D01*
X40893Y251739D01*
X40871Y251913D01*
X40853Y252086D01*
X40846Y252111D01*
X40842Y252138D01*
X40787Y252304D01*
X40735Y252471D01*
X40722Y252494D01*
X40714Y252520D01*
X40627Y252671D01*
X40543Y252825D01*
X40526Y252845D01*
X40513Y252869D01*
X40298Y253122D01*
X29094Y264326D01*
X29073Y264343D01*
X29055Y264364D01*
X28918Y264471D01*
X28782Y264581D01*
X28759Y264594D01*
X28737Y264610D01*
X28580Y264688D01*
X28426Y264770D01*
X28401Y264778D01*
X28377Y264790D01*
X28207Y264835D01*
X28041Y264885D01*
X28014Y264887D01*
X27988Y264894D01*
X27657Y264921D01*
X22033Y264921D01*
X17271Y269683D01*
X17271Y276417D01*
X22033Y281179D01*
X28767Y281179D01*
X33529Y276417D01*
X33529Y270793D01*
X33531Y270766D01*
X33529Y270739D01*
X33551Y270565D01*
X33569Y270392D01*
X33576Y270367D01*
X33580Y270340D01*
X33635Y270174D01*
X33687Y270007D01*
X33700Y269984D01*
X33708Y269958D01*
X33795Y269807D01*
X33879Y269653D01*
X33896Y269633D01*
X33909Y269609D01*
X34124Y269356D01*
X48007Y255473D01*
X48007Y119177D01*
X34124Y105294D01*
X34107Y105273D01*
X34086Y105255D01*
X33979Y105118D01*
X33869Y104982D01*
X33856Y104959D01*
X33840Y104937D01*
X33762Y104780D01*
X33680Y104626D01*
X33672Y104601D01*
X33660Y104577D01*
X33615Y104407D01*
X33565Y104241D01*
X33563Y104214D01*
X33556Y104188D01*
X33529Y103857D01*
X33529Y98233D01*
X29552Y94256D01*
X29535Y94235D01*
X29514Y94218D01*
X29407Y94080D01*
X29297Y93944D01*
X29284Y93921D01*
X29268Y93900D01*
X29190Y93743D01*
X29108Y93589D01*
X29100Y93563D01*
X29088Y93539D01*
X29043Y93370D01*
X28993Y93203D01*
X28991Y93176D01*
X28984Y93150D01*
X28957Y92820D01*
X28957Y46765D01*
X28959Y46738D01*
X28957Y46711D01*
X28979Y46537D01*
X28997Y46364D01*
X29004Y46339D01*
X29008Y46312D01*
X29063Y46146D01*
X29115Y45979D01*
X29128Y45956D01*
X29136Y45930D01*
X29223Y45779D01*
X29307Y45625D01*
X29324Y45605D01*
X29337Y45581D01*
X29552Y45328D01*
X45328Y29552D01*
X45349Y29535D01*
X45367Y29514D01*
X45504Y29407D01*
X45640Y29297D01*
X45663Y29284D01*
X45685Y29268D01*
X45842Y29190D01*
X45996Y29108D01*
X46021Y29100D01*
X46045Y29088D01*
X46215Y29043D01*
X46381Y28993D01*
X46408Y28991D01*
X46434Y28984D01*
X46765Y28957D01*
X84455Y28957D01*
X84477Y28959D01*
X84499Y28957D01*
X84676Y28979D01*
X84855Y28997D01*
X84877Y29003D01*
X84899Y29006D01*
X85068Y29062D01*
X85240Y29115D01*
X85260Y29125D01*
X85281Y29132D01*
X85436Y29221D01*
X85594Y29307D01*
X85611Y29321D01*
X85631Y29332D01*
X85766Y29450D01*
X85903Y29564D01*
X85917Y29582D01*
X85934Y29596D01*
X86043Y29738D01*
X86156Y29878D01*
X86166Y29898D01*
X86180Y29916D01*
X86331Y30211D01*
X86963Y31737D01*
X89713Y34487D01*
X93306Y35975D01*
X97194Y35975D01*
X100787Y34487D01*
X103537Y31737D01*
X105025Y28144D01*
X105025Y27847D01*
X105027Y27820D01*
X105025Y27793D01*
X105047Y27620D01*
X105065Y27446D01*
X105073Y27420D01*
X105076Y27394D01*
X105132Y27228D01*
X105167Y27113D01*
X105167Y27112D01*
X105187Y27014D01*
X105197Y26914D01*
X105226Y26817D01*
X105246Y26718D01*
X105285Y26625D01*
X105315Y26529D01*
X105325Y26510D01*
X105173Y25303D01*
X105170Y25216D01*
X105157Y25049D01*
X105157Y23824D01*
X105110Y23754D01*
X105072Y23660D01*
X105025Y23571D01*
X105019Y23550D01*
X104908Y23445D01*
X104789Y23341D01*
X104762Y23307D01*
X104731Y23277D01*
X104640Y23148D01*
X104543Y23022D01*
X104521Y22979D01*
X104499Y22948D01*
X104464Y22868D01*
X104392Y22727D01*
X103537Y20663D01*
X100787Y17913D01*
X97194Y16425D01*
X93306Y16425D01*
X89713Y17913D01*
X86951Y20676D01*
X86888Y20787D01*
X86804Y20944D01*
X86790Y20961D01*
X86779Y20981D01*
X86661Y21116D01*
X86547Y21255D01*
X86530Y21269D01*
X86515Y21286D01*
X86374Y21395D01*
X86235Y21508D01*
X86215Y21519D01*
X86197Y21532D01*
X86036Y21612D01*
X85878Y21695D01*
X85857Y21702D01*
X85837Y21712D01*
X85663Y21758D01*
X85492Y21808D01*
X85470Y21810D01*
X85448Y21816D01*
X85117Y21843D01*
X42977Y21843D01*
X40298Y24522D01*
X38012Y26808D01*
X38005Y26813D01*
X38000Y26820D01*
X37850Y26941D01*
X37701Y27063D01*
X37693Y27067D01*
X37686Y27073D01*
X37516Y27161D01*
X37345Y27251D01*
X37336Y27254D01*
X37329Y27258D01*
X37144Y27311D01*
X36959Y27366D01*
X36950Y27367D01*
X36942Y27369D01*
X36751Y27385D01*
X36558Y27403D01*
X36549Y27402D01*
X36540Y27402D01*
X36351Y27380D01*
X36158Y27359D01*
X36149Y27356D01*
X36141Y27355D01*
X35959Y27296D01*
X35774Y27238D01*
X35766Y27233D01*
X35758Y27231D01*
X35589Y27136D01*
X35422Y27043D01*
X35415Y27037D01*
X35407Y27033D01*
X35261Y26907D01*
X35115Y26782D01*
X35109Y26775D01*
X35102Y26770D01*
X34985Y26618D01*
X34865Y26466D01*
X34861Y26458D01*
X34856Y26451D01*
X34770Y26279D01*
X34683Y26108D01*
X34680Y26099D01*
X34676Y26091D01*
X34626Y25905D01*
X34575Y25720D01*
X34574Y25711D01*
X34572Y25702D01*
X34545Y25371D01*
X34545Y21612D01*
X29188Y16255D01*
X27431Y16255D01*
G37*
%LPD*%
%LPC*%
G36*
X345806Y913637D02*
X345806Y913637D01*
X339152Y915420D01*
X333186Y918865D01*
X328315Y923736D01*
X324870Y929702D01*
X323087Y936356D01*
X323087Y943244D01*
X324870Y949898D01*
X328315Y955864D01*
X333186Y960735D01*
X339152Y964180D01*
X345806Y965963D01*
X352694Y965963D01*
X359348Y964180D01*
X365314Y960735D01*
X370185Y955864D01*
X373630Y949898D01*
X375413Y943244D01*
X375413Y936356D01*
X373630Y929702D01*
X370185Y923736D01*
X365314Y918865D01*
X359348Y915420D01*
X352694Y913637D01*
X345806Y913637D01*
G37*
%LPD*%
%LPC*%
G36*
X239356Y16425D02*
X239356Y16425D01*
X235763Y17913D01*
X233013Y20663D01*
X231525Y24256D01*
X231525Y28144D01*
X233013Y31737D01*
X235763Y34487D01*
X239356Y35975D01*
X243244Y35975D01*
X246837Y34487D01*
X249587Y31737D01*
X250219Y30211D01*
X250229Y30191D01*
X250236Y30170D01*
X250324Y30014D01*
X250409Y29856D01*
X250423Y29839D01*
X250434Y29819D01*
X250551Y29684D01*
X250665Y29545D01*
X250683Y29531D01*
X250697Y29514D01*
X250839Y29405D01*
X250978Y29292D01*
X250998Y29281D01*
X251015Y29268D01*
X251176Y29188D01*
X251335Y29105D01*
X251356Y29098D01*
X251376Y29088D01*
X251550Y29042D01*
X251721Y28992D01*
X251743Y28990D01*
X251765Y28984D01*
X252095Y28957D01*
X277085Y28957D01*
X277112Y28959D01*
X277139Y28957D01*
X277313Y28979D01*
X277486Y28997D01*
X277511Y29004D01*
X277538Y29008D01*
X277704Y29063D01*
X277871Y29115D01*
X277894Y29128D01*
X277920Y29136D01*
X278071Y29223D01*
X278225Y29307D01*
X278245Y29324D01*
X278269Y29337D01*
X278522Y29552D01*
X287948Y38978D01*
X287965Y38999D01*
X287986Y39017D01*
X288093Y39154D01*
X288203Y39290D01*
X288216Y39313D01*
X288232Y39335D01*
X288310Y39492D01*
X288392Y39646D01*
X288400Y39671D01*
X288412Y39695D01*
X288457Y39865D01*
X288507Y40031D01*
X288509Y40058D01*
X288516Y40084D01*
X288543Y40415D01*
X288543Y223810D01*
X288541Y223837D01*
X288543Y223864D01*
X288521Y224038D01*
X288503Y224211D01*
X288496Y224237D01*
X288492Y224263D01*
X288437Y224429D01*
X288385Y224596D01*
X288372Y224620D01*
X288364Y224645D01*
X288277Y224797D01*
X288193Y224950D01*
X288176Y224971D01*
X288163Y224994D01*
X287948Y225247D01*
X287601Y225594D01*
X286793Y227544D01*
X286793Y229656D01*
X287601Y231606D01*
X289094Y233099D01*
X291044Y233907D01*
X293156Y233907D01*
X295106Y233099D01*
X296599Y231606D01*
X297407Y229656D01*
X297407Y227544D01*
X296599Y225594D01*
X296252Y225247D01*
X296235Y225226D01*
X296214Y225209D01*
X296107Y225071D01*
X295997Y224935D01*
X295984Y224912D01*
X295968Y224891D01*
X295890Y224734D01*
X295808Y224580D01*
X295800Y224554D01*
X295788Y224530D01*
X295743Y224361D01*
X295693Y224194D01*
X295691Y224167D01*
X295684Y224141D01*
X295657Y223810D01*
X295657Y36627D01*
X280873Y21843D01*
X251433Y21843D01*
X251410Y21841D01*
X251388Y21843D01*
X251210Y21821D01*
X251032Y21803D01*
X251011Y21797D01*
X250988Y21794D01*
X250818Y21738D01*
X250647Y21685D01*
X250627Y21675D01*
X250606Y21668D01*
X250450Y21579D01*
X250293Y21493D01*
X250276Y21479D01*
X250257Y21468D01*
X250121Y21350D01*
X249984Y21236D01*
X249970Y21218D01*
X249953Y21204D01*
X249844Y21062D01*
X249732Y20922D01*
X249721Y20902D01*
X249708Y20884D01*
X249602Y20678D01*
X246837Y17913D01*
X243244Y16425D01*
X239356Y16425D01*
G37*
%LPD*%
%LPC*%
G36*
X276033Y303021D02*
X276033Y303021D01*
X271271Y307783D01*
X271271Y314517D01*
X275248Y318494D01*
X275265Y318515D01*
X275286Y318532D01*
X275393Y318670D01*
X275503Y318806D01*
X275516Y318829D01*
X275532Y318850D01*
X275610Y319007D01*
X275692Y319161D01*
X275700Y319187D01*
X275712Y319211D01*
X275757Y319380D01*
X275807Y319547D01*
X275809Y319574D01*
X275816Y319600D01*
X275843Y319930D01*
X275843Y465023D01*
X294298Y483478D01*
X294315Y483499D01*
X294336Y483517D01*
X294443Y483654D01*
X294553Y483790D01*
X294566Y483813D01*
X294582Y483835D01*
X294660Y483992D01*
X294742Y484146D01*
X294750Y484171D01*
X294762Y484195D01*
X294807Y484365D01*
X294857Y484531D01*
X294859Y484558D01*
X294866Y484584D01*
X294893Y484915D01*
X294893Y518270D01*
X294891Y518296D01*
X294893Y518323D01*
X294871Y518497D01*
X294853Y518670D01*
X294846Y518696D01*
X294842Y518722D01*
X294786Y518888D01*
X294735Y519055D01*
X294722Y519079D01*
X294714Y519104D01*
X294627Y519256D01*
X294543Y519409D01*
X294526Y519430D01*
X294513Y519453D01*
X294298Y519706D01*
X290321Y523683D01*
X290321Y530417D01*
X295083Y535179D01*
X301817Y535179D01*
X306579Y530417D01*
X306579Y523683D01*
X302602Y519706D01*
X302585Y519685D01*
X302564Y519668D01*
X302457Y519530D01*
X302347Y519394D01*
X302334Y519371D01*
X302318Y519350D01*
X302240Y519193D01*
X302158Y519039D01*
X302150Y519013D01*
X302138Y518989D01*
X302093Y518820D01*
X302043Y518653D01*
X302041Y518626D01*
X302034Y518600D01*
X302007Y518270D01*
X302007Y481127D01*
X283552Y462672D01*
X283535Y462651D01*
X283514Y462633D01*
X283407Y462496D01*
X283297Y462360D01*
X283284Y462337D01*
X283268Y462315D01*
X283190Y462158D01*
X283108Y462004D01*
X283100Y461979D01*
X283088Y461955D01*
X283043Y461785D01*
X282993Y461619D01*
X282991Y461592D01*
X282984Y461566D01*
X282957Y461235D01*
X282957Y319930D01*
X282959Y319904D01*
X282957Y319877D01*
X282979Y319703D01*
X282997Y319530D01*
X283004Y319504D01*
X283008Y319478D01*
X283064Y319312D01*
X283115Y319145D01*
X283128Y319121D01*
X283136Y319096D01*
X283223Y318944D01*
X283307Y318791D01*
X283324Y318770D01*
X283337Y318747D01*
X283552Y318494D01*
X287529Y314517D01*
X287529Y307783D01*
X282767Y303021D01*
X276033Y303021D01*
G37*
%LPD*%
%LPC*%
G36*
X169186Y491593D02*
X169186Y491593D01*
X168293Y492486D01*
X168293Y505480D01*
X168290Y505510D01*
X168292Y505540D01*
X168270Y505710D01*
X168253Y505880D01*
X168244Y505909D01*
X168241Y505939D01*
X168185Y506102D01*
X168135Y506265D01*
X168121Y506292D01*
X168111Y506321D01*
X168025Y506469D01*
X167943Y506619D01*
X167924Y506643D01*
X167909Y506669D01*
X167693Y506921D01*
X119778Y554503D01*
X119760Y554518D01*
X119745Y554536D01*
X119698Y554572D01*
X118143Y556127D01*
X118140Y556129D01*
X118138Y556132D01*
X117093Y557169D01*
X117093Y558640D01*
X117093Y558643D01*
X117093Y558647D01*
X117086Y560859D01*
X117093Y560953D01*
X117093Y594585D01*
X117091Y594612D01*
X117093Y594639D01*
X117071Y594813D01*
X117053Y594986D01*
X117046Y595011D01*
X117042Y595038D01*
X116987Y595204D01*
X116935Y595371D01*
X116922Y595394D01*
X116914Y595420D01*
X116827Y595571D01*
X116743Y595725D01*
X116726Y595745D01*
X116713Y595769D01*
X116498Y596022D01*
X94372Y618148D01*
X94351Y618165D01*
X94333Y618186D01*
X94196Y618293D01*
X94060Y618403D01*
X94037Y618416D01*
X94015Y618432D01*
X93858Y618510D01*
X93704Y618592D01*
X93679Y618600D01*
X93655Y618612D01*
X93485Y618657D01*
X93319Y618707D01*
X93292Y618709D01*
X93266Y618716D01*
X92935Y618743D01*
X86995Y618743D01*
X86973Y618741D01*
X86951Y618743D01*
X86774Y618721D01*
X86595Y618703D01*
X86573Y618697D01*
X86551Y618694D01*
X86382Y618638D01*
X86210Y618585D01*
X86190Y618575D01*
X86169Y618568D01*
X86014Y618479D01*
X85856Y618393D01*
X85839Y618379D01*
X85819Y618368D01*
X85684Y618250D01*
X85547Y618136D01*
X85533Y618118D01*
X85516Y618104D01*
X85407Y617962D01*
X85294Y617822D01*
X85284Y617802D01*
X85270Y617784D01*
X85119Y617489D01*
X84487Y615963D01*
X81737Y613213D01*
X78144Y611725D01*
X74256Y611725D01*
X70663Y613213D01*
X67913Y615963D01*
X66425Y619556D01*
X66425Y623444D01*
X67913Y627037D01*
X70663Y629787D01*
X74256Y631275D01*
X78144Y631275D01*
X81737Y629787D01*
X84499Y627024D01*
X84562Y626913D01*
X84646Y626756D01*
X84660Y626739D01*
X84671Y626719D01*
X84789Y626583D01*
X84903Y626445D01*
X84920Y626431D01*
X84935Y626414D01*
X85076Y626305D01*
X85215Y626192D01*
X85235Y626181D01*
X85253Y626168D01*
X85413Y626088D01*
X85572Y626005D01*
X85593Y625998D01*
X85613Y625988D01*
X85787Y625942D01*
X85958Y625892D01*
X85980Y625890D01*
X86002Y625884D01*
X86333Y625857D01*
X96723Y625857D01*
X124207Y598373D01*
X124207Y560976D01*
X124210Y560946D01*
X124208Y560916D01*
X124230Y560746D01*
X124247Y560575D01*
X124256Y560546D01*
X124259Y560516D01*
X124315Y560354D01*
X124365Y560191D01*
X124379Y560164D01*
X124389Y560135D01*
X124475Y559987D01*
X124557Y559836D01*
X124576Y559813D01*
X124591Y559787D01*
X124807Y559535D01*
X172678Y511997D01*
X172696Y511982D01*
X172711Y511964D01*
X172851Y511855D01*
X172990Y511743D01*
X173011Y511732D01*
X173029Y511718D01*
X173188Y511638D01*
X173346Y511555D01*
X173368Y511549D01*
X173389Y511538D01*
X173562Y511492D01*
X173733Y511442D01*
X173756Y511440D01*
X173778Y511434D01*
X174109Y511407D01*
X187214Y511407D01*
X188107Y510514D01*
X188107Y492486D01*
X187214Y491593D01*
X169186Y491593D01*
G37*
%LPD*%
%LPC*%
G36*
X169186Y326493D02*
X169186Y326493D01*
X168293Y327386D01*
X168293Y340380D01*
X168290Y340410D01*
X168292Y340440D01*
X168270Y340610D01*
X168253Y340780D01*
X168244Y340809D01*
X168241Y340839D01*
X168185Y341002D01*
X168135Y341165D01*
X168121Y341192D01*
X168111Y341221D01*
X168025Y341369D01*
X167943Y341519D01*
X167924Y341543D01*
X167909Y341569D01*
X167693Y341821D01*
X119778Y389403D01*
X119760Y389418D01*
X119745Y389436D01*
X119698Y389472D01*
X118143Y391027D01*
X118140Y391029D01*
X118138Y391032D01*
X117093Y392069D01*
X117093Y393540D01*
X117093Y393543D01*
X117093Y393547D01*
X117086Y395759D01*
X117093Y395853D01*
X117093Y428736D01*
X117092Y428747D01*
X117093Y428758D01*
X117072Y428947D01*
X117053Y429137D01*
X117050Y429147D01*
X117049Y429158D01*
X116991Y429340D01*
X116935Y429521D01*
X116930Y429531D01*
X116927Y429542D01*
X116834Y429708D01*
X116743Y429876D01*
X116736Y429884D01*
X116731Y429894D01*
X116520Y430150D01*
X95118Y452226D01*
X95086Y452253D01*
X95058Y452286D01*
X94933Y452383D01*
X94811Y452486D01*
X94774Y452506D01*
X94740Y452532D01*
X94598Y452603D01*
X94458Y452680D01*
X94418Y452693D01*
X94380Y452712D01*
X94226Y452753D01*
X94074Y452801D01*
X94032Y452805D01*
X93991Y452816D01*
X93718Y452838D01*
X93674Y452843D01*
X93668Y452843D01*
X93660Y452843D01*
X86664Y452843D01*
X86642Y452841D01*
X86620Y452843D01*
X86442Y452821D01*
X86263Y452803D01*
X86242Y452797D01*
X86220Y452794D01*
X86050Y452738D01*
X85879Y452685D01*
X85859Y452675D01*
X85838Y452668D01*
X85682Y452579D01*
X85525Y452493D01*
X85507Y452479D01*
X85488Y452468D01*
X85353Y452350D01*
X85215Y452236D01*
X85201Y452218D01*
X85184Y452204D01*
X85075Y452062D01*
X84963Y451922D01*
X84953Y451902D01*
X84939Y451884D01*
X84787Y451589D01*
X84487Y450863D01*
X81737Y448113D01*
X78377Y446721D01*
X78376Y446721D01*
X78144Y446625D01*
X74256Y446625D01*
X70663Y448113D01*
X67913Y450863D01*
X66425Y454456D01*
X66425Y458344D01*
X67913Y461937D01*
X70663Y464687D01*
X72189Y465319D01*
X74256Y466175D01*
X78144Y466175D01*
X81737Y464687D01*
X84487Y461937D01*
X84787Y461211D01*
X84798Y461191D01*
X84805Y461170D01*
X84893Y461014D01*
X84978Y460856D01*
X84992Y460839D01*
X85003Y460819D01*
X85120Y460684D01*
X85234Y460545D01*
X85251Y460531D01*
X85266Y460514D01*
X85407Y460405D01*
X85547Y460292D01*
X85566Y460281D01*
X85584Y460268D01*
X85745Y460188D01*
X85903Y460105D01*
X85925Y460098D01*
X85945Y460088D01*
X86118Y460042D01*
X86290Y459992D01*
X86312Y459990D01*
X86333Y459984D01*
X86664Y459957D01*
X92135Y459957D01*
X92162Y459959D01*
X92189Y459957D01*
X92363Y459979D01*
X92536Y459997D01*
X92561Y460004D01*
X92588Y460008D01*
X92754Y460063D01*
X92921Y460115D01*
X92944Y460128D01*
X92970Y460136D01*
X93121Y460223D01*
X93275Y460307D01*
X93295Y460324D01*
X93319Y460337D01*
X93572Y460552D01*
X93800Y460780D01*
X95262Y460757D01*
X95276Y460758D01*
X95293Y460757D01*
X96756Y460757D01*
X97773Y459707D01*
X97784Y459698D01*
X97795Y459685D01*
X99161Y458319D01*
X99164Y458316D01*
X99169Y458306D01*
X99380Y458050D01*
X123174Y433507D01*
X123185Y433497D01*
X123196Y433484D01*
X124230Y432450D01*
X124207Y430988D01*
X124208Y430974D01*
X124207Y430957D01*
X124207Y395876D01*
X124210Y395846D01*
X124208Y395816D01*
X124230Y395646D01*
X124247Y395475D01*
X124256Y395446D01*
X124259Y395416D01*
X124315Y395254D01*
X124365Y395091D01*
X124379Y395064D01*
X124389Y395035D01*
X124475Y394887D01*
X124557Y394736D01*
X124576Y394713D01*
X124591Y394687D01*
X124807Y394435D01*
X172678Y346897D01*
X172696Y346882D01*
X172711Y346864D01*
X172851Y346755D01*
X172990Y346643D01*
X173011Y346632D01*
X173029Y346618D01*
X173188Y346538D01*
X173346Y346455D01*
X173368Y346449D01*
X173389Y346438D01*
X173562Y346392D01*
X173733Y346342D01*
X173756Y346340D01*
X173778Y346334D01*
X174109Y346307D01*
X187214Y346307D01*
X188107Y345414D01*
X188107Y327386D01*
X187214Y326493D01*
X169186Y326493D01*
G37*
%LPD*%
%LPC*%
G36*
X294388Y389295D02*
X294388Y389295D01*
X293495Y390188D01*
X293495Y422612D01*
X294388Y423505D01*
X326812Y423505D01*
X327705Y422612D01*
X327705Y390188D01*
X326812Y389295D01*
X294388Y389295D01*
G37*
%LPD*%
%LPC*%
G36*
X384388Y389295D02*
X384388Y389295D01*
X383495Y390188D01*
X383495Y422612D01*
X384388Y423505D01*
X416812Y423505D01*
X417705Y422612D01*
X417705Y390188D01*
X416812Y389295D01*
X384388Y389295D01*
G37*
%LPD*%
%LPC*%
G36*
X231988Y389295D02*
X231988Y389295D01*
X231095Y390188D01*
X231095Y422612D01*
X231988Y423505D01*
X264412Y423505D01*
X265305Y422612D01*
X265305Y390188D01*
X264412Y389295D01*
X231988Y389295D01*
G37*
%LPD*%
%LPC*%
G36*
X130388Y757595D02*
X130388Y757595D01*
X129495Y758488D01*
X129495Y790912D01*
X130388Y791805D01*
X162812Y791805D01*
X163705Y790912D01*
X163705Y758488D01*
X162812Y757595D01*
X130388Y757595D01*
G37*
%LPD*%
%LPC*%
G36*
X141988Y554395D02*
X141988Y554395D01*
X141095Y555288D01*
X141095Y587712D01*
X141988Y588605D01*
X174412Y588605D01*
X175305Y587712D01*
X175305Y555288D01*
X174412Y554395D01*
X141988Y554395D01*
G37*
%LPD*%
%LPC*%
G36*
X231988Y554395D02*
X231988Y554395D01*
X231095Y555288D01*
X231095Y587712D01*
X231988Y588605D01*
X264412Y588605D01*
X265305Y587712D01*
X265305Y555288D01*
X264412Y554395D01*
X231988Y554395D01*
G37*
%LPD*%
%LPC*%
G36*
X40388Y757595D02*
X40388Y757595D01*
X39495Y758488D01*
X39495Y790912D01*
X40388Y791805D01*
X72812Y791805D01*
X73705Y790912D01*
X73705Y758488D01*
X72812Y757595D01*
X40388Y757595D01*
G37*
%LPD*%
%LPC*%
G36*
X141988Y389295D02*
X141988Y389295D01*
X141095Y390188D01*
X141095Y422612D01*
X141988Y423505D01*
X174412Y423505D01*
X175305Y422612D01*
X175305Y390188D01*
X174412Y389295D01*
X141988Y389295D01*
G37*
%LPD*%
%LPC*%
G36*
X157694Y172493D02*
X157694Y172493D01*
X155744Y173301D01*
X154251Y174794D01*
X153443Y176744D01*
X153443Y178856D01*
X154251Y180806D01*
X154598Y181153D01*
X154615Y181174D01*
X154636Y181191D01*
X154743Y181329D01*
X154853Y181465D01*
X154866Y181488D01*
X154882Y181509D01*
X154960Y181666D01*
X155042Y181820D01*
X155050Y181846D01*
X155062Y181870D01*
X155107Y182039D01*
X155157Y182206D01*
X155159Y182233D01*
X155166Y182259D01*
X155193Y182590D01*
X155193Y223723D01*
X173648Y242178D01*
X173665Y242199D01*
X173686Y242217D01*
X173793Y242354D01*
X173903Y242490D01*
X173916Y242513D01*
X173932Y242535D01*
X174010Y242692D01*
X174092Y242846D01*
X174100Y242871D01*
X174112Y242895D01*
X174157Y243065D01*
X174207Y243231D01*
X174209Y243258D01*
X174216Y243284D01*
X174243Y243615D01*
X174243Y283320D01*
X174241Y283346D01*
X174243Y283373D01*
X174221Y283547D01*
X174203Y283720D01*
X174196Y283746D01*
X174192Y283772D01*
X174136Y283938D01*
X174085Y284105D01*
X174072Y284129D01*
X174064Y284154D01*
X173977Y284306D01*
X173893Y284459D01*
X173876Y284480D01*
X173863Y284503D01*
X173648Y284756D01*
X169671Y288733D01*
X169671Y295467D01*
X174433Y300229D01*
X181167Y300229D01*
X185929Y295467D01*
X185929Y288733D01*
X181952Y284756D01*
X181935Y284735D01*
X181914Y284718D01*
X181807Y284580D01*
X181697Y284444D01*
X181684Y284421D01*
X181668Y284400D01*
X181590Y284243D01*
X181508Y284089D01*
X181500Y284063D01*
X181488Y284039D01*
X181443Y283870D01*
X181393Y283703D01*
X181391Y283676D01*
X181384Y283650D01*
X181357Y283320D01*
X181357Y239827D01*
X162902Y221372D01*
X162885Y221351D01*
X162864Y221333D01*
X162757Y221196D01*
X162647Y221060D01*
X162634Y221037D01*
X162618Y221015D01*
X162540Y220858D01*
X162458Y220704D01*
X162450Y220679D01*
X162438Y220655D01*
X162393Y220485D01*
X162343Y220319D01*
X162341Y220292D01*
X162334Y220266D01*
X162307Y219935D01*
X162307Y182590D01*
X162309Y182563D01*
X162307Y182536D01*
X162329Y182362D01*
X162347Y182189D01*
X162354Y182163D01*
X162358Y182137D01*
X162413Y181971D01*
X162465Y181804D01*
X162478Y181780D01*
X162486Y181755D01*
X162573Y181603D01*
X162657Y181450D01*
X162674Y181429D01*
X162687Y181406D01*
X162902Y181153D01*
X163249Y180806D01*
X164057Y178856D01*
X164057Y176744D01*
X163249Y174794D01*
X161756Y173301D01*
X159828Y172503D01*
X159806Y172493D01*
X157694Y172493D01*
G37*
%LPD*%
%LPC*%
G36*
X97497Y694793D02*
X97497Y694793D01*
X91693Y700597D01*
X91693Y708803D01*
X97497Y714607D01*
X105573Y714607D01*
X105604Y714610D01*
X105634Y714608D01*
X105803Y714630D01*
X105974Y714647D01*
X106003Y714656D01*
X106033Y714660D01*
X106195Y714715D01*
X106358Y714765D01*
X106386Y714779D01*
X106415Y714789D01*
X106563Y714875D01*
X106713Y714957D01*
X106736Y714976D01*
X106763Y714992D01*
X107015Y715207D01*
X116504Y724771D01*
X116518Y724789D01*
X116536Y724804D01*
X116577Y724857D01*
X118130Y726410D01*
X118133Y726413D01*
X118136Y726416D01*
X119169Y727457D01*
X120640Y727457D01*
X120644Y727457D01*
X120648Y727457D01*
X122847Y727465D01*
X122952Y727457D01*
X172923Y727457D01*
X174106Y726274D01*
X174127Y726257D01*
X174144Y726236D01*
X174282Y726129D01*
X174418Y726019D01*
X174441Y726006D01*
X174463Y725990D01*
X174619Y725912D01*
X174773Y725830D01*
X174799Y725822D01*
X174823Y725810D01*
X174992Y725765D01*
X175159Y725715D01*
X175186Y725713D01*
X175212Y725706D01*
X175543Y725679D01*
X181167Y725679D01*
X185929Y720917D01*
X185929Y714183D01*
X181167Y709421D01*
X174433Y709421D01*
X169671Y714183D01*
X169671Y718312D01*
X169669Y718330D01*
X169671Y718348D01*
X169650Y718530D01*
X169631Y718713D01*
X169626Y718730D01*
X169624Y718747D01*
X169567Y718922D01*
X169513Y719098D01*
X169505Y719113D01*
X169499Y719130D01*
X169409Y719290D01*
X169321Y719452D01*
X169310Y719465D01*
X169301Y719481D01*
X169181Y719620D01*
X169064Y719761D01*
X169050Y719772D01*
X169038Y719786D01*
X168893Y719898D01*
X168750Y720013D01*
X168734Y720021D01*
X168720Y720032D01*
X168555Y720114D01*
X168393Y720199D01*
X168376Y720204D01*
X168360Y720212D01*
X168181Y720259D01*
X168006Y720310D01*
X167988Y720312D01*
X167971Y720316D01*
X167640Y720343D01*
X122977Y720343D01*
X122947Y720340D01*
X122916Y720342D01*
X122747Y720320D01*
X122577Y720303D01*
X122547Y720294D01*
X122517Y720290D01*
X122355Y720235D01*
X122192Y720185D01*
X122165Y720171D01*
X122136Y720161D01*
X121988Y720075D01*
X121838Y719993D01*
X121814Y719974D01*
X121788Y719958D01*
X121536Y719743D01*
X112096Y710229D01*
X112082Y710211D01*
X112064Y710196D01*
X111955Y710055D01*
X111842Y709916D01*
X111832Y709896D01*
X111818Y709878D01*
X111738Y709718D01*
X111655Y709560D01*
X111649Y709538D01*
X111638Y709518D01*
X111592Y709344D01*
X111542Y709174D01*
X111540Y709151D01*
X111534Y709129D01*
X111507Y708798D01*
X111507Y700597D01*
X105703Y694793D01*
X97497Y694793D01*
G37*
%LPD*%
%LPC*%
G36*
X263333Y855471D02*
X263333Y855471D01*
X258571Y860233D01*
X258571Y866967D01*
X260164Y868560D01*
X260177Y868576D01*
X260193Y868589D01*
X260305Y868732D01*
X260419Y868871D01*
X260429Y868890D01*
X260442Y868906D01*
X260523Y869068D01*
X260608Y869227D01*
X260614Y869247D01*
X260623Y869266D01*
X260671Y869439D01*
X260722Y869613D01*
X260724Y869634D01*
X260730Y869654D01*
X260742Y869833D01*
X260759Y870014D01*
X260757Y870035D01*
X260758Y870055D01*
X260735Y870234D01*
X260715Y870414D01*
X260709Y870434D01*
X260706Y870455D01*
X260648Y870626D01*
X260594Y870798D01*
X260584Y870816D01*
X260577Y870836D01*
X260486Y870992D01*
X260399Y871150D01*
X260386Y871166D01*
X260375Y871184D01*
X260160Y871437D01*
X246815Y884703D01*
X246796Y884718D01*
X246781Y884736D01*
X246641Y884844D01*
X246503Y884957D01*
X246482Y884968D01*
X246463Y884982D01*
X246304Y885061D01*
X246146Y885144D01*
X246124Y885151D01*
X246102Y885162D01*
X245930Y885208D01*
X245760Y885258D01*
X245736Y885260D01*
X245714Y885266D01*
X245383Y885293D01*
X237197Y885293D01*
X231393Y891097D01*
X231393Y899303D01*
X237197Y905107D01*
X245403Y905107D01*
X251207Y899303D01*
X251207Y891212D01*
X251210Y891182D01*
X251208Y891153D01*
X251230Y890982D01*
X251247Y890811D01*
X251255Y890783D01*
X251259Y890753D01*
X251314Y890590D01*
X251365Y890426D01*
X251379Y890400D01*
X251389Y890372D01*
X251475Y890223D01*
X251557Y890072D01*
X251576Y890049D01*
X251591Y890024D01*
X251806Y889771D01*
X267573Y874097D01*
X267591Y874082D01*
X267607Y874064D01*
X267646Y874034D01*
X269210Y872470D01*
X269212Y872469D01*
X269214Y872466D01*
X269361Y872319D01*
X269380Y872304D01*
X269395Y872286D01*
X269536Y872178D01*
X269674Y872065D01*
X269695Y872054D01*
X269713Y872040D01*
X269798Y871998D01*
X274829Y866967D01*
X274829Y860233D01*
X270067Y855471D01*
X263333Y855471D01*
G37*
%LPD*%
%LPC*%
G36*
X429856Y611725D02*
X429856Y611725D01*
X426263Y613213D01*
X423513Y615963D01*
X422025Y619556D01*
X422025Y623444D01*
X423513Y627037D01*
X426263Y629787D01*
X426989Y630087D01*
X427009Y630098D01*
X427030Y630105D01*
X427186Y630193D01*
X427344Y630278D01*
X427361Y630292D01*
X427381Y630303D01*
X427516Y630420D01*
X427655Y630534D01*
X427669Y630551D01*
X427686Y630566D01*
X427795Y630707D01*
X427908Y630847D01*
X427919Y630866D01*
X427932Y630884D01*
X428012Y631045D01*
X428095Y631203D01*
X428102Y631225D01*
X428112Y631245D01*
X428158Y631418D01*
X428208Y631590D01*
X428210Y631612D01*
X428216Y631633D01*
X428243Y631964D01*
X428243Y636473D01*
X442126Y650356D01*
X442143Y650377D01*
X442164Y650395D01*
X442271Y650532D01*
X442381Y650668D01*
X442394Y650691D01*
X442410Y650713D01*
X442488Y650870D01*
X442570Y651024D01*
X442578Y651049D01*
X442590Y651073D01*
X442635Y651243D01*
X442685Y651409D01*
X442687Y651436D01*
X442694Y651462D01*
X442721Y651793D01*
X442721Y657417D01*
X447483Y662179D01*
X454217Y662179D01*
X458979Y657417D01*
X458979Y650683D01*
X454217Y645921D01*
X448593Y645921D01*
X448566Y645919D01*
X448539Y645921D01*
X448365Y645899D01*
X448192Y645881D01*
X448167Y645874D01*
X448140Y645870D01*
X447974Y645815D01*
X447807Y645763D01*
X447784Y645750D01*
X447758Y645742D01*
X447607Y645655D01*
X447453Y645571D01*
X447433Y645554D01*
X447409Y645541D01*
X447156Y645326D01*
X435952Y634122D01*
X435935Y634101D01*
X435914Y634083D01*
X435807Y633946D01*
X435697Y633810D01*
X435684Y633787D01*
X435668Y633765D01*
X435590Y633608D01*
X435508Y633454D01*
X435500Y633429D01*
X435488Y633405D01*
X435443Y633235D01*
X435393Y633069D01*
X435391Y633042D01*
X435384Y633016D01*
X435357Y632685D01*
X435357Y631964D01*
X435359Y631942D01*
X435357Y631920D01*
X435379Y631742D01*
X435397Y631563D01*
X435403Y631542D01*
X435406Y631520D01*
X435462Y631350D01*
X435515Y631179D01*
X435525Y631159D01*
X435532Y631138D01*
X435621Y630982D01*
X435707Y630825D01*
X435721Y630807D01*
X435732Y630788D01*
X435849Y630653D01*
X435964Y630515D01*
X435982Y630501D01*
X435996Y630484D01*
X436138Y630375D01*
X436278Y630263D01*
X436298Y630253D01*
X436316Y630239D01*
X436611Y630087D01*
X437337Y629787D01*
X440087Y627037D01*
X441575Y623444D01*
X441575Y619556D01*
X440087Y615963D01*
X437337Y613213D01*
X433744Y611725D01*
X429856Y611725D01*
G37*
%LPD*%
%LPC*%
G36*
X316444Y153443D02*
X316444Y153443D01*
X314494Y154251D01*
X313001Y155744D01*
X312193Y157694D01*
X312193Y159806D01*
X313001Y161756D01*
X313348Y162103D01*
X313365Y162124D01*
X313386Y162141D01*
X313493Y162279D01*
X313603Y162415D01*
X313616Y162438D01*
X313632Y162459D01*
X313710Y162616D01*
X313792Y162770D01*
X313800Y162796D01*
X313812Y162820D01*
X313857Y162989D01*
X313907Y163156D01*
X313909Y163183D01*
X313916Y163209D01*
X313943Y163540D01*
X313943Y207120D01*
X313941Y207146D01*
X313943Y207173D01*
X313921Y207347D01*
X313903Y207520D01*
X313896Y207546D01*
X313892Y207572D01*
X313837Y207738D01*
X313785Y207905D01*
X313772Y207929D01*
X313764Y207954D01*
X313677Y208106D01*
X313593Y208259D01*
X313576Y208280D01*
X313563Y208303D01*
X313348Y208556D01*
X309371Y212533D01*
X309371Y219267D01*
X314133Y224029D01*
X320867Y224029D01*
X325629Y219267D01*
X325629Y212533D01*
X321652Y208556D01*
X321635Y208535D01*
X321614Y208518D01*
X321507Y208380D01*
X321397Y208244D01*
X321384Y208221D01*
X321368Y208200D01*
X321290Y208043D01*
X321208Y207889D01*
X321200Y207863D01*
X321188Y207839D01*
X321143Y207670D01*
X321093Y207503D01*
X321091Y207476D01*
X321084Y207450D01*
X321057Y207120D01*
X321057Y163540D01*
X321059Y163513D01*
X321057Y163486D01*
X321079Y163312D01*
X321097Y163139D01*
X321104Y163113D01*
X321108Y163087D01*
X321164Y162921D01*
X321215Y162754D01*
X321228Y162730D01*
X321236Y162705D01*
X321323Y162553D01*
X321407Y162400D01*
X321424Y162379D01*
X321437Y162356D01*
X321652Y162103D01*
X321999Y161756D01*
X322807Y159806D01*
X322807Y157694D01*
X321999Y155744D01*
X320506Y154251D01*
X318556Y153443D01*
X316444Y153443D01*
G37*
%LPD*%
%LPC*%
G36*
X199833Y303021D02*
X199833Y303021D01*
X195071Y307783D01*
X195071Y314517D01*
X199048Y318494D01*
X199065Y318515D01*
X199086Y318532D01*
X199193Y318670D01*
X199303Y318806D01*
X199316Y318829D01*
X199332Y318850D01*
X199410Y319007D01*
X199492Y319161D01*
X199500Y319187D01*
X199512Y319211D01*
X199557Y319380D01*
X199607Y319547D01*
X199609Y319574D01*
X199616Y319600D01*
X199643Y319930D01*
X199643Y325105D01*
X199641Y325132D01*
X199643Y325158D01*
X199621Y325332D01*
X199603Y325506D01*
X199596Y325531D01*
X199592Y325558D01*
X199536Y325724D01*
X199485Y325891D01*
X199472Y325914D01*
X199464Y325940D01*
X199377Y326091D01*
X199293Y326245D01*
X199276Y326265D01*
X199263Y326288D01*
X199048Y326541D01*
X193293Y332297D01*
X193293Y340503D01*
X199097Y346307D01*
X207303Y346307D01*
X213107Y340503D01*
X213107Y332297D01*
X207352Y326541D01*
X207335Y326521D01*
X207314Y326503D01*
X207207Y326365D01*
X207097Y326230D01*
X207084Y326206D01*
X207068Y326185D01*
X206990Y326029D01*
X206908Y325874D01*
X206900Y325849D01*
X206888Y325825D01*
X206843Y325655D01*
X206793Y325488D01*
X206791Y325462D01*
X206784Y325436D01*
X206757Y325105D01*
X206757Y319930D01*
X206759Y319904D01*
X206757Y319877D01*
X206779Y319703D01*
X206797Y319530D01*
X206804Y319504D01*
X206808Y319478D01*
X206863Y319312D01*
X206915Y319145D01*
X206928Y319121D01*
X206936Y319096D01*
X207023Y318944D01*
X207107Y318791D01*
X207124Y318770D01*
X207137Y318747D01*
X207352Y318494D01*
X211329Y314517D01*
X211329Y307783D01*
X206567Y303021D01*
X199833Y303021D01*
G37*
%LPD*%
%LPC*%
G36*
X176744Y159793D02*
X176744Y159793D01*
X174794Y160601D01*
X173301Y162094D01*
X172493Y164044D01*
X172493Y166156D01*
X173301Y168106D01*
X173648Y168453D01*
X173665Y168474D01*
X173686Y168491D01*
X173793Y168629D01*
X173903Y168765D01*
X173916Y168788D01*
X173932Y168809D01*
X174010Y168966D01*
X174092Y169120D01*
X174100Y169146D01*
X174112Y169170D01*
X174157Y169339D01*
X174207Y169506D01*
X174209Y169533D01*
X174216Y169559D01*
X174243Y169890D01*
X174243Y207120D01*
X174241Y207146D01*
X174243Y207173D01*
X174221Y207347D01*
X174203Y207520D01*
X174196Y207546D01*
X174192Y207572D01*
X174137Y207738D01*
X174085Y207905D01*
X174072Y207929D01*
X174064Y207954D01*
X173977Y208106D01*
X173893Y208259D01*
X173876Y208280D01*
X173863Y208303D01*
X173648Y208556D01*
X169671Y212533D01*
X169671Y219267D01*
X174433Y224029D01*
X181167Y224029D01*
X185929Y219267D01*
X185929Y212533D01*
X181952Y208556D01*
X181935Y208535D01*
X181914Y208518D01*
X181807Y208380D01*
X181697Y208244D01*
X181684Y208221D01*
X181668Y208200D01*
X181590Y208043D01*
X181508Y207889D01*
X181500Y207863D01*
X181488Y207839D01*
X181443Y207670D01*
X181393Y207503D01*
X181391Y207476D01*
X181384Y207450D01*
X181357Y207120D01*
X181357Y169890D01*
X181359Y169863D01*
X181357Y169836D01*
X181379Y169662D01*
X181397Y169489D01*
X181404Y169463D01*
X181408Y169437D01*
X181463Y169271D01*
X181515Y169104D01*
X181528Y169080D01*
X181536Y169055D01*
X181623Y168903D01*
X181707Y168750D01*
X181724Y168729D01*
X181737Y168706D01*
X181952Y168453D01*
X182299Y168106D01*
X183107Y166156D01*
X183107Y164044D01*
X182299Y162094D01*
X180806Y160601D01*
X178856Y159793D01*
X176744Y159793D01*
G37*
%LPD*%
%LPC*%
G36*
X67586Y694793D02*
X67586Y694793D01*
X66693Y695686D01*
X66693Y713714D01*
X67586Y714607D01*
X85614Y714607D01*
X86507Y713714D01*
X86507Y695686D01*
X85614Y694793D01*
X67586Y694793D01*
G37*
%LPD*%
%LPC*%
G36*
X207286Y885293D02*
X207286Y885293D01*
X206393Y886186D01*
X206393Y904214D01*
X207286Y905107D01*
X225314Y905107D01*
X226207Y904214D01*
X226207Y886186D01*
X225314Y885293D01*
X207286Y885293D01*
G37*
%LPD*%
%LPC*%
G36*
X321586Y326493D02*
X321586Y326493D01*
X320693Y327386D01*
X320693Y345414D01*
X321586Y346307D01*
X339614Y346307D01*
X340507Y345414D01*
X340507Y327386D01*
X339614Y326493D01*
X321586Y326493D01*
G37*
%LPD*%
%LPC*%
G36*
X290595Y767445D02*
X290595Y767445D01*
X287815Y768597D01*
X285687Y770725D01*
X284535Y773505D01*
X284535Y788595D01*
X285687Y791375D01*
X287815Y793503D01*
X290595Y794655D01*
X293605Y794655D01*
X296385Y793503D01*
X298513Y791375D01*
X299665Y788595D01*
X299665Y773505D01*
X298513Y770725D01*
X296385Y768597D01*
X293605Y767445D01*
X290595Y767445D01*
G37*
%LPD*%
%LPC*%
G36*
X262197Y885293D02*
X262197Y885293D01*
X256393Y891097D01*
X256393Y899303D01*
X262197Y905107D01*
X270403Y905107D01*
X276207Y899303D01*
X276207Y891097D01*
X270403Y885293D01*
X262197Y885293D01*
G37*
%LPD*%
%LPC*%
G36*
X122497Y694793D02*
X122497Y694793D01*
X116693Y700597D01*
X116693Y708803D01*
X122497Y714607D01*
X130703Y714607D01*
X136507Y708803D01*
X136507Y700597D01*
X130703Y694793D01*
X122497Y694793D01*
G37*
%LPD*%
%LPC*%
G36*
X376497Y326493D02*
X376497Y326493D01*
X370693Y332297D01*
X370693Y340503D01*
X376497Y346307D01*
X384703Y346307D01*
X390507Y340503D01*
X390507Y332297D01*
X384703Y326493D01*
X376497Y326493D01*
G37*
%LPD*%
%LPC*%
G36*
X93306Y156125D02*
X93306Y156125D01*
X89713Y157613D01*
X86963Y160363D01*
X85475Y163956D01*
X85475Y167844D01*
X86963Y171437D01*
X89713Y174187D01*
X93306Y175675D01*
X97194Y175675D01*
X100787Y174187D01*
X103537Y171437D01*
X105025Y167844D01*
X105025Y163956D01*
X103537Y160363D01*
X100787Y157613D01*
X97502Y156253D01*
X97194Y156125D01*
X93306Y156125D01*
G37*
%LPD*%
%LPC*%
G36*
X239356Y156125D02*
X239356Y156125D01*
X235763Y157613D01*
X233013Y160363D01*
X231525Y163956D01*
X231525Y167844D01*
X233013Y171437D01*
X235763Y174187D01*
X239356Y175675D01*
X243244Y175675D01*
X246837Y174187D01*
X249587Y171437D01*
X251075Y167844D01*
X251075Y163956D01*
X249587Y160363D01*
X246837Y157613D01*
X243552Y156253D01*
X243244Y156125D01*
X239356Y156125D01*
G37*
%LPD*%
%LPC*%
G36*
X385406Y156125D02*
X385406Y156125D01*
X381813Y157613D01*
X379063Y160363D01*
X377575Y163956D01*
X377575Y167844D01*
X379063Y171437D01*
X381813Y174187D01*
X385406Y175675D01*
X389294Y175675D01*
X392887Y174187D01*
X395637Y171437D01*
X397125Y167844D01*
X397125Y163956D01*
X395637Y160363D01*
X392887Y157613D01*
X389602Y156253D01*
X389294Y156125D01*
X385406Y156125D01*
G37*
%LPD*%
%LPC*%
G36*
X256983Y760221D02*
X256983Y760221D01*
X252221Y764983D01*
X252221Y771717D01*
X256983Y776479D01*
X263717Y776479D01*
X268479Y771717D01*
X268479Y764983D01*
X263717Y760221D01*
X256983Y760221D01*
G37*
%LPD*%
%LPC*%
G36*
X22033Y156971D02*
X22033Y156971D01*
X17271Y161733D01*
X17271Y168467D01*
X22033Y173229D01*
X28767Y173229D01*
X33529Y168467D01*
X33529Y161733D01*
X28767Y156971D01*
X22033Y156971D01*
G37*
%LPD*%
%LPC*%
G36*
X22033Y233171D02*
X22033Y233171D01*
X17271Y237933D01*
X17271Y244667D01*
X22033Y249429D01*
X28767Y249429D01*
X33529Y244667D01*
X33529Y237933D01*
X28767Y233171D01*
X22033Y233171D01*
G37*
%LPD*%
%LPC*%
G36*
X396683Y709421D02*
X396683Y709421D01*
X391921Y714183D01*
X391921Y720917D01*
X396683Y725679D01*
X403417Y725679D01*
X408179Y720917D01*
X408179Y714183D01*
X403417Y709421D01*
X396683Y709421D01*
G37*
%LPD*%
%LPC*%
G36*
X27939Y935989D02*
X27939Y935989D01*
X27939Y943611D01*
X33820Y943611D01*
X35399Y943361D01*
X36920Y942866D01*
X38345Y942140D01*
X39639Y941200D01*
X40770Y940069D01*
X41710Y938775D01*
X42436Y937350D01*
X42879Y935989D01*
X27939Y935989D01*
G37*
%LPD*%
%LPC*%
G36*
X439721Y129539D02*
X439721Y129539D01*
X440164Y130900D01*
X440890Y132325D01*
X441830Y133619D01*
X442961Y134750D01*
X444255Y135690D01*
X445680Y136416D01*
X447201Y136911D01*
X448780Y137161D01*
X454661Y137161D01*
X454661Y129539D01*
X439721Y129539D01*
G37*
%LPD*%
%LPC*%
G36*
X27939Y923289D02*
X27939Y923289D01*
X27939Y930911D01*
X42879Y930911D01*
X42436Y929550D01*
X41710Y928125D01*
X40770Y926831D01*
X39639Y925700D01*
X38345Y924760D01*
X36920Y924034D01*
X35399Y923539D01*
X33820Y923289D01*
X27939Y923289D01*
G37*
%LPD*%
%LPC*%
G36*
X448780Y116839D02*
X448780Y116839D01*
X447201Y117089D01*
X445680Y117584D01*
X444255Y118310D01*
X442961Y119250D01*
X441830Y120381D01*
X440890Y121675D01*
X440164Y123100D01*
X439721Y124461D01*
X454661Y124461D01*
X454661Y116839D01*
X448780Y116839D01*
G37*
%LPD*%
%LPC*%
G36*
X370331Y783081D02*
X370331Y783081D01*
X370331Y795452D01*
X371594Y795042D01*
X372797Y794429D01*
X373890Y793635D01*
X374845Y792680D01*
X375639Y791587D01*
X376252Y790384D01*
X376669Y789099D01*
X376881Y787765D01*
X376881Y783081D01*
X370331Y783081D01*
G37*
%LPD*%
%LPC*%
G36*
X370331Y779019D02*
X370331Y779019D01*
X376881Y779019D01*
X376881Y774335D01*
X376669Y773001D01*
X376252Y771716D01*
X375639Y770513D01*
X374845Y769420D01*
X373890Y768465D01*
X372797Y767671D01*
X371594Y767058D01*
X370331Y766648D01*
X370331Y779019D01*
G37*
%LPD*%
%LPC*%
G36*
X359719Y783081D02*
X359719Y783081D01*
X359719Y787765D01*
X359931Y789099D01*
X360348Y790384D01*
X360961Y791587D01*
X361755Y792680D01*
X362710Y793635D01*
X363803Y794429D01*
X365006Y795042D01*
X366269Y795452D01*
X366269Y783081D01*
X359719Y783081D01*
G37*
%LPD*%
%LPC*%
G36*
X365006Y767058D02*
X365006Y767058D01*
X363803Y767671D01*
X362710Y768465D01*
X361755Y769420D01*
X360961Y770513D01*
X360348Y771716D01*
X359931Y773001D01*
X359719Y774335D01*
X359719Y779019D01*
X366269Y779019D01*
X366269Y766648D01*
X365006Y767058D01*
G37*
%LPD*%
%LPC*%
G36*
X230949Y339149D02*
X230949Y339149D01*
X230949Y347323D01*
X232724Y347323D01*
X239123Y340924D01*
X239123Y339149D01*
X230949Y339149D01*
G37*
%LPD*%
%LPC*%
G36*
X230949Y504249D02*
X230949Y504249D01*
X230949Y512423D01*
X232724Y512423D01*
X239123Y506024D01*
X239123Y504249D01*
X230949Y504249D01*
G37*
%LPD*%
%LPC*%
G36*
X230949Y325477D02*
X230949Y325477D01*
X230949Y333651D01*
X239123Y333651D01*
X239123Y331876D01*
X232724Y325477D01*
X230949Y325477D01*
G37*
%LPD*%
%LPC*%
G36*
X217277Y504249D02*
X217277Y504249D01*
X217277Y506024D01*
X223676Y512423D01*
X225451Y512423D01*
X225451Y504249D01*
X217277Y504249D01*
G37*
%LPD*%
%LPC*%
G36*
X230949Y490577D02*
X230949Y490577D01*
X230949Y498751D01*
X239123Y498751D01*
X239123Y496976D01*
X232724Y490577D01*
X230949Y490577D01*
G37*
%LPD*%
%LPC*%
G36*
X217277Y339149D02*
X217277Y339149D01*
X217277Y340924D01*
X223676Y347323D01*
X225451Y347323D01*
X225451Y339149D01*
X217277Y339149D01*
G37*
%LPD*%
%LPC*%
G36*
X223676Y325477D02*
X223676Y325477D01*
X217277Y331876D01*
X217277Y333651D01*
X225451Y333651D01*
X225451Y325477D01*
X223676Y325477D01*
G37*
%LPD*%
%LPC*%
G36*
X223676Y490577D02*
X223676Y490577D01*
X217277Y496976D01*
X217277Y498751D01*
X225451Y498751D01*
X225451Y490577D01*
X223676Y490577D01*
G37*
%LPD*%
%LPC*%
G36*
X78949Y344149D02*
X78949Y344149D01*
X78949Y351853D01*
X80342Y351400D01*
X81856Y350629D01*
X83230Y349631D01*
X84431Y348430D01*
X85429Y347056D01*
X86200Y345542D01*
X86653Y344149D01*
X78949Y344149D01*
G37*
%LPD*%
%LPC*%
G36*
X97999Y143949D02*
X97999Y143949D01*
X97999Y151653D01*
X99392Y151200D01*
X100906Y150429D01*
X102280Y149431D01*
X103481Y148230D01*
X104479Y146856D01*
X105250Y145342D01*
X105703Y143949D01*
X97999Y143949D01*
G37*
%LPD*%
%LPC*%
G36*
X390099Y143949D02*
X390099Y143949D01*
X390099Y151653D01*
X391492Y151200D01*
X393006Y150429D01*
X394380Y149431D01*
X395581Y148230D01*
X396579Y146856D01*
X397350Y145342D01*
X397803Y143949D01*
X390099Y143949D01*
G37*
%LPD*%
%LPC*%
G36*
X244049Y143949D02*
X244049Y143949D01*
X244049Y151653D01*
X245442Y151200D01*
X246956Y150429D01*
X248330Y149431D01*
X249531Y148230D01*
X250529Y146856D01*
X251300Y145342D01*
X251753Y143949D01*
X244049Y143949D01*
G37*
%LPD*%
%LPC*%
G36*
X434549Y509249D02*
X434549Y509249D01*
X434549Y516953D01*
X435942Y516500D01*
X437456Y515729D01*
X438830Y514731D01*
X440031Y513530D01*
X441029Y512156D01*
X441800Y510642D01*
X442253Y509249D01*
X434549Y509249D01*
G37*
%LPD*%
%LPC*%
G36*
X244049Y283649D02*
X244049Y283649D01*
X244049Y291353D01*
X245442Y290900D01*
X246956Y290129D01*
X248330Y289131D01*
X249531Y287930D01*
X250529Y286556D01*
X251300Y285042D01*
X251753Y283649D01*
X244049Y283649D01*
G37*
%LPD*%
%LPC*%
G36*
X78949Y509249D02*
X78949Y509249D01*
X78949Y516953D01*
X80342Y516500D01*
X81856Y515729D01*
X83230Y514731D01*
X84431Y513530D01*
X85429Y512156D01*
X86200Y510642D01*
X86653Y509249D01*
X78949Y509249D01*
G37*
%LPD*%
%LPC*%
G36*
X390099Y283649D02*
X390099Y283649D01*
X390099Y291353D01*
X391492Y290900D01*
X393006Y290129D01*
X394380Y289131D01*
X395581Y287930D01*
X396579Y286556D01*
X397350Y285042D01*
X397803Y283649D01*
X390099Y283649D01*
G37*
%LPD*%
%LPC*%
G36*
X97999Y283649D02*
X97999Y283649D01*
X97999Y291353D01*
X99392Y290900D01*
X100906Y290129D01*
X102280Y289131D01*
X103481Y287930D01*
X104479Y286556D01*
X105250Y285042D01*
X105703Y283649D01*
X97999Y283649D01*
G37*
%LPD*%
%LPC*%
G36*
X84797Y283649D02*
X84797Y283649D01*
X85250Y285042D01*
X86021Y286556D01*
X87019Y287930D01*
X88220Y289131D01*
X89594Y290129D01*
X91108Y290900D01*
X92501Y291353D01*
X92501Y283649D01*
X84797Y283649D01*
G37*
%LPD*%
%LPC*%
G36*
X230847Y283649D02*
X230847Y283649D01*
X231300Y285042D01*
X232071Y286556D01*
X233069Y287930D01*
X234270Y289131D01*
X235644Y290129D01*
X237158Y290900D01*
X238551Y291353D01*
X238551Y283649D01*
X230847Y283649D01*
G37*
%LPD*%
%LPC*%
G36*
X376897Y283649D02*
X376897Y283649D01*
X377350Y285042D01*
X378121Y286556D01*
X379119Y287930D01*
X380320Y289131D01*
X381694Y290129D01*
X383208Y290900D01*
X384601Y291353D01*
X384601Y283649D01*
X376897Y283649D01*
G37*
%LPD*%
%LPC*%
G36*
X390099Y138451D02*
X390099Y138451D01*
X397803Y138451D01*
X397350Y137058D01*
X396579Y135544D01*
X395581Y134170D01*
X394380Y132969D01*
X393006Y131971D01*
X391492Y131200D01*
X390099Y130747D01*
X390099Y138451D01*
G37*
%LPD*%
%LPC*%
G36*
X65747Y509249D02*
X65747Y509249D01*
X66200Y510642D01*
X66971Y512156D01*
X67969Y513530D01*
X69170Y514731D01*
X70544Y515729D01*
X72058Y516500D01*
X73451Y516953D01*
X73451Y509249D01*
X65747Y509249D01*
G37*
%LPD*%
%LPC*%
G36*
X244049Y138451D02*
X244049Y138451D01*
X251753Y138451D01*
X251300Y137058D01*
X250529Y135544D01*
X249531Y134170D01*
X248330Y132969D01*
X246956Y131971D01*
X245442Y131200D01*
X244049Y130747D01*
X244049Y138451D01*
G37*
%LPD*%
%LPC*%
G36*
X78949Y338651D02*
X78949Y338651D01*
X86653Y338651D01*
X86200Y337258D01*
X85429Y335744D01*
X84431Y334370D01*
X83230Y333169D01*
X81856Y332171D01*
X80342Y331400D01*
X78949Y330947D01*
X78949Y338651D01*
G37*
%LPD*%
%LPC*%
G36*
X390099Y278151D02*
X390099Y278151D01*
X397803Y278151D01*
X397350Y276758D01*
X396579Y275244D01*
X395581Y273870D01*
X394380Y272669D01*
X393006Y271671D01*
X391492Y270900D01*
X390099Y270447D01*
X390099Y278151D01*
G37*
%LPD*%
%LPC*%
G36*
X244049Y278151D02*
X244049Y278151D01*
X251753Y278151D01*
X251300Y276758D01*
X250529Y275244D01*
X249531Y273870D01*
X248330Y272669D01*
X246956Y271671D01*
X245442Y270900D01*
X244049Y270447D01*
X244049Y278151D01*
G37*
%LPD*%
%LPC*%
G36*
X230847Y143949D02*
X230847Y143949D01*
X231300Y145342D01*
X232071Y146856D01*
X233069Y148230D01*
X234270Y149431D01*
X235644Y150429D01*
X237158Y151200D01*
X238551Y151653D01*
X238551Y143949D01*
X230847Y143949D01*
G37*
%LPD*%
%LPC*%
G36*
X97999Y278151D02*
X97999Y278151D01*
X105703Y278151D01*
X105250Y276758D01*
X104479Y275244D01*
X103481Y273870D01*
X102280Y272669D01*
X100906Y271671D01*
X99392Y270900D01*
X97999Y270447D01*
X97999Y278151D01*
G37*
%LPD*%
%LPC*%
G36*
X421347Y509249D02*
X421347Y509249D01*
X421800Y510642D01*
X422571Y512156D01*
X423569Y513530D01*
X424770Y514731D01*
X426144Y515729D01*
X427658Y516500D01*
X429051Y516953D01*
X429051Y509249D01*
X421347Y509249D01*
G37*
%LPD*%
%LPC*%
G36*
X434549Y808551D02*
X434549Y808551D01*
X442253Y808551D01*
X441800Y807158D01*
X441029Y805644D01*
X440031Y804270D01*
X438830Y803069D01*
X437456Y802071D01*
X435942Y801300D01*
X434549Y800847D01*
X434549Y808551D01*
G37*
%LPD*%
%LPC*%
G36*
X65747Y344149D02*
X65747Y344149D01*
X66200Y345542D01*
X66971Y347056D01*
X67969Y348430D01*
X69170Y349631D01*
X70544Y350629D01*
X72058Y351400D01*
X73451Y351853D01*
X73451Y344149D01*
X65747Y344149D01*
G37*
%LPD*%
%LPC*%
G36*
X78949Y503751D02*
X78949Y503751D01*
X86653Y503751D01*
X86200Y502358D01*
X85429Y500844D01*
X84431Y499470D01*
X83230Y498269D01*
X81856Y497271D01*
X80342Y496500D01*
X78949Y496047D01*
X78949Y503751D01*
G37*
%LPD*%
%LPC*%
G36*
X84797Y143949D02*
X84797Y143949D01*
X85250Y145342D01*
X86021Y146856D01*
X87019Y148230D01*
X88220Y149431D01*
X89594Y150429D01*
X91108Y151200D01*
X92501Y151653D01*
X92501Y143949D01*
X84797Y143949D01*
G37*
%LPD*%
%LPC*%
G36*
X376897Y143949D02*
X376897Y143949D01*
X377350Y145342D01*
X378121Y146856D01*
X379119Y148230D01*
X380320Y149431D01*
X381694Y150429D01*
X383208Y151200D01*
X384601Y151653D01*
X384601Y143949D01*
X376897Y143949D01*
G37*
%LPD*%
%LPC*%
G36*
X434549Y503751D02*
X434549Y503751D01*
X442253Y503751D01*
X441800Y502358D01*
X441029Y500844D01*
X440031Y499470D01*
X438830Y498269D01*
X437456Y497271D01*
X435942Y496500D01*
X434549Y496047D01*
X434549Y503751D01*
G37*
%LPD*%
%LPC*%
G36*
X97999Y138451D02*
X97999Y138451D01*
X105703Y138451D01*
X105250Y137058D01*
X104479Y135544D01*
X103481Y134170D01*
X102280Y132969D01*
X100906Y131971D01*
X99392Y131200D01*
X97999Y130747D01*
X97999Y138451D01*
G37*
%LPD*%
%LPC*%
G36*
X383208Y270900D02*
X383208Y270900D01*
X381694Y271671D01*
X380320Y272669D01*
X379119Y273870D01*
X378121Y275244D01*
X377350Y276758D01*
X376897Y278151D01*
X384601Y278151D01*
X384601Y270447D01*
X383208Y270900D01*
G37*
%LPD*%
%LPC*%
G36*
X237158Y131200D02*
X237158Y131200D01*
X235644Y131971D01*
X234270Y132969D01*
X233069Y134170D01*
X232071Y135544D01*
X231300Y137058D01*
X230847Y138451D01*
X238551Y138451D01*
X238551Y130747D01*
X237158Y131200D01*
G37*
%LPD*%
%LPC*%
G36*
X72058Y496500D02*
X72058Y496500D01*
X70544Y497271D01*
X69170Y498269D01*
X67969Y499470D01*
X66971Y500844D01*
X66200Y502358D01*
X65747Y503751D01*
X73451Y503751D01*
X73451Y496047D01*
X72058Y496500D01*
G37*
%LPD*%
%LPC*%
G36*
X427658Y801300D02*
X427658Y801300D01*
X426144Y802071D01*
X424770Y803069D01*
X423569Y804270D01*
X422571Y805644D01*
X421800Y807158D01*
X421347Y808551D01*
X429051Y808551D01*
X429051Y800847D01*
X427658Y801300D01*
G37*
%LPD*%
%LPC*%
G36*
X427658Y496500D02*
X427658Y496500D01*
X426144Y497271D01*
X424770Y498269D01*
X423569Y499470D01*
X422571Y500844D01*
X421800Y502358D01*
X421347Y503751D01*
X429051Y503751D01*
X429051Y496047D01*
X427658Y496500D01*
G37*
%LPD*%
%LPC*%
G36*
X91108Y131200D02*
X91108Y131200D01*
X89594Y131971D01*
X88220Y132969D01*
X87019Y134170D01*
X86021Y135544D01*
X85250Y137058D01*
X84797Y138451D01*
X92501Y138451D01*
X92501Y130747D01*
X91108Y131200D01*
G37*
%LPD*%
%LPC*%
G36*
X91108Y270900D02*
X91108Y270900D01*
X89594Y271671D01*
X88220Y272669D01*
X87019Y273870D01*
X86021Y275244D01*
X85250Y276758D01*
X84797Y278151D01*
X92501Y278151D01*
X92501Y270447D01*
X91108Y270900D01*
G37*
%LPD*%
%LPC*%
G36*
X237158Y270900D02*
X237158Y270900D01*
X235644Y271671D01*
X234270Y272669D01*
X233069Y273870D01*
X232071Y275244D01*
X231300Y276758D01*
X230847Y278151D01*
X238551Y278151D01*
X238551Y270447D01*
X237158Y270900D01*
G37*
%LPD*%
%LPC*%
G36*
X72058Y331400D02*
X72058Y331400D01*
X70544Y332171D01*
X69170Y333169D01*
X67969Y334370D01*
X66971Y335744D01*
X66200Y337258D01*
X65747Y338651D01*
X73451Y338651D01*
X73451Y330947D01*
X72058Y331400D01*
G37*
%LPD*%
%LPC*%
G36*
X383208Y131200D02*
X383208Y131200D01*
X381694Y131971D01*
X380320Y132969D01*
X379119Y134170D01*
X378121Y135544D01*
X377350Y137058D01*
X376897Y138451D01*
X384601Y138451D01*
X384601Y130747D01*
X383208Y131200D01*
G37*
%LPD*%
%LPC*%
G36*
X402081Y770381D02*
X402081Y770381D01*
X402081Y777495D01*
X403838Y777495D01*
X409195Y772138D01*
X409195Y770381D01*
X402081Y770381D01*
G37*
%LPD*%
%LPC*%
G36*
X262381Y719581D02*
X262381Y719581D01*
X262381Y726695D01*
X264138Y726695D01*
X269495Y721338D01*
X269495Y719581D01*
X262381Y719581D01*
G37*
%LPD*%
%LPC*%
G36*
X454405Y681481D02*
X454405Y681481D01*
X454405Y683238D01*
X459762Y688595D01*
X461519Y688595D01*
X461519Y681481D01*
X454405Y681481D01*
G37*
%LPD*%
%LPC*%
G36*
X251205Y719581D02*
X251205Y719581D01*
X251205Y721338D01*
X256562Y726695D01*
X258319Y726695D01*
X258319Y719581D01*
X251205Y719581D01*
G37*
%LPD*%
%LPC*%
G36*
X262381Y708405D02*
X262381Y708405D01*
X262381Y715519D01*
X269495Y715519D01*
X269495Y713762D01*
X264138Y708405D01*
X262381Y708405D01*
G37*
%LPD*%
%LPC*%
G36*
X402081Y759205D02*
X402081Y759205D01*
X402081Y766319D01*
X409195Y766319D01*
X409195Y764562D01*
X403838Y759205D01*
X402081Y759205D01*
G37*
%LPD*%
%LPC*%
G36*
X390905Y770381D02*
X390905Y770381D01*
X390905Y772138D01*
X396262Y777495D01*
X398019Y777495D01*
X398019Y770381D01*
X390905Y770381D01*
G37*
%LPD*%
%LPC*%
G36*
X396262Y759205D02*
X396262Y759205D01*
X390905Y764562D01*
X390905Y766319D01*
X398019Y766319D01*
X398019Y759205D01*
X396262Y759205D01*
G37*
%LPD*%
%LPC*%
G36*
X256562Y708405D02*
X256562Y708405D01*
X251205Y713762D01*
X251205Y715519D01*
X258319Y715519D01*
X258319Y708405D01*
X256562Y708405D01*
G37*
%LPD*%
%LPC*%
G36*
X21612Y16255D02*
X21612Y16255D01*
X16255Y21612D01*
X16255Y23369D01*
X23369Y23369D01*
X23369Y16255D01*
X21612Y16255D01*
G37*
%LPD*%
%LPC*%
G36*
X459762Y670305D02*
X459762Y670305D01*
X454405Y675662D01*
X454405Y677419D01*
X461519Y677419D01*
X461519Y670305D01*
X459762Y670305D01*
G37*
%LPD*%
D10*
X349250Y673100D03*
X273050Y673100D03*
D11*
X349250Y641350D03*
X349250Y565150D03*
X25400Y349250D03*
X25400Y273050D03*
D12*
X25400Y25400D03*
X25400Y101600D03*
X298450Y527050D03*
X298450Y603250D03*
D13*
X95250Y165900D03*
X95250Y250900D03*
X95250Y280900D03*
X387350Y165900D03*
X387350Y250900D03*
X387350Y280900D03*
X95250Y26200D03*
X95250Y111200D03*
X95250Y141200D03*
X241300Y165900D03*
X241300Y250900D03*
X241300Y280900D03*
X241300Y26200D03*
X241300Y111200D03*
X241300Y141200D03*
X431800Y926300D03*
X431800Y841300D03*
X431800Y811300D03*
X76200Y621500D03*
X76200Y536500D03*
X76200Y506500D03*
D14*
X178200Y501500D03*
D15*
X203200Y501500D03*
X228200Y501500D03*
D16*
X248200Y571500D03*
X158200Y571500D03*
D14*
X216300Y895200D03*
D15*
X241300Y895200D03*
X266300Y895200D03*
D16*
X286300Y965200D03*
X196300Y965200D03*
D14*
X330600Y336400D03*
D15*
X355600Y336400D03*
X380600Y336400D03*
D16*
X400600Y406400D03*
X310600Y406400D03*
D14*
X76600Y704700D03*
D15*
X101600Y704700D03*
X126600Y704700D03*
D16*
X146600Y774700D03*
X56600Y774700D03*
D13*
X387350Y26200D03*
X387350Y111200D03*
X387350Y141200D03*
X76200Y456400D03*
X76200Y371400D03*
X76200Y341400D03*
D14*
X178200Y336400D03*
D15*
X203200Y336400D03*
X228200Y336400D03*
D16*
X248200Y406400D03*
X158200Y406400D03*
D17*
X298450Y812800D03*
X374650Y812800D03*
D10*
X279400Y311150D03*
X203200Y311150D03*
D12*
X177800Y717550D03*
X177800Y793750D03*
D10*
X266700Y863600D03*
X190500Y863600D03*
X266700Y838200D03*
X190500Y838200D03*
X266700Y812800D03*
X190500Y812800D03*
D18*
X449580Y254000D02*
X464820Y254000D01*
X464820Y228600D02*
X449580Y228600D01*
X449580Y203200D02*
X464820Y203200D01*
X464820Y177800D02*
X449580Y177800D01*
X449580Y152400D02*
X464820Y152400D01*
X464820Y127000D02*
X449580Y127000D01*
D19*
X292100Y698810D02*
X292100Y710890D01*
X317500Y710890D02*
X317500Y698810D01*
X342900Y698810D02*
X342900Y710890D01*
X368300Y710890D02*
X368300Y698810D01*
X368300Y775010D02*
X368300Y787090D01*
X342900Y787090D02*
X342900Y775010D01*
X317500Y775010D02*
X317500Y787090D01*
X292100Y787090D02*
X292100Y775010D01*
D12*
X177800Y215900D03*
X177800Y292100D03*
X25400Y165100D03*
X25400Y241300D03*
X317500Y215900D03*
X317500Y292100D03*
D11*
X260350Y768350D03*
X260350Y717550D03*
D12*
X400050Y717550D03*
X400050Y768350D03*
D13*
X431800Y621500D03*
X431800Y536500D03*
X431800Y506500D03*
D10*
X450850Y654050D03*
X400050Y654050D03*
X463550Y679450D03*
X387350Y679450D03*
D18*
X33020Y933450D02*
X17780Y933450D01*
X17780Y908050D02*
X33020Y908050D01*
X33020Y882650D02*
X17780Y882650D01*
X17780Y857250D02*
X33020Y857250D01*
X33020Y831850D02*
X17780Y831850D01*
D20*
X419100Y304800D02*
X419100Y152400D01*
D21*
X419100Y152400D03*
D20*
X317500Y292100D02*
X330200Y304800D01*
X419100Y304800D01*
X438150Y323850D01*
X438150Y444500D01*
X349250Y533400D01*
X349250Y565150D01*
X292100Y692150D02*
X292100Y704850D01*
X292100Y692150D02*
X273050Y673100D01*
X273050Y514350D01*
X234950Y476250D02*
X44450Y476250D01*
X25400Y457200D01*
X25400Y349250D01*
X234950Y476250D02*
X273050Y514350D01*
X298450Y603250D02*
X311150Y603250D01*
X317500Y609600D02*
X317500Y704850D01*
X317500Y609600D02*
X311150Y603250D01*
X317500Y704850D02*
X317500Y781050D01*
X349250Y673100D02*
X349250Y641350D01*
X342900Y679450D02*
X342900Y704850D01*
X342900Y679450D02*
X349250Y673100D01*
X25400Y101600D02*
X25400Y44450D01*
X44450Y25400D01*
X101600Y25400D01*
X95250Y26200D01*
X44450Y254000D02*
X25400Y273050D01*
X44450Y254000D02*
X44450Y120650D01*
X25400Y101600D01*
X76200Y456400D02*
X95250Y456400D01*
X95250Y457200D01*
X120650Y431000D01*
X120650Y393550D02*
X178200Y336400D01*
X120650Y393550D02*
X120650Y431000D01*
X203200Y336400D02*
X203200Y311150D01*
X298450Y812800D02*
X317500Y812800D01*
X330200Y800100D01*
X355600Y508000D02*
X355600Y336400D01*
X330200Y533400D02*
X330200Y800100D01*
X330200Y533400D02*
X355600Y508000D01*
X355600Y812800D02*
X374650Y812800D01*
X298450Y527050D02*
X298450Y482600D01*
X279400Y463550D01*
X279400Y311150D01*
X355600Y692150D02*
X355600Y730250D01*
X355600Y692150D02*
X368300Y679450D01*
X368300Y533400D01*
D21*
X368300Y533400D03*
D20*
X342900Y800100D02*
X355600Y812800D01*
X342900Y800100D02*
X342900Y781050D01*
X342900Y742950D01*
X355600Y730250D01*
X120650Y723900D02*
X101600Y704700D01*
X120650Y723900D02*
X171450Y723900D01*
X177800Y717550D01*
X266700Y869950D02*
X241300Y895200D01*
X266700Y869950D02*
X266700Y863600D01*
X266700Y838200D02*
X406400Y838200D01*
X419100Y825500D01*
X450850Y825500D01*
X469900Y844550D01*
X469900Y908050D01*
X457200Y920750D01*
X431800Y920750D01*
X431800Y926300D01*
X431800Y927100D01*
X76200Y622300D02*
X76200Y621500D01*
X76200Y622300D02*
X95250Y622300D01*
X120650Y558650D02*
X178200Y501500D01*
X120650Y596900D02*
X95250Y622300D01*
X120650Y596900D02*
X120650Y558650D01*
X209550Y507850D02*
X209550Y755650D01*
X209550Y507850D02*
X203200Y501500D01*
X209550Y755650D02*
X266700Y812800D01*
X292100Y228600D02*
X292100Y38100D01*
X279400Y25400D01*
X247650Y25400D01*
X241300Y26200D01*
D21*
X292100Y228600D03*
D20*
X177800Y241300D02*
X177800Y292100D01*
X177800Y241300D02*
X158750Y222250D01*
X158750Y177800D01*
D21*
X158750Y177800D03*
D20*
X444500Y254000D02*
X457200Y254000D01*
X444500Y254000D02*
X431800Y241300D01*
X431800Y38100D01*
X419100Y25400D01*
X381000Y25400D01*
X387350Y26200D01*
X190500Y857250D02*
X190500Y863600D01*
X190500Y838200D02*
X190500Y812800D01*
X177800Y800100D01*
X177800Y793750D01*
X190500Y857250D02*
X25400Y857250D01*
X190500Y857250D02*
X190500Y838200D01*
X177800Y215900D02*
X177800Y165100D01*
D21*
X177800Y165100D03*
D20*
X317500Y158750D02*
X317500Y215900D01*
D21*
X317500Y158750D03*
D20*
X431800Y621500D02*
X431800Y635000D01*
X450850Y654050D01*
X400050Y679450D02*
X387350Y679450D01*
X400050Y679450D02*
X400050Y654050D01*
X196850Y882650D02*
X25400Y882650D01*
X196850Y882650D02*
X254000Y825500D01*
X431800Y774700D02*
X431800Y692150D01*
X419100Y679450D01*
X400050Y679450D01*
X381000Y825500D02*
X254000Y825500D01*
X381000Y825500D02*
X431800Y774700D01*
M02*
