G04 EAGLE Gerber RS-274X export*
G75*
%MOMM*%
%FSLAX34Y34*%
%LPD*%
%INSoldermask Bottom*%
%IPPOS*%
%AMOC8*
5,1,8,0,0,1.08239X$1,22.5*%
G01*
%ADD10C,3.403600*%
%ADD11P,1.649562X8X202.500000*%
%ADD12P,1.649562X8X292.500000*%
%ADD13P,1.649562X8X112.500000*%
%ADD14C,1.853200*%
%ADD15R,1.879600X1.879600*%
%ADD16P,2.034460X8X292.500000*%
%ADD17R,3.319200X3.319200*%
%ADD18P,1.649562X8X22.500000*%
%ADD19C,1.727200*%
%ADD20C,1.411200*%
%ADD21C,0.959600*%


D10*
X349250Y939800D03*
D11*
X349250Y673100D03*
X273050Y673100D03*
D12*
X349250Y641350D03*
X349250Y565150D03*
X25400Y349250D03*
X25400Y273050D03*
D13*
X25400Y25400D03*
X25400Y101600D03*
X298450Y527050D03*
X298450Y603250D03*
D14*
X95250Y165900D03*
X95250Y250900D03*
X95250Y280900D03*
X387350Y165900D03*
X387350Y250900D03*
X387350Y280900D03*
X95250Y26200D03*
X95250Y111200D03*
X95250Y141200D03*
X241300Y165900D03*
X241300Y250900D03*
X241300Y280900D03*
X241300Y26200D03*
X241300Y111200D03*
X241300Y141200D03*
X431800Y926300D03*
X431800Y841300D03*
X431800Y811300D03*
X76200Y621500D03*
X76200Y536500D03*
X76200Y506500D03*
D15*
X178200Y501500D03*
D16*
X203200Y501500D03*
X228200Y501500D03*
D17*
X248200Y571500D03*
X158200Y571500D03*
D15*
X216300Y895200D03*
D16*
X241300Y895200D03*
X266300Y895200D03*
D17*
X286300Y965200D03*
X196300Y965200D03*
D15*
X330600Y336400D03*
D16*
X355600Y336400D03*
X380600Y336400D03*
D17*
X400600Y406400D03*
X310600Y406400D03*
D15*
X76600Y704700D03*
D16*
X101600Y704700D03*
X126600Y704700D03*
D17*
X146600Y774700D03*
X56600Y774700D03*
D14*
X387350Y26200D03*
X387350Y111200D03*
X387350Y141200D03*
X76200Y456400D03*
X76200Y371400D03*
X76200Y341400D03*
D15*
X178200Y336400D03*
D16*
X203200Y336400D03*
X228200Y336400D03*
D17*
X248200Y406400D03*
X158200Y406400D03*
D18*
X298450Y812800D03*
X374650Y812800D03*
D11*
X279400Y311150D03*
X203200Y311150D03*
D13*
X177800Y717550D03*
X177800Y793750D03*
D11*
X266700Y863600D03*
X190500Y863600D03*
X266700Y838200D03*
X190500Y838200D03*
X266700Y812800D03*
X190500Y812800D03*
D19*
X449580Y254000D02*
X464820Y254000D01*
X464820Y228600D02*
X449580Y228600D01*
X449580Y203200D02*
X464820Y203200D01*
X464820Y177800D02*
X449580Y177800D01*
X449580Y152400D02*
X464820Y152400D01*
X464820Y127000D02*
X449580Y127000D01*
D20*
X292100Y698810D02*
X292100Y710890D01*
X317500Y710890D02*
X317500Y698810D01*
X342900Y698810D02*
X342900Y710890D01*
X368300Y710890D02*
X368300Y698810D01*
X368300Y775010D02*
X368300Y787090D01*
X342900Y787090D02*
X342900Y775010D01*
X317500Y775010D02*
X317500Y787090D01*
X292100Y787090D02*
X292100Y775010D01*
D13*
X177800Y215900D03*
X177800Y292100D03*
X25400Y165100D03*
X25400Y241300D03*
X317500Y215900D03*
X317500Y292100D03*
D12*
X260350Y768350D03*
X260350Y717550D03*
D13*
X400050Y717550D03*
X400050Y768350D03*
D14*
X431800Y621500D03*
X431800Y536500D03*
X431800Y506500D03*
D11*
X450850Y654050D03*
X400050Y654050D03*
X463550Y679450D03*
X387350Y679450D03*
D19*
X33020Y933450D02*
X17780Y933450D01*
X17780Y908050D02*
X33020Y908050D01*
X33020Y882650D02*
X17780Y882650D01*
X17780Y857250D02*
X33020Y857250D01*
X33020Y831850D02*
X17780Y831850D01*
D21*
X419100Y152400D03*
X368300Y533400D03*
X292100Y228600D03*
X158750Y177800D03*
X177800Y165100D03*
X317500Y158750D03*
M02*
