G04 EAGLE Gerber RS-274X export*
G75*
%MOMM*%
%FSLAX34Y34*%
%LPD*%
%INBottom Copper*%
%IPPOS*%
%AMOC8*
5,1,8,0,0,1.08239X$1,22.5*%
G01*
%ADD10P,1.429621X8X202.500000*%
%ADD11P,1.429621X8X292.500000*%
%ADD12P,1.429621X8X112.500000*%
%ADD13C,1.650000*%
%ADD14R,1.676400X1.676400*%
%ADD15P,1.814519X8X292.500000*%
%ADD16R,3.116000X3.116000*%
%ADD17P,1.429621X8X22.500000*%
%ADD18C,1.524000*%
%ADD19C,1.208000*%
%ADD20C,0.609600*%
%ADD21C,0.406400*%
%ADD22C,0.756400*%

G36*
X470426Y10163D02*
X470426Y10163D01*
X470444Y10161D01*
X470626Y10182D01*
X470809Y10201D01*
X470826Y10206D01*
X470843Y10208D01*
X471018Y10265D01*
X471194Y10319D01*
X471209Y10327D01*
X471226Y10333D01*
X471386Y10423D01*
X471548Y10511D01*
X471561Y10522D01*
X471577Y10531D01*
X471716Y10651D01*
X471857Y10768D01*
X471868Y10782D01*
X471882Y10794D01*
X471994Y10939D01*
X472109Y11082D01*
X472117Y11098D01*
X472128Y11112D01*
X472210Y11277D01*
X472295Y11439D01*
X472300Y11456D01*
X472308Y11472D01*
X472355Y11651D01*
X472406Y11826D01*
X472408Y11844D01*
X472412Y11861D01*
X472439Y12192D01*
X472439Y116164D01*
X472430Y116257D01*
X472431Y116350D01*
X472410Y116457D01*
X472399Y116564D01*
X472372Y116654D01*
X472354Y116745D01*
X472313Y116846D01*
X472281Y116949D01*
X472237Y117031D01*
X472201Y117118D01*
X472141Y117208D01*
X472089Y117303D01*
X472030Y117375D01*
X471978Y117453D01*
X471901Y117529D01*
X471832Y117613D01*
X471759Y117671D01*
X471693Y117737D01*
X471602Y117797D01*
X471518Y117865D01*
X471435Y117908D01*
X471358Y117960D01*
X471257Y118001D01*
X471161Y118051D01*
X471071Y118076D01*
X470985Y118112D01*
X470878Y118132D01*
X470774Y118162D01*
X470681Y118170D01*
X470589Y118187D01*
X470481Y118186D01*
X470372Y118195D01*
X470280Y118184D01*
X470187Y118183D01*
X470080Y118161D01*
X469973Y118148D01*
X469884Y118119D01*
X469793Y118100D01*
X469669Y118049D01*
X469590Y118023D01*
X469547Y117999D01*
X469486Y117974D01*
X468720Y117584D01*
X467199Y117089D01*
X465620Y116839D01*
X459739Y116839D01*
X459739Y126492D01*
X459737Y126510D01*
X459739Y126527D01*
X459718Y126710D01*
X459699Y126892D01*
X459694Y126909D01*
X459692Y126927D01*
X459667Y127005D01*
X459706Y127142D01*
X459708Y127160D01*
X459712Y127177D01*
X459739Y127508D01*
X459739Y137161D01*
X465620Y137161D01*
X467199Y136911D01*
X468720Y136416D01*
X469486Y136026D01*
X469573Y135992D01*
X469655Y135949D01*
X469760Y135919D01*
X469861Y135880D01*
X469953Y135864D01*
X470042Y135838D01*
X470151Y135829D01*
X470257Y135810D01*
X470351Y135813D01*
X470444Y135805D01*
X470551Y135818D01*
X470660Y135821D01*
X470751Y135841D01*
X470843Y135852D01*
X470947Y135886D01*
X471053Y135910D01*
X471138Y135948D01*
X471226Y135977D01*
X471321Y136030D01*
X471420Y136075D01*
X471496Y136129D01*
X471577Y136175D01*
X471659Y136246D01*
X471747Y136309D01*
X471811Y136377D01*
X471882Y136438D01*
X471948Y136524D01*
X472022Y136603D01*
X472071Y136683D01*
X472128Y136756D01*
X472177Y136853D01*
X472234Y136946D01*
X472266Y137033D01*
X472308Y137117D01*
X472336Y137222D01*
X472373Y137323D01*
X472388Y137415D01*
X472412Y137505D01*
X472423Y137639D01*
X472436Y137721D01*
X472434Y137771D01*
X472439Y137836D01*
X472439Y142618D01*
X472438Y142631D01*
X472439Y142644D01*
X472418Y142831D01*
X472399Y143018D01*
X472395Y143031D01*
X472394Y143045D01*
X472336Y143223D01*
X472281Y143403D01*
X472275Y143415D01*
X472271Y143428D01*
X472179Y143592D01*
X472089Y143757D01*
X472081Y143768D01*
X472074Y143779D01*
X471952Y143922D01*
X471832Y144067D01*
X471821Y144075D01*
X471813Y144085D01*
X471664Y144201D01*
X471518Y144319D01*
X471506Y144325D01*
X471496Y144333D01*
X471327Y144418D01*
X471161Y144504D01*
X471148Y144508D01*
X471136Y144514D01*
X470954Y144564D01*
X470774Y144616D01*
X470760Y144617D01*
X470747Y144621D01*
X470559Y144633D01*
X470372Y144649D01*
X470359Y144647D01*
X470346Y144648D01*
X470158Y144624D01*
X469973Y144602D01*
X469960Y144598D01*
X469947Y144596D01*
X469631Y144494D01*
X466639Y143255D01*
X447761Y143255D01*
X444400Y144647D01*
X441827Y147220D01*
X441674Y147589D01*
X441664Y147609D01*
X441657Y147630D01*
X441569Y147786D01*
X441484Y147944D01*
X441470Y147961D01*
X441459Y147981D01*
X441342Y148117D01*
X441228Y148255D01*
X441211Y148269D01*
X441196Y148286D01*
X441055Y148395D01*
X440915Y148508D01*
X440895Y148519D01*
X440878Y148532D01*
X440718Y148612D01*
X440559Y148695D01*
X440537Y148702D01*
X440517Y148712D01*
X440344Y148758D01*
X440172Y148808D01*
X440150Y148810D01*
X440129Y148816D01*
X439798Y148843D01*
X423889Y148843D01*
X423863Y148841D01*
X423836Y148843D01*
X423662Y148821D01*
X423489Y148803D01*
X423463Y148795D01*
X423437Y148792D01*
X423271Y148737D01*
X423104Y148685D01*
X423080Y148672D01*
X423055Y148664D01*
X422903Y148577D01*
X422750Y148493D01*
X422729Y148476D01*
X422706Y148463D01*
X422453Y148248D01*
X422106Y147901D01*
X420156Y147093D01*
X418044Y147093D01*
X416094Y147901D01*
X414601Y149394D01*
X413793Y151344D01*
X413793Y153456D01*
X414601Y155406D01*
X416094Y156899D01*
X418044Y157707D01*
X420156Y157707D01*
X422106Y156899D01*
X422453Y156552D01*
X422474Y156535D01*
X422491Y156514D01*
X422629Y156408D01*
X422765Y156297D01*
X422788Y156284D01*
X422809Y156268D01*
X422966Y156190D01*
X423120Y156108D01*
X423146Y156100D01*
X423170Y156088D01*
X423339Y156043D01*
X423506Y155993D01*
X423533Y155991D01*
X423559Y155984D01*
X423889Y155957D01*
X439798Y155957D01*
X439820Y155959D01*
X439842Y155957D01*
X440020Y155979D01*
X440198Y155997D01*
X440220Y156003D01*
X440242Y156006D01*
X440412Y156062D01*
X440583Y156115D01*
X440603Y156125D01*
X440624Y156132D01*
X440780Y156221D01*
X440937Y156307D01*
X440955Y156321D01*
X440974Y156332D01*
X441109Y156450D01*
X441247Y156564D01*
X441261Y156582D01*
X441277Y156596D01*
X441387Y156739D01*
X441499Y156878D01*
X441509Y156898D01*
X441523Y156916D01*
X441674Y157211D01*
X441827Y157580D01*
X444400Y160153D01*
X447761Y161545D01*
X466639Y161545D01*
X469631Y160306D01*
X469644Y160302D01*
X469655Y160296D01*
X469836Y160244D01*
X470016Y160189D01*
X470029Y160188D01*
X470042Y160184D01*
X470230Y160169D01*
X470417Y160151D01*
X470430Y160152D01*
X470444Y160151D01*
X470631Y160173D01*
X470817Y160193D01*
X470830Y160197D01*
X470843Y160198D01*
X471023Y160257D01*
X471202Y160312D01*
X471213Y160319D01*
X471226Y160323D01*
X471391Y160416D01*
X471555Y160506D01*
X471565Y160514D01*
X471577Y160521D01*
X471719Y160644D01*
X471863Y160765D01*
X471871Y160775D01*
X471882Y160784D01*
X471997Y160933D01*
X472114Y161080D01*
X472120Y161092D01*
X472128Y161102D01*
X472212Y161271D01*
X472298Y161438D01*
X472302Y161451D01*
X472308Y161463D01*
X472357Y161646D01*
X472408Y161825D01*
X472409Y161838D01*
X472412Y161851D01*
X472439Y162182D01*
X472439Y168018D01*
X472438Y168031D01*
X472439Y168045D01*
X472418Y168231D01*
X472399Y168418D01*
X472395Y168431D01*
X472394Y168445D01*
X472336Y168624D01*
X472281Y168803D01*
X472275Y168815D01*
X472271Y168828D01*
X472179Y168993D01*
X472089Y169157D01*
X472081Y169168D01*
X472074Y169179D01*
X471952Y169323D01*
X471832Y169467D01*
X471821Y169475D01*
X471813Y169485D01*
X471664Y169602D01*
X471518Y169719D01*
X471506Y169725D01*
X471496Y169733D01*
X471326Y169818D01*
X471161Y169905D01*
X471148Y169908D01*
X471136Y169914D01*
X470953Y169964D01*
X470774Y170016D01*
X470760Y170017D01*
X470747Y170021D01*
X470559Y170033D01*
X470372Y170049D01*
X470359Y170047D01*
X470346Y170048D01*
X470158Y170024D01*
X469973Y170002D01*
X469960Y169998D01*
X469947Y169996D01*
X469631Y169894D01*
X466639Y168655D01*
X447761Y168655D01*
X444400Y170047D01*
X441827Y172620D01*
X441674Y172989D01*
X441664Y173009D01*
X441657Y173030D01*
X441569Y173186D01*
X441484Y173344D01*
X441470Y173361D01*
X441459Y173381D01*
X441342Y173517D01*
X441228Y173655D01*
X441211Y173669D01*
X441196Y173686D01*
X441055Y173795D01*
X440915Y173908D01*
X440895Y173919D01*
X440878Y173932D01*
X440718Y174012D01*
X440559Y174095D01*
X440537Y174102D01*
X440517Y174112D01*
X440344Y174158D01*
X440172Y174208D01*
X440150Y174210D01*
X440129Y174216D01*
X439798Y174243D01*
X397514Y174243D01*
X397501Y174242D01*
X397488Y174243D01*
X397301Y174222D01*
X397114Y174203D01*
X397101Y174199D01*
X397087Y174198D01*
X396908Y174140D01*
X396729Y174085D01*
X396717Y174079D01*
X396704Y174075D01*
X396539Y173983D01*
X396375Y173893D01*
X396364Y173885D01*
X396353Y173878D01*
X396210Y173756D01*
X396065Y173636D01*
X396057Y173625D01*
X396047Y173617D01*
X395931Y173469D01*
X395813Y173322D01*
X395807Y173310D01*
X395799Y173300D01*
X395714Y173131D01*
X395628Y172965D01*
X395624Y172952D01*
X395618Y172940D01*
X395568Y172759D01*
X395516Y172578D01*
X395515Y172564D01*
X395511Y172551D01*
X395499Y172363D01*
X395483Y172176D01*
X395485Y172163D01*
X395484Y172150D01*
X395508Y171962D01*
X395530Y171777D01*
X395534Y171764D01*
X395536Y171751D01*
X395638Y171435D01*
X397125Y167844D01*
X397125Y163956D01*
X395637Y160363D01*
X392887Y157613D01*
X389602Y156253D01*
X389294Y156125D01*
X385362Y156125D01*
X385325Y156139D01*
X385259Y156150D01*
X385196Y156169D01*
X385061Y156182D01*
X384927Y156204D01*
X384861Y156201D01*
X384795Y156207D01*
X384660Y156193D01*
X384525Y156188D01*
X384461Y156173D01*
X384394Y156166D01*
X384265Y156125D01*
X384134Y156094D01*
X384073Y156066D01*
X384010Y156046D01*
X383891Y155981D01*
X383768Y155924D01*
X383715Y155884D01*
X383657Y155853D01*
X383553Y155766D01*
X383444Y155685D01*
X383392Y155630D01*
X383349Y155594D01*
X383300Y155532D01*
X383217Y155444D01*
X382853Y154989D01*
X382823Y154942D01*
X382786Y154900D01*
X382713Y154773D01*
X382695Y154745D01*
X382639Y154771D01*
X382594Y154781D01*
X382551Y154799D01*
X382398Y154828D01*
X382247Y154864D01*
X382195Y154867D01*
X382155Y154874D01*
X382069Y154874D01*
X381916Y154882D01*
X381371Y154866D01*
X381302Y154857D01*
X381203Y154854D01*
X379788Y154696D01*
X379779Y154698D01*
X379693Y154765D01*
X379541Y154882D01*
X379539Y154883D01*
X379537Y154885D01*
X379358Y154974D01*
X379181Y155062D01*
X379178Y155062D01*
X379176Y155063D01*
X378986Y155114D01*
X378792Y155166D01*
X378789Y155166D01*
X378787Y155167D01*
X378768Y155168D01*
X378461Y155193D01*
X322290Y155193D01*
X322263Y155191D01*
X322236Y155193D01*
X322062Y155171D01*
X321889Y155153D01*
X321863Y155146D01*
X321837Y155142D01*
X321671Y155087D01*
X321504Y155035D01*
X321480Y155022D01*
X321455Y155014D01*
X321303Y154927D01*
X321150Y154843D01*
X321129Y154826D01*
X321106Y154813D01*
X320853Y154598D01*
X320506Y154251D01*
X318556Y153443D01*
X316444Y153443D01*
X314494Y154251D01*
X313001Y155744D01*
X312193Y157694D01*
X312193Y159806D01*
X313001Y161756D01*
X314494Y163249D01*
X316444Y164057D01*
X318556Y164057D01*
X320506Y163249D01*
X320853Y162902D01*
X320874Y162885D01*
X320891Y162864D01*
X321029Y162757D01*
X321165Y162647D01*
X321188Y162634D01*
X321209Y162618D01*
X321366Y162540D01*
X321520Y162458D01*
X321546Y162450D01*
X321570Y162438D01*
X321739Y162393D01*
X321906Y162343D01*
X321933Y162341D01*
X321959Y162334D01*
X322290Y162307D01*
X375544Y162307D01*
X375562Y162309D01*
X375580Y162307D01*
X375762Y162328D01*
X375945Y162347D01*
X375962Y162352D01*
X375979Y162354D01*
X376154Y162411D01*
X376330Y162465D01*
X376345Y162473D01*
X376362Y162479D01*
X376522Y162569D01*
X376684Y162657D01*
X376697Y162668D01*
X376713Y162677D01*
X376852Y162797D01*
X376993Y162914D01*
X377004Y162928D01*
X377018Y162940D01*
X377130Y163085D01*
X377245Y163228D01*
X377253Y163244D01*
X377264Y163258D01*
X377346Y163423D01*
X377431Y163585D01*
X377436Y163602D01*
X377444Y163618D01*
X377491Y163797D01*
X377542Y163972D01*
X377544Y163990D01*
X377548Y164007D01*
X377575Y164338D01*
X377575Y167844D01*
X379062Y171435D01*
X379066Y171448D01*
X379072Y171459D01*
X379124Y171638D01*
X379179Y171820D01*
X379180Y171833D01*
X379184Y171846D01*
X379199Y172034D01*
X379217Y172221D01*
X379216Y172234D01*
X379217Y172248D01*
X379195Y172435D01*
X379175Y172621D01*
X379171Y172634D01*
X379170Y172647D01*
X379111Y172827D01*
X379056Y173006D01*
X379049Y173017D01*
X379045Y173030D01*
X378952Y173195D01*
X378862Y173359D01*
X378854Y173369D01*
X378847Y173381D01*
X378724Y173523D01*
X378603Y173667D01*
X378593Y173675D01*
X378584Y173686D01*
X378435Y173801D01*
X378288Y173918D01*
X378276Y173924D01*
X378266Y173932D01*
X378097Y174016D01*
X377930Y174102D01*
X377917Y174106D01*
X377905Y174112D01*
X377723Y174161D01*
X377543Y174212D01*
X377530Y174213D01*
X377517Y174216D01*
X377186Y174243D01*
X251464Y174243D01*
X251451Y174242D01*
X251438Y174243D01*
X251251Y174222D01*
X251064Y174203D01*
X251051Y174199D01*
X251037Y174198D01*
X250858Y174140D01*
X250679Y174085D01*
X250667Y174079D01*
X250654Y174075D01*
X250489Y173983D01*
X250325Y173893D01*
X250314Y173885D01*
X250303Y173878D01*
X250160Y173756D01*
X250015Y173636D01*
X250007Y173625D01*
X249997Y173617D01*
X249881Y173469D01*
X249763Y173322D01*
X249757Y173310D01*
X249749Y173300D01*
X249664Y173131D01*
X249578Y172965D01*
X249574Y172952D01*
X249568Y172940D01*
X249518Y172759D01*
X249466Y172578D01*
X249465Y172564D01*
X249461Y172551D01*
X249449Y172363D01*
X249433Y172176D01*
X249435Y172163D01*
X249434Y172150D01*
X249458Y171962D01*
X249480Y171777D01*
X249484Y171764D01*
X249486Y171751D01*
X249588Y171435D01*
X251075Y167844D01*
X251075Y163956D01*
X249587Y160363D01*
X246837Y157613D01*
X243552Y156253D01*
X243244Y156125D01*
X239356Y156125D01*
X235763Y157613D01*
X233001Y160376D01*
X232938Y160487D01*
X232854Y160644D01*
X232840Y160661D01*
X232829Y160681D01*
X232711Y160817D01*
X232597Y160955D01*
X232580Y160969D01*
X232565Y160986D01*
X232424Y161095D01*
X232285Y161208D01*
X232265Y161219D01*
X232247Y161232D01*
X232087Y161312D01*
X231928Y161395D01*
X231907Y161402D01*
X231887Y161412D01*
X231713Y161458D01*
X231542Y161508D01*
X231520Y161510D01*
X231498Y161516D01*
X231167Y161543D01*
X182590Y161543D01*
X182563Y161541D01*
X182536Y161543D01*
X182362Y161521D01*
X182189Y161503D01*
X182163Y161496D01*
X182137Y161492D01*
X181971Y161437D01*
X181804Y161385D01*
X181780Y161372D01*
X181755Y161364D01*
X181603Y161277D01*
X181450Y161193D01*
X181429Y161176D01*
X181406Y161163D01*
X181153Y160948D01*
X180806Y160601D01*
X178856Y159793D01*
X176744Y159793D01*
X174794Y160601D01*
X173301Y162094D01*
X172493Y164044D01*
X172493Y166156D01*
X173301Y168106D01*
X174794Y169599D01*
X176572Y170335D01*
X176576Y170338D01*
X176580Y170339D01*
X176752Y170432D01*
X176927Y170526D01*
X176931Y170528D01*
X176934Y170531D01*
X177085Y170656D01*
X177237Y170782D01*
X177240Y170785D01*
X177244Y170788D01*
X177366Y170940D01*
X177491Y171095D01*
X177493Y171099D01*
X177496Y171102D01*
X177586Y171275D01*
X177678Y171451D01*
X177680Y171455D01*
X177682Y171459D01*
X177736Y171647D01*
X177791Y171838D01*
X177792Y171842D01*
X177793Y171846D01*
X177809Y172044D01*
X177826Y172239D01*
X177825Y172243D01*
X177826Y172248D01*
X177803Y172438D01*
X177781Y172639D01*
X177779Y172643D01*
X177779Y172647D01*
X177718Y172833D01*
X177658Y173022D01*
X177655Y173026D01*
X177654Y173030D01*
X177557Y173202D01*
X177461Y173374D01*
X177458Y173377D01*
X177456Y173381D01*
X177328Y173529D01*
X177199Y173679D01*
X177196Y173682D01*
X177193Y173686D01*
X177038Y173806D01*
X176882Y173928D01*
X176878Y173930D01*
X176875Y173932D01*
X176699Y174020D01*
X176523Y174108D01*
X176518Y174110D01*
X176514Y174112D01*
X176323Y174163D01*
X176134Y174215D01*
X176130Y174215D01*
X176126Y174216D01*
X175795Y174243D01*
X163540Y174243D01*
X163513Y174241D01*
X163486Y174243D01*
X163312Y174221D01*
X163139Y174203D01*
X163113Y174196D01*
X163087Y174192D01*
X162921Y174137D01*
X162754Y174085D01*
X162730Y174072D01*
X162705Y174064D01*
X162553Y173977D01*
X162400Y173893D01*
X162379Y173876D01*
X162356Y173863D01*
X162103Y173648D01*
X161756Y173301D01*
X159828Y172503D01*
X159806Y172493D01*
X157694Y172493D01*
X155744Y173301D01*
X154251Y174794D01*
X153443Y176744D01*
X153443Y178856D01*
X154251Y180806D01*
X155744Y182299D01*
X157376Y182975D01*
X157694Y183107D01*
X159806Y183107D01*
X161756Y182299D01*
X162103Y181952D01*
X162124Y181935D01*
X162141Y181914D01*
X162279Y181807D01*
X162415Y181697D01*
X162438Y181684D01*
X162459Y181668D01*
X162616Y181590D01*
X162770Y181508D01*
X162796Y181500D01*
X162820Y181488D01*
X162989Y181443D01*
X163156Y181393D01*
X163183Y181391D01*
X163209Y181384D01*
X163540Y181357D01*
X439798Y181357D01*
X439820Y181359D01*
X439842Y181357D01*
X440020Y181379D01*
X440198Y181397D01*
X440220Y181403D01*
X440242Y181406D01*
X440412Y181462D01*
X440583Y181515D01*
X440603Y181525D01*
X440624Y181532D01*
X440780Y181621D01*
X440937Y181707D01*
X440955Y181721D01*
X440974Y181732D01*
X441109Y181850D01*
X441247Y181964D01*
X441261Y181982D01*
X441277Y181996D01*
X441387Y182139D01*
X441499Y182278D01*
X441509Y182298D01*
X441523Y182316D01*
X441674Y182611D01*
X441827Y182980D01*
X444400Y185553D01*
X447761Y186945D01*
X466639Y186945D01*
X469631Y185706D01*
X469644Y185702D01*
X469655Y185695D01*
X469835Y185644D01*
X470016Y185589D01*
X470029Y185588D01*
X470042Y185584D01*
X470230Y185569D01*
X470417Y185551D01*
X470430Y185552D01*
X470444Y185551D01*
X470630Y185573D01*
X470817Y185593D01*
X470830Y185597D01*
X470843Y185598D01*
X471022Y185656D01*
X471202Y185712D01*
X471213Y185719D01*
X471226Y185723D01*
X471390Y185815D01*
X471555Y185906D01*
X471565Y185914D01*
X471577Y185921D01*
X471719Y186043D01*
X471863Y186165D01*
X471871Y186175D01*
X471882Y186184D01*
X471996Y186332D01*
X472114Y186480D01*
X472120Y186492D01*
X472128Y186502D01*
X472212Y186670D01*
X472298Y186838D01*
X472302Y186851D01*
X472308Y186863D01*
X472357Y187045D01*
X472408Y187225D01*
X472409Y187238D01*
X472412Y187251D01*
X472439Y187582D01*
X472439Y193418D01*
X472438Y193431D01*
X472439Y193445D01*
X472418Y193631D01*
X472399Y193818D01*
X472395Y193831D01*
X472394Y193845D01*
X472336Y194024D01*
X472281Y194203D01*
X472275Y194215D01*
X472271Y194228D01*
X472179Y194393D01*
X472089Y194557D01*
X472081Y194568D01*
X472074Y194579D01*
X471952Y194723D01*
X471832Y194867D01*
X471821Y194875D01*
X471813Y194885D01*
X471664Y195002D01*
X471518Y195119D01*
X471506Y195125D01*
X471496Y195133D01*
X471326Y195218D01*
X471161Y195305D01*
X471148Y195308D01*
X471136Y195314D01*
X470953Y195364D01*
X470774Y195416D01*
X470760Y195417D01*
X470747Y195421D01*
X470559Y195433D01*
X470372Y195449D01*
X470359Y195447D01*
X470346Y195448D01*
X470158Y195424D01*
X469973Y195402D01*
X469960Y195398D01*
X469947Y195396D01*
X469631Y195294D01*
X466639Y194055D01*
X447761Y194055D01*
X444400Y195447D01*
X441827Y198020D01*
X441674Y198389D01*
X441664Y198409D01*
X441657Y198430D01*
X441569Y198586D01*
X441484Y198744D01*
X441470Y198761D01*
X441459Y198781D01*
X441342Y198917D01*
X441228Y199055D01*
X441211Y199069D01*
X441196Y199086D01*
X441055Y199195D01*
X440915Y199308D01*
X440895Y199319D01*
X440878Y199332D01*
X440718Y199412D01*
X440559Y199495D01*
X440537Y199502D01*
X440517Y199512D01*
X440344Y199558D01*
X440172Y199608D01*
X440150Y199610D01*
X440129Y199616D01*
X439798Y199643D01*
X36627Y199643D01*
X21843Y214427D01*
X21843Y232520D01*
X21841Y232546D01*
X21843Y232573D01*
X21821Y232747D01*
X21803Y232920D01*
X21796Y232946D01*
X21792Y232972D01*
X21736Y233138D01*
X21685Y233305D01*
X21672Y233329D01*
X21664Y233354D01*
X21577Y233506D01*
X21493Y233659D01*
X21476Y233680D01*
X21463Y233703D01*
X21248Y233956D01*
X17271Y237933D01*
X17271Y244667D01*
X22033Y249429D01*
X28767Y249429D01*
X33529Y244667D01*
X33529Y237933D01*
X29552Y233956D01*
X29535Y233935D01*
X29514Y233918D01*
X29407Y233780D01*
X29297Y233644D01*
X29284Y233621D01*
X29268Y233600D01*
X29190Y233443D01*
X29108Y233289D01*
X29100Y233263D01*
X29088Y233239D01*
X29043Y233070D01*
X28993Y232903D01*
X28991Y232876D01*
X28984Y232850D01*
X28957Y232520D01*
X28957Y218215D01*
X28959Y218188D01*
X28957Y218161D01*
X28979Y217987D01*
X28997Y217814D01*
X29004Y217789D01*
X29008Y217762D01*
X29063Y217596D01*
X29115Y217429D01*
X29128Y217406D01*
X29136Y217380D01*
X29223Y217229D01*
X29307Y217075D01*
X29324Y217055D01*
X29337Y217031D01*
X29552Y216778D01*
X38978Y207352D01*
X38999Y207335D01*
X39017Y207314D01*
X39154Y207207D01*
X39290Y207097D01*
X39313Y207084D01*
X39335Y207068D01*
X39492Y206990D01*
X39646Y206908D01*
X39671Y206900D01*
X39695Y206888D01*
X39865Y206843D01*
X40031Y206793D01*
X40058Y206791D01*
X40084Y206784D01*
X40415Y206757D01*
X170544Y206757D01*
X170552Y206758D01*
X170561Y206757D01*
X170753Y206778D01*
X170944Y206797D01*
X170953Y206799D01*
X170962Y206800D01*
X171144Y206858D01*
X171329Y206915D01*
X171337Y206919D01*
X171346Y206922D01*
X171514Y207015D01*
X171683Y207107D01*
X171690Y207112D01*
X171698Y207117D01*
X171845Y207241D01*
X171992Y207364D01*
X171998Y207371D01*
X172005Y207377D01*
X172124Y207528D01*
X172245Y207678D01*
X172249Y207686D01*
X172254Y207693D01*
X172342Y207866D01*
X172430Y208035D01*
X172433Y208044D01*
X172437Y208052D01*
X172489Y208238D01*
X172542Y208422D01*
X172542Y208431D01*
X172545Y208440D01*
X172559Y208633D01*
X172575Y208824D01*
X172574Y208832D01*
X172574Y208841D01*
X172550Y209034D01*
X172528Y209223D01*
X172525Y209232D01*
X172524Y209241D01*
X172462Y209424D01*
X172403Y209606D01*
X172398Y209614D01*
X172396Y209622D01*
X172300Y209788D01*
X172205Y209957D01*
X172199Y209964D01*
X172195Y209971D01*
X171980Y210224D01*
X169671Y212533D01*
X169671Y219267D01*
X174433Y224029D01*
X181167Y224029D01*
X185929Y219267D01*
X185929Y212533D01*
X183620Y210224D01*
X183614Y210217D01*
X183608Y210212D01*
X183487Y210062D01*
X183365Y209913D01*
X183361Y209905D01*
X183355Y209898D01*
X183267Y209728D01*
X183176Y209557D01*
X183174Y209548D01*
X183170Y209541D01*
X183116Y209355D01*
X183062Y209171D01*
X183061Y209162D01*
X183058Y209154D01*
X183043Y208963D01*
X183025Y208770D01*
X183026Y208761D01*
X183025Y208752D01*
X183048Y208563D01*
X183069Y208370D01*
X183071Y208361D01*
X183072Y208353D01*
X183132Y208171D01*
X183190Y207986D01*
X183194Y207978D01*
X183197Y207970D01*
X183292Y207801D01*
X183385Y207634D01*
X183391Y207627D01*
X183395Y207619D01*
X183521Y207473D01*
X183645Y207327D01*
X183652Y207321D01*
X183658Y207314D01*
X183810Y207197D01*
X183961Y207077D01*
X183969Y207073D01*
X183976Y207068D01*
X184148Y206982D01*
X184320Y206895D01*
X184329Y206892D01*
X184337Y206888D01*
X184523Y206838D01*
X184708Y206787D01*
X184717Y206786D01*
X184726Y206784D01*
X185056Y206757D01*
X310244Y206757D01*
X310252Y206758D01*
X310261Y206757D01*
X310453Y206778D01*
X310644Y206797D01*
X310653Y206799D01*
X310662Y206800D01*
X310844Y206858D01*
X311029Y206915D01*
X311037Y206919D01*
X311046Y206922D01*
X311214Y207015D01*
X311383Y207107D01*
X311390Y207112D01*
X311398Y207117D01*
X311545Y207241D01*
X311692Y207364D01*
X311698Y207371D01*
X311705Y207377D01*
X311824Y207528D01*
X311945Y207678D01*
X311949Y207686D01*
X311954Y207693D01*
X312042Y207866D01*
X312130Y208035D01*
X312133Y208044D01*
X312137Y208052D01*
X312189Y208238D01*
X312242Y208422D01*
X312242Y208431D01*
X312245Y208440D01*
X312259Y208633D01*
X312275Y208824D01*
X312274Y208832D01*
X312274Y208841D01*
X312250Y209034D01*
X312228Y209223D01*
X312225Y209232D01*
X312224Y209241D01*
X312162Y209424D01*
X312103Y209606D01*
X312098Y209614D01*
X312096Y209622D01*
X312000Y209788D01*
X311905Y209957D01*
X311899Y209964D01*
X311895Y209971D01*
X311680Y210224D01*
X309371Y212533D01*
X309371Y219267D01*
X314133Y224029D01*
X320867Y224029D01*
X325629Y219267D01*
X325629Y212533D01*
X323320Y210224D01*
X323314Y210217D01*
X323308Y210212D01*
X323187Y210062D01*
X323065Y209913D01*
X323061Y209905D01*
X323055Y209898D01*
X322967Y209728D01*
X322876Y209557D01*
X322874Y209548D01*
X322870Y209541D01*
X322816Y209355D01*
X322762Y209171D01*
X322761Y209162D01*
X322758Y209154D01*
X322743Y208963D01*
X322725Y208770D01*
X322726Y208761D01*
X322725Y208752D01*
X322748Y208563D01*
X322769Y208370D01*
X322771Y208361D01*
X322772Y208353D01*
X322832Y208171D01*
X322890Y207986D01*
X322894Y207978D01*
X322897Y207970D01*
X322992Y207801D01*
X323085Y207634D01*
X323091Y207627D01*
X323095Y207619D01*
X323221Y207473D01*
X323345Y207327D01*
X323352Y207321D01*
X323358Y207314D01*
X323510Y207197D01*
X323661Y207077D01*
X323669Y207073D01*
X323676Y207068D01*
X323848Y206982D01*
X324020Y206895D01*
X324029Y206892D01*
X324037Y206888D01*
X324223Y206838D01*
X324408Y206787D01*
X324417Y206786D01*
X324426Y206784D01*
X324756Y206757D01*
X439798Y206757D01*
X439820Y206759D01*
X439842Y206757D01*
X440020Y206779D01*
X440198Y206797D01*
X440220Y206803D01*
X440242Y206806D01*
X440412Y206862D01*
X440583Y206915D01*
X440603Y206925D01*
X440624Y206932D01*
X440780Y207021D01*
X440937Y207107D01*
X440955Y207121D01*
X440974Y207132D01*
X441109Y207250D01*
X441247Y207364D01*
X441261Y207382D01*
X441277Y207396D01*
X441387Y207539D01*
X441499Y207678D01*
X441509Y207698D01*
X441523Y207716D01*
X441674Y208011D01*
X441827Y208380D01*
X444400Y210953D01*
X447761Y212345D01*
X466639Y212345D01*
X469631Y211106D01*
X469644Y211102D01*
X469655Y211095D01*
X469835Y211044D01*
X470016Y210989D01*
X470029Y210988D01*
X470042Y210984D01*
X470230Y210969D01*
X470417Y210951D01*
X470430Y210952D01*
X470444Y210951D01*
X470630Y210973D01*
X470817Y210993D01*
X470830Y210997D01*
X470843Y210998D01*
X471022Y211056D01*
X471202Y211112D01*
X471213Y211119D01*
X471226Y211123D01*
X471390Y211215D01*
X471555Y211306D01*
X471565Y211314D01*
X471577Y211321D01*
X471719Y211443D01*
X471863Y211565D01*
X471871Y211575D01*
X471882Y211584D01*
X471996Y211732D01*
X472114Y211880D01*
X472120Y211892D01*
X472128Y211902D01*
X472212Y212070D01*
X472298Y212238D01*
X472302Y212251D01*
X472308Y212263D01*
X472357Y212445D01*
X472408Y212625D01*
X472409Y212638D01*
X472412Y212651D01*
X472439Y212982D01*
X472439Y218818D01*
X472438Y218831D01*
X472439Y218845D01*
X472418Y219030D01*
X472399Y219218D01*
X472395Y219231D01*
X472394Y219245D01*
X472336Y219424D01*
X472281Y219603D01*
X472275Y219615D01*
X472271Y219628D01*
X472179Y219793D01*
X472089Y219957D01*
X472081Y219968D01*
X472074Y219979D01*
X471952Y220123D01*
X471832Y220267D01*
X471821Y220275D01*
X471813Y220285D01*
X471664Y220402D01*
X471518Y220519D01*
X471506Y220525D01*
X471496Y220533D01*
X471326Y220618D01*
X471161Y220705D01*
X471148Y220708D01*
X471136Y220714D01*
X470953Y220764D01*
X470774Y220816D01*
X470760Y220817D01*
X470747Y220821D01*
X470559Y220833D01*
X470372Y220849D01*
X470359Y220847D01*
X470346Y220848D01*
X470158Y220824D01*
X469973Y220802D01*
X469960Y220798D01*
X469947Y220796D01*
X469631Y220694D01*
X466639Y219455D01*
X447761Y219455D01*
X444400Y220847D01*
X441827Y223420D01*
X441674Y223789D01*
X441664Y223809D01*
X441657Y223830D01*
X441569Y223986D01*
X441484Y224144D01*
X441470Y224161D01*
X441459Y224181D01*
X441342Y224317D01*
X441228Y224455D01*
X441211Y224469D01*
X441196Y224486D01*
X441055Y224595D01*
X440915Y224708D01*
X440895Y224719D01*
X440878Y224732D01*
X440718Y224812D01*
X440559Y224895D01*
X440537Y224902D01*
X440517Y224912D01*
X440344Y224958D01*
X440172Y225008D01*
X440150Y225010D01*
X440129Y225016D01*
X439798Y225043D01*
X341427Y225043D01*
X335672Y230798D01*
X335651Y230815D01*
X335633Y230836D01*
X335496Y230943D01*
X335360Y231053D01*
X335337Y231066D01*
X335315Y231082D01*
X335158Y231160D01*
X335004Y231242D01*
X334979Y231250D01*
X334955Y231262D01*
X334785Y231307D01*
X334619Y231357D01*
X334592Y231359D01*
X334566Y231366D01*
X334235Y231393D01*
X300765Y231393D01*
X300738Y231391D01*
X300711Y231393D01*
X300537Y231371D01*
X300364Y231353D01*
X300339Y231346D01*
X300312Y231342D01*
X300146Y231287D01*
X299979Y231235D01*
X299956Y231222D01*
X299930Y231214D01*
X299779Y231127D01*
X299625Y231043D01*
X299605Y231026D01*
X299581Y231013D01*
X299328Y230798D01*
X298002Y229472D01*
X297985Y229451D01*
X297964Y229433D01*
X297857Y229296D01*
X297747Y229160D01*
X297734Y229137D01*
X297718Y229115D01*
X297640Y228958D01*
X297558Y228804D01*
X297550Y228779D01*
X297538Y228755D01*
X297493Y228585D01*
X297443Y228419D01*
X297441Y228392D01*
X297434Y228366D01*
X297407Y228035D01*
X297407Y227544D01*
X296599Y225594D01*
X295106Y224101D01*
X293156Y223293D01*
X291044Y223293D01*
X289094Y224101D01*
X287601Y225594D01*
X286793Y227544D01*
X286793Y229656D01*
X287601Y231606D01*
X289094Y233099D01*
X291044Y233907D01*
X291535Y233907D01*
X291562Y233909D01*
X291589Y233907D01*
X291763Y233929D01*
X291936Y233947D01*
X291961Y233954D01*
X291988Y233958D01*
X292154Y234013D01*
X292321Y234065D01*
X292344Y234078D01*
X292370Y234086D01*
X292521Y234173D01*
X292675Y234257D01*
X292695Y234274D01*
X292719Y234287D01*
X292972Y234502D01*
X296977Y238507D01*
X338023Y238507D01*
X343778Y232752D01*
X343799Y232735D01*
X343817Y232714D01*
X343954Y232607D01*
X344090Y232497D01*
X344113Y232484D01*
X344135Y232468D01*
X344292Y232390D01*
X344446Y232308D01*
X344471Y232300D01*
X344495Y232288D01*
X344665Y232243D01*
X344831Y232193D01*
X344858Y232191D01*
X344884Y232184D01*
X345215Y232157D01*
X439798Y232157D01*
X439820Y232159D01*
X439842Y232157D01*
X440020Y232179D01*
X440198Y232197D01*
X440220Y232203D01*
X440242Y232206D01*
X440412Y232262D01*
X440583Y232315D01*
X440603Y232325D01*
X440624Y232332D01*
X440780Y232421D01*
X440937Y232507D01*
X440955Y232521D01*
X440974Y232532D01*
X441109Y232650D01*
X441247Y232764D01*
X441261Y232782D01*
X441277Y232796D01*
X441387Y232939D01*
X441499Y233078D01*
X441509Y233098D01*
X441523Y233116D01*
X441674Y233411D01*
X441827Y233780D01*
X444400Y236353D01*
X447761Y237745D01*
X466639Y237745D01*
X469631Y236506D01*
X469644Y236502D01*
X469655Y236495D01*
X469835Y236444D01*
X470016Y236389D01*
X470029Y236388D01*
X470042Y236384D01*
X470230Y236369D01*
X470417Y236351D01*
X470430Y236352D01*
X470444Y236351D01*
X470630Y236373D01*
X470817Y236393D01*
X470830Y236397D01*
X470843Y236398D01*
X471022Y236456D01*
X471202Y236512D01*
X471213Y236519D01*
X471226Y236523D01*
X471390Y236615D01*
X471555Y236706D01*
X471565Y236714D01*
X471577Y236721D01*
X471719Y236843D01*
X471863Y236965D01*
X471871Y236975D01*
X471882Y236984D01*
X471996Y237132D01*
X472114Y237280D01*
X472120Y237292D01*
X472128Y237302D01*
X472212Y237470D01*
X472298Y237638D01*
X472302Y237651D01*
X472308Y237663D01*
X472357Y237845D01*
X472408Y238025D01*
X472409Y238038D01*
X472412Y238051D01*
X472439Y238382D01*
X472439Y244218D01*
X472438Y244231D01*
X472439Y244245D01*
X472418Y244431D01*
X472399Y244618D01*
X472395Y244631D01*
X472394Y244645D01*
X472336Y244824D01*
X472281Y245003D01*
X472275Y245015D01*
X472271Y245028D01*
X472179Y245193D01*
X472089Y245357D01*
X472081Y245368D01*
X472074Y245379D01*
X471952Y245523D01*
X471832Y245667D01*
X471821Y245675D01*
X471813Y245685D01*
X471664Y245802D01*
X471518Y245919D01*
X471506Y245925D01*
X471496Y245933D01*
X471326Y246018D01*
X471161Y246105D01*
X471148Y246108D01*
X471136Y246114D01*
X470953Y246164D01*
X470774Y246216D01*
X470760Y246217D01*
X470747Y246221D01*
X470559Y246233D01*
X470372Y246249D01*
X470359Y246247D01*
X470346Y246248D01*
X470158Y246224D01*
X469973Y246202D01*
X469960Y246198D01*
X469947Y246196D01*
X469631Y246094D01*
X466639Y244855D01*
X447761Y244855D01*
X444400Y246247D01*
X441827Y248820D01*
X440435Y252181D01*
X440435Y255819D01*
X441827Y259180D01*
X444400Y261753D01*
X447761Y263145D01*
X466639Y263145D01*
X469631Y261906D01*
X469644Y261902D01*
X469655Y261895D01*
X469835Y261844D01*
X470016Y261789D01*
X470029Y261788D01*
X470042Y261784D01*
X470230Y261769D01*
X470417Y261751D01*
X470430Y261752D01*
X470444Y261751D01*
X470630Y261773D01*
X470817Y261793D01*
X470830Y261797D01*
X470843Y261798D01*
X471022Y261856D01*
X471202Y261912D01*
X471213Y261919D01*
X471226Y261923D01*
X471390Y262015D01*
X471555Y262106D01*
X471565Y262114D01*
X471577Y262121D01*
X471719Y262243D01*
X471863Y262365D01*
X471871Y262375D01*
X471882Y262384D01*
X471996Y262532D01*
X472114Y262680D01*
X472120Y262692D01*
X472128Y262702D01*
X472212Y262870D01*
X472298Y263038D01*
X472302Y263051D01*
X472308Y263063D01*
X472357Y263245D01*
X472408Y263425D01*
X472409Y263438D01*
X472412Y263451D01*
X472439Y263782D01*
X472439Y670503D01*
X472438Y670512D01*
X472439Y670521D01*
X472418Y670712D01*
X472399Y670903D01*
X472397Y670912D01*
X472396Y670921D01*
X472338Y671103D01*
X472281Y671288D01*
X472277Y671296D01*
X472274Y671305D01*
X472181Y671473D01*
X472089Y671642D01*
X472084Y671649D01*
X472079Y671657D01*
X471954Y671805D01*
X471832Y671952D01*
X471825Y671957D01*
X471819Y671964D01*
X471667Y672084D01*
X471518Y672204D01*
X471510Y672208D01*
X471503Y672214D01*
X471331Y672301D01*
X471161Y672389D01*
X471152Y672392D01*
X471144Y672396D01*
X470958Y672448D01*
X470774Y672501D01*
X470765Y672502D01*
X470756Y672504D01*
X470564Y672518D01*
X470372Y672534D01*
X470364Y672533D01*
X470355Y672533D01*
X470162Y672509D01*
X469973Y672487D01*
X469964Y672484D01*
X469955Y672483D01*
X469772Y672421D01*
X469590Y672362D01*
X469582Y672358D01*
X469574Y672355D01*
X469408Y672259D01*
X469239Y672164D01*
X469232Y672158D01*
X469225Y672154D01*
X468972Y671939D01*
X467338Y670305D01*
X465581Y670305D01*
X465581Y679450D01*
X465581Y688595D01*
X467338Y688595D01*
X468972Y686961D01*
X468979Y686955D01*
X468984Y686948D01*
X469134Y686828D01*
X469283Y686706D01*
X469291Y686702D01*
X469298Y686696D01*
X469468Y686608D01*
X469639Y686517D01*
X469648Y686515D01*
X469655Y686511D01*
X469840Y686457D01*
X470025Y686402D01*
X470034Y686402D01*
X470042Y686399D01*
X470233Y686383D01*
X470426Y686366D01*
X470435Y686367D01*
X470444Y686366D01*
X470633Y686388D01*
X470826Y686409D01*
X470835Y686412D01*
X470843Y686413D01*
X471025Y686473D01*
X471210Y686531D01*
X471218Y686535D01*
X471226Y686538D01*
X471395Y686633D01*
X471562Y686726D01*
X471569Y686731D01*
X471577Y686736D01*
X471723Y686862D01*
X471869Y686986D01*
X471875Y686993D01*
X471882Y686999D01*
X471999Y687150D01*
X472119Y687302D01*
X472123Y687310D01*
X472128Y687317D01*
X472214Y687489D01*
X472301Y687661D01*
X472304Y687670D01*
X472308Y687678D01*
X472358Y687864D01*
X472409Y688049D01*
X472410Y688058D01*
X472412Y688066D01*
X472439Y688397D01*
X472439Y978406D01*
X472437Y978423D01*
X472439Y978441D01*
X472418Y978624D01*
X472399Y978806D01*
X472394Y978823D01*
X472392Y978841D01*
X472335Y979015D01*
X472281Y979191D01*
X472273Y979207D01*
X472267Y979224D01*
X472177Y979383D01*
X472089Y979545D01*
X472078Y979559D01*
X472069Y979575D01*
X471949Y979714D01*
X471832Y979854D01*
X471818Y979866D01*
X471806Y979879D01*
X471661Y979992D01*
X471518Y980107D01*
X471502Y980115D01*
X471488Y980126D01*
X471323Y980208D01*
X471161Y980292D01*
X471143Y980297D01*
X471127Y980305D01*
X470950Y980353D01*
X470774Y980404D01*
X470756Y980405D01*
X470738Y980410D01*
X470408Y980437D01*
X305436Y980403D01*
X305418Y980401D01*
X305400Y980402D01*
X305218Y980381D01*
X305035Y980363D01*
X305018Y980357D01*
X305001Y980355D01*
X304826Y980298D01*
X304650Y980244D01*
X304635Y980236D01*
X304618Y980231D01*
X304458Y980140D01*
X304296Y980053D01*
X304283Y980041D01*
X304267Y980033D01*
X304128Y979912D01*
X303987Y979795D01*
X303976Y979781D01*
X303962Y979769D01*
X303850Y979625D01*
X303735Y979481D01*
X303726Y979465D01*
X303716Y979451D01*
X303634Y979287D01*
X303549Y979124D01*
X303544Y979107D01*
X303536Y979091D01*
X303488Y978912D01*
X303438Y978737D01*
X303436Y978719D01*
X303432Y978702D01*
X303405Y978371D01*
X303405Y948988D01*
X302512Y948095D01*
X270088Y948095D01*
X269195Y948988D01*
X269195Y978363D01*
X269193Y978381D01*
X269195Y978399D01*
X269174Y978582D01*
X269155Y978764D01*
X269150Y978781D01*
X269148Y978799D01*
X269091Y978973D01*
X269037Y979149D01*
X269029Y979165D01*
X269023Y979182D01*
X268933Y979341D01*
X268845Y979503D01*
X268834Y979517D01*
X268825Y979533D01*
X268705Y979672D01*
X268588Y979812D01*
X268574Y979823D01*
X268562Y979837D01*
X268416Y979950D01*
X268274Y980065D01*
X268258Y980073D01*
X268244Y980084D01*
X268079Y980166D01*
X267917Y980250D01*
X267899Y980255D01*
X267883Y980263D01*
X267706Y980311D01*
X267530Y980361D01*
X267512Y980363D01*
X267494Y980368D01*
X267164Y980395D01*
X215436Y980384D01*
X215418Y980382D01*
X215400Y980384D01*
X215218Y980362D01*
X215035Y980344D01*
X215018Y980339D01*
X215001Y980337D01*
X214826Y980280D01*
X214650Y980226D01*
X214635Y980217D01*
X214618Y980212D01*
X214458Y980122D01*
X214296Y980034D01*
X214283Y980023D01*
X214267Y980014D01*
X214128Y979894D01*
X213987Y979776D01*
X213976Y979762D01*
X213962Y979751D01*
X213850Y979606D01*
X213735Y979462D01*
X213726Y979447D01*
X213716Y979433D01*
X213634Y979268D01*
X213549Y979105D01*
X213544Y979088D01*
X213536Y979072D01*
X213488Y978894D01*
X213438Y978718D01*
X213436Y978700D01*
X213432Y978683D01*
X213405Y978353D01*
X213405Y948988D01*
X212512Y948095D01*
X180088Y948095D01*
X179195Y948988D01*
X179195Y978345D01*
X179193Y978363D01*
X179195Y978381D01*
X179174Y978563D01*
X179155Y978745D01*
X179150Y978763D01*
X179148Y978781D01*
X179091Y978955D01*
X179037Y979130D01*
X179029Y979146D01*
X179023Y979163D01*
X178933Y979323D01*
X178845Y979484D01*
X178834Y979498D01*
X178825Y979514D01*
X178705Y979653D01*
X178588Y979794D01*
X178574Y979805D01*
X178562Y979819D01*
X178416Y979931D01*
X178274Y980046D01*
X178258Y980054D01*
X178244Y980065D01*
X178079Y980147D01*
X177917Y980231D01*
X177899Y980236D01*
X177883Y980244D01*
X177706Y980292D01*
X177530Y980343D01*
X177512Y980344D01*
X177494Y980349D01*
X177164Y980376D01*
X12192Y980342D01*
X12174Y980340D01*
X12156Y980341D01*
X11974Y980320D01*
X11791Y980302D01*
X11774Y980297D01*
X11757Y980295D01*
X11582Y980238D01*
X11406Y980184D01*
X11391Y980175D01*
X11374Y980170D01*
X11214Y980079D01*
X11052Y979992D01*
X11039Y979980D01*
X11023Y979972D01*
X10884Y979852D01*
X10743Y979734D01*
X10732Y979720D01*
X10718Y979709D01*
X10606Y979564D01*
X10491Y979420D01*
X10482Y979404D01*
X10472Y979391D01*
X10390Y979226D01*
X10305Y979063D01*
X10300Y979046D01*
X10292Y979030D01*
X10244Y978852D01*
X10194Y978676D01*
X10192Y978658D01*
X10188Y978641D01*
X10161Y978311D01*
X10161Y944286D01*
X10170Y944193D01*
X10169Y944100D01*
X10190Y943993D01*
X10201Y943885D01*
X10228Y943796D01*
X10246Y943705D01*
X10287Y943604D01*
X10319Y943501D01*
X10363Y943419D01*
X10399Y943332D01*
X10459Y943242D01*
X10511Y943147D01*
X10570Y943075D01*
X10622Y942997D01*
X10699Y942921D01*
X10768Y942837D01*
X10841Y942779D01*
X10907Y942713D01*
X10997Y942653D01*
X11082Y942585D01*
X11165Y942542D01*
X11242Y942490D01*
X11343Y942449D01*
X11439Y942399D01*
X11529Y942374D01*
X11615Y942338D01*
X11722Y942318D01*
X11826Y942288D01*
X11919Y942280D01*
X12011Y942263D01*
X12119Y942264D01*
X12228Y942255D01*
X12320Y942266D01*
X12413Y942267D01*
X12520Y942289D01*
X12627Y942302D01*
X12716Y942331D01*
X12807Y942350D01*
X12931Y942401D01*
X13010Y942427D01*
X13053Y942451D01*
X13114Y942476D01*
X13880Y942866D01*
X15401Y943361D01*
X16980Y943611D01*
X22861Y943611D01*
X22861Y933958D01*
X22862Y933940D01*
X22861Y933923D01*
X22882Y933740D01*
X22901Y933558D01*
X22906Y933541D01*
X22908Y933523D01*
X22933Y933445D01*
X22894Y933308D01*
X22892Y933290D01*
X22888Y933273D01*
X22861Y932942D01*
X22861Y923289D01*
X16980Y923289D01*
X15401Y923539D01*
X13880Y924034D01*
X13114Y924424D01*
X13027Y924458D01*
X12945Y924501D01*
X12840Y924531D01*
X12739Y924570D01*
X12647Y924586D01*
X12558Y924612D01*
X12449Y924621D01*
X12343Y924640D01*
X12249Y924637D01*
X12156Y924645D01*
X12049Y924632D01*
X11940Y924629D01*
X11849Y924609D01*
X11757Y924598D01*
X11653Y924564D01*
X11548Y924540D01*
X11462Y924502D01*
X11374Y924473D01*
X11279Y924420D01*
X11180Y924375D01*
X11104Y924321D01*
X11023Y924275D01*
X10941Y924204D01*
X10853Y924141D01*
X10789Y924073D01*
X10718Y924012D01*
X10652Y923926D01*
X10578Y923847D01*
X10529Y923768D01*
X10472Y923694D01*
X10423Y923597D01*
X10366Y923504D01*
X10334Y923417D01*
X10292Y923333D01*
X10264Y923229D01*
X10227Y923127D01*
X10212Y923035D01*
X10188Y922945D01*
X10177Y922811D01*
X10164Y922729D01*
X10166Y922680D01*
X10161Y922614D01*
X10161Y917832D01*
X10162Y917819D01*
X10161Y917805D01*
X10182Y917619D01*
X10201Y917432D01*
X10205Y917419D01*
X10206Y917405D01*
X10264Y917226D01*
X10319Y917047D01*
X10325Y917035D01*
X10329Y917022D01*
X10421Y916857D01*
X10511Y916693D01*
X10519Y916682D01*
X10526Y916671D01*
X10648Y916527D01*
X10768Y916383D01*
X10779Y916375D01*
X10787Y916365D01*
X10936Y916248D01*
X11082Y916131D01*
X11094Y916125D01*
X11104Y916117D01*
X11274Y916032D01*
X11439Y915945D01*
X11452Y915942D01*
X11464Y915936D01*
X11647Y915886D01*
X11826Y915834D01*
X11840Y915833D01*
X11853Y915829D01*
X12041Y915817D01*
X12228Y915801D01*
X12241Y915803D01*
X12254Y915802D01*
X12442Y915826D01*
X12627Y915848D01*
X12640Y915852D01*
X12653Y915854D01*
X12969Y915956D01*
X15961Y917195D01*
X34839Y917195D01*
X38200Y915803D01*
X40785Y913218D01*
X40806Y913201D01*
X40823Y913180D01*
X40961Y913073D01*
X41096Y912963D01*
X41120Y912950D01*
X41141Y912934D01*
X41298Y912856D01*
X41452Y912774D01*
X41478Y912766D01*
X41502Y912754D01*
X41671Y912709D01*
X41838Y912659D01*
X41865Y912657D01*
X41891Y912650D01*
X42221Y912623D01*
X213165Y912623D01*
X213191Y912625D01*
X213218Y912623D01*
X213392Y912645D01*
X213565Y912663D01*
X213591Y912670D01*
X213617Y912674D01*
X213783Y912729D01*
X213950Y912781D01*
X213974Y912794D01*
X213999Y912802D01*
X214151Y912889D01*
X214304Y912973D01*
X214325Y912990D01*
X214348Y913003D01*
X214601Y913218D01*
X226010Y924627D01*
X227690Y925323D01*
X273960Y925323D01*
X275640Y924627D01*
X289627Y910640D01*
X290323Y908960D01*
X290323Y847285D01*
X290325Y847259D01*
X290323Y847232D01*
X290345Y847058D01*
X290363Y846885D01*
X290370Y846859D01*
X290374Y846833D01*
X290429Y846667D01*
X290481Y846500D01*
X290494Y846476D01*
X290502Y846451D01*
X290589Y846299D01*
X290673Y846146D01*
X290690Y846125D01*
X290703Y846102D01*
X290918Y845849D01*
X299749Y837018D01*
X299770Y837001D01*
X299787Y836980D01*
X299925Y836873D01*
X300061Y836763D01*
X300084Y836750D01*
X300105Y836734D01*
X300262Y836656D01*
X300416Y836574D01*
X300442Y836566D01*
X300466Y836554D01*
X300635Y836509D01*
X300802Y836459D01*
X300829Y836457D01*
X300855Y836450D01*
X301185Y836423D01*
X381910Y836423D01*
X383590Y835727D01*
X397577Y821740D01*
X398273Y820060D01*
X398273Y786490D01*
X397577Y784810D01*
X386168Y773401D01*
X386151Y773380D01*
X386130Y773363D01*
X386023Y773225D01*
X385913Y773089D01*
X385900Y773066D01*
X385884Y773045D01*
X385806Y772888D01*
X385724Y772734D01*
X385716Y772708D01*
X385704Y772684D01*
X385659Y772515D01*
X385609Y772348D01*
X385607Y772321D01*
X385600Y772295D01*
X385573Y771965D01*
X385573Y739335D01*
X385575Y739309D01*
X385573Y739282D01*
X385595Y739108D01*
X385613Y738935D01*
X385620Y738909D01*
X385624Y738883D01*
X385679Y738717D01*
X385731Y738550D01*
X385744Y738526D01*
X385752Y738501D01*
X385839Y738349D01*
X385923Y738196D01*
X385940Y738175D01*
X385953Y738152D01*
X386168Y737899D01*
X397793Y726274D01*
X397814Y726257D01*
X397831Y726236D01*
X397969Y726129D01*
X398105Y726019D01*
X398128Y726006D01*
X398149Y725990D01*
X398306Y725912D01*
X398460Y725830D01*
X398486Y725822D01*
X398510Y725810D01*
X398679Y725765D01*
X398846Y725715D01*
X398873Y725713D01*
X398899Y725706D01*
X399229Y725679D01*
X403417Y725679D01*
X408179Y720917D01*
X408179Y714183D01*
X403417Y709421D01*
X396683Y709421D01*
X391921Y714183D01*
X391921Y718371D01*
X391919Y718397D01*
X391921Y718424D01*
X391899Y718597D01*
X391881Y718771D01*
X391874Y718797D01*
X391870Y718823D01*
X391815Y718989D01*
X391763Y719156D01*
X391750Y719180D01*
X391742Y719205D01*
X391655Y719357D01*
X391571Y719510D01*
X391554Y719531D01*
X391541Y719554D01*
X391326Y719807D01*
X379701Y731432D01*
X379680Y731449D01*
X379663Y731470D01*
X379525Y731577D01*
X379389Y731687D01*
X379366Y731700D01*
X379345Y731716D01*
X379188Y731794D01*
X379034Y731876D01*
X379008Y731884D01*
X378984Y731896D01*
X378815Y731941D01*
X378648Y731991D01*
X378621Y731993D01*
X378595Y732000D01*
X378265Y732027D01*
X374904Y732027D01*
X374886Y732025D01*
X374868Y732027D01*
X374686Y732006D01*
X374503Y731987D01*
X374486Y731982D01*
X374469Y731980D01*
X374294Y731923D01*
X374118Y731869D01*
X374103Y731861D01*
X374086Y731855D01*
X373926Y731765D01*
X373764Y731677D01*
X373751Y731666D01*
X373735Y731657D01*
X373596Y731537D01*
X373455Y731420D01*
X373444Y731406D01*
X373430Y731394D01*
X373318Y731249D01*
X373203Y731106D01*
X373195Y731090D01*
X373184Y731076D01*
X373102Y730911D01*
X373017Y730749D01*
X373012Y730732D01*
X373004Y730716D01*
X372957Y730537D01*
X372906Y730362D01*
X372904Y730344D01*
X372900Y730327D01*
X372873Y729996D01*
X372873Y717857D01*
X372875Y717830D01*
X372873Y717803D01*
X372895Y717630D01*
X372913Y717456D01*
X372920Y717431D01*
X372924Y717404D01*
X372979Y717238D01*
X373031Y717071D01*
X373044Y717048D01*
X373052Y717022D01*
X373139Y716871D01*
X373223Y716717D01*
X373240Y716697D01*
X373253Y716673D01*
X373468Y716420D01*
X374713Y715175D01*
X375865Y712395D01*
X375865Y697305D01*
X374713Y694525D01*
X372585Y692397D01*
X369805Y691245D01*
X366795Y691245D01*
X364015Y692397D01*
X361887Y694525D01*
X360735Y697305D01*
X360735Y712395D01*
X361887Y715175D01*
X363132Y716420D01*
X363149Y716441D01*
X363170Y716459D01*
X363277Y716597D01*
X363387Y716732D01*
X363400Y716756D01*
X363416Y716777D01*
X363494Y716934D01*
X363576Y717088D01*
X363584Y717113D01*
X363596Y717137D01*
X363641Y717307D01*
X363691Y717474D01*
X363693Y717500D01*
X363700Y717526D01*
X363727Y717857D01*
X363727Y729996D01*
X363725Y730014D01*
X363727Y730032D01*
X363706Y730214D01*
X363687Y730397D01*
X363682Y730414D01*
X363680Y730431D01*
X363623Y730606D01*
X363569Y730782D01*
X363561Y730797D01*
X363555Y730814D01*
X363465Y730974D01*
X363377Y731136D01*
X363366Y731149D01*
X363357Y731165D01*
X363237Y731304D01*
X363120Y731445D01*
X363106Y731456D01*
X363094Y731470D01*
X362949Y731582D01*
X362806Y731697D01*
X362790Y731705D01*
X362776Y731716D01*
X362611Y731798D01*
X362449Y731883D01*
X362432Y731888D01*
X362416Y731896D01*
X362237Y731943D01*
X362062Y731994D01*
X362044Y731996D01*
X362027Y732000D01*
X361696Y732027D01*
X301185Y732027D01*
X301159Y732025D01*
X301132Y732027D01*
X300958Y732005D01*
X300785Y731987D01*
X300759Y731980D01*
X300733Y731976D01*
X300567Y731921D01*
X300400Y731869D01*
X300376Y731856D01*
X300351Y731848D01*
X300199Y731761D01*
X300046Y731677D01*
X300025Y731660D01*
X300002Y731647D01*
X299749Y731432D01*
X290239Y721922D01*
X290233Y721915D01*
X290227Y721910D01*
X290106Y721760D01*
X289984Y721611D01*
X289980Y721603D01*
X289974Y721596D01*
X289886Y721426D01*
X289795Y721255D01*
X289793Y721246D01*
X289789Y721239D01*
X289735Y721053D01*
X289681Y720869D01*
X289680Y720860D01*
X289677Y720852D01*
X289662Y720660D01*
X289644Y720468D01*
X289645Y720459D01*
X289644Y720450D01*
X289667Y720261D01*
X289688Y720068D01*
X289690Y720059D01*
X289691Y720051D01*
X289751Y719869D01*
X289809Y719684D01*
X289813Y719676D01*
X289816Y719668D01*
X289911Y719499D01*
X290004Y719332D01*
X290010Y719325D01*
X290014Y719317D01*
X290140Y719171D01*
X290264Y719025D01*
X290271Y719019D01*
X290277Y719012D01*
X290429Y718895D01*
X290580Y718775D01*
X290588Y718771D01*
X290595Y718766D01*
X290767Y718680D01*
X290939Y718593D01*
X290948Y718590D01*
X290956Y718586D01*
X291142Y718536D01*
X291327Y718485D01*
X291336Y718484D01*
X291345Y718482D01*
X291675Y718455D01*
X293605Y718455D01*
X296385Y717303D01*
X298513Y715175D01*
X299665Y712395D01*
X299665Y697305D01*
X298513Y694525D01*
X296385Y692397D01*
X293605Y691245D01*
X290595Y691245D01*
X287815Y692397D01*
X285687Y694525D01*
X284535Y697305D01*
X284535Y711315D01*
X284534Y711323D01*
X284535Y711332D01*
X284514Y711526D01*
X284495Y711715D01*
X284493Y711724D01*
X284492Y711733D01*
X284433Y711918D01*
X284377Y712100D01*
X284373Y712108D01*
X284370Y712117D01*
X284277Y712286D01*
X284185Y712454D01*
X284180Y712461D01*
X284175Y712469D01*
X284051Y712616D01*
X283928Y712763D01*
X283921Y712769D01*
X283915Y712776D01*
X283763Y712896D01*
X283614Y713016D01*
X283606Y713020D01*
X283599Y713025D01*
X283426Y713113D01*
X283257Y713201D01*
X283248Y713204D01*
X283240Y713208D01*
X283054Y713260D01*
X282870Y713313D01*
X282861Y713313D01*
X282852Y713316D01*
X282659Y713330D01*
X282468Y713346D01*
X282460Y713345D01*
X282451Y713345D01*
X282258Y713321D01*
X282069Y713299D01*
X282060Y713296D01*
X282051Y713295D01*
X281869Y713234D01*
X281686Y713174D01*
X281678Y713169D01*
X281670Y713167D01*
X281503Y713070D01*
X281335Y712976D01*
X281328Y712970D01*
X281321Y712966D01*
X281068Y712751D01*
X259168Y690851D01*
X259151Y690830D01*
X259130Y690813D01*
X259023Y690675D01*
X258913Y690539D01*
X258900Y690516D01*
X258884Y690495D01*
X258806Y690338D01*
X258724Y690184D01*
X258716Y690158D01*
X258704Y690134D01*
X258659Y689965D01*
X258609Y689798D01*
X258607Y689771D01*
X258600Y689745D01*
X258573Y689415D01*
X258573Y618685D01*
X258575Y618659D01*
X258573Y618632D01*
X258595Y618458D01*
X258613Y618285D01*
X258620Y618259D01*
X258624Y618233D01*
X258679Y618067D01*
X258731Y617900D01*
X258744Y617876D01*
X258752Y617851D01*
X258839Y617699D01*
X258923Y617546D01*
X258940Y617525D01*
X258953Y617502D01*
X259168Y617249D01*
X283277Y593140D01*
X283973Y591460D01*
X283973Y523435D01*
X283975Y523409D01*
X283973Y523382D01*
X283995Y523208D01*
X284013Y523035D01*
X284020Y523009D01*
X284024Y522983D01*
X284079Y522817D01*
X284131Y522650D01*
X284144Y522626D01*
X284152Y522601D01*
X284239Y522449D01*
X284323Y522296D01*
X284340Y522275D01*
X284353Y522252D01*
X284568Y521999D01*
X344199Y462368D01*
X344220Y462351D01*
X344237Y462330D01*
X344375Y462223D01*
X344511Y462113D01*
X344534Y462100D01*
X344555Y462084D01*
X344712Y462006D01*
X344866Y461924D01*
X344892Y461916D01*
X344916Y461904D01*
X345085Y461859D01*
X345252Y461809D01*
X345279Y461807D01*
X345305Y461800D01*
X345635Y461773D01*
X400960Y461773D01*
X402640Y461077D01*
X429327Y434390D01*
X430023Y432710D01*
X430023Y354690D01*
X429327Y353010D01*
X389940Y313623D01*
X388260Y312927D01*
X341990Y312927D01*
X340310Y313623D01*
X328035Y325898D01*
X328014Y325915D01*
X327997Y325936D01*
X327859Y326043D01*
X327723Y326153D01*
X327700Y326166D01*
X327679Y326182D01*
X327522Y326260D01*
X327368Y326342D01*
X327342Y326350D01*
X327318Y326362D01*
X327149Y326407D01*
X326982Y326457D01*
X326955Y326459D01*
X326929Y326466D01*
X326599Y326493D01*
X321586Y326493D01*
X320693Y327386D01*
X320693Y345414D01*
X321586Y346307D01*
X339614Y346307D01*
X340507Y345414D01*
X340507Y327201D01*
X340509Y327175D01*
X340507Y327148D01*
X340529Y326974D01*
X340547Y326801D01*
X340554Y326775D01*
X340558Y326749D01*
X340613Y326583D01*
X340665Y326416D01*
X340678Y326392D01*
X340686Y326367D01*
X340773Y326215D01*
X340857Y326062D01*
X340874Y326041D01*
X340887Y326018D01*
X341102Y325765D01*
X344199Y322668D01*
X344220Y322651D01*
X344237Y322630D01*
X344375Y322523D01*
X344511Y322413D01*
X344534Y322400D01*
X344555Y322384D01*
X344712Y322306D01*
X344866Y322224D01*
X344892Y322216D01*
X344916Y322204D01*
X345085Y322159D01*
X345252Y322109D01*
X345279Y322107D01*
X345305Y322100D01*
X345635Y322073D01*
X384615Y322073D01*
X384641Y322075D01*
X384668Y322073D01*
X384841Y322095D01*
X385015Y322113D01*
X385041Y322120D01*
X385067Y322124D01*
X385233Y322179D01*
X385400Y322231D01*
X385424Y322244D01*
X385449Y322252D01*
X385600Y322339D01*
X385754Y322423D01*
X385775Y322440D01*
X385798Y322453D01*
X386051Y322668D01*
X386409Y323026D01*
X386415Y323033D01*
X386421Y323038D01*
X386541Y323188D01*
X386664Y323337D01*
X386668Y323345D01*
X386674Y323352D01*
X386762Y323522D01*
X386853Y323693D01*
X386855Y323701D01*
X386859Y323709D01*
X386913Y323895D01*
X386967Y324079D01*
X386968Y324088D01*
X386971Y324096D01*
X386986Y324288D01*
X387004Y324480D01*
X387003Y324489D01*
X387004Y324498D01*
X386981Y324686D01*
X386960Y324880D01*
X386958Y324889D01*
X386957Y324897D01*
X386897Y325080D01*
X386839Y325264D01*
X386835Y325272D01*
X386832Y325280D01*
X386737Y325447D01*
X386644Y325616D01*
X386638Y325623D01*
X386634Y325631D01*
X386509Y325776D01*
X386384Y325923D01*
X386377Y325929D01*
X386371Y325936D01*
X386218Y326054D01*
X386068Y326173D01*
X386060Y326177D01*
X386053Y326182D01*
X385880Y326268D01*
X385709Y326355D01*
X385700Y326358D01*
X385692Y326362D01*
X385505Y326412D01*
X385321Y326463D01*
X385312Y326464D01*
X385303Y326466D01*
X384973Y326493D01*
X376497Y326493D01*
X370693Y332297D01*
X370693Y340503D01*
X375832Y345643D01*
X375849Y345663D01*
X375870Y345681D01*
X375977Y345819D01*
X376087Y345954D01*
X376100Y345978D01*
X376116Y345999D01*
X376194Y346155D01*
X376276Y346310D01*
X376284Y346335D01*
X376296Y346359D01*
X376341Y346529D01*
X376391Y346696D01*
X376393Y346722D01*
X376400Y346748D01*
X376427Y347079D01*
X376427Y352865D01*
X376425Y352891D01*
X376427Y352918D01*
X376405Y353092D01*
X376387Y353265D01*
X376380Y353291D01*
X376376Y353317D01*
X376321Y353483D01*
X376269Y353650D01*
X376256Y353674D01*
X376248Y353699D01*
X376161Y353851D01*
X376077Y354004D01*
X376060Y354025D01*
X376047Y354048D01*
X375832Y354301D01*
X364423Y365710D01*
X363727Y367390D01*
X363727Y410015D01*
X363725Y410041D01*
X363727Y410068D01*
X363705Y410242D01*
X363687Y410415D01*
X363680Y410441D01*
X363676Y410467D01*
X363621Y410633D01*
X363569Y410800D01*
X363556Y410824D01*
X363548Y410849D01*
X363461Y411001D01*
X363377Y411154D01*
X363360Y411175D01*
X363347Y411198D01*
X363132Y411451D01*
X341601Y432982D01*
X341580Y432999D01*
X341563Y433020D01*
X341425Y433127D01*
X341289Y433237D01*
X341266Y433250D01*
X341245Y433266D01*
X341088Y433344D01*
X340934Y433426D01*
X340908Y433434D01*
X340884Y433446D01*
X340715Y433491D01*
X340548Y433541D01*
X340521Y433543D01*
X340495Y433550D01*
X340165Y433577D01*
X322940Y433577D01*
X321260Y434273D01*
X192973Y562560D01*
X192277Y564240D01*
X192277Y698246D01*
X192275Y698264D01*
X192277Y698282D01*
X192256Y698464D01*
X192237Y698647D01*
X192232Y698664D01*
X192230Y698681D01*
X192173Y698856D01*
X192119Y699032D01*
X192111Y699047D01*
X192105Y699064D01*
X192015Y699224D01*
X191927Y699386D01*
X191916Y699399D01*
X191907Y699415D01*
X191787Y699554D01*
X191670Y699695D01*
X191656Y699706D01*
X191644Y699720D01*
X191499Y699832D01*
X191356Y699947D01*
X191340Y699955D01*
X191326Y699966D01*
X191161Y700048D01*
X190999Y700133D01*
X190982Y700138D01*
X190966Y700146D01*
X190787Y700193D01*
X190612Y700244D01*
X190594Y700246D01*
X190577Y700250D01*
X190246Y700277D01*
X137029Y700277D01*
X137002Y700275D01*
X136976Y700277D01*
X136802Y700255D01*
X136628Y700237D01*
X136603Y700230D01*
X136576Y700226D01*
X136410Y700170D01*
X136243Y700119D01*
X136220Y700106D01*
X136194Y700098D01*
X136043Y700011D01*
X135889Y699927D01*
X135869Y699910D01*
X135846Y699897D01*
X135593Y699682D01*
X132168Y696257D01*
X132151Y696237D01*
X132130Y696219D01*
X132024Y696082D01*
X131913Y695946D01*
X131900Y695922D01*
X131884Y695901D01*
X131806Y695745D01*
X131724Y695590D01*
X131716Y695565D01*
X131704Y695541D01*
X131659Y695372D01*
X131609Y695204D01*
X131607Y695178D01*
X131600Y695152D01*
X131573Y694821D01*
X131573Y691240D01*
X130877Y689560D01*
X116890Y675573D01*
X115210Y674877D01*
X37190Y674877D01*
X35510Y675573D01*
X21523Y689560D01*
X20827Y691240D01*
X20827Y820674D01*
X20825Y820692D01*
X20827Y820710D01*
X20806Y820892D01*
X20787Y821075D01*
X20782Y821092D01*
X20780Y821109D01*
X20723Y821284D01*
X20669Y821460D01*
X20661Y821475D01*
X20655Y821492D01*
X20565Y821652D01*
X20477Y821814D01*
X20466Y821827D01*
X20457Y821843D01*
X20337Y821982D01*
X20220Y822123D01*
X20206Y822134D01*
X20194Y822148D01*
X20049Y822260D01*
X19906Y822375D01*
X19890Y822383D01*
X19876Y822394D01*
X19711Y822476D01*
X19549Y822561D01*
X19532Y822566D01*
X19516Y822574D01*
X19337Y822621D01*
X19162Y822672D01*
X19144Y822674D01*
X19127Y822678D01*
X18796Y822705D01*
X15961Y822705D01*
X12969Y823944D01*
X12956Y823948D01*
X12945Y823955D01*
X12765Y824006D01*
X12584Y824061D01*
X12571Y824062D01*
X12558Y824066D01*
X12370Y824081D01*
X12183Y824099D01*
X12170Y824098D01*
X12156Y824099D01*
X11970Y824077D01*
X11783Y824057D01*
X11770Y824053D01*
X11757Y824052D01*
X11578Y823994D01*
X11398Y823938D01*
X11387Y823931D01*
X11374Y823927D01*
X11210Y823835D01*
X11045Y823744D01*
X11035Y823736D01*
X11023Y823729D01*
X10881Y823607D01*
X10737Y823485D01*
X10729Y823475D01*
X10718Y823466D01*
X10604Y823318D01*
X10486Y823170D01*
X10480Y823158D01*
X10472Y823148D01*
X10388Y822980D01*
X10302Y822812D01*
X10298Y822799D01*
X10292Y822787D01*
X10243Y822605D01*
X10192Y822425D01*
X10191Y822412D01*
X10188Y822399D01*
X10161Y822068D01*
X10161Y12192D01*
X10163Y12174D01*
X10161Y12156D01*
X10182Y11974D01*
X10201Y11791D01*
X10206Y11774D01*
X10208Y11757D01*
X10265Y11582D01*
X10319Y11406D01*
X10327Y11391D01*
X10333Y11374D01*
X10423Y11214D01*
X10511Y11052D01*
X10522Y11039D01*
X10531Y11023D01*
X10651Y10884D01*
X10768Y10743D01*
X10782Y10732D01*
X10794Y10718D01*
X10939Y10606D01*
X11082Y10491D01*
X11098Y10483D01*
X11112Y10472D01*
X11277Y10390D01*
X11439Y10305D01*
X11456Y10300D01*
X11472Y10292D01*
X11651Y10245D01*
X11826Y10194D01*
X11844Y10192D01*
X11861Y10188D01*
X12192Y10161D01*
X470408Y10161D01*
X470426Y10163D01*
G37*
G36*
X392582Y329997D02*
X392582Y329997D01*
X392591Y329997D01*
X392784Y330021D01*
X392973Y330043D01*
X392982Y330046D01*
X392991Y330047D01*
X393173Y330108D01*
X393356Y330168D01*
X393364Y330173D01*
X393372Y330175D01*
X393539Y330272D01*
X393707Y330366D01*
X393714Y330372D01*
X393721Y330376D01*
X393974Y330591D01*
X420282Y356899D01*
X420299Y356920D01*
X420320Y356937D01*
X420427Y357075D01*
X420537Y357211D01*
X420550Y357234D01*
X420566Y357255D01*
X420644Y357412D01*
X420726Y357566D01*
X420734Y357592D01*
X420746Y357616D01*
X420791Y357785D01*
X420841Y357952D01*
X420843Y357979D01*
X420850Y358005D01*
X420877Y358335D01*
X420877Y388457D01*
X420876Y388466D01*
X420877Y388475D01*
X420856Y388667D01*
X420837Y388858D01*
X420835Y388866D01*
X420834Y388875D01*
X420776Y389057D01*
X420719Y389243D01*
X420715Y389251D01*
X420712Y389259D01*
X420619Y389427D01*
X420527Y389597D01*
X420522Y389603D01*
X420517Y389611D01*
X420392Y389759D01*
X420270Y389906D01*
X420263Y389911D01*
X420257Y389918D01*
X420106Y390038D01*
X419956Y390158D01*
X419948Y390162D01*
X419941Y390168D01*
X419770Y390255D01*
X419599Y390344D01*
X419590Y390346D01*
X419582Y390350D01*
X419397Y390402D01*
X419212Y390455D01*
X419203Y390456D01*
X419194Y390458D01*
X419002Y390472D01*
X418810Y390488D01*
X418802Y390487D01*
X418793Y390488D01*
X418600Y390463D01*
X418411Y390441D01*
X418402Y390438D01*
X418393Y390437D01*
X418210Y390376D01*
X418028Y390316D01*
X418020Y390312D01*
X418012Y390309D01*
X417846Y390214D01*
X417677Y390118D01*
X417670Y390113D01*
X417663Y390108D01*
X417410Y389893D01*
X416812Y389295D01*
X384388Y389295D01*
X383495Y390188D01*
X383495Y422612D01*
X384388Y423505D01*
X416812Y423505D01*
X417410Y422907D01*
X417417Y422901D01*
X417422Y422894D01*
X417572Y422774D01*
X417721Y422652D01*
X417729Y422647D01*
X417736Y422642D01*
X417906Y422553D01*
X418077Y422463D01*
X418086Y422460D01*
X418093Y422456D01*
X418278Y422403D01*
X418463Y422348D01*
X418472Y422347D01*
X418480Y422345D01*
X418671Y422329D01*
X418864Y422312D01*
X418873Y422313D01*
X418882Y422312D01*
X419071Y422334D01*
X419264Y422355D01*
X419273Y422358D01*
X419281Y422359D01*
X419463Y422418D01*
X419648Y422477D01*
X419656Y422481D01*
X419664Y422484D01*
X419831Y422578D01*
X420000Y422671D01*
X420007Y422677D01*
X420015Y422682D01*
X420160Y422807D01*
X420307Y422932D01*
X420313Y422939D01*
X420320Y422945D01*
X420436Y423095D01*
X420557Y423248D01*
X420561Y423256D01*
X420566Y423263D01*
X420651Y423434D01*
X420739Y423607D01*
X420742Y423615D01*
X420746Y423623D01*
X420795Y423809D01*
X420847Y423995D01*
X420848Y424004D01*
X420850Y424012D01*
X420877Y424343D01*
X420877Y429065D01*
X420875Y429091D01*
X420877Y429118D01*
X420855Y429292D01*
X420837Y429465D01*
X420830Y429491D01*
X420826Y429517D01*
X420771Y429683D01*
X420719Y429850D01*
X420706Y429874D01*
X420698Y429899D01*
X420611Y430051D01*
X420527Y430204D01*
X420510Y430225D01*
X420497Y430248D01*
X420282Y430501D01*
X398751Y452032D01*
X398730Y452049D01*
X398713Y452070D01*
X398575Y452177D01*
X398439Y452287D01*
X398416Y452300D01*
X398395Y452316D01*
X398238Y452394D01*
X398084Y452476D01*
X398058Y452484D01*
X398034Y452496D01*
X397865Y452541D01*
X397698Y452591D01*
X397671Y452593D01*
X397645Y452600D01*
X397315Y452627D01*
X341990Y452627D01*
X340310Y453323D01*
X338738Y454895D01*
X275523Y518110D01*
X274827Y519790D01*
X274827Y587815D01*
X274825Y587841D01*
X274827Y587868D01*
X274805Y588042D01*
X274787Y588215D01*
X274780Y588241D01*
X274776Y588267D01*
X274721Y588433D01*
X274669Y588600D01*
X274656Y588624D01*
X274648Y588649D01*
X274561Y588801D01*
X274477Y588954D01*
X274460Y588975D01*
X274447Y588998D01*
X274232Y589251D01*
X250123Y613360D01*
X249427Y615040D01*
X249427Y693060D01*
X250123Y694740D01*
X260321Y704938D01*
X260327Y704945D01*
X260333Y704950D01*
X260454Y705100D01*
X260576Y705249D01*
X260580Y705257D01*
X260586Y705264D01*
X260675Y705435D01*
X260765Y705605D01*
X260767Y705613D01*
X260771Y705621D01*
X260825Y705807D01*
X260879Y705991D01*
X260880Y706000D01*
X260883Y706008D01*
X260898Y706200D01*
X260916Y706392D01*
X260915Y706401D01*
X260916Y706410D01*
X260893Y706599D01*
X260872Y706792D01*
X260870Y706801D01*
X260869Y706809D01*
X260809Y706991D01*
X260751Y707176D01*
X260747Y707184D01*
X260744Y707192D01*
X260649Y707361D01*
X260556Y707528D01*
X260550Y707535D01*
X260546Y707543D01*
X260420Y707689D01*
X260296Y707835D01*
X260289Y707841D01*
X260283Y707848D01*
X260131Y707965D01*
X259980Y708085D01*
X259972Y708089D01*
X259965Y708094D01*
X259792Y708180D01*
X259621Y708267D01*
X259612Y708270D01*
X259604Y708274D01*
X259418Y708324D01*
X259233Y708375D01*
X259224Y708376D01*
X259215Y708378D01*
X258885Y708405D01*
X256562Y708405D01*
X251205Y713762D01*
X251205Y715519D01*
X260350Y715519D01*
X260367Y715520D01*
X260385Y715519D01*
X260568Y715540D01*
X260750Y715558D01*
X260767Y715564D01*
X260785Y715566D01*
X260960Y715623D01*
X261135Y715677D01*
X261151Y715685D01*
X261168Y715691D01*
X261328Y715781D01*
X261489Y715868D01*
X261503Y715880D01*
X261518Y715889D01*
X261658Y716009D01*
X261798Y716126D01*
X261799Y716126D01*
X261799Y716127D01*
X261810Y716140D01*
X261823Y716152D01*
X261824Y716152D01*
X261936Y716297D01*
X262051Y716440D01*
X262060Y716456D01*
X262070Y716470D01*
X262152Y716635D01*
X262237Y716798D01*
X262242Y716815D01*
X262250Y716831D01*
X262298Y717009D01*
X262348Y717185D01*
X262350Y717202D01*
X262354Y717220D01*
X262381Y717550D01*
X262381Y726695D01*
X264138Y726695D01*
X269495Y721338D01*
X269495Y719015D01*
X269496Y719007D01*
X269495Y718998D01*
X269516Y718804D01*
X269535Y718615D01*
X269537Y718606D01*
X269538Y718597D01*
X269597Y718413D01*
X269653Y718230D01*
X269657Y718222D01*
X269660Y718214D01*
X269753Y718045D01*
X269845Y717876D01*
X269850Y717869D01*
X269855Y717861D01*
X269979Y717714D01*
X270102Y717567D01*
X270109Y717561D01*
X270115Y717554D01*
X270267Y717434D01*
X270416Y717314D01*
X270424Y717310D01*
X270431Y717305D01*
X270604Y717217D01*
X270773Y717129D01*
X270782Y717126D01*
X270790Y717122D01*
X270976Y717070D01*
X271160Y717017D01*
X271169Y717017D01*
X271178Y717014D01*
X271371Y717000D01*
X271562Y716984D01*
X271570Y716985D01*
X271579Y716985D01*
X271772Y717009D01*
X271961Y717031D01*
X271970Y717034D01*
X271979Y717035D01*
X272161Y717096D01*
X272344Y717156D01*
X272352Y717161D01*
X272360Y717163D01*
X272527Y717260D01*
X272695Y717354D01*
X272702Y717360D01*
X272709Y717364D01*
X272962Y717579D01*
X295860Y740477D01*
X297540Y741173D01*
X374396Y741173D01*
X374414Y741175D01*
X374432Y741173D01*
X374614Y741194D01*
X374797Y741213D01*
X374814Y741218D01*
X374831Y741220D01*
X375006Y741277D01*
X375182Y741331D01*
X375197Y741339D01*
X375214Y741345D01*
X375374Y741435D01*
X375536Y741523D01*
X375549Y741534D01*
X375565Y741543D01*
X375704Y741663D01*
X375845Y741780D01*
X375856Y741794D01*
X375870Y741806D01*
X375982Y741951D01*
X376097Y742094D01*
X376105Y742110D01*
X376116Y742124D01*
X376198Y742289D01*
X376283Y742451D01*
X376288Y742468D01*
X376296Y742484D01*
X376343Y742663D01*
X376394Y742838D01*
X376396Y742856D01*
X376400Y742873D01*
X376427Y743204D01*
X376427Y766322D01*
X376422Y766373D01*
X376425Y766424D01*
X376402Y766573D01*
X376387Y766723D01*
X376372Y766771D01*
X376365Y766822D01*
X376313Y766964D01*
X376269Y767107D01*
X376245Y767152D01*
X376227Y767201D01*
X376149Y767329D01*
X376077Y767461D01*
X376045Y767501D01*
X376018Y767544D01*
X375916Y767655D01*
X375820Y767771D01*
X375780Y767803D01*
X375745Y767840D01*
X375623Y767929D01*
X375506Y768023D01*
X375461Y768047D01*
X375419Y768077D01*
X375282Y768139D01*
X375149Y768209D01*
X375100Y768223D01*
X375053Y768244D01*
X374906Y768278D01*
X374762Y768320D01*
X374711Y768324D01*
X374661Y768336D01*
X374510Y768341D01*
X374360Y768353D01*
X374310Y768347D01*
X374259Y768349D01*
X374110Y768323D01*
X373961Y768306D01*
X373912Y768290D01*
X373862Y768282D01*
X373721Y768228D01*
X373578Y768181D01*
X373533Y768156D01*
X373485Y768138D01*
X373288Y768018D01*
X373227Y767983D01*
X373217Y767974D01*
X373202Y767965D01*
X372797Y767671D01*
X371594Y767058D01*
X370331Y766648D01*
X370331Y781050D01*
X370331Y795452D01*
X371594Y795042D01*
X372797Y794429D01*
X373890Y793635D01*
X374845Y792680D01*
X375639Y791587D01*
X376252Y790384D01*
X376669Y789099D01*
X376881Y787765D01*
X376881Y781951D01*
X376882Y781943D01*
X376881Y781934D01*
X376902Y781740D01*
X376921Y781551D01*
X376923Y781542D01*
X376924Y781533D01*
X376982Y781349D01*
X377039Y781166D01*
X377043Y781158D01*
X377046Y781149D01*
X377138Y780982D01*
X377231Y780812D01*
X377236Y780805D01*
X377241Y780797D01*
X377366Y780649D01*
X377488Y780503D01*
X377495Y780497D01*
X377501Y780490D01*
X377653Y780370D01*
X377802Y780250D01*
X377810Y780246D01*
X377817Y780241D01*
X377990Y780153D01*
X378159Y780065D01*
X378168Y780062D01*
X378176Y780058D01*
X378362Y780006D01*
X378546Y779953D01*
X378555Y779953D01*
X378564Y779950D01*
X378757Y779936D01*
X378948Y779920D01*
X378956Y779921D01*
X378965Y779921D01*
X379158Y779945D01*
X379347Y779967D01*
X379356Y779970D01*
X379365Y779971D01*
X379548Y780033D01*
X379730Y780092D01*
X379738Y780097D01*
X379746Y780099D01*
X379913Y780196D01*
X380081Y780290D01*
X380088Y780296D01*
X380095Y780300D01*
X380348Y780515D01*
X388532Y788699D01*
X388549Y788720D01*
X388570Y788737D01*
X388677Y788875D01*
X388787Y789011D01*
X388800Y789034D01*
X388816Y789055D01*
X388894Y789212D01*
X388976Y789366D01*
X388984Y789392D01*
X388996Y789416D01*
X389041Y789585D01*
X389091Y789752D01*
X389093Y789779D01*
X389100Y789805D01*
X389127Y790135D01*
X389127Y816415D01*
X389125Y816441D01*
X389127Y816468D01*
X389105Y816642D01*
X389087Y816815D01*
X389080Y816841D01*
X389076Y816867D01*
X389021Y817033D01*
X388969Y817200D01*
X388956Y817224D01*
X388948Y817249D01*
X388861Y817401D01*
X388777Y817554D01*
X388760Y817575D01*
X388747Y817598D01*
X388532Y817851D01*
X379701Y826682D01*
X379680Y826699D01*
X379663Y826720D01*
X379525Y826827D01*
X379389Y826937D01*
X379366Y826950D01*
X379345Y826966D01*
X379188Y827044D01*
X379034Y827126D01*
X379008Y827134D01*
X378984Y827146D01*
X378815Y827191D01*
X378648Y827241D01*
X378621Y827243D01*
X378595Y827250D01*
X378265Y827277D01*
X297540Y827277D01*
X295860Y827973D01*
X281873Y841960D01*
X281177Y843640D01*
X281177Y905315D01*
X281175Y905341D01*
X281177Y905368D01*
X281155Y905542D01*
X281137Y905715D01*
X281130Y905741D01*
X281126Y905767D01*
X281071Y905933D01*
X281019Y906100D01*
X281006Y906124D01*
X280998Y906149D01*
X280911Y906301D01*
X280827Y906454D01*
X280810Y906475D01*
X280797Y906498D01*
X280582Y906751D01*
X271751Y915582D01*
X271730Y915599D01*
X271713Y915620D01*
X271575Y915727D01*
X271439Y915837D01*
X271416Y915850D01*
X271395Y915866D01*
X271238Y915944D01*
X271084Y916026D01*
X271058Y916034D01*
X271034Y916046D01*
X270865Y916091D01*
X270698Y916141D01*
X270671Y916143D01*
X270645Y916150D01*
X270315Y916177D01*
X231335Y916177D01*
X231309Y916175D01*
X231282Y916177D01*
X231108Y916155D01*
X230935Y916137D01*
X230909Y916130D01*
X230883Y916126D01*
X230717Y916071D01*
X230550Y916019D01*
X230526Y916006D01*
X230501Y915998D01*
X230350Y915911D01*
X230196Y915827D01*
X230175Y915810D01*
X230152Y915797D01*
X229899Y915582D01*
X222891Y908574D01*
X222885Y908567D01*
X222879Y908562D01*
X222758Y908412D01*
X222636Y908263D01*
X222632Y908255D01*
X222626Y908248D01*
X222538Y908078D01*
X222447Y907907D01*
X222445Y907898D01*
X222441Y907891D01*
X222388Y907706D01*
X222333Y907521D01*
X222332Y907512D01*
X222329Y907504D01*
X222314Y907312D01*
X222296Y907120D01*
X222297Y907111D01*
X222296Y907102D01*
X222319Y906913D01*
X222340Y906720D01*
X222342Y906711D01*
X222343Y906703D01*
X222403Y906521D01*
X222461Y906336D01*
X222465Y906328D01*
X222468Y906320D01*
X222563Y906151D01*
X222656Y905984D01*
X222662Y905977D01*
X222666Y905969D01*
X222792Y905823D01*
X222916Y905677D01*
X222923Y905671D01*
X222929Y905664D01*
X223081Y905547D01*
X223232Y905427D01*
X223240Y905423D01*
X223247Y905418D01*
X223419Y905332D01*
X223591Y905245D01*
X223600Y905242D01*
X223608Y905238D01*
X223794Y905188D01*
X223979Y905137D01*
X223988Y905136D01*
X223997Y905134D01*
X224327Y905107D01*
X225314Y905107D01*
X226207Y904214D01*
X226207Y886186D01*
X225314Y885293D01*
X207286Y885293D01*
X206393Y886186D01*
X206393Y901446D01*
X206391Y901464D01*
X206393Y901482D01*
X206372Y901664D01*
X206353Y901847D01*
X206348Y901864D01*
X206346Y901881D01*
X206289Y902056D01*
X206235Y902232D01*
X206227Y902247D01*
X206221Y902264D01*
X206131Y902424D01*
X206043Y902586D01*
X206032Y902599D01*
X206023Y902615D01*
X205903Y902754D01*
X205786Y902895D01*
X205772Y902906D01*
X205760Y902920D01*
X205615Y903032D01*
X205472Y903147D01*
X205456Y903155D01*
X205442Y903166D01*
X205277Y903248D01*
X205115Y903333D01*
X205098Y903338D01*
X205082Y903346D01*
X204903Y903393D01*
X204728Y903444D01*
X204710Y903446D01*
X204693Y903450D01*
X204362Y903477D01*
X95504Y903477D01*
X95486Y903475D01*
X95468Y903477D01*
X95286Y903456D01*
X95103Y903437D01*
X95086Y903432D01*
X95069Y903430D01*
X94894Y903373D01*
X94718Y903319D01*
X94703Y903311D01*
X94686Y903305D01*
X94526Y903215D01*
X94364Y903127D01*
X94351Y903116D01*
X94335Y903107D01*
X94196Y902987D01*
X94055Y902870D01*
X94044Y902856D01*
X94030Y902844D01*
X93918Y902699D01*
X93803Y902556D01*
X93795Y902540D01*
X93784Y902526D01*
X93702Y902361D01*
X93617Y902199D01*
X93612Y902182D01*
X93604Y902166D01*
X93557Y901987D01*
X93506Y901812D01*
X93504Y901794D01*
X93500Y901777D01*
X93473Y901446D01*
X93473Y729340D01*
X92777Y727660D01*
X91205Y726088D01*
X83191Y718074D01*
X83185Y718067D01*
X83179Y718062D01*
X83058Y717912D01*
X82936Y717763D01*
X82932Y717755D01*
X82926Y717748D01*
X82838Y717578D01*
X82747Y717407D01*
X82745Y717398D01*
X82741Y717391D01*
X82688Y717206D01*
X82633Y717021D01*
X82632Y717012D01*
X82629Y717004D01*
X82614Y716812D01*
X82596Y716620D01*
X82597Y716611D01*
X82596Y716602D01*
X82619Y716413D01*
X82640Y716220D01*
X82642Y716211D01*
X82643Y716203D01*
X82703Y716021D01*
X82761Y715836D01*
X82765Y715828D01*
X82768Y715820D01*
X82864Y715650D01*
X82956Y715484D01*
X82962Y715477D01*
X82966Y715469D01*
X83092Y715323D01*
X83216Y715177D01*
X83223Y715171D01*
X83229Y715164D01*
X83381Y715047D01*
X83532Y714927D01*
X83540Y714923D01*
X83547Y714918D01*
X83719Y714832D01*
X83891Y714745D01*
X83900Y714742D01*
X83908Y714738D01*
X84094Y714688D01*
X84279Y714637D01*
X84288Y714636D01*
X84297Y714634D01*
X84627Y714607D01*
X85614Y714607D01*
X86507Y713714D01*
X86507Y695686D01*
X85614Y694793D01*
X67586Y694793D01*
X66693Y695686D01*
X66693Y713714D01*
X67586Y714607D01*
X69596Y714607D01*
X69614Y714609D01*
X69632Y714607D01*
X69814Y714628D01*
X69997Y714647D01*
X70014Y714652D01*
X70031Y714654D01*
X70206Y714711D01*
X70382Y714765D01*
X70397Y714773D01*
X70414Y714779D01*
X70574Y714869D01*
X70736Y714957D01*
X70749Y714968D01*
X70765Y714977D01*
X70904Y715097D01*
X71045Y715214D01*
X71056Y715228D01*
X71070Y715240D01*
X71182Y715385D01*
X71297Y715528D01*
X71305Y715544D01*
X71316Y715558D01*
X71398Y715723D01*
X71483Y715885D01*
X71488Y715902D01*
X71496Y715918D01*
X71543Y716097D01*
X71594Y716272D01*
X71596Y716290D01*
X71600Y716307D01*
X71627Y716638D01*
X71627Y717446D01*
X71624Y717474D01*
X71626Y717510D01*
X71599Y718390D01*
X71935Y719204D01*
X71944Y719231D01*
X71959Y719263D01*
X72270Y720087D01*
X72893Y720710D01*
X72911Y720732D01*
X72937Y720756D01*
X73558Y721417D01*
X73566Y721421D01*
X73567Y721422D01*
X73570Y721425D01*
X73819Y721636D01*
X83732Y731549D01*
X83749Y731570D01*
X83770Y731587D01*
X83877Y731725D01*
X83987Y731861D01*
X84000Y731884D01*
X84016Y731905D01*
X84094Y732062D01*
X84176Y732216D01*
X84184Y732242D01*
X84196Y732266D01*
X84241Y732435D01*
X84291Y732602D01*
X84293Y732629D01*
X84300Y732655D01*
X84327Y732985D01*
X84327Y901446D01*
X84325Y901464D01*
X84327Y901482D01*
X84306Y901664D01*
X84287Y901847D01*
X84282Y901864D01*
X84280Y901881D01*
X84223Y902056D01*
X84169Y902232D01*
X84161Y902247D01*
X84155Y902264D01*
X84065Y902424D01*
X83977Y902586D01*
X83966Y902599D01*
X83957Y902615D01*
X83837Y902754D01*
X83720Y902895D01*
X83706Y902906D01*
X83694Y902920D01*
X83549Y903032D01*
X83406Y903147D01*
X83390Y903155D01*
X83376Y903166D01*
X83211Y903248D01*
X83049Y903333D01*
X83032Y903338D01*
X83016Y903346D01*
X82837Y903393D01*
X82662Y903444D01*
X82644Y903446D01*
X82627Y903450D01*
X82296Y903477D01*
X42221Y903477D01*
X42195Y903475D01*
X42168Y903477D01*
X41994Y903455D01*
X41821Y903437D01*
X41795Y903430D01*
X41768Y903426D01*
X41603Y903370D01*
X41436Y903319D01*
X41412Y903306D01*
X41387Y903298D01*
X41236Y903211D01*
X41082Y903127D01*
X41061Y903110D01*
X41038Y903097D01*
X40785Y902882D01*
X38200Y900297D01*
X34839Y898905D01*
X15961Y898905D01*
X12969Y900144D01*
X12956Y900148D01*
X12945Y900155D01*
X12765Y900206D01*
X12584Y900261D01*
X12571Y900262D01*
X12558Y900266D01*
X12370Y900281D01*
X12183Y900299D01*
X12170Y900298D01*
X12156Y900299D01*
X11970Y900277D01*
X11783Y900257D01*
X11770Y900253D01*
X11757Y900252D01*
X11578Y900194D01*
X11398Y900138D01*
X11387Y900131D01*
X11374Y900127D01*
X11210Y900035D01*
X11045Y899944D01*
X11035Y899936D01*
X11023Y899929D01*
X10881Y899807D01*
X10737Y899685D01*
X10729Y899675D01*
X10718Y899666D01*
X10604Y899518D01*
X10486Y899370D01*
X10480Y899358D01*
X10472Y899348D01*
X10388Y899180D01*
X10302Y899012D01*
X10298Y898999D01*
X10292Y898987D01*
X10243Y898805D01*
X10192Y898625D01*
X10191Y898612D01*
X10188Y898599D01*
X10161Y898268D01*
X10161Y892432D01*
X10162Y892419D01*
X10161Y892405D01*
X10182Y892219D01*
X10201Y892032D01*
X10205Y892019D01*
X10206Y892005D01*
X10264Y891826D01*
X10319Y891647D01*
X10325Y891635D01*
X10329Y891622D01*
X10421Y891457D01*
X10511Y891293D01*
X10519Y891282D01*
X10526Y891271D01*
X10648Y891127D01*
X10768Y890983D01*
X10779Y890975D01*
X10787Y890965D01*
X10936Y890848D01*
X11082Y890731D01*
X11094Y890725D01*
X11104Y890717D01*
X11274Y890632D01*
X11439Y890545D01*
X11452Y890542D01*
X11464Y890536D01*
X11647Y890486D01*
X11826Y890434D01*
X11840Y890433D01*
X11853Y890429D01*
X12041Y890417D01*
X12228Y890401D01*
X12241Y890403D01*
X12254Y890402D01*
X12442Y890426D01*
X12627Y890448D01*
X12640Y890452D01*
X12653Y890454D01*
X12969Y890556D01*
X15961Y891795D01*
X34839Y891795D01*
X38200Y890403D01*
X40773Y887830D01*
X42165Y884469D01*
X42165Y880831D01*
X40773Y877470D01*
X38200Y874897D01*
X34839Y873505D01*
X15961Y873505D01*
X12969Y874744D01*
X12956Y874748D01*
X12945Y874755D01*
X12765Y874806D01*
X12584Y874861D01*
X12571Y874862D01*
X12558Y874866D01*
X12370Y874881D01*
X12183Y874899D01*
X12170Y874898D01*
X12156Y874899D01*
X11970Y874877D01*
X11783Y874857D01*
X11770Y874853D01*
X11757Y874852D01*
X11578Y874794D01*
X11398Y874738D01*
X11387Y874731D01*
X11374Y874727D01*
X11210Y874635D01*
X11045Y874544D01*
X11035Y874536D01*
X11023Y874529D01*
X10881Y874407D01*
X10737Y874285D01*
X10729Y874275D01*
X10718Y874266D01*
X10604Y874118D01*
X10486Y873970D01*
X10480Y873958D01*
X10472Y873948D01*
X10388Y873780D01*
X10302Y873612D01*
X10298Y873599D01*
X10292Y873587D01*
X10243Y873405D01*
X10192Y873225D01*
X10191Y873212D01*
X10188Y873199D01*
X10161Y872868D01*
X10161Y867032D01*
X10162Y867019D01*
X10161Y867005D01*
X10182Y866819D01*
X10201Y866632D01*
X10205Y866619D01*
X10206Y866605D01*
X10264Y866426D01*
X10319Y866247D01*
X10325Y866235D01*
X10329Y866222D01*
X10421Y866057D01*
X10511Y865893D01*
X10519Y865882D01*
X10526Y865871D01*
X10648Y865727D01*
X10768Y865583D01*
X10779Y865575D01*
X10787Y865565D01*
X10936Y865448D01*
X11082Y865331D01*
X11094Y865325D01*
X11104Y865317D01*
X11274Y865232D01*
X11439Y865145D01*
X11452Y865142D01*
X11464Y865136D01*
X11647Y865086D01*
X11826Y865034D01*
X11840Y865033D01*
X11853Y865029D01*
X12041Y865017D01*
X12228Y865001D01*
X12241Y865003D01*
X12254Y865002D01*
X12442Y865026D01*
X12627Y865048D01*
X12640Y865052D01*
X12653Y865054D01*
X12969Y865156D01*
X15961Y866395D01*
X34839Y866395D01*
X38200Y865003D01*
X40773Y862430D01*
X42165Y859069D01*
X42165Y855431D01*
X40773Y852070D01*
X38200Y849497D01*
X36779Y848909D01*
X34839Y848105D01*
X15961Y848105D01*
X12969Y849344D01*
X12956Y849348D01*
X12945Y849355D01*
X12765Y849406D01*
X12584Y849461D01*
X12571Y849462D01*
X12558Y849466D01*
X12370Y849481D01*
X12183Y849499D01*
X12170Y849498D01*
X12156Y849499D01*
X11970Y849477D01*
X11783Y849457D01*
X11770Y849453D01*
X11757Y849452D01*
X11578Y849394D01*
X11398Y849338D01*
X11387Y849331D01*
X11374Y849327D01*
X11210Y849235D01*
X11045Y849144D01*
X11035Y849136D01*
X11023Y849129D01*
X10881Y849007D01*
X10737Y848885D01*
X10729Y848875D01*
X10718Y848866D01*
X10604Y848718D01*
X10486Y848570D01*
X10480Y848558D01*
X10472Y848548D01*
X10388Y848380D01*
X10302Y848212D01*
X10298Y848199D01*
X10292Y848187D01*
X10243Y848005D01*
X10192Y847825D01*
X10191Y847812D01*
X10188Y847799D01*
X10161Y847468D01*
X10161Y841632D01*
X10162Y841619D01*
X10161Y841605D01*
X10182Y841419D01*
X10201Y841232D01*
X10205Y841219D01*
X10206Y841205D01*
X10264Y841026D01*
X10319Y840847D01*
X10325Y840835D01*
X10329Y840822D01*
X10421Y840657D01*
X10511Y840493D01*
X10519Y840482D01*
X10526Y840471D01*
X10648Y840327D01*
X10768Y840183D01*
X10779Y840175D01*
X10787Y840165D01*
X10936Y840048D01*
X11082Y839931D01*
X11094Y839925D01*
X11104Y839917D01*
X11274Y839832D01*
X11439Y839745D01*
X11452Y839742D01*
X11464Y839736D01*
X11647Y839686D01*
X11826Y839634D01*
X11840Y839633D01*
X11853Y839629D01*
X12041Y839617D01*
X12228Y839601D01*
X12241Y839603D01*
X12254Y839602D01*
X12442Y839626D01*
X12627Y839648D01*
X12640Y839652D01*
X12653Y839654D01*
X12969Y839756D01*
X15961Y840995D01*
X34839Y840995D01*
X38200Y839603D01*
X40773Y837030D01*
X42165Y833669D01*
X42165Y830031D01*
X40773Y826670D01*
X38200Y824097D01*
X34839Y822705D01*
X32004Y822705D01*
X31986Y822703D01*
X31968Y822705D01*
X31786Y822684D01*
X31603Y822665D01*
X31586Y822660D01*
X31569Y822658D01*
X31394Y822601D01*
X31218Y822547D01*
X31203Y822539D01*
X31186Y822533D01*
X31026Y822443D01*
X30864Y822355D01*
X30851Y822344D01*
X30835Y822335D01*
X30696Y822215D01*
X30555Y822098D01*
X30544Y822084D01*
X30530Y822072D01*
X30418Y821927D01*
X30303Y821784D01*
X30295Y821768D01*
X30284Y821754D01*
X30202Y821589D01*
X30117Y821427D01*
X30112Y821410D01*
X30104Y821394D01*
X30057Y821215D01*
X30006Y821040D01*
X30004Y821022D01*
X30000Y821005D01*
X29973Y820674D01*
X29973Y694885D01*
X29975Y694859D01*
X29973Y694832D01*
X29995Y694658D01*
X30013Y694485D01*
X30020Y694459D01*
X30024Y694433D01*
X30079Y694267D01*
X30131Y694100D01*
X30144Y694076D01*
X30152Y694051D01*
X30239Y693899D01*
X30323Y693746D01*
X30340Y693725D01*
X30353Y693702D01*
X30568Y693449D01*
X39399Y684618D01*
X39420Y684601D01*
X39437Y684580D01*
X39575Y684473D01*
X39711Y684363D01*
X39734Y684350D01*
X39755Y684334D01*
X39912Y684256D01*
X40066Y684174D01*
X40092Y684166D01*
X40116Y684154D01*
X40285Y684109D01*
X40452Y684059D01*
X40479Y684057D01*
X40505Y684050D01*
X40835Y684023D01*
X111565Y684023D01*
X111591Y684025D01*
X111618Y684023D01*
X111792Y684045D01*
X111965Y684063D01*
X111991Y684070D01*
X112017Y684074D01*
X112183Y684129D01*
X112350Y684181D01*
X112374Y684194D01*
X112399Y684202D01*
X112550Y684289D01*
X112704Y684373D01*
X112725Y684390D01*
X112748Y684403D01*
X113001Y684618D01*
X121400Y693017D01*
X121412Y693031D01*
X121425Y693042D01*
X121539Y693186D01*
X121655Y693328D01*
X121664Y693344D01*
X121675Y693358D01*
X121758Y693522D01*
X121844Y693684D01*
X121849Y693701D01*
X121857Y693717D01*
X121906Y693895D01*
X121959Y694070D01*
X121960Y694088D01*
X121965Y694105D01*
X121978Y694288D01*
X121995Y694471D01*
X121993Y694489D01*
X121994Y694507D01*
X121971Y694689D01*
X121952Y694871D01*
X121946Y694888D01*
X121944Y694906D01*
X121886Y695080D01*
X121830Y695255D01*
X121821Y695271D01*
X121816Y695288D01*
X121724Y695447D01*
X121635Y695608D01*
X121624Y695621D01*
X121615Y695637D01*
X121400Y695890D01*
X116693Y700597D01*
X116693Y708803D01*
X122497Y714607D01*
X130703Y714607D01*
X135293Y710018D01*
X135313Y710001D01*
X135331Y709980D01*
X135469Y709873D01*
X135604Y709763D01*
X135628Y709750D01*
X135649Y709734D01*
X135805Y709656D01*
X135960Y709574D01*
X135985Y709566D01*
X136009Y709554D01*
X136179Y709509D01*
X136346Y709459D01*
X136372Y709457D01*
X136398Y709450D01*
X136729Y709423D01*
X169528Y709423D01*
X169536Y709424D01*
X169545Y709423D01*
X169737Y709444D01*
X169928Y709463D01*
X169937Y709465D01*
X169946Y709466D01*
X170128Y709524D01*
X170313Y709581D01*
X170321Y709585D01*
X170330Y709588D01*
X170498Y709681D01*
X170667Y709773D01*
X170674Y709778D01*
X170682Y709783D01*
X170830Y709908D01*
X170976Y710030D01*
X170982Y710037D01*
X170989Y710043D01*
X171109Y710195D01*
X171229Y710344D01*
X171233Y710352D01*
X171238Y710359D01*
X171326Y710531D01*
X171414Y710701D01*
X171417Y710710D01*
X171421Y710718D01*
X171473Y710904D01*
X171526Y711088D01*
X171526Y711097D01*
X171529Y711106D01*
X171543Y711298D01*
X171559Y711490D01*
X171558Y711498D01*
X171558Y711507D01*
X171534Y711700D01*
X171512Y711889D01*
X171509Y711898D01*
X171508Y711907D01*
X171446Y712090D01*
X171387Y712272D01*
X171382Y712280D01*
X171380Y712288D01*
X171284Y712454D01*
X171189Y712623D01*
X171183Y712630D01*
X171179Y712637D01*
X170964Y712890D01*
X169671Y714183D01*
X169671Y720917D01*
X174433Y725679D01*
X181167Y725679D01*
X185929Y720917D01*
X185929Y714183D01*
X184636Y712890D01*
X184630Y712883D01*
X184624Y712878D01*
X184503Y712728D01*
X184381Y712579D01*
X184377Y712571D01*
X184371Y712564D01*
X184283Y712394D01*
X184192Y712223D01*
X184190Y712214D01*
X184186Y712207D01*
X184132Y712021D01*
X184078Y711837D01*
X184077Y711828D01*
X184074Y711820D01*
X184059Y711629D01*
X184041Y711436D01*
X184042Y711427D01*
X184041Y711418D01*
X184064Y711229D01*
X184085Y711036D01*
X184087Y711027D01*
X184088Y711019D01*
X184148Y710837D01*
X184206Y710652D01*
X184210Y710644D01*
X184213Y710636D01*
X184307Y710469D01*
X184401Y710300D01*
X184407Y710293D01*
X184411Y710285D01*
X184536Y710140D01*
X184661Y709993D01*
X184668Y709987D01*
X184674Y709980D01*
X184825Y709864D01*
X184977Y709743D01*
X184985Y709739D01*
X184992Y709734D01*
X185164Y709648D01*
X185336Y709561D01*
X185345Y709558D01*
X185353Y709554D01*
X185539Y709504D01*
X185724Y709453D01*
X185733Y709452D01*
X185742Y709450D01*
X186072Y709423D01*
X194115Y709423D01*
X194141Y709425D01*
X194168Y709423D01*
X194342Y709445D01*
X194515Y709463D01*
X194541Y709470D01*
X194567Y709474D01*
X194733Y709529D01*
X194900Y709581D01*
X194924Y709594D01*
X194949Y709602D01*
X195101Y709689D01*
X195254Y709773D01*
X195275Y709790D01*
X195298Y709803D01*
X195551Y710018D01*
X251626Y766093D01*
X251643Y766114D01*
X251664Y766131D01*
X251771Y766269D01*
X251881Y766405D01*
X251894Y766428D01*
X251910Y766449D01*
X251988Y766606D01*
X252070Y766760D01*
X252078Y766786D01*
X252090Y766810D01*
X252135Y766979D01*
X252185Y767146D01*
X252187Y767173D01*
X252194Y767199D01*
X252221Y767529D01*
X252221Y771717D01*
X255182Y774678D01*
X255199Y774699D01*
X255220Y774716D01*
X255327Y774854D01*
X255437Y774990D01*
X255450Y775013D01*
X255466Y775034D01*
X255544Y775191D01*
X255626Y775345D01*
X255634Y775371D01*
X255646Y775395D01*
X255691Y775564D01*
X255741Y775731D01*
X255743Y775758D01*
X255750Y775784D01*
X255777Y776114D01*
X255777Y778315D01*
X255775Y778341D01*
X255777Y778368D01*
X255755Y778542D01*
X255737Y778715D01*
X255730Y778741D01*
X255726Y778767D01*
X255671Y778933D01*
X255619Y779100D01*
X255606Y779124D01*
X255598Y779149D01*
X255511Y779301D01*
X255427Y779454D01*
X255410Y779475D01*
X255397Y779498D01*
X255182Y779751D01*
X243773Y791160D01*
X243077Y792840D01*
X243077Y870860D01*
X243773Y872540D01*
X257925Y886692D01*
X257937Y886706D01*
X257950Y886717D01*
X258064Y886862D01*
X258180Y887003D01*
X258189Y887019D01*
X258200Y887033D01*
X258283Y887197D01*
X258369Y887359D01*
X258374Y887376D01*
X258382Y887392D01*
X258431Y887569D01*
X258484Y887745D01*
X258485Y887763D01*
X258490Y887780D01*
X258503Y887963D01*
X258520Y888146D01*
X258518Y888164D01*
X258519Y888182D01*
X258496Y888364D01*
X258477Y888546D01*
X258471Y888563D01*
X258469Y888581D01*
X258411Y888755D01*
X258355Y888930D01*
X258346Y888946D01*
X258341Y888963D01*
X258249Y889122D01*
X258160Y889283D01*
X258149Y889296D01*
X258140Y889312D01*
X257925Y889565D01*
X256393Y891097D01*
X256393Y899303D01*
X262197Y905107D01*
X270403Y905107D01*
X276207Y899303D01*
X276207Y891097D01*
X270403Y885293D01*
X270301Y885293D01*
X270275Y885291D01*
X270248Y885293D01*
X270074Y885271D01*
X269901Y885253D01*
X269875Y885246D01*
X269849Y885242D01*
X269683Y885187D01*
X269516Y885135D01*
X269492Y885122D01*
X269467Y885114D01*
X269315Y885027D01*
X269162Y884943D01*
X269141Y884926D01*
X269118Y884913D01*
X268865Y884698D01*
X252818Y868651D01*
X252801Y868630D01*
X252780Y868613D01*
X252673Y868475D01*
X252563Y868339D01*
X252550Y868316D01*
X252534Y868295D01*
X252456Y868138D01*
X252374Y867984D01*
X252366Y867958D01*
X252354Y867934D01*
X252309Y867765D01*
X252259Y867598D01*
X252257Y867571D01*
X252250Y867545D01*
X252223Y867215D01*
X252223Y796485D01*
X252225Y796459D01*
X252223Y796432D01*
X252245Y796258D01*
X252263Y796085D01*
X252270Y796059D01*
X252274Y796033D01*
X252330Y795867D01*
X252381Y795700D01*
X252394Y795676D01*
X252402Y795651D01*
X252489Y795499D01*
X252573Y795346D01*
X252590Y795325D01*
X252603Y795302D01*
X252818Y795049D01*
X261649Y786218D01*
X261670Y786201D01*
X261687Y786180D01*
X261825Y786073D01*
X261961Y785963D01*
X261984Y785950D01*
X262005Y785934D01*
X262162Y785856D01*
X262316Y785774D01*
X262342Y785766D01*
X262366Y785754D01*
X262535Y785709D01*
X262702Y785659D01*
X262729Y785657D01*
X262755Y785650D01*
X263085Y785623D01*
X282504Y785623D01*
X282522Y785625D01*
X282540Y785623D01*
X282722Y785644D01*
X282905Y785663D01*
X282922Y785668D01*
X282939Y785670D01*
X283114Y785727D01*
X283290Y785781D01*
X283305Y785789D01*
X283322Y785795D01*
X283482Y785885D01*
X283644Y785973D01*
X283657Y785984D01*
X283673Y785993D01*
X283812Y786113D01*
X283953Y786230D01*
X283964Y786244D01*
X283978Y786256D01*
X284090Y786401D01*
X284205Y786544D01*
X284213Y786560D01*
X284224Y786574D01*
X284306Y786739D01*
X284391Y786901D01*
X284396Y786918D01*
X284404Y786934D01*
X284451Y787113D01*
X284502Y787288D01*
X284504Y787306D01*
X284508Y787323D01*
X284535Y787654D01*
X284535Y788595D01*
X285687Y791375D01*
X287815Y793503D01*
X290595Y794655D01*
X293605Y794655D01*
X296385Y793503D01*
X298513Y791375D01*
X299665Y788595D01*
X299665Y773505D01*
X298513Y770725D01*
X296385Y768597D01*
X293605Y767445D01*
X290595Y767445D01*
X287815Y768597D01*
X285687Y770725D01*
X284535Y773505D01*
X284535Y774446D01*
X284533Y774464D01*
X284535Y774482D01*
X284514Y774664D01*
X284495Y774847D01*
X284490Y774864D01*
X284488Y774881D01*
X284431Y775056D01*
X284377Y775232D01*
X284369Y775247D01*
X284363Y775264D01*
X284273Y775424D01*
X284185Y775586D01*
X284174Y775599D01*
X284165Y775615D01*
X284045Y775754D01*
X283928Y775895D01*
X283914Y775906D01*
X283902Y775920D01*
X283757Y776032D01*
X283614Y776147D01*
X283598Y776155D01*
X283584Y776166D01*
X283419Y776248D01*
X283257Y776333D01*
X283240Y776338D01*
X283224Y776346D01*
X283045Y776393D01*
X282870Y776444D01*
X282852Y776446D01*
X282835Y776450D01*
X282504Y776477D01*
X268622Y776477D01*
X268614Y776476D01*
X268605Y776477D01*
X268413Y776456D01*
X268222Y776437D01*
X268213Y776435D01*
X268204Y776434D01*
X268022Y776376D01*
X267837Y776319D01*
X267829Y776315D01*
X267820Y776312D01*
X267652Y776219D01*
X267483Y776127D01*
X267476Y776122D01*
X267468Y776117D01*
X267320Y775992D01*
X267174Y775870D01*
X267168Y775863D01*
X267161Y775857D01*
X267041Y775705D01*
X266921Y775556D01*
X266917Y775548D01*
X266912Y775541D01*
X266824Y775369D01*
X266736Y775199D01*
X266733Y775190D01*
X266729Y775182D01*
X266677Y774996D01*
X266624Y774812D01*
X266624Y774803D01*
X266621Y774794D01*
X266607Y774602D01*
X266591Y774410D01*
X266592Y774402D01*
X266592Y774393D01*
X266616Y774200D01*
X266638Y774011D01*
X266641Y774002D01*
X266642Y773993D01*
X266704Y773810D01*
X266763Y773628D01*
X266768Y773620D01*
X266770Y773612D01*
X266866Y773446D01*
X266961Y773277D01*
X266967Y773270D01*
X266971Y773263D01*
X267186Y773010D01*
X268479Y771717D01*
X268479Y764983D01*
X263717Y760221D01*
X259529Y760221D01*
X259503Y760219D01*
X259476Y760221D01*
X259302Y760199D01*
X259129Y760181D01*
X259103Y760174D01*
X259077Y760170D01*
X258911Y760115D01*
X258744Y760063D01*
X258720Y760050D01*
X258695Y760042D01*
X258543Y759955D01*
X258390Y759871D01*
X258369Y759854D01*
X258346Y759841D01*
X258093Y759626D01*
X202018Y703551D01*
X202001Y703530D01*
X201980Y703513D01*
X201873Y703375D01*
X201763Y703239D01*
X201750Y703216D01*
X201734Y703195D01*
X201656Y703038D01*
X201574Y702884D01*
X201566Y702858D01*
X201554Y702834D01*
X201509Y702665D01*
X201459Y702498D01*
X201457Y702471D01*
X201450Y702445D01*
X201423Y702115D01*
X201423Y567885D01*
X201425Y567859D01*
X201423Y567832D01*
X201445Y567658D01*
X201463Y567485D01*
X201470Y567459D01*
X201474Y567433D01*
X201529Y567267D01*
X201581Y567100D01*
X201594Y567076D01*
X201602Y567051D01*
X201689Y566899D01*
X201773Y566746D01*
X201790Y566725D01*
X201803Y566702D01*
X202018Y566449D01*
X325149Y443318D01*
X325170Y443301D01*
X325187Y443280D01*
X325325Y443173D01*
X325461Y443063D01*
X325484Y443050D01*
X325505Y443034D01*
X325662Y442956D01*
X325816Y442874D01*
X325842Y442866D01*
X325866Y442854D01*
X326035Y442809D01*
X326202Y442759D01*
X326229Y442757D01*
X326255Y442750D01*
X326585Y442723D01*
X343810Y442723D01*
X345490Y442027D01*
X372177Y415340D01*
X372873Y413660D01*
X372873Y371035D01*
X372875Y371009D01*
X372873Y370982D01*
X372895Y370808D01*
X372913Y370635D01*
X372920Y370609D01*
X372924Y370583D01*
X372979Y370417D01*
X373031Y370250D01*
X373044Y370226D01*
X373052Y370201D01*
X373139Y370049D01*
X373223Y369896D01*
X373240Y369875D01*
X373253Y369852D01*
X373468Y369599D01*
X384877Y358190D01*
X385573Y356510D01*
X385573Y346279D01*
X385575Y346252D01*
X385573Y346226D01*
X385595Y346052D01*
X385613Y345878D01*
X385620Y345853D01*
X385624Y345826D01*
X385680Y345660D01*
X385731Y345493D01*
X385744Y345470D01*
X385752Y345444D01*
X385839Y345293D01*
X385923Y345139D01*
X385940Y345119D01*
X385953Y345096D01*
X386168Y344843D01*
X390507Y340503D01*
X390507Y332027D01*
X390508Y332019D01*
X390507Y332010D01*
X390528Y331816D01*
X390547Y331627D01*
X390549Y331618D01*
X390550Y331609D01*
X390609Y331425D01*
X390665Y331242D01*
X390669Y331234D01*
X390672Y331226D01*
X390765Y331057D01*
X390857Y330888D01*
X390862Y330881D01*
X390867Y330873D01*
X390991Y330726D01*
X391114Y330579D01*
X391121Y330573D01*
X391127Y330566D01*
X391279Y330446D01*
X391428Y330326D01*
X391436Y330322D01*
X391443Y330317D01*
X391616Y330229D01*
X391785Y330141D01*
X391794Y330138D01*
X391802Y330134D01*
X391988Y330082D01*
X392172Y330029D01*
X392181Y330029D01*
X392190Y330026D01*
X392383Y330012D01*
X392574Y329996D01*
X392582Y329997D01*
G37*
%LPC*%
G36*
X345806Y913637D02*
X345806Y913637D01*
X339152Y915420D01*
X333186Y918865D01*
X328315Y923736D01*
X324870Y929702D01*
X323087Y936356D01*
X323087Y943244D01*
X324870Y949898D01*
X328315Y955864D01*
X333186Y960735D01*
X339152Y964180D01*
X345806Y965963D01*
X352694Y965963D01*
X359348Y964180D01*
X365314Y960735D01*
X370185Y955864D01*
X373630Y949898D01*
X375413Y943244D01*
X375413Y936356D01*
X373630Y929702D01*
X370185Y923736D01*
X365314Y918865D01*
X359348Y915420D01*
X352694Y913637D01*
X345806Y913637D01*
G37*
%LPD*%
%LPC*%
G36*
X231988Y389295D02*
X231988Y389295D01*
X231095Y390188D01*
X231095Y422612D01*
X231988Y423505D01*
X264412Y423505D01*
X265305Y422612D01*
X265305Y390188D01*
X264412Y389295D01*
X231988Y389295D01*
G37*
%LPD*%
%LPC*%
G36*
X141988Y389295D02*
X141988Y389295D01*
X141095Y390188D01*
X141095Y422612D01*
X141988Y423505D01*
X174412Y423505D01*
X175305Y422612D01*
X175305Y390188D01*
X174412Y389295D01*
X141988Y389295D01*
G37*
%LPD*%
%LPC*%
G36*
X231988Y554395D02*
X231988Y554395D01*
X231095Y555288D01*
X231095Y587712D01*
X231988Y588605D01*
X264412Y588605D01*
X265305Y587712D01*
X265305Y555288D01*
X264412Y554395D01*
X231988Y554395D01*
G37*
%LPD*%
%LPC*%
G36*
X141988Y554395D02*
X141988Y554395D01*
X141095Y555288D01*
X141095Y587712D01*
X141988Y588605D01*
X174412Y588605D01*
X175305Y587712D01*
X175305Y555288D01*
X174412Y554395D01*
X141988Y554395D01*
G37*
%LPD*%
%LPC*%
G36*
X40388Y757595D02*
X40388Y757595D01*
X39495Y758488D01*
X39495Y790912D01*
X40388Y791805D01*
X72812Y791805D01*
X73705Y790912D01*
X73705Y758488D01*
X72812Y757595D01*
X40388Y757595D01*
G37*
%LPD*%
%LPC*%
G36*
X294388Y389295D02*
X294388Y389295D01*
X293495Y390188D01*
X293495Y422612D01*
X294388Y423505D01*
X326812Y423505D01*
X327705Y422612D01*
X327705Y390188D01*
X326812Y389295D01*
X294388Y389295D01*
G37*
%LPD*%
%LPC*%
G36*
X130388Y757595D02*
X130388Y757595D01*
X129495Y758488D01*
X129495Y790912D01*
X130388Y791805D01*
X162812Y791805D01*
X163705Y790912D01*
X163705Y758488D01*
X162812Y757595D01*
X130388Y757595D01*
G37*
%LPD*%
%LPC*%
G36*
X93306Y156125D02*
X93306Y156125D01*
X89713Y157613D01*
X86951Y160376D01*
X86888Y160487D01*
X86804Y160644D01*
X86790Y160661D01*
X86779Y160681D01*
X86661Y160817D01*
X86547Y160955D01*
X86530Y160969D01*
X86515Y160986D01*
X86374Y161095D01*
X86235Y161208D01*
X86215Y161219D01*
X86197Y161232D01*
X86037Y161312D01*
X85878Y161395D01*
X85857Y161402D01*
X85837Y161412D01*
X85663Y161458D01*
X85492Y161508D01*
X85470Y161510D01*
X85448Y161516D01*
X85117Y161543D01*
X34180Y161543D01*
X34154Y161541D01*
X34127Y161543D01*
X33953Y161521D01*
X33780Y161503D01*
X33754Y161496D01*
X33728Y161492D01*
X33562Y161436D01*
X33395Y161385D01*
X33371Y161372D01*
X33346Y161364D01*
X33194Y161277D01*
X33041Y161193D01*
X33020Y161176D01*
X32997Y161163D01*
X32744Y160948D01*
X28767Y156971D01*
X22033Y156971D01*
X17271Y161733D01*
X17271Y168467D01*
X22033Y173229D01*
X28767Y173229D01*
X32744Y169252D01*
X32765Y169235D01*
X32782Y169214D01*
X32920Y169107D01*
X33056Y168997D01*
X33079Y168984D01*
X33100Y168968D01*
X33257Y168890D01*
X33411Y168808D01*
X33437Y168800D01*
X33461Y168788D01*
X33630Y168743D01*
X33797Y168693D01*
X33824Y168691D01*
X33850Y168684D01*
X34180Y168657D01*
X84455Y168657D01*
X84477Y168659D01*
X84499Y168657D01*
X84676Y168679D01*
X84855Y168697D01*
X84877Y168703D01*
X84899Y168706D01*
X85068Y168762D01*
X85240Y168815D01*
X85260Y168825D01*
X85281Y168832D01*
X85436Y168921D01*
X85594Y169007D01*
X85611Y169021D01*
X85631Y169032D01*
X85766Y169150D01*
X85903Y169264D01*
X85917Y169282D01*
X85934Y169296D01*
X86043Y169438D01*
X86156Y169578D01*
X86166Y169598D01*
X86180Y169616D01*
X86331Y169911D01*
X86963Y171437D01*
X89713Y174187D01*
X93306Y175675D01*
X97194Y175675D01*
X100787Y174187D01*
X103537Y171437D01*
X105025Y167844D01*
X105025Y163956D01*
X103537Y160363D01*
X100787Y157613D01*
X97502Y156253D01*
X97194Y156125D01*
X93306Y156125D01*
G37*
%LPD*%
%LPC*%
G36*
X295083Y518921D02*
X295083Y518921D01*
X290321Y523683D01*
X290321Y530417D01*
X295083Y535179D01*
X301817Y535179D01*
X305794Y531202D01*
X305815Y531185D01*
X305832Y531164D01*
X305970Y531057D01*
X306106Y530947D01*
X306129Y530934D01*
X306150Y530918D01*
X306307Y530840D01*
X306461Y530758D01*
X306487Y530750D01*
X306511Y530738D01*
X306680Y530693D01*
X306847Y530643D01*
X306874Y530641D01*
X306900Y530634D01*
X307230Y530607D01*
X359635Y530607D01*
X359662Y530609D01*
X359689Y530607D01*
X359863Y530629D01*
X360036Y530647D01*
X360062Y530654D01*
X360088Y530658D01*
X360254Y530713D01*
X360421Y530765D01*
X360445Y530778D01*
X360470Y530786D01*
X360621Y530873D01*
X360775Y530957D01*
X360795Y530974D01*
X360819Y530987D01*
X361072Y531202D01*
X362398Y532528D01*
X362415Y532549D01*
X362436Y532566D01*
X362543Y532704D01*
X362653Y532840D01*
X362666Y532863D01*
X362682Y532885D01*
X362760Y533042D01*
X362842Y533196D01*
X362850Y533221D01*
X362862Y533245D01*
X362907Y533415D01*
X362957Y533581D01*
X362959Y533608D01*
X362966Y533634D01*
X362993Y533965D01*
X362993Y534456D01*
X363801Y536406D01*
X365294Y537899D01*
X367244Y538707D01*
X369356Y538707D01*
X371306Y537899D01*
X372799Y536406D01*
X373607Y534456D01*
X373607Y532344D01*
X372799Y530394D01*
X371306Y528901D01*
X369356Y528093D01*
X368865Y528093D01*
X368838Y528091D01*
X368811Y528093D01*
X368637Y528071D01*
X368464Y528053D01*
X368438Y528046D01*
X368412Y528042D01*
X368246Y527987D01*
X368079Y527935D01*
X368055Y527922D01*
X368030Y527914D01*
X367878Y527827D01*
X367725Y527743D01*
X367705Y527726D01*
X367681Y527713D01*
X367428Y527498D01*
X366102Y526172D01*
X363423Y523493D01*
X307230Y523493D01*
X307204Y523491D01*
X307177Y523493D01*
X307003Y523471D01*
X306830Y523453D01*
X306804Y523446D01*
X306778Y523442D01*
X306612Y523387D01*
X306445Y523335D01*
X306421Y523322D01*
X306396Y523314D01*
X306244Y523227D01*
X306091Y523143D01*
X306070Y523126D01*
X306047Y523113D01*
X305794Y522898D01*
X301817Y518921D01*
X295083Y518921D01*
G37*
%LPD*%
%LPC*%
G36*
X169186Y491593D02*
X169186Y491593D01*
X168293Y492486D01*
X168293Y510514D01*
X169186Y511407D01*
X187214Y511407D01*
X188107Y510514D01*
X188107Y492486D01*
X187214Y491593D01*
X169186Y491593D01*
G37*
%LPD*%
%LPC*%
G36*
X169186Y326493D02*
X169186Y326493D01*
X168293Y327386D01*
X168293Y345414D01*
X169186Y346307D01*
X187214Y346307D01*
X188107Y345414D01*
X188107Y327386D01*
X187214Y326493D01*
X169186Y326493D01*
G37*
%LPD*%
%LPC*%
G36*
X341395Y767445D02*
X341395Y767445D01*
X338615Y768597D01*
X336487Y770725D01*
X335335Y773505D01*
X335335Y788595D01*
X336487Y791375D01*
X338615Y793503D01*
X341395Y794655D01*
X344405Y794655D01*
X347185Y793503D01*
X349313Y791375D01*
X350465Y788595D01*
X350465Y773505D01*
X349313Y770725D01*
X347185Y768597D01*
X344405Y767445D01*
X341395Y767445D01*
G37*
%LPD*%
%LPC*%
G36*
X315995Y691245D02*
X315995Y691245D01*
X313215Y692397D01*
X311087Y694525D01*
X309935Y697305D01*
X309935Y712395D01*
X311087Y715175D01*
X313215Y717303D01*
X315995Y718455D01*
X319005Y718455D01*
X321785Y717303D01*
X323913Y715175D01*
X325065Y712395D01*
X325065Y697305D01*
X323913Y694525D01*
X321785Y692397D01*
X319005Y691245D01*
X315995Y691245D01*
G37*
%LPD*%
%LPC*%
G36*
X315995Y767445D02*
X315995Y767445D01*
X313215Y768597D01*
X311087Y770725D01*
X309935Y773505D01*
X309935Y788595D01*
X311087Y791375D01*
X313215Y793503D01*
X315995Y794655D01*
X319005Y794655D01*
X321785Y793503D01*
X323913Y791375D01*
X325065Y788595D01*
X325065Y773505D01*
X323913Y770725D01*
X321785Y768597D01*
X319005Y767445D01*
X315995Y767445D01*
G37*
%LPD*%
%LPC*%
G36*
X341395Y691245D02*
X341395Y691245D01*
X338615Y692397D01*
X336487Y694525D01*
X335335Y697305D01*
X335335Y712395D01*
X336487Y715175D01*
X338615Y717303D01*
X341395Y718455D01*
X344405Y718455D01*
X347185Y717303D01*
X349313Y715175D01*
X350465Y712395D01*
X350465Y697305D01*
X349313Y694525D01*
X347185Y692397D01*
X344405Y691245D01*
X341395Y691245D01*
G37*
%LPD*%
%LPC*%
G36*
X199097Y491593D02*
X199097Y491593D01*
X193293Y497397D01*
X193293Y505603D01*
X199097Y511407D01*
X207303Y511407D01*
X213107Y505603D01*
X213107Y497397D01*
X207303Y491593D01*
X199097Y491593D01*
G37*
%LPD*%
%LPC*%
G36*
X97497Y694793D02*
X97497Y694793D01*
X91693Y700597D01*
X91693Y708803D01*
X97497Y714607D01*
X105703Y714607D01*
X111507Y708803D01*
X111507Y700597D01*
X105703Y694793D01*
X97497Y694793D01*
G37*
%LPD*%
%LPC*%
G36*
X199097Y326493D02*
X199097Y326493D01*
X193293Y332297D01*
X193293Y340503D01*
X199097Y346307D01*
X207303Y346307D01*
X213107Y340503D01*
X213107Y332297D01*
X207303Y326493D01*
X199097Y326493D01*
G37*
%LPD*%
%LPC*%
G36*
X237197Y885293D02*
X237197Y885293D01*
X231393Y891097D01*
X231393Y899303D01*
X237197Y905107D01*
X245403Y905107D01*
X251207Y899303D01*
X251207Y891097D01*
X245403Y885293D01*
X237197Y885293D01*
G37*
%LPD*%
%LPC*%
G36*
X351497Y326493D02*
X351497Y326493D01*
X345693Y332297D01*
X345693Y340503D01*
X351497Y346307D01*
X359703Y346307D01*
X365507Y340503D01*
X365507Y332297D01*
X359703Y326493D01*
X351497Y326493D01*
G37*
%LPD*%
%LPC*%
G36*
X93306Y241125D02*
X93306Y241125D01*
X89713Y242613D01*
X86963Y245363D01*
X85475Y248956D01*
X85475Y252844D01*
X86963Y256437D01*
X89713Y259187D01*
X93306Y260675D01*
X97194Y260675D01*
X100787Y259187D01*
X103537Y256437D01*
X105025Y252844D01*
X105025Y248956D01*
X103537Y245363D01*
X100787Y242613D01*
X97194Y241125D01*
X93306Y241125D01*
G37*
%LPD*%
%LPC*%
G36*
X385406Y241125D02*
X385406Y241125D01*
X381813Y242613D01*
X379063Y245363D01*
X377575Y248956D01*
X377575Y252844D01*
X379063Y256437D01*
X381813Y259187D01*
X385406Y260675D01*
X389294Y260675D01*
X392887Y259187D01*
X395637Y256437D01*
X397125Y252844D01*
X397125Y248956D01*
X395637Y245363D01*
X392887Y242613D01*
X389294Y241125D01*
X385406Y241125D01*
G37*
%LPD*%
%LPC*%
G36*
X93306Y16425D02*
X93306Y16425D01*
X89713Y17913D01*
X86963Y20663D01*
X85475Y24256D01*
X85475Y28144D01*
X86963Y31737D01*
X89713Y34487D01*
X93306Y35975D01*
X97194Y35975D01*
X100787Y34487D01*
X103537Y31737D01*
X105025Y28144D01*
X105025Y24256D01*
X103537Y20663D01*
X100787Y17913D01*
X97194Y16425D01*
X93306Y16425D01*
G37*
%LPD*%
%LPC*%
G36*
X74256Y526725D02*
X74256Y526725D01*
X70663Y528213D01*
X67913Y530963D01*
X66425Y534556D01*
X66425Y538444D01*
X67913Y542037D01*
X70663Y544787D01*
X74256Y546275D01*
X78144Y546275D01*
X81737Y544787D01*
X84487Y542037D01*
X85975Y538444D01*
X85975Y534556D01*
X84487Y530963D01*
X81737Y528213D01*
X78144Y526725D01*
X74256Y526725D01*
G37*
%LPD*%
%LPC*%
G36*
X239356Y241125D02*
X239356Y241125D01*
X235763Y242613D01*
X233013Y245363D01*
X231525Y248956D01*
X231525Y252844D01*
X233013Y256437D01*
X235763Y259187D01*
X239356Y260675D01*
X243244Y260675D01*
X246837Y259187D01*
X249587Y256437D01*
X251075Y252844D01*
X251075Y248956D01*
X249587Y245363D01*
X246837Y242613D01*
X243244Y241125D01*
X239356Y241125D01*
G37*
%LPD*%
%LPC*%
G36*
X429856Y611725D02*
X429856Y611725D01*
X426263Y613213D01*
X423513Y615963D01*
X422025Y619556D01*
X422025Y623444D01*
X423513Y627037D01*
X426263Y629787D01*
X429856Y631275D01*
X433744Y631275D01*
X437337Y629787D01*
X440087Y627037D01*
X441575Y623444D01*
X441575Y619556D01*
X440087Y615963D01*
X437337Y613213D01*
X433744Y611725D01*
X429856Y611725D01*
G37*
%LPD*%
%LPC*%
G36*
X74256Y611725D02*
X74256Y611725D01*
X70663Y613213D01*
X67913Y615963D01*
X66425Y619556D01*
X66425Y623444D01*
X67913Y627037D01*
X70663Y629787D01*
X74256Y631275D01*
X78144Y631275D01*
X81737Y629787D01*
X84487Y627037D01*
X85975Y623444D01*
X85975Y619556D01*
X84487Y615963D01*
X81737Y613213D01*
X78144Y611725D01*
X74256Y611725D01*
G37*
%LPD*%
%LPC*%
G36*
X429856Y526725D02*
X429856Y526725D01*
X426263Y528213D01*
X423513Y530963D01*
X422025Y534556D01*
X422025Y538444D01*
X423513Y542037D01*
X426263Y544787D01*
X429856Y546275D01*
X433744Y546275D01*
X437337Y544787D01*
X440087Y542037D01*
X441575Y538444D01*
X441575Y534556D01*
X440087Y530963D01*
X437337Y528213D01*
X433744Y526725D01*
X429856Y526725D01*
G37*
%LPD*%
%LPC*%
G36*
X385406Y16425D02*
X385406Y16425D01*
X381813Y17913D01*
X379063Y20663D01*
X377575Y24256D01*
X377575Y28144D01*
X379063Y31737D01*
X381813Y34487D01*
X385406Y35975D01*
X389294Y35975D01*
X392887Y34487D01*
X395637Y31737D01*
X397125Y28144D01*
X397125Y24256D01*
X395637Y20663D01*
X392887Y17913D01*
X389294Y16425D01*
X385406Y16425D01*
G37*
%LPD*%
%LPC*%
G36*
X239356Y16425D02*
X239356Y16425D01*
X235763Y17913D01*
X233013Y20663D01*
X231525Y24256D01*
X231525Y28144D01*
X233013Y31737D01*
X235763Y34487D01*
X239356Y35975D01*
X243244Y35975D01*
X246837Y34487D01*
X249587Y31737D01*
X251075Y28144D01*
X251075Y24256D01*
X249587Y20663D01*
X246837Y17913D01*
X243244Y16425D01*
X239356Y16425D01*
G37*
%LPD*%
%LPC*%
G36*
X429856Y916525D02*
X429856Y916525D01*
X426263Y918013D01*
X423513Y920763D01*
X422025Y924356D01*
X422025Y928244D01*
X423513Y931837D01*
X426263Y934587D01*
X429856Y936075D01*
X433744Y936075D01*
X437337Y934587D01*
X440087Y931837D01*
X441575Y928244D01*
X441575Y924356D01*
X440087Y920763D01*
X437337Y918013D01*
X433744Y916525D01*
X429856Y916525D01*
G37*
%LPD*%
%LPC*%
G36*
X429856Y831525D02*
X429856Y831525D01*
X426263Y833013D01*
X423513Y835763D01*
X422025Y839356D01*
X422025Y843244D01*
X423513Y846837D01*
X426263Y849587D01*
X429856Y851075D01*
X433744Y851075D01*
X437337Y849587D01*
X440087Y846837D01*
X441575Y843244D01*
X441575Y839356D01*
X440087Y835763D01*
X437337Y833013D01*
X436481Y832659D01*
X433744Y831525D01*
X429856Y831525D01*
G37*
%LPD*%
%LPC*%
G36*
X74256Y361625D02*
X74256Y361625D01*
X70663Y363113D01*
X67913Y365863D01*
X66425Y369456D01*
X66425Y373344D01*
X67913Y376937D01*
X70663Y379687D01*
X71435Y380006D01*
X74256Y381175D01*
X78144Y381175D01*
X81737Y379687D01*
X84487Y376937D01*
X85975Y373344D01*
X85975Y369456D01*
X84487Y365863D01*
X81737Y363113D01*
X78144Y361625D01*
X74256Y361625D01*
G37*
%LPD*%
%LPC*%
G36*
X385406Y101425D02*
X385406Y101425D01*
X381813Y102913D01*
X379063Y105663D01*
X377575Y109256D01*
X377575Y113144D01*
X379063Y116737D01*
X381813Y119487D01*
X383067Y120006D01*
X383068Y120006D01*
X385406Y120975D01*
X389294Y120975D01*
X392887Y119487D01*
X395637Y116737D01*
X397125Y113144D01*
X397125Y109256D01*
X395637Y105663D01*
X392887Y102913D01*
X389294Y101425D01*
X385406Y101425D01*
G37*
%LPD*%
%LPC*%
G36*
X239356Y101425D02*
X239356Y101425D01*
X235763Y102913D01*
X233013Y105663D01*
X231525Y109256D01*
X231525Y113144D01*
X233013Y116737D01*
X235763Y119487D01*
X237017Y120006D01*
X237018Y120006D01*
X239356Y120975D01*
X243244Y120975D01*
X246837Y119487D01*
X249587Y116737D01*
X251075Y113144D01*
X251075Y109256D01*
X249587Y105663D01*
X246837Y102913D01*
X243244Y101425D01*
X239356Y101425D01*
G37*
%LPD*%
%LPC*%
G36*
X93306Y101425D02*
X93306Y101425D01*
X89713Y102913D01*
X86963Y105663D01*
X85475Y109256D01*
X85475Y113144D01*
X86963Y116737D01*
X89713Y119487D01*
X90967Y120006D01*
X90968Y120006D01*
X93306Y120975D01*
X97194Y120975D01*
X100787Y119487D01*
X103537Y116737D01*
X105025Y113144D01*
X105025Y109256D01*
X103537Y105663D01*
X100787Y102913D01*
X97194Y101425D01*
X93306Y101425D01*
G37*
%LPD*%
%LPC*%
G36*
X74256Y446625D02*
X74256Y446625D01*
X70663Y448113D01*
X67913Y450863D01*
X66425Y454456D01*
X66425Y458344D01*
X67913Y461937D01*
X70663Y464687D01*
X72189Y465319D01*
X74256Y466175D01*
X78144Y466175D01*
X81737Y464687D01*
X84487Y461937D01*
X85975Y458344D01*
X85975Y454456D01*
X84487Y450863D01*
X81737Y448113D01*
X78377Y446721D01*
X78376Y446721D01*
X78144Y446625D01*
X74256Y446625D01*
G37*
%LPD*%
%LPC*%
G36*
X396683Y645921D02*
X396683Y645921D01*
X391921Y650683D01*
X391921Y657417D01*
X396683Y662179D01*
X403417Y662179D01*
X408179Y657417D01*
X408179Y650683D01*
X403417Y645921D01*
X396683Y645921D01*
G37*
%LPD*%
%LPC*%
G36*
X447483Y645921D02*
X447483Y645921D01*
X442721Y650683D01*
X442721Y657417D01*
X447483Y662179D01*
X454217Y662179D01*
X458979Y657417D01*
X458979Y650683D01*
X454217Y645921D01*
X447483Y645921D01*
G37*
%LPD*%
%LPC*%
G36*
X345883Y633221D02*
X345883Y633221D01*
X341121Y637983D01*
X341121Y644717D01*
X345883Y649479D01*
X352617Y649479D01*
X357379Y644717D01*
X357379Y637983D01*
X352617Y633221D01*
X345883Y633221D01*
G37*
%LPD*%
%LPC*%
G36*
X269683Y664971D02*
X269683Y664971D01*
X264921Y669733D01*
X264921Y676467D01*
X269683Y681229D01*
X276417Y681229D01*
X281179Y676467D01*
X281179Y669733D01*
X276417Y664971D01*
X269683Y664971D01*
G37*
%LPD*%
%LPC*%
G36*
X345883Y664971D02*
X345883Y664971D01*
X341121Y669733D01*
X341121Y676467D01*
X345883Y681229D01*
X352617Y681229D01*
X357379Y676467D01*
X357379Y669733D01*
X352617Y664971D01*
X345883Y664971D01*
G37*
%LPD*%
%LPC*%
G36*
X295083Y595121D02*
X295083Y595121D01*
X290321Y599883D01*
X290321Y606617D01*
X295083Y611379D01*
X301817Y611379D01*
X306579Y606617D01*
X306579Y599883D01*
X301817Y595121D01*
X295083Y595121D01*
G37*
%LPD*%
%LPC*%
G36*
X383983Y671321D02*
X383983Y671321D01*
X379221Y676083D01*
X379221Y682817D01*
X383983Y687579D01*
X390717Y687579D01*
X395479Y682817D01*
X395479Y676083D01*
X390717Y671321D01*
X383983Y671321D01*
G37*
%LPD*%
%LPC*%
G36*
X187133Y855471D02*
X187133Y855471D01*
X182371Y860233D01*
X182371Y866967D01*
X187133Y871729D01*
X193867Y871729D01*
X198629Y866967D01*
X198629Y860233D01*
X193867Y855471D01*
X187133Y855471D01*
G37*
%LPD*%
%LPC*%
G36*
X345883Y557021D02*
X345883Y557021D01*
X341121Y561783D01*
X341121Y568517D01*
X345883Y573279D01*
X352617Y573279D01*
X357379Y568517D01*
X357379Y561783D01*
X352617Y557021D01*
X345883Y557021D01*
G37*
%LPD*%
%LPC*%
G36*
X263333Y855471D02*
X263333Y855471D01*
X258571Y860233D01*
X258571Y866967D01*
X263333Y871729D01*
X270067Y871729D01*
X274829Y866967D01*
X274829Y860233D01*
X270067Y855471D01*
X263333Y855471D01*
G37*
%LPD*%
%LPC*%
G36*
X187133Y830071D02*
X187133Y830071D01*
X182371Y834833D01*
X182371Y841567D01*
X187133Y846329D01*
X193867Y846329D01*
X198629Y841567D01*
X198629Y834833D01*
X193867Y830071D01*
X187133Y830071D01*
G37*
%LPD*%
%LPC*%
G36*
X263333Y830071D02*
X263333Y830071D01*
X258571Y834833D01*
X258571Y841567D01*
X263333Y846329D01*
X270067Y846329D01*
X274829Y841567D01*
X274829Y834833D01*
X270067Y830071D01*
X263333Y830071D01*
G37*
%LPD*%
%LPC*%
G36*
X174433Y785621D02*
X174433Y785621D01*
X169671Y790383D01*
X169671Y797117D01*
X174433Y801879D01*
X181167Y801879D01*
X185929Y797117D01*
X185929Y790383D01*
X181167Y785621D01*
X174433Y785621D01*
G37*
%LPD*%
%LPC*%
G36*
X22033Y93471D02*
X22033Y93471D01*
X17271Y98233D01*
X17271Y104967D01*
X22033Y109729D01*
X28767Y109729D01*
X33529Y104967D01*
X33529Y98233D01*
X28767Y93471D01*
X22033Y93471D01*
G37*
%LPD*%
%LPC*%
G36*
X22033Y264921D02*
X22033Y264921D01*
X17271Y269683D01*
X17271Y276417D01*
X22033Y281179D01*
X28767Y281179D01*
X33529Y276417D01*
X33529Y269683D01*
X28767Y264921D01*
X22033Y264921D01*
G37*
%LPD*%
%LPC*%
G36*
X174433Y283971D02*
X174433Y283971D01*
X169671Y288733D01*
X169671Y295467D01*
X174433Y300229D01*
X181167Y300229D01*
X185929Y295467D01*
X185929Y288733D01*
X181167Y283971D01*
X174433Y283971D01*
G37*
%LPD*%
%LPC*%
G36*
X22033Y341121D02*
X22033Y341121D01*
X17271Y345883D01*
X17271Y352617D01*
X22033Y357379D01*
X28767Y357379D01*
X33529Y352617D01*
X33529Y345883D01*
X28767Y341121D01*
X22033Y341121D01*
G37*
%LPD*%
%LPC*%
G36*
X314133Y283971D02*
X314133Y283971D01*
X309371Y288733D01*
X309371Y295467D01*
X314133Y300229D01*
X320867Y300229D01*
X325629Y295467D01*
X325629Y288733D01*
X320867Y283971D01*
X314133Y283971D01*
G37*
%LPD*%
%LPC*%
G36*
X295083Y804671D02*
X295083Y804671D01*
X290321Y809433D01*
X290321Y816167D01*
X295083Y820929D01*
X301817Y820929D01*
X306579Y816167D01*
X306579Y809433D01*
X301817Y804671D01*
X295083Y804671D01*
G37*
%LPD*%
%LPC*%
G36*
X371283Y804671D02*
X371283Y804671D01*
X366521Y809433D01*
X366521Y816167D01*
X371283Y820929D01*
X378017Y820929D01*
X382779Y816167D01*
X382779Y809433D01*
X378017Y804671D01*
X371283Y804671D01*
G37*
%LPD*%
%LPC*%
G36*
X276033Y303021D02*
X276033Y303021D01*
X271271Y307783D01*
X271271Y314517D01*
X276033Y319279D01*
X282767Y319279D01*
X287529Y314517D01*
X287529Y307783D01*
X282767Y303021D01*
X276033Y303021D01*
G37*
%LPD*%
%LPC*%
G36*
X199833Y303021D02*
X199833Y303021D01*
X195071Y307783D01*
X195071Y314517D01*
X199833Y319279D01*
X206567Y319279D01*
X211329Y314517D01*
X211329Y307783D01*
X206567Y303021D01*
X199833Y303021D01*
G37*
%LPD*%
%LPC*%
G36*
X263333Y804671D02*
X263333Y804671D01*
X258571Y809433D01*
X258571Y816167D01*
X263333Y820929D01*
X270067Y820929D01*
X274829Y816167D01*
X274829Y809433D01*
X270067Y804671D01*
X263333Y804671D01*
G37*
%LPD*%
%LPC*%
G36*
X187133Y804671D02*
X187133Y804671D01*
X182371Y809433D01*
X182371Y816167D01*
X187133Y820929D01*
X193867Y820929D01*
X198629Y816167D01*
X198629Y809433D01*
X193867Y804671D01*
X187133Y804671D01*
G37*
%LPD*%
%LPC*%
G36*
X27939Y935989D02*
X27939Y935989D01*
X27939Y943611D01*
X33820Y943611D01*
X35399Y943361D01*
X36920Y942866D01*
X38345Y942140D01*
X39639Y941200D01*
X40770Y940069D01*
X41710Y938775D01*
X42436Y937350D01*
X42879Y935989D01*
X27939Y935989D01*
G37*
%LPD*%
%LPC*%
G36*
X439721Y129539D02*
X439721Y129539D01*
X440164Y130900D01*
X440890Y132325D01*
X441830Y133619D01*
X442961Y134750D01*
X444255Y135690D01*
X445680Y136416D01*
X447201Y136911D01*
X448780Y137161D01*
X454661Y137161D01*
X454661Y129539D01*
X439721Y129539D01*
G37*
%LPD*%
%LPC*%
G36*
X27939Y923289D02*
X27939Y923289D01*
X27939Y930911D01*
X42879Y930911D01*
X42436Y929550D01*
X41710Y928125D01*
X40770Y926831D01*
X39639Y925700D01*
X38345Y924760D01*
X36920Y924034D01*
X35399Y923539D01*
X33820Y923289D01*
X27939Y923289D01*
G37*
%LPD*%
%LPC*%
G36*
X448780Y116839D02*
X448780Y116839D01*
X447201Y117089D01*
X445680Y117584D01*
X444255Y118310D01*
X442961Y119250D01*
X441830Y120381D01*
X440890Y121675D01*
X440164Y123100D01*
X439721Y124461D01*
X454661Y124461D01*
X454661Y116839D01*
X448780Y116839D01*
G37*
%LPD*%
%LPC*%
G36*
X359719Y783081D02*
X359719Y783081D01*
X359719Y787765D01*
X359931Y789099D01*
X360348Y790384D01*
X360961Y791587D01*
X361755Y792680D01*
X362710Y793635D01*
X363803Y794429D01*
X365006Y795042D01*
X366269Y795452D01*
X366269Y783081D01*
X359719Y783081D01*
G37*
%LPD*%
%LPC*%
G36*
X365006Y767058D02*
X365006Y767058D01*
X363803Y767671D01*
X362710Y768465D01*
X361755Y769420D01*
X360961Y770513D01*
X360348Y771716D01*
X359931Y773001D01*
X359719Y774335D01*
X359719Y779019D01*
X366269Y779019D01*
X366269Y766648D01*
X365006Y767058D01*
G37*
%LPD*%
%LPC*%
G36*
X230949Y339149D02*
X230949Y339149D01*
X230949Y347323D01*
X232724Y347323D01*
X239123Y340924D01*
X239123Y339149D01*
X230949Y339149D01*
G37*
%LPD*%
%LPC*%
G36*
X230949Y504249D02*
X230949Y504249D01*
X230949Y512423D01*
X232724Y512423D01*
X239123Y506024D01*
X239123Y504249D01*
X230949Y504249D01*
G37*
%LPD*%
%LPC*%
G36*
X230949Y490577D02*
X230949Y490577D01*
X230949Y498751D01*
X239123Y498751D01*
X239123Y496976D01*
X232724Y490577D01*
X230949Y490577D01*
G37*
%LPD*%
%LPC*%
G36*
X217277Y339149D02*
X217277Y339149D01*
X217277Y340924D01*
X223676Y347323D01*
X225451Y347323D01*
X225451Y339149D01*
X217277Y339149D01*
G37*
%LPD*%
%LPC*%
G36*
X217277Y504249D02*
X217277Y504249D01*
X217277Y506024D01*
X223676Y512423D01*
X225451Y512423D01*
X225451Y504249D01*
X217277Y504249D01*
G37*
%LPD*%
%LPC*%
G36*
X230949Y325477D02*
X230949Y325477D01*
X230949Y333651D01*
X239123Y333651D01*
X239123Y331876D01*
X232724Y325477D01*
X230949Y325477D01*
G37*
%LPD*%
%LPC*%
G36*
X223676Y490577D02*
X223676Y490577D01*
X217277Y496976D01*
X217277Y498751D01*
X225451Y498751D01*
X225451Y490577D01*
X223676Y490577D01*
G37*
%LPD*%
%LPC*%
G36*
X223676Y325477D02*
X223676Y325477D01*
X217277Y331876D01*
X217277Y333651D01*
X225451Y333651D01*
X225451Y325477D01*
X223676Y325477D01*
G37*
%LPD*%
%LPC*%
G36*
X376897Y143949D02*
X376897Y143949D01*
X377350Y145342D01*
X378121Y146856D01*
X379119Y148230D01*
X380320Y149431D01*
X381694Y150429D01*
X382896Y151041D01*
X383027Y151125D01*
X383161Y151203D01*
X383196Y151234D01*
X383235Y151259D01*
X383347Y151367D01*
X383463Y151470D01*
X383491Y151507D01*
X383524Y151539D01*
X383613Y151667D01*
X383706Y151791D01*
X383724Y151827D01*
X383782Y151809D01*
X383919Y151758D01*
X383973Y151749D01*
X384026Y151732D01*
X384172Y151717D01*
X384316Y151693D01*
X384372Y151696D01*
X384427Y151690D01*
X384601Y151703D01*
X384601Y143949D01*
X376897Y143949D01*
G37*
%LPD*%
%LPC*%
G36*
X434549Y509249D02*
X434549Y509249D01*
X434549Y516953D01*
X435942Y516500D01*
X437456Y515729D01*
X438830Y514731D01*
X440031Y513530D01*
X441029Y512156D01*
X441800Y510642D01*
X442253Y509249D01*
X434549Y509249D01*
G37*
%LPD*%
%LPC*%
G36*
X78949Y344149D02*
X78949Y344149D01*
X78949Y351853D01*
X80342Y351400D01*
X81856Y350629D01*
X83230Y349631D01*
X84431Y348430D01*
X85429Y347056D01*
X86200Y345542D01*
X86653Y344149D01*
X78949Y344149D01*
G37*
%LPD*%
%LPC*%
G36*
X244049Y143949D02*
X244049Y143949D01*
X244049Y151653D01*
X245442Y151200D01*
X246956Y150429D01*
X248330Y149431D01*
X249531Y148230D01*
X250529Y146856D01*
X251300Y145342D01*
X251753Y143949D01*
X244049Y143949D01*
G37*
%LPD*%
%LPC*%
G36*
X97999Y143949D02*
X97999Y143949D01*
X97999Y151653D01*
X99392Y151200D01*
X100906Y150429D01*
X102280Y149431D01*
X103481Y148230D01*
X104479Y146856D01*
X105250Y145342D01*
X105703Y143949D01*
X97999Y143949D01*
G37*
%LPD*%
%LPC*%
G36*
X434549Y814049D02*
X434549Y814049D01*
X434549Y821753D01*
X435942Y821300D01*
X437456Y820529D01*
X438830Y819531D01*
X440031Y818330D01*
X441029Y816956D01*
X441800Y815442D01*
X442253Y814049D01*
X434549Y814049D01*
G37*
%LPD*%
%LPC*%
G36*
X390099Y143949D02*
X390099Y143949D01*
X390099Y151653D01*
X391492Y151200D01*
X393006Y150429D01*
X394380Y149431D01*
X395581Y148230D01*
X396579Y146856D01*
X397350Y145342D01*
X397803Y143949D01*
X390099Y143949D01*
G37*
%LPD*%
%LPC*%
G36*
X78949Y509249D02*
X78949Y509249D01*
X78949Y516953D01*
X80342Y516500D01*
X81856Y515729D01*
X83230Y514731D01*
X84431Y513530D01*
X85429Y512156D01*
X86200Y510642D01*
X86653Y509249D01*
X78949Y509249D01*
G37*
%LPD*%
%LPC*%
G36*
X244049Y283649D02*
X244049Y283649D01*
X244049Y291353D01*
X245442Y290900D01*
X246956Y290129D01*
X248330Y289131D01*
X249531Y287930D01*
X250529Y286556D01*
X251300Y285042D01*
X251753Y283649D01*
X244049Y283649D01*
G37*
%LPD*%
%LPC*%
G36*
X390099Y283649D02*
X390099Y283649D01*
X390099Y291353D01*
X391492Y290900D01*
X393006Y290129D01*
X394380Y289131D01*
X395581Y287930D01*
X396579Y286556D01*
X397350Y285042D01*
X397803Y283649D01*
X390099Y283649D01*
G37*
%LPD*%
%LPC*%
G36*
X97999Y283649D02*
X97999Y283649D01*
X97999Y291353D01*
X99392Y290900D01*
X100906Y290129D01*
X102280Y289131D01*
X103481Y287930D01*
X104479Y286556D01*
X105250Y285042D01*
X105703Y283649D01*
X97999Y283649D01*
G37*
%LPD*%
%LPC*%
G36*
X376897Y283649D02*
X376897Y283649D01*
X377350Y285042D01*
X378121Y286556D01*
X379119Y287930D01*
X380320Y289131D01*
X381694Y290129D01*
X383208Y290900D01*
X384601Y291353D01*
X384601Y283649D01*
X376897Y283649D01*
G37*
%LPD*%
%LPC*%
G36*
X230847Y283649D02*
X230847Y283649D01*
X231300Y285042D01*
X232071Y286556D01*
X233069Y287930D01*
X234270Y289131D01*
X235644Y290129D01*
X237158Y290900D01*
X238551Y291353D01*
X238551Y283649D01*
X230847Y283649D01*
G37*
%LPD*%
%LPC*%
G36*
X84797Y283649D02*
X84797Y283649D01*
X85250Y285042D01*
X86021Y286556D01*
X87019Y287930D01*
X88220Y289131D01*
X89594Y290129D01*
X91108Y290900D01*
X92501Y291353D01*
X92501Y283649D01*
X84797Y283649D01*
G37*
%LPD*%
%LPC*%
G36*
X65747Y509249D02*
X65747Y509249D01*
X66200Y510642D01*
X66971Y512156D01*
X67969Y513530D01*
X69170Y514731D01*
X70544Y515729D01*
X72058Y516500D01*
X73451Y516953D01*
X73451Y509249D01*
X65747Y509249D01*
G37*
%LPD*%
%LPC*%
G36*
X65747Y344149D02*
X65747Y344149D01*
X66200Y345542D01*
X66971Y347056D01*
X67969Y348430D01*
X69170Y349631D01*
X70544Y350629D01*
X72058Y351400D01*
X73451Y351853D01*
X73451Y344149D01*
X65747Y344149D01*
G37*
%LPD*%
%LPC*%
G36*
X434549Y503751D02*
X434549Y503751D01*
X442253Y503751D01*
X441800Y502358D01*
X441029Y500844D01*
X440031Y499470D01*
X438830Y498269D01*
X437456Y497271D01*
X435942Y496500D01*
X434549Y496047D01*
X434549Y503751D01*
G37*
%LPD*%
%LPC*%
G36*
X390099Y278151D02*
X390099Y278151D01*
X397803Y278151D01*
X397350Y276758D01*
X396579Y275244D01*
X395581Y273870D01*
X394380Y272669D01*
X393006Y271671D01*
X391492Y270900D01*
X390099Y270447D01*
X390099Y278151D01*
G37*
%LPD*%
%LPC*%
G36*
X97999Y138451D02*
X97999Y138451D01*
X105703Y138451D01*
X105250Y137058D01*
X104479Y135544D01*
X103481Y134170D01*
X102280Y132969D01*
X100906Y131971D01*
X99392Y131200D01*
X97999Y130747D01*
X97999Y138451D01*
G37*
%LPD*%
%LPC*%
G36*
X97999Y278151D02*
X97999Y278151D01*
X105703Y278151D01*
X105250Y276758D01*
X104479Y275244D01*
X103481Y273870D01*
X102280Y272669D01*
X100906Y271671D01*
X99392Y270900D01*
X97999Y270447D01*
X97999Y278151D01*
G37*
%LPD*%
%LPC*%
G36*
X244049Y278151D02*
X244049Y278151D01*
X251753Y278151D01*
X251300Y276758D01*
X250529Y275244D01*
X249531Y273870D01*
X248330Y272669D01*
X246956Y271671D01*
X245442Y270900D01*
X244049Y270447D01*
X244049Y278151D01*
G37*
%LPD*%
%LPC*%
G36*
X244049Y138451D02*
X244049Y138451D01*
X251753Y138451D01*
X251300Y137058D01*
X250529Y135544D01*
X249531Y134170D01*
X248330Y132969D01*
X246956Y131971D01*
X245442Y131200D01*
X244049Y130747D01*
X244049Y138451D01*
G37*
%LPD*%
%LPC*%
G36*
X421347Y509249D02*
X421347Y509249D01*
X421800Y510642D01*
X422571Y512156D01*
X423569Y513530D01*
X424770Y514731D01*
X426144Y515729D01*
X427658Y516500D01*
X429051Y516953D01*
X429051Y509249D01*
X421347Y509249D01*
G37*
%LPD*%
%LPC*%
G36*
X78949Y338651D02*
X78949Y338651D01*
X86653Y338651D01*
X86200Y337258D01*
X85429Y335744D01*
X84431Y334370D01*
X83230Y333169D01*
X81856Y332171D01*
X80342Y331400D01*
X78949Y330947D01*
X78949Y338651D01*
G37*
%LPD*%
%LPC*%
G36*
X390099Y138451D02*
X390099Y138451D01*
X397803Y138451D01*
X397350Y137058D01*
X396579Y135544D01*
X395581Y134170D01*
X394380Y132969D01*
X393006Y131971D01*
X391492Y131200D01*
X390099Y130747D01*
X390099Y138451D01*
G37*
%LPD*%
%LPC*%
G36*
X84797Y143949D02*
X84797Y143949D01*
X85250Y145342D01*
X86021Y146856D01*
X87019Y148230D01*
X88220Y149431D01*
X89594Y150429D01*
X91108Y151200D01*
X92501Y151653D01*
X92501Y143949D01*
X84797Y143949D01*
G37*
%LPD*%
%LPC*%
G36*
X421347Y814049D02*
X421347Y814049D01*
X421800Y815442D01*
X422571Y816956D01*
X423569Y818330D01*
X424770Y819531D01*
X426144Y820529D01*
X427658Y821300D01*
X429051Y821753D01*
X429051Y814049D01*
X421347Y814049D01*
G37*
%LPD*%
%LPC*%
G36*
X230847Y143949D02*
X230847Y143949D01*
X231300Y145342D01*
X232071Y146856D01*
X233069Y148230D01*
X234270Y149431D01*
X235644Y150429D01*
X237158Y151200D01*
X238551Y151653D01*
X238551Y143949D01*
X230847Y143949D01*
G37*
%LPD*%
%LPC*%
G36*
X78949Y503751D02*
X78949Y503751D01*
X86653Y503751D01*
X86200Y502358D01*
X85429Y500844D01*
X84431Y499470D01*
X83230Y498269D01*
X81856Y497271D01*
X80342Y496500D01*
X78949Y496047D01*
X78949Y503751D01*
G37*
%LPD*%
%LPC*%
G36*
X434549Y808551D02*
X434549Y808551D01*
X442253Y808551D01*
X441800Y807158D01*
X441029Y805644D01*
X440031Y804270D01*
X438830Y803069D01*
X437456Y802071D01*
X435942Y801300D01*
X434549Y800847D01*
X434549Y808551D01*
G37*
%LPD*%
%LPC*%
G36*
X72058Y331400D02*
X72058Y331400D01*
X70544Y332171D01*
X69170Y333169D01*
X67969Y334370D01*
X66971Y335744D01*
X66200Y337258D01*
X65747Y338651D01*
X73451Y338651D01*
X73451Y330947D01*
X72058Y331400D01*
G37*
%LPD*%
%LPC*%
G36*
X91108Y131200D02*
X91108Y131200D01*
X89594Y131971D01*
X88220Y132969D01*
X87019Y134170D01*
X86021Y135544D01*
X85250Y137058D01*
X84797Y138451D01*
X92501Y138451D01*
X92501Y130747D01*
X91108Y131200D01*
G37*
%LPD*%
%LPC*%
G36*
X237158Y131200D02*
X237158Y131200D01*
X235644Y131971D01*
X234270Y132969D01*
X233069Y134170D01*
X232071Y135544D01*
X231300Y137058D01*
X230847Y138451D01*
X238551Y138451D01*
X238551Y130747D01*
X237158Y131200D01*
G37*
%LPD*%
%LPC*%
G36*
X427658Y801300D02*
X427658Y801300D01*
X426144Y802071D01*
X424770Y803069D01*
X423569Y804270D01*
X422571Y805644D01*
X421800Y807158D01*
X421347Y808551D01*
X429051Y808551D01*
X429051Y800847D01*
X427658Y801300D01*
G37*
%LPD*%
%LPC*%
G36*
X383208Y131200D02*
X383208Y131200D01*
X381694Y131971D01*
X380320Y132969D01*
X379119Y134170D01*
X378121Y135544D01*
X377350Y137058D01*
X376897Y138451D01*
X384601Y138451D01*
X384601Y130747D01*
X383208Y131200D01*
G37*
%LPD*%
%LPC*%
G36*
X237158Y270900D02*
X237158Y270900D01*
X235644Y271671D01*
X234270Y272669D01*
X233069Y273870D01*
X232071Y275244D01*
X231300Y276758D01*
X230847Y278151D01*
X238551Y278151D01*
X238551Y270447D01*
X237158Y270900D01*
G37*
%LPD*%
%LPC*%
G36*
X91108Y270900D02*
X91108Y270900D01*
X89594Y271671D01*
X88220Y272669D01*
X87019Y273870D01*
X86021Y275244D01*
X85250Y276758D01*
X84797Y278151D01*
X92501Y278151D01*
X92501Y270447D01*
X91108Y270900D01*
G37*
%LPD*%
%LPC*%
G36*
X383208Y270900D02*
X383208Y270900D01*
X381694Y271671D01*
X380320Y272669D01*
X379119Y273870D01*
X378121Y275244D01*
X377350Y276758D01*
X376897Y278151D01*
X384601Y278151D01*
X384601Y270447D01*
X383208Y270900D01*
G37*
%LPD*%
%LPC*%
G36*
X72058Y496500D02*
X72058Y496500D01*
X70544Y497271D01*
X69170Y498269D01*
X67969Y499470D01*
X66971Y500844D01*
X66200Y502358D01*
X65747Y503751D01*
X73451Y503751D01*
X73451Y496047D01*
X72058Y496500D01*
G37*
%LPD*%
%LPC*%
G36*
X427658Y496500D02*
X427658Y496500D01*
X426144Y497271D01*
X424770Y498269D01*
X423569Y499470D01*
X422571Y500844D01*
X421800Y502358D01*
X421347Y503751D01*
X429051Y503751D01*
X429051Y496047D01*
X427658Y496500D01*
G37*
%LPD*%
%LPC*%
G36*
X402081Y770381D02*
X402081Y770381D01*
X402081Y777495D01*
X403838Y777495D01*
X409195Y772138D01*
X409195Y770381D01*
X402081Y770381D01*
G37*
%LPD*%
%LPC*%
G36*
X27431Y27431D02*
X27431Y27431D01*
X27431Y34545D01*
X29188Y34545D01*
X34545Y29188D01*
X34545Y27431D01*
X27431Y27431D01*
G37*
%LPD*%
%LPC*%
G36*
X454405Y681481D02*
X454405Y681481D01*
X454405Y683238D01*
X459762Y688595D01*
X461519Y688595D01*
X461519Y681481D01*
X454405Y681481D01*
G37*
%LPD*%
%LPC*%
G36*
X390905Y770381D02*
X390905Y770381D01*
X390905Y772138D01*
X396262Y777495D01*
X398019Y777495D01*
X398019Y770381D01*
X390905Y770381D01*
G37*
%LPD*%
%LPC*%
G36*
X27431Y16255D02*
X27431Y16255D01*
X27431Y23369D01*
X34545Y23369D01*
X34545Y21612D01*
X29188Y16255D01*
X27431Y16255D01*
G37*
%LPD*%
%LPC*%
G36*
X402081Y759205D02*
X402081Y759205D01*
X402081Y766319D01*
X409195Y766319D01*
X409195Y764562D01*
X403838Y759205D01*
X402081Y759205D01*
G37*
%LPD*%
%LPC*%
G36*
X251205Y719581D02*
X251205Y719581D01*
X251205Y721338D01*
X256562Y726695D01*
X258319Y726695D01*
X258319Y719581D01*
X251205Y719581D01*
G37*
%LPD*%
%LPC*%
G36*
X16255Y27431D02*
X16255Y27431D01*
X16255Y29188D01*
X21612Y34545D01*
X23369Y34545D01*
X23369Y27431D01*
X16255Y27431D01*
G37*
%LPD*%
%LPC*%
G36*
X21612Y16255D02*
X21612Y16255D01*
X16255Y21612D01*
X16255Y23369D01*
X23369Y23369D01*
X23369Y16255D01*
X21612Y16255D01*
G37*
%LPD*%
%LPC*%
G36*
X396262Y759205D02*
X396262Y759205D01*
X390905Y764562D01*
X390905Y766319D01*
X398019Y766319D01*
X398019Y759205D01*
X396262Y759205D01*
G37*
%LPD*%
%LPC*%
G36*
X459762Y670305D02*
X459762Y670305D01*
X454405Y675662D01*
X454405Y677419D01*
X461519Y677419D01*
X461519Y670305D01*
X459762Y670305D01*
G37*
%LPD*%
D10*
X349250Y673100D03*
X273050Y673100D03*
D11*
X349250Y641350D03*
X349250Y565150D03*
X25400Y349250D03*
X25400Y273050D03*
D12*
X25400Y25400D03*
X25400Y101600D03*
X298450Y527050D03*
X298450Y603250D03*
D13*
X95250Y165900D03*
X95250Y250900D03*
X95250Y280900D03*
X387350Y165900D03*
X387350Y250900D03*
X387350Y280900D03*
X95250Y26200D03*
X95250Y111200D03*
X95250Y141200D03*
X241300Y165900D03*
X241300Y250900D03*
X241300Y280900D03*
X241300Y26200D03*
X241300Y111200D03*
X241300Y141200D03*
X431800Y926300D03*
X431800Y841300D03*
X431800Y811300D03*
X76200Y621500D03*
X76200Y536500D03*
X76200Y506500D03*
D14*
X178200Y501500D03*
D15*
X203200Y501500D03*
X228200Y501500D03*
D16*
X248200Y571500D03*
X158200Y571500D03*
D14*
X216300Y895200D03*
D15*
X241300Y895200D03*
X266300Y895200D03*
D16*
X286300Y965200D03*
X196300Y965200D03*
D14*
X330600Y336400D03*
D15*
X355600Y336400D03*
X380600Y336400D03*
D16*
X400600Y406400D03*
X310600Y406400D03*
D14*
X76600Y704700D03*
D15*
X101600Y704700D03*
X126600Y704700D03*
D16*
X146600Y774700D03*
X56600Y774700D03*
D13*
X387350Y26200D03*
X387350Y111200D03*
X387350Y141200D03*
X76200Y456400D03*
X76200Y371400D03*
X76200Y341400D03*
D14*
X178200Y336400D03*
D15*
X203200Y336400D03*
X228200Y336400D03*
D16*
X248200Y406400D03*
X158200Y406400D03*
D17*
X298450Y812800D03*
X374650Y812800D03*
D10*
X279400Y311150D03*
X203200Y311150D03*
D12*
X177800Y717550D03*
X177800Y793750D03*
D10*
X266700Y863600D03*
X190500Y863600D03*
X266700Y838200D03*
X190500Y838200D03*
X266700Y812800D03*
X190500Y812800D03*
D18*
X449580Y254000D02*
X464820Y254000D01*
X464820Y228600D02*
X449580Y228600D01*
X449580Y203200D02*
X464820Y203200D01*
X464820Y177800D02*
X449580Y177800D01*
X449580Y152400D02*
X464820Y152400D01*
X464820Y127000D02*
X449580Y127000D01*
D19*
X292100Y698810D02*
X292100Y710890D01*
X317500Y710890D02*
X317500Y698810D01*
X342900Y698810D02*
X342900Y710890D01*
X368300Y710890D02*
X368300Y698810D01*
X368300Y775010D02*
X368300Y787090D01*
X342900Y787090D02*
X342900Y775010D01*
X317500Y775010D02*
X317500Y787090D01*
X292100Y787090D02*
X292100Y775010D01*
D12*
X177800Y215900D03*
X177800Y292100D03*
X25400Y165100D03*
X25400Y241300D03*
X317500Y215900D03*
X317500Y292100D03*
D11*
X260350Y768350D03*
X260350Y717550D03*
D12*
X400050Y717550D03*
X400050Y768350D03*
D13*
X431800Y621500D03*
X431800Y536500D03*
X431800Y506500D03*
D10*
X450850Y654050D03*
X400050Y654050D03*
X463550Y679450D03*
X387350Y679450D03*
D18*
X33020Y933450D02*
X17780Y933450D01*
X17780Y908050D02*
X33020Y908050D01*
X33020Y882650D02*
X17780Y882650D01*
X17780Y857250D02*
X33020Y857250D01*
X33020Y831850D02*
X17780Y831850D01*
D20*
X25400Y908050D02*
X88900Y908050D01*
X215900Y908050D01*
X215900Y895200D01*
X216300Y895200D01*
X215900Y908050D02*
X228600Y920750D01*
X273050Y920750D01*
X285750Y908050D01*
X285750Y844550D01*
X298450Y831850D01*
X381000Y831850D01*
X393700Y819150D01*
X393700Y787400D02*
X381000Y774700D01*
X381000Y736600D02*
X400050Y717550D01*
X393700Y787400D02*
X393700Y819150D01*
X381000Y774700D02*
X381000Y736600D01*
X368300Y736600D01*
X368300Y704850D01*
X368300Y736600D02*
X298450Y736600D01*
X254000Y692150D02*
X254000Y615950D01*
X425450Y355600D02*
X387350Y317500D01*
X342900Y317500D01*
X330200Y330200D01*
X330200Y336400D01*
X330600Y336400D01*
X254000Y692150D02*
X298450Y736600D01*
X254000Y615950D02*
X279400Y590550D01*
X279400Y520700D01*
X342900Y457200D01*
X400050Y457200D01*
X425450Y431800D01*
X425450Y355600D01*
X76600Y704700D02*
X76600Y704850D01*
X76200Y717550D01*
X88900Y730250D01*
X88900Y908050D01*
X25400Y831850D02*
X25400Y692150D01*
X38100Y679450D01*
X114300Y679450D01*
X127000Y692150D01*
X127000Y704700D01*
X126600Y704700D02*
X126600Y704850D01*
X127000Y704850D01*
X196850Y704850D02*
X260350Y768350D01*
X260350Y781050D02*
X292100Y781050D01*
X260350Y781050D02*
X260350Y768350D01*
X260350Y781050D02*
X247650Y793750D01*
X247650Y869950D01*
X266700Y889000D01*
X266700Y895200D01*
X266300Y895200D01*
X127000Y704700D02*
X126600Y704700D01*
X127000Y704850D02*
X196850Y704850D01*
X196850Y565150D02*
X323850Y438150D01*
X342900Y438150D01*
X368300Y412750D01*
X368300Y368300D01*
X381000Y355600D01*
X381000Y336400D01*
X380600Y336400D01*
X127000Y704700D02*
X127000Y704850D01*
X196850Y704850D02*
X196850Y565150D01*
D21*
X419100Y152400D02*
X457200Y152400D01*
D22*
X419100Y152400D03*
D21*
X361950Y527050D02*
X368300Y533400D01*
X361950Y527050D02*
X298450Y527050D01*
D22*
X368300Y533400D03*
D21*
X342900Y228600D02*
X457200Y228600D01*
X342900Y228600D02*
X336550Y234950D01*
X298450Y234950D01*
X292100Y228600D01*
D22*
X292100Y228600D03*
D21*
X158750Y177800D02*
X457200Y177800D01*
D22*
X158750Y177800D03*
D21*
X25400Y215900D02*
X25400Y241300D01*
X25400Y215900D02*
X38100Y203200D01*
X457200Y203200D01*
X241300Y165900D02*
X240500Y165100D01*
X177800Y165100D01*
D22*
X177800Y165100D03*
D21*
X317500Y158750D02*
X381000Y158750D01*
X381038Y158415D01*
X387350Y165100D02*
X387350Y165900D01*
X387350Y165100D02*
X381038Y158415D01*
D22*
X317500Y158750D03*
D21*
X100800Y165100D02*
X95250Y165900D01*
X100800Y165100D02*
X25400Y165100D01*
M02*
