M48
;GenerationSoftware,Autodesk,EAGLE,9.6.2*%
;CreationDate,2022-05-04T14:08:05Z*%
FMAT,2
ICI,OFF
METRIC,TZ,000.000
T7C0.350
T6C0.700
T5C0.813
T4C1.016
T3C1.100
T2C2.100
T1C3.200
%
G90
M71
T1
X34925Y93980
T2
X31060Y40640
X40060Y40640
X19630Y96520
X28630Y96520
X15820Y40640
X24820Y40640
X15820Y57150
X24820Y57150
X14660Y77470
X5660Y77470
T3
X7620Y37140
X7620Y45640
X38735Y14120
X38735Y11120
X7620Y34140
X17820Y33640
X9525Y16590
X9525Y25090
X9525Y28090
X38735Y16590
X38735Y25090
X38735Y28090
X9525Y2620
X9525Y11120
X9525Y14120
X24130Y16590
X24130Y25090
X24130Y28090
X24130Y2620
X24130Y11120
X24130Y14120
X43180Y92630
X43180Y84130
X43180Y81130
X7620Y62150
X7620Y53650
X7620Y50650
X17820Y50150
X20320Y50150
X22820Y50150
X20320Y33640
X22820Y33640
X21630Y89520
X24130Y89520
X26630Y89520
X43180Y62150
X43180Y53650
X33060Y33640
X35560Y33640
X38060Y33640
X43180Y50650
X38735Y2620
X7660Y70470
X10160Y70470
X12660Y70470
T4
X2540Y83185
X2540Y93345
X2540Y90805
X45720Y12700
X45720Y15240
X45720Y17780
X45720Y20320
X45720Y22860
X45720Y25400
X2540Y88265
X2540Y85725
T5
X34925Y67310
X27305Y67310
X29845Y81280
X37465Y81280
X27940Y31115
X20320Y31115
X17780Y71755
X17780Y79375
X26670Y86360
X19050Y86360
X26670Y83820
X19050Y83820
X26670Y81280
X19050Y81280
X34925Y64135
X34925Y56515
X2540Y34925
X2540Y27305
X2540Y2540
X2540Y10160
X29845Y60325
X29845Y52705
X38735Y67945
X46355Y67945
X40005Y65405
X45085Y65405
X40005Y76835
X40005Y71755
X17780Y21590
X17780Y29210
X2540Y16510
X2540Y24130
X31750Y21590
X31750Y29210
X26035Y76835
X26035Y71755
T6
X29210Y78105
X31750Y78105
X34290Y78105
X36830Y78105
X36830Y70485
X34290Y70485
X31750Y70485
X29210Y70485
T7
X15875Y17780
X29210Y22860
X36830Y53340
X17780Y16510
X31750Y15875
X41910Y15240
M30